G04 #@! TF.GenerationSoftware,KiCad,Pcbnew,(5.0.1-3-g963ef8bb5)*
G04 #@! TF.CreationDate,2019-01-31T04:05:24+09:00*
G04 #@! TF.ProjectId,mykeyboard,6D796B6579626F6172642E6B69636164,rev?*
G04 #@! TF.SameCoordinates,Original*
G04 #@! TF.FileFunction,Copper,L2,Bot,Signal*
G04 #@! TF.FilePolarity,Positive*
%FSLAX46Y46*%
G04 Gerber Fmt 4.6, Leading zero omitted, Abs format (unit mm)*
G04 Created by KiCad (PCBNEW (5.0.1-3-g963ef8bb5)) date 2019 January 31, Thursday 04:05:24*
%MOMM*%
%LPD*%
G01*
G04 APERTURE LIST*
G04 #@! TA.AperFunction,WasherPad*
%ADD10C,5.000000*%
G04 #@! TD*
G04 #@! TA.AperFunction,SMDPad,CuDef*
%ADD11C,2.500000*%
G04 #@! TD*
G04 #@! TA.AperFunction,Conductor*
%ADD12C,2.500000*%
G04 #@! TD*
G04 #@! TA.AperFunction,ComponentPad*
%ADD13C,2.000000*%
G04 #@! TD*
G04 #@! TA.AperFunction,ComponentPad*
%ADD14C,1.752600*%
G04 #@! TD*
G04 #@! TA.AperFunction,ComponentPad*
%ADD15R,1.752600X1.752600*%
G04 #@! TD*
G04 #@! TA.AperFunction,SMDPad,CuDef*
%ADD16R,0.950000X1.300000*%
G04 #@! TD*
G04 #@! TA.AperFunction,ComponentPad*
%ADD17C,1.397000*%
G04 #@! TD*
G04 #@! TA.AperFunction,ComponentPad*
%ADD18R,1.397000X1.397000*%
G04 #@! TD*
G04 #@! TA.AperFunction,SMDPad,CuDef*
%ADD19R,1.600000X1.000000*%
G04 #@! TD*
G04 #@! TA.AperFunction,SMDPad,CuDef*
%ADD20R,1.524000X1.524000*%
G04 #@! TD*
G04 #@! TA.AperFunction,ComponentPad*
%ADD21O,1.700000X2.500000*%
G04 #@! TD*
G04 #@! TA.AperFunction,ComponentPad*
%ADD22C,2.100000*%
G04 #@! TD*
G04 #@! TA.AperFunction,ComponentPad*
%ADD23C,1.750000*%
G04 #@! TD*
G04 #@! TA.AperFunction,ViaPad*
%ADD24C,0.800000*%
G04 #@! TD*
G04 #@! TA.AperFunction,Conductor*
%ADD25C,0.250000*%
G04 #@! TD*
G04 #@! TA.AperFunction,Conductor*
%ADD26C,0.500000*%
G04 #@! TD*
G04 #@! TA.AperFunction,Conductor*
%ADD27C,0.254000*%
G04 #@! TD*
G04 APERTURE END LIST*
D10*
G04 #@! TO.P,Ref\002A\002A,*
G04 #@! TO.N,*
X187960000Y-80010000D03*
G04 #@! TD*
G04 #@! TO.P,Ref\002A\002A,*
G04 #@! TO.N,*
X187960000Y-124460000D03*
G04 #@! TD*
G04 #@! TO.P,Ref\002A\002A,*
G04 #@! TO.N,*
X111760000Y-124460000D03*
G04 #@! TD*
G04 #@! TO.P,Ref\002A\002A,*
G04 #@! TO.N,*
X111760000Y-80010000D03*
G04 #@! TD*
D11*
G04 #@! TO.P,SW4,2*
G04 #@! TO.N,Net-(D4-Pad1)*
X139680000Y-110780000D03*
D12*
G04 #@! TD*
G04 #@! TO.N,Net-(D4-Pad1)*
G04 #@! TO.C,SW4*
X139699999Y-110490000D02*
X139660001Y-111070000D01*
D13*
G04 #@! TO.P,SW4,1*
G04 #@! TO.N,col1*
X134620000Y-110490000D03*
X134660000Y-111070000D03*
D11*
X134640000Y-110780000D03*
D12*
G04 #@! TD*
G04 #@! TO.N,col1*
G04 #@! TO.C,SW4*
X134620001Y-110490000D02*
X134659999Y-111070000D01*
D13*
G04 #@! TO.P,SW4,2*
G04 #@! TO.N,Net-(D4-Pad1)*
X140970000Y-113030000D03*
X139660000Y-111570000D03*
D11*
G04 #@! TO.P,SW4,1*
G04 #@! TO.N,col1*
X134005000Y-112300000D03*
D12*
G04 #@! TD*
G04 #@! TO.N,col1*
G04 #@! TO.C,SW4*
X133350005Y-113030004D02*
X134659995Y-111569996D01*
D11*
G04 #@! TO.P,SW4,2*
G04 #@! TO.N,Net-(D4-Pad1)*
X140315000Y-112300000D03*
D12*
G04 #@! TD*
G04 #@! TO.N,Net-(D4-Pad1)*
G04 #@! TO.C,SW4*
X140969995Y-113030004D02*
X139660005Y-111569996D01*
D13*
G04 #@! TO.P,SW4,1*
G04 #@! TO.N,col1*
X133350000Y-113030000D03*
X134660000Y-111570000D03*
G04 #@! TO.P,SW4,2*
G04 #@! TO.N,Net-(D4-Pad1)*
X139700000Y-110490000D03*
X139660000Y-111070000D03*
G04 #@! TD*
D14*
G04 #@! TO.P,U1,24*
G04 #@! TO.N,Net-(U1-Pad24)*
X163830000Y-76200000D03*
G04 #@! TO.P,U1,12*
G04 #@! TO.N,Net-(U1-Pad12)*
X148590000Y-104140000D03*
G04 #@! TO.P,U1,23*
G04 #@! TO.N,GND*
X163830000Y-78740000D03*
G04 #@! TO.P,U1,22*
G04 #@! TO.N,reset*
X163830000Y-81280000D03*
G04 #@! TO.P,U1,21*
G04 #@! TO.N,VCC*
X163830000Y-83820000D03*
G04 #@! TO.P,U1,20*
G04 #@! TO.N,col0*
X163830000Y-86360000D03*
G04 #@! TO.P,U1,19*
G04 #@! TO.N,col1*
X163830000Y-88900000D03*
G04 #@! TO.P,U1,18*
G04 #@! TO.N,col2*
X163830000Y-91440000D03*
G04 #@! TO.P,U1,17*
G04 #@! TO.N,col3*
X163830000Y-93980000D03*
G04 #@! TO.P,U1,16*
G04 #@! TO.N,Net-(U1-Pad16)*
X163830000Y-96520000D03*
G04 #@! TO.P,U1,15*
G04 #@! TO.N,Net-(U1-Pad15)*
X163830000Y-99060000D03*
G04 #@! TO.P,U1,14*
G04 #@! TO.N,Net-(U1-Pad14)*
X163830000Y-101600000D03*
G04 #@! TO.P,U1,13*
G04 #@! TO.N,Net-(U1-Pad13)*
X163830000Y-104140000D03*
G04 #@! TO.P,U1,11*
G04 #@! TO.N,Net-(U1-Pad11)*
X148590000Y-101600000D03*
G04 #@! TO.P,U1,10*
G04 #@! TO.N,Net-(U1-Pad10)*
X148590000Y-99060000D03*
G04 #@! TO.P,U1,9*
G04 #@! TO.N,Net-(U1-Pad9)*
X148590000Y-96520000D03*
G04 #@! TO.P,U1,8*
G04 #@! TO.N,row1*
X148590000Y-93980000D03*
G04 #@! TO.P,U1,7*
G04 #@! TO.N,row0*
X148590000Y-91440000D03*
G04 #@! TO.P,U1,6*
G04 #@! TO.N,Net-(U1-Pad6)*
X148590000Y-88900000D03*
G04 #@! TO.P,U1,5*
G04 #@! TO.N,Net-(U1-Pad5)*
X148590000Y-86360000D03*
G04 #@! TO.P,U1,4*
G04 #@! TO.N,GND*
X148590000Y-83820000D03*
G04 #@! TO.P,U1,3*
X148590000Y-81280000D03*
G04 #@! TO.P,U1,2*
G04 #@! TO.N,data*
X148590000Y-78740000D03*
D15*
G04 #@! TO.P,U1,1*
G04 #@! TO.N,led*
X148590000Y-76200000D03*
G04 #@! TD*
G04 #@! TO.P,U1,1*
G04 #@! TO.N,led*
X144780000Y-76200000D03*
D14*
G04 #@! TO.P,U1,2*
G04 #@! TO.N,data*
X144780000Y-78740000D03*
G04 #@! TO.P,U1,3*
G04 #@! TO.N,GND*
X144780000Y-81280000D03*
G04 #@! TO.P,U1,4*
X144780000Y-83820000D03*
G04 #@! TO.P,U1,5*
G04 #@! TO.N,Net-(U1-Pad5)*
X144780000Y-86360000D03*
G04 #@! TO.P,U1,6*
G04 #@! TO.N,Net-(U1-Pad6)*
X144780000Y-88900000D03*
G04 #@! TO.P,U1,7*
G04 #@! TO.N,row0*
X144780000Y-91440000D03*
G04 #@! TO.P,U1,8*
G04 #@! TO.N,row1*
X144780000Y-93980000D03*
G04 #@! TO.P,U1,9*
G04 #@! TO.N,Net-(U1-Pad9)*
X144780000Y-96520000D03*
G04 #@! TO.P,U1,10*
G04 #@! TO.N,Net-(U1-Pad10)*
X144780000Y-99060000D03*
G04 #@! TO.P,U1,11*
G04 #@! TO.N,Net-(U1-Pad11)*
X144780000Y-101600000D03*
G04 #@! TO.P,U1,13*
G04 #@! TO.N,Net-(U1-Pad13)*
X129540000Y-104140000D03*
G04 #@! TO.P,U1,14*
G04 #@! TO.N,Net-(U1-Pad14)*
X129540000Y-101600000D03*
G04 #@! TO.P,U1,15*
G04 #@! TO.N,Net-(U1-Pad15)*
X129540000Y-99060000D03*
G04 #@! TO.P,U1,16*
G04 #@! TO.N,Net-(U1-Pad16)*
X129540000Y-96520000D03*
G04 #@! TO.P,U1,17*
G04 #@! TO.N,col3*
X129540000Y-93980000D03*
G04 #@! TO.P,U1,18*
G04 #@! TO.N,col2*
X129540000Y-91440000D03*
G04 #@! TO.P,U1,19*
G04 #@! TO.N,col1*
X129540000Y-88900000D03*
G04 #@! TO.P,U1,20*
G04 #@! TO.N,col0*
X129540000Y-86360000D03*
G04 #@! TO.P,U1,21*
G04 #@! TO.N,VCC*
X129540000Y-83820000D03*
G04 #@! TO.P,U1,22*
G04 #@! TO.N,reset*
X129540000Y-81280000D03*
G04 #@! TO.P,U1,23*
G04 #@! TO.N,GND*
X129540000Y-78740000D03*
G04 #@! TO.P,U1,12*
G04 #@! TO.N,Net-(U1-Pad12)*
X144780000Y-104140000D03*
G04 #@! TO.P,U1,24*
G04 #@! TO.N,Net-(U1-Pad24)*
X129540000Y-76200000D03*
G04 #@! TD*
D11*
G04 #@! TO.P,SW8,2*
G04 #@! TO.N,Net-(D8-Pad1)*
X177780000Y-110780000D03*
D12*
G04 #@! TD*
G04 #@! TO.N,Net-(D8-Pad1)*
G04 #@! TO.C,SW8*
X177799999Y-110490000D02*
X177760001Y-111070000D01*
D13*
G04 #@! TO.P,SW8,1*
G04 #@! TO.N,col3*
X172720000Y-110490000D03*
X172760000Y-111070000D03*
D11*
X172740000Y-110780000D03*
D12*
G04 #@! TD*
G04 #@! TO.N,col3*
G04 #@! TO.C,SW8*
X172720001Y-110490000D02*
X172759999Y-111070000D01*
D13*
G04 #@! TO.P,SW8,2*
G04 #@! TO.N,Net-(D8-Pad1)*
X179070000Y-113030000D03*
X177760000Y-111570000D03*
D11*
G04 #@! TO.P,SW8,1*
G04 #@! TO.N,col3*
X172105000Y-112300000D03*
D12*
G04 #@! TD*
G04 #@! TO.N,col3*
G04 #@! TO.C,SW8*
X171450005Y-113030004D02*
X172759995Y-111569996D01*
D11*
G04 #@! TO.P,SW8,2*
G04 #@! TO.N,Net-(D8-Pad1)*
X178415000Y-112300000D03*
D12*
G04 #@! TD*
G04 #@! TO.N,Net-(D8-Pad1)*
G04 #@! TO.C,SW8*
X179069995Y-113030004D02*
X177760005Y-111569996D01*
D13*
G04 #@! TO.P,SW8,1*
G04 #@! TO.N,col3*
X171450000Y-113030000D03*
X172760000Y-111570000D03*
G04 #@! TO.P,SW8,2*
G04 #@! TO.N,Net-(D8-Pad1)*
X177800000Y-110490000D03*
X177760000Y-111070000D03*
G04 #@! TD*
G04 #@! TO.P,SW7,2*
G04 #@! TO.N,Net-(D7-Pad1)*
X177760000Y-92020000D03*
X177800000Y-91440000D03*
G04 #@! TO.P,SW7,1*
G04 #@! TO.N,col3*
X172760000Y-92520000D03*
X171450000Y-93980000D03*
D11*
G04 #@! TO.P,SW7,2*
G04 #@! TO.N,Net-(D7-Pad1)*
X178415000Y-93250000D03*
D12*
G04 #@! TD*
G04 #@! TO.N,Net-(D7-Pad1)*
G04 #@! TO.C,SW7*
X179069995Y-93980004D02*
X177760005Y-92519996D01*
D11*
G04 #@! TO.P,SW7,1*
G04 #@! TO.N,col3*
X172105000Y-93250000D03*
D12*
G04 #@! TD*
G04 #@! TO.N,col3*
G04 #@! TO.C,SW7*
X171450005Y-93980004D02*
X172759995Y-92519996D01*
D13*
G04 #@! TO.P,SW7,2*
G04 #@! TO.N,Net-(D7-Pad1)*
X177760000Y-92520000D03*
X179070000Y-93980000D03*
D11*
G04 #@! TO.P,SW7,1*
G04 #@! TO.N,col3*
X172740000Y-91730000D03*
D12*
G04 #@! TD*
G04 #@! TO.N,col3*
G04 #@! TO.C,SW7*
X172720001Y-91440000D02*
X172759999Y-92020000D01*
D13*
G04 #@! TO.P,SW7,1*
G04 #@! TO.N,col3*
X172760000Y-92020000D03*
X172720000Y-91440000D03*
D11*
G04 #@! TO.P,SW7,2*
G04 #@! TO.N,Net-(D7-Pad1)*
X177780000Y-91730000D03*
D12*
G04 #@! TD*
G04 #@! TO.N,Net-(D7-Pad1)*
G04 #@! TO.C,SW7*
X177799999Y-91440000D02*
X177760001Y-92020000D01*
D11*
G04 #@! TO.P,SW6,2*
G04 #@! TO.N,Net-(D6-Pad1)*
X158730000Y-110780000D03*
D12*
G04 #@! TD*
G04 #@! TO.N,Net-(D6-Pad1)*
G04 #@! TO.C,SW6*
X158749999Y-110490000D02*
X158710001Y-111070000D01*
D13*
G04 #@! TO.P,SW6,1*
G04 #@! TO.N,col2*
X153670000Y-110490000D03*
X153710000Y-111070000D03*
D11*
X153690000Y-110780000D03*
D12*
G04 #@! TD*
G04 #@! TO.N,col2*
G04 #@! TO.C,SW6*
X153670001Y-110490000D02*
X153709999Y-111070000D01*
D13*
G04 #@! TO.P,SW6,2*
G04 #@! TO.N,Net-(D6-Pad1)*
X160020000Y-113030000D03*
X158710000Y-111570000D03*
D11*
G04 #@! TO.P,SW6,1*
G04 #@! TO.N,col2*
X153055000Y-112300000D03*
D12*
G04 #@! TD*
G04 #@! TO.N,col2*
G04 #@! TO.C,SW6*
X152400005Y-113030004D02*
X153709995Y-111569996D01*
D11*
G04 #@! TO.P,SW6,2*
G04 #@! TO.N,Net-(D6-Pad1)*
X159365000Y-112300000D03*
D12*
G04 #@! TD*
G04 #@! TO.N,Net-(D6-Pad1)*
G04 #@! TO.C,SW6*
X160019995Y-113030004D02*
X158710005Y-111569996D01*
D13*
G04 #@! TO.P,SW6,1*
G04 #@! TO.N,col2*
X152400000Y-113030000D03*
X153710000Y-111570000D03*
G04 #@! TO.P,SW6,2*
G04 #@! TO.N,Net-(D6-Pad1)*
X158750000Y-110490000D03*
X158710000Y-111070000D03*
G04 #@! TD*
G04 #@! TO.P,SW5,2*
G04 #@! TO.N,Net-(D5-Pad1)*
X158710000Y-92020000D03*
X158750000Y-91440000D03*
G04 #@! TO.P,SW5,1*
G04 #@! TO.N,col2*
X153710000Y-92520000D03*
X152400000Y-93980000D03*
D11*
G04 #@! TO.P,SW5,2*
G04 #@! TO.N,Net-(D5-Pad1)*
X159365000Y-93250000D03*
D12*
G04 #@! TD*
G04 #@! TO.N,Net-(D5-Pad1)*
G04 #@! TO.C,SW5*
X160019995Y-93980004D02*
X158710005Y-92519996D01*
D11*
G04 #@! TO.P,SW5,1*
G04 #@! TO.N,col2*
X153055000Y-93250000D03*
D12*
G04 #@! TD*
G04 #@! TO.N,col2*
G04 #@! TO.C,SW5*
X152400005Y-93980004D02*
X153709995Y-92519996D01*
D13*
G04 #@! TO.P,SW5,2*
G04 #@! TO.N,Net-(D5-Pad1)*
X158710000Y-92520000D03*
X160020000Y-93980000D03*
D11*
G04 #@! TO.P,SW5,1*
G04 #@! TO.N,col2*
X153690000Y-91730000D03*
D12*
G04 #@! TD*
G04 #@! TO.N,col2*
G04 #@! TO.C,SW5*
X153670001Y-91440000D02*
X153709999Y-92020000D01*
D13*
G04 #@! TO.P,SW5,1*
G04 #@! TO.N,col2*
X153710000Y-92020000D03*
X153670000Y-91440000D03*
D11*
G04 #@! TO.P,SW5,2*
G04 #@! TO.N,Net-(D5-Pad1)*
X158730000Y-91730000D03*
D12*
G04 #@! TD*
G04 #@! TO.N,Net-(D5-Pad1)*
G04 #@! TO.C,SW5*
X158749999Y-91440000D02*
X158710001Y-92020000D01*
D13*
G04 #@! TO.P,SW3,2*
G04 #@! TO.N,Net-(D3-Pad1)*
X139660000Y-92020000D03*
X139700000Y-91440000D03*
G04 #@! TO.P,SW3,1*
G04 #@! TO.N,col1*
X134660000Y-92520000D03*
X133350000Y-93980000D03*
D11*
G04 #@! TO.P,SW3,2*
G04 #@! TO.N,Net-(D3-Pad1)*
X140315000Y-93250000D03*
D12*
G04 #@! TD*
G04 #@! TO.N,Net-(D3-Pad1)*
G04 #@! TO.C,SW3*
X140969995Y-93980004D02*
X139660005Y-92519996D01*
D11*
G04 #@! TO.P,SW3,1*
G04 #@! TO.N,col1*
X134005000Y-93250000D03*
D12*
G04 #@! TD*
G04 #@! TO.N,col1*
G04 #@! TO.C,SW3*
X133350005Y-93980004D02*
X134659995Y-92519996D01*
D13*
G04 #@! TO.P,SW3,2*
G04 #@! TO.N,Net-(D3-Pad1)*
X139660000Y-92520000D03*
X140970000Y-93980000D03*
D11*
G04 #@! TO.P,SW3,1*
G04 #@! TO.N,col1*
X134640000Y-91730000D03*
D12*
G04 #@! TD*
G04 #@! TO.N,col1*
G04 #@! TO.C,SW3*
X134620001Y-91440000D02*
X134659999Y-92020000D01*
D13*
G04 #@! TO.P,SW3,1*
G04 #@! TO.N,col1*
X134660000Y-92020000D03*
X134620000Y-91440000D03*
D11*
G04 #@! TO.P,SW3,2*
G04 #@! TO.N,Net-(D3-Pad1)*
X139680000Y-91730000D03*
D12*
G04 #@! TD*
G04 #@! TO.N,Net-(D3-Pad1)*
G04 #@! TO.C,SW3*
X139699999Y-91440000D02*
X139660001Y-92020000D01*
D11*
G04 #@! TO.P,SW2,2*
G04 #@! TO.N,Net-(D2-Pad1)*
X120630000Y-110780000D03*
D12*
G04 #@! TD*
G04 #@! TO.N,Net-(D2-Pad1)*
G04 #@! TO.C,SW2*
X120649999Y-110490000D02*
X120610001Y-111070000D01*
D13*
G04 #@! TO.P,SW2,1*
G04 #@! TO.N,col0*
X115570000Y-110490000D03*
X115610000Y-111070000D03*
D11*
X115590000Y-110780000D03*
D12*
G04 #@! TD*
G04 #@! TO.N,col0*
G04 #@! TO.C,SW2*
X115570001Y-110490000D02*
X115609999Y-111070000D01*
D13*
G04 #@! TO.P,SW2,2*
G04 #@! TO.N,Net-(D2-Pad1)*
X121920000Y-113030000D03*
X120610000Y-111570000D03*
D11*
G04 #@! TO.P,SW2,1*
G04 #@! TO.N,col0*
X114955000Y-112300000D03*
D12*
G04 #@! TD*
G04 #@! TO.N,col0*
G04 #@! TO.C,SW2*
X114300005Y-113030004D02*
X115609995Y-111569996D01*
D11*
G04 #@! TO.P,SW2,2*
G04 #@! TO.N,Net-(D2-Pad1)*
X121265000Y-112300000D03*
D12*
G04 #@! TD*
G04 #@! TO.N,Net-(D2-Pad1)*
G04 #@! TO.C,SW2*
X121919995Y-113030004D02*
X120610005Y-111569996D01*
D13*
G04 #@! TO.P,SW2,1*
G04 #@! TO.N,col0*
X114300000Y-113030000D03*
X115610000Y-111570000D03*
G04 #@! TO.P,SW2,2*
G04 #@! TO.N,Net-(D2-Pad1)*
X120650000Y-110490000D03*
X120610000Y-111070000D03*
G04 #@! TD*
G04 #@! TO.P,SW1,2*
G04 #@! TO.N,Net-(D1-Pad1)*
X120610000Y-92020000D03*
X120650000Y-91440000D03*
G04 #@! TO.P,SW1,1*
G04 #@! TO.N,col0*
X115610000Y-92520000D03*
X114300000Y-93980000D03*
D11*
G04 #@! TO.P,SW1,2*
G04 #@! TO.N,Net-(D1-Pad1)*
X121265000Y-93250000D03*
D12*
G04 #@! TD*
G04 #@! TO.N,Net-(D1-Pad1)*
G04 #@! TO.C,SW1*
X121919995Y-93980004D02*
X120610005Y-92519996D01*
D11*
G04 #@! TO.P,SW1,1*
G04 #@! TO.N,col0*
X114955000Y-93250000D03*
D12*
G04 #@! TD*
G04 #@! TO.N,col0*
G04 #@! TO.C,SW1*
X114300005Y-93980004D02*
X115609995Y-92519996D01*
D13*
G04 #@! TO.P,SW1,2*
G04 #@! TO.N,Net-(D1-Pad1)*
X120610000Y-92520000D03*
X121920000Y-93980000D03*
D11*
G04 #@! TO.P,SW1,1*
G04 #@! TO.N,col0*
X115590000Y-91730000D03*
D12*
G04 #@! TD*
G04 #@! TO.N,col0*
G04 #@! TO.C,SW1*
X115570001Y-91440000D02*
X115609999Y-92020000D01*
D13*
G04 #@! TO.P,SW1,1*
G04 #@! TO.N,col0*
X115610000Y-92020000D03*
X115570000Y-91440000D03*
D11*
G04 #@! TO.P,SW1,2*
G04 #@! TO.N,Net-(D1-Pad1)*
X120630000Y-91730000D03*
D12*
G04 #@! TD*
G04 #@! TO.N,Net-(D1-Pad1)*
G04 #@! TO.C,SW1*
X120649999Y-91440000D02*
X120610001Y-92020000D01*
D16*
G04 #@! TO.P,D8,2*
G04 #@! TO.N,row1*
X182880000Y-113795000D03*
D17*
X182880000Y-111760000D03*
D18*
G04 #@! TO.P,D8,1*
G04 #@! TO.N,Net-(D8-Pad1)*
X182880000Y-119380000D03*
D16*
X182880000Y-117345000D03*
G04 #@! TD*
G04 #@! TO.P,D7,1*
G04 #@! TO.N,Net-(D7-Pad1)*
X182880000Y-98295000D03*
D18*
X182880000Y-100330000D03*
D17*
G04 #@! TO.P,D7,2*
G04 #@! TO.N,row0*
X182880000Y-92710000D03*
D16*
X182880000Y-94745000D03*
G04 #@! TD*
G04 #@! TO.P,D6,2*
G04 #@! TO.N,row1*
X167640000Y-113795000D03*
D17*
X167640000Y-111760000D03*
D18*
G04 #@! TO.P,D6,1*
G04 #@! TO.N,Net-(D6-Pad1)*
X167640000Y-119380000D03*
D16*
X167640000Y-117345000D03*
G04 #@! TD*
G04 #@! TO.P,D5,1*
G04 #@! TO.N,Net-(D5-Pad1)*
X125730000Y-98295000D03*
D18*
X125730000Y-100330000D03*
D17*
G04 #@! TO.P,D5,2*
G04 #@! TO.N,row0*
X125730000Y-92710000D03*
D16*
X125730000Y-94745000D03*
G04 #@! TD*
G04 #@! TO.P,D4,1*
G04 #@! TO.N,Net-(D4-Pad1)*
X125730000Y-117345000D03*
D18*
X125730000Y-119380000D03*
D17*
G04 #@! TO.P,D4,2*
G04 #@! TO.N,row1*
X125730000Y-111760000D03*
D16*
X125730000Y-113795000D03*
G04 #@! TD*
G04 #@! TO.P,D3,1*
G04 #@! TO.N,Net-(D3-Pad1)*
X167640000Y-98295000D03*
D18*
X167640000Y-100330000D03*
D17*
G04 #@! TO.P,D3,2*
G04 #@! TO.N,row0*
X167640000Y-92710000D03*
D16*
X167640000Y-94745000D03*
G04 #@! TD*
G04 #@! TO.P,D2,2*
G04 #@! TO.N,row1*
X110490000Y-113795000D03*
D17*
X110490000Y-111760000D03*
D18*
G04 #@! TO.P,D2,1*
G04 #@! TO.N,Net-(D2-Pad1)*
X110490000Y-119380000D03*
D16*
X110490000Y-117345000D03*
G04 #@! TD*
G04 #@! TO.P,D1,1*
G04 #@! TO.N,Net-(D1-Pad1)*
X110490000Y-98295000D03*
D18*
X110490000Y-100330000D03*
D17*
G04 #@! TO.P,D1,2*
G04 #@! TO.N,row0*
X110490000Y-92710000D03*
D16*
X110490000Y-94745000D03*
G04 #@! TD*
D19*
G04 #@! TO.P,L8,2*
G04 #@! TO.N,GND*
X172860000Y-121525000D03*
G04 #@! TO.P,L8,1*
G04 #@! TO.N,Net-(L8-Pad1)*
X172860000Y-119775000D03*
G04 #@! TO.P,L8,4*
G04 #@! TO.N,VCC*
X177660000Y-119775000D03*
G04 #@! TO.P,L8,3*
G04 #@! TO.N,Net-(L6-Pad1)*
X177660000Y-121525000D03*
G04 #@! TD*
G04 #@! TO.P,L7,3*
G04 #@! TO.N,led*
X177660000Y-102475000D03*
G04 #@! TO.P,L7,4*
G04 #@! TO.N,VCC*
X177660000Y-100725000D03*
G04 #@! TO.P,L7,1*
G04 #@! TO.N,Net-(L5-Pad3)*
X172860000Y-100725000D03*
G04 #@! TO.P,L7,2*
G04 #@! TO.N,GND*
X172860000Y-102475000D03*
G04 #@! TD*
G04 #@! TO.P,L6,2*
G04 #@! TO.N,GND*
X153810000Y-121525000D03*
G04 #@! TO.P,L6,1*
G04 #@! TO.N,Net-(L6-Pad1)*
X153810000Y-119775000D03*
G04 #@! TO.P,L6,4*
G04 #@! TO.N,VCC*
X158610000Y-119775000D03*
G04 #@! TO.P,L6,3*
G04 #@! TO.N,Net-(L4-Pad1)*
X158610000Y-121525000D03*
G04 #@! TD*
G04 #@! TO.P,L5,3*
G04 #@! TO.N,Net-(L5-Pad3)*
X158610000Y-102475000D03*
G04 #@! TO.P,L5,4*
G04 #@! TO.N,VCC*
X158610000Y-100725000D03*
G04 #@! TO.P,L5,1*
G04 #@! TO.N,Net-(L3-Pad3)*
X153810000Y-100725000D03*
G04 #@! TO.P,L5,2*
G04 #@! TO.N,GND*
X153810000Y-102475000D03*
G04 #@! TD*
G04 #@! TO.P,L4,2*
G04 #@! TO.N,GND*
X134760000Y-121525000D03*
G04 #@! TO.P,L4,1*
G04 #@! TO.N,Net-(L4-Pad1)*
X134760000Y-119775000D03*
G04 #@! TO.P,L4,4*
G04 #@! TO.N,VCC*
X139560000Y-119775000D03*
G04 #@! TO.P,L4,3*
G04 #@! TO.N,Net-(L2-Pad1)*
X139560000Y-121525000D03*
G04 #@! TD*
G04 #@! TO.P,L3,3*
G04 #@! TO.N,Net-(L3-Pad3)*
X139560000Y-102475000D03*
G04 #@! TO.P,L3,4*
G04 #@! TO.N,VCC*
X139560000Y-100725000D03*
G04 #@! TO.P,L3,1*
G04 #@! TO.N,Net-(L1-Pad3)*
X134760000Y-100725000D03*
G04 #@! TO.P,L3,2*
G04 #@! TO.N,GND*
X134760000Y-102475000D03*
G04 #@! TD*
G04 #@! TO.P,L2,2*
G04 #@! TO.N,GND*
X115710000Y-121525000D03*
G04 #@! TO.P,L2,1*
G04 #@! TO.N,Net-(L2-Pad1)*
X115710000Y-119775000D03*
G04 #@! TO.P,L2,4*
G04 #@! TO.N,VCC*
X120510000Y-119775000D03*
G04 #@! TO.P,L2,3*
G04 #@! TO.N,Net-(L1-Pad1)*
X120510000Y-121525000D03*
G04 #@! TD*
G04 #@! TO.P,L1,3*
G04 #@! TO.N,Net-(L1-Pad3)*
X120510000Y-102475000D03*
G04 #@! TO.P,L1,4*
G04 #@! TO.N,VCC*
X120510000Y-100725000D03*
G04 #@! TO.P,L1,1*
G04 #@! TO.N,Net-(L1-Pad1)*
X115710000Y-100725000D03*
G04 #@! TO.P,L1,2*
G04 #@! TO.N,GND*
X115710000Y-102475000D03*
G04 #@! TD*
D20*
G04 #@! TO.P,J2,1*
G04 #@! TO.N,VCC*
X147320000Y-119380000D03*
G04 #@! TO.P,J2,2*
G04 #@! TO.N,led*
X147320000Y-116840000D03*
G04 #@! TO.P,J2,3*
G04 #@! TO.N,GND*
X147320000Y-114300000D03*
G04 #@! TD*
D21*
G04 #@! TO.P,J1,A*
G04 #@! TO.N,Net-(J1-PadA)*
X174780000Y-86780000D03*
G04 #@! TO.P,J1,D*
G04 #@! TO.N,VCC*
X170580000Y-85280000D03*
G04 #@! TO.P,J1,C*
G04 #@! TO.N,GND*
X170580000Y-81280000D03*
G04 #@! TO.P,J1,B*
G04 #@! TO.N,data*
X170580000Y-78280000D03*
G04 #@! TO.P,J1,C*
G04 #@! TO.N,GND*
X176530000Y-81280000D03*
G04 #@! TO.P,J1,B*
G04 #@! TO.N,data*
X176530000Y-78280000D03*
G04 #@! TO.P,J1,A*
G04 #@! TO.N,Net-(J1-PadA)*
X172330000Y-86780000D03*
G04 #@! TO.P,J1,D*
G04 #@! TO.N,VCC*
X176530000Y-85280000D03*
G04 #@! TD*
D22*
G04 #@! TO.P,SW9,*
G04 #@! TO.N,*
X118450000Y-82500000D03*
D23*
G04 #@! TO.P,SW9,2*
G04 #@! TO.N,GND*
X119460000Y-80010000D03*
G04 #@! TO.P,SW9,1*
G04 #@! TO.N,reset*
X124460000Y-80010000D03*
D22*
G04 #@! TO.P,SW9,*
G04 #@! TO.N,*
X125460000Y-82500000D03*
G04 #@! TD*
D24*
G04 #@! TO.N,row0*
X151130000Y-88900000D03*
X158750000Y-87630000D03*
G04 #@! TO.N,row1*
X161290000Y-109220000D03*
X152400000Y-106066301D03*
X146050000Y-111760000D03*
X148590000Y-111760000D03*
G04 #@! TO.N,Net-(D3-Pad1)*
X151130000Y-85746301D03*
G04 #@! TO.N,VCC*
X180340000Y-99345000D03*
X162560000Y-106680000D03*
X161290000Y-100330000D03*
X175260000Y-106680000D03*
X180340000Y-118110000D03*
X163830000Y-115855000D03*
X144780000Y-116840000D03*
X142240000Y-120650000D03*
X118110000Y-119380000D03*
X118110000Y-88900000D03*
X142620246Y-100875000D03*
X118110000Y-104575000D03*
G04 #@! TO.N,GND*
X185420000Y-100330000D03*
X185420000Y-90170000D03*
X168910000Y-107950000D03*
X170415000Y-119380000D03*
X153670000Y-104140000D03*
X157480000Y-104140000D03*
X157480000Y-104140000D03*
X160020000Y-106680000D03*
X162560000Y-109220000D03*
X151130000Y-104140000D03*
X148590000Y-106680000D03*
X149860000Y-116840000D03*
X151635000Y-120650000D03*
X132080000Y-120650000D03*
X113030000Y-101600000D03*
X132211616Y-101731616D03*
X173990000Y-105829999D03*
X113265000Y-119380000D03*
X174159233Y-101642180D03*
G04 #@! TO.N,col0*
X115570000Y-106680000D03*
G04 #@! TO.N,col1*
X128270000Y-107950000D03*
G04 #@! TO.N,col2*
X153670000Y-87630000D03*
X149860000Y-107950000D03*
X156210000Y-100330000D03*
X133350000Y-87630000D03*
X160564999Y-86904999D03*
G04 #@! TO.N,col3*
X172720000Y-106680000D03*
G04 #@! TO.N,reset*
X152400000Y-82550000D03*
G04 #@! TO.N,Net-(U1-Pad15)*
X133350000Y-99060000D03*
X153973437Y-97833815D03*
X150980846Y-99209154D03*
G04 #@! TO.N,Net-(U1-Pad14)*
X136976459Y-105593541D03*
X139700000Y-104140000D03*
G04 #@! TO.N,Net-(U1-Pad13)*
X142240000Y-106680000D03*
X134620000Y-106680000D03*
G04 #@! TO.N,led*
X175260000Y-101600000D03*
X166370000Y-76200000D03*
X166370000Y-104140000D03*
G04 #@! TO.N,Net-(L1-Pad3)*
X122717348Y-102072652D03*
X131899999Y-100330000D03*
X137160000Y-100361625D03*
G04 #@! TO.N,Net-(L1-Pad1)*
X123190000Y-120650000D03*
X116840000Y-99060000D03*
G04 #@! TO.N,Net-(L2-Pad1)*
X127000000Y-124460000D03*
X119380000Y-124460000D03*
X134620000Y-124460000D03*
X137160000Y-120650000D03*
G04 #@! TO.N,Net-(L3-Pad3)*
X137160000Y-101600000D03*
X151130000Y-101600000D03*
G04 #@! TO.N,Net-(L4-Pad1)*
X133350000Y-123190000D03*
X155318026Y-118110000D03*
G04 #@! TO.N,Net-(L5-Pad3)*
X168228735Y-103306571D03*
X162560000Y-102870000D03*
G04 #@! TO.N,Net-(L6-Pad1)*
X175260000Y-120650000D03*
X168910000Y-124460000D03*
X158750000Y-124460000D03*
X153670000Y-118110000D03*
G04 #@! TO.N,Net-(L8-Pad1)*
X172720000Y-118110000D03*
G04 #@! TD*
D25*
G04 #@! TO.N,row0*
X110490000Y-95645000D02*
X110490000Y-94745000D01*
X110490000Y-95793002D02*
X110490000Y-95645000D01*
X112441999Y-97745001D02*
X110490000Y-95793002D01*
X113618001Y-97745001D02*
X112441999Y-97745001D01*
X116303724Y-95059278D02*
X113618001Y-97745001D01*
X116303724Y-94201099D02*
X116303724Y-95059278D01*
X119223073Y-94201099D02*
X116303724Y-94201099D01*
X120428901Y-95406927D02*
X119223073Y-94201099D01*
X120428901Y-96298901D02*
X120428901Y-95406927D01*
X121875001Y-97745001D02*
X120428901Y-96298901D01*
X123778001Y-97745001D02*
X121875001Y-97745001D01*
X125730000Y-95793002D02*
X123778001Y-97745001D01*
X125730000Y-92710000D02*
X125730000Y-95793002D01*
X110490000Y-94745000D02*
X110490000Y-92710000D01*
X148590000Y-91440000D02*
X144780000Y-91440000D01*
X158024999Y-88355001D02*
X158750000Y-87630000D01*
X151674999Y-88355001D02*
X158024999Y-88355001D01*
X151130000Y-88900000D02*
X151674999Y-88355001D01*
G04 #@! TO.N,Net-(D1-Pad1)*
X110490000Y-100330000D02*
X110490000Y-98295000D01*
X119610001Y-91520001D02*
X120610000Y-92520000D01*
X116840000Y-88900000D02*
X121920000Y-93980000D01*
X110490000Y-98120000D02*
X109466499Y-97096499D01*
X109466499Y-91193501D02*
X111760000Y-88900000D01*
X109466499Y-97096499D02*
X109466499Y-91193501D01*
X111760000Y-88900000D02*
X116840000Y-88900000D01*
X110490000Y-98295000D02*
X110490000Y-98120000D01*
G04 #@! TO.N,row1*
X158136301Y-106066301D02*
X152400000Y-106066301D01*
X161290000Y-109220000D02*
X158136301Y-106066301D01*
X125730000Y-111760000D02*
X130613002Y-111760000D01*
X151834315Y-106066301D02*
X152400000Y-106066301D01*
X148590000Y-107753002D02*
X150276701Y-106066301D01*
X150276701Y-106066301D02*
X151834315Y-106066301D01*
X148590000Y-111760000D02*
X148590000Y-107753002D01*
X130613002Y-111760000D02*
X130613002Y-110686998D01*
X130613002Y-110686998D02*
X133350000Y-107950000D01*
X133350000Y-107950000D02*
X140970000Y-107950000D01*
X144780000Y-111760000D02*
X146050000Y-111760000D01*
X140970000Y-107950000D02*
X144780000Y-111760000D01*
G04 #@! TO.N,Net-(D3-Pad1)*
X161300977Y-85746301D02*
X151130000Y-85746301D01*
X163253375Y-87698699D02*
X161300977Y-85746301D01*
X167640000Y-98295000D02*
X167640000Y-97395000D01*
X165031301Y-88323375D02*
X164406625Y-87698699D01*
X164406625Y-87698699D02*
X163253375Y-87698699D01*
X165031301Y-94786301D02*
X165031301Y-88323375D01*
X167640000Y-97395000D02*
X165031301Y-94786301D01*
D26*
G04 #@! TO.N,VCC*
X178960000Y-100725000D02*
X177660000Y-100725000D01*
X181731499Y-89131499D02*
X181731499Y-97953501D01*
X177880000Y-85280000D02*
X181731499Y-89131499D01*
X176530000Y-85280000D02*
X177880000Y-85280000D01*
X180340000Y-99345000D02*
X178960000Y-100725000D01*
X181731499Y-97953501D02*
X180340000Y-99345000D01*
X178910001Y-103335001D02*
X178105002Y-104140000D01*
X178910001Y-101675001D02*
X178910001Y-103335001D01*
X177960000Y-100725000D02*
X178910001Y-101675001D01*
X177660000Y-100725000D02*
X177960000Y-100725000D01*
X178105002Y-104140000D02*
X171450000Y-104140000D01*
X171450000Y-104140000D02*
X168910000Y-104140000D01*
X168910000Y-104140000D02*
X167640000Y-105410000D01*
X167640000Y-105410000D02*
X166370000Y-106680000D01*
X166370000Y-106680000D02*
X162560000Y-106680000D01*
X159005000Y-100330000D02*
X158610000Y-100725000D01*
X161290000Y-100330000D02*
X159005000Y-100330000D01*
X177960000Y-119775000D02*
X177660000Y-119775000D01*
X175260000Y-106680000D02*
X175260000Y-111953026D01*
X177703901Y-114396927D02*
X177703901Y-115473901D01*
X175260000Y-111953026D02*
X177703901Y-114396927D01*
X177703901Y-115473901D02*
X180340000Y-118110000D01*
X178675000Y-119775000D02*
X180340000Y-118110000D01*
X177660000Y-119775000D02*
X178675000Y-119775000D01*
X159910000Y-119775000D02*
X158610000Y-119775000D01*
X163830000Y-115855000D02*
X159910000Y-119775000D01*
X163830000Y-107950000D02*
X163830000Y-115855000D01*
X162560000Y-106680000D02*
X163830000Y-107950000D01*
X144780000Y-116840000D02*
X147320000Y-119380000D01*
X163830000Y-118415002D02*
X159055002Y-123190000D01*
X163830000Y-115855000D02*
X163830000Y-118415002D01*
X159055002Y-123190000D02*
X152400000Y-123190000D01*
X148590000Y-119380000D02*
X147320000Y-119380000D01*
X152400000Y-123190000D02*
X148590000Y-119380000D01*
X139955000Y-119380000D02*
X139560000Y-119775000D01*
X147320000Y-119380000D02*
X139955000Y-119380000D01*
X141365000Y-119775000D02*
X142240000Y-120650000D01*
X139560000Y-119775000D02*
X141365000Y-119775000D01*
X120553901Y-116743073D02*
X120553901Y-114065502D01*
X120553901Y-114065502D02*
X118110000Y-111621601D01*
X120510000Y-116786974D02*
X120553901Y-116743073D01*
X120510000Y-119775000D02*
X120510000Y-116786974D01*
X119210000Y-100725000D02*
X120510000Y-100725000D01*
X118110000Y-101825000D02*
X119210000Y-100725000D01*
X118505000Y-119775000D02*
X118110000Y-119380000D01*
X120510000Y-119775000D02*
X118505000Y-119775000D01*
X124460000Y-88900000D02*
X129540000Y-83820000D01*
X118110000Y-88900000D02*
X124460000Y-88900000D01*
X139710000Y-100875000D02*
X139560000Y-100725000D01*
X142620246Y-100875000D02*
X139710000Y-100875000D01*
X118110000Y-101825000D02*
X118110000Y-111621601D01*
D25*
G04 #@! TO.N,data*
X169480000Y-78280000D02*
X170580000Y-78280000D01*
X166674999Y-75474999D02*
X169480000Y-78280000D01*
X165644999Y-75851999D02*
X166021999Y-75474999D01*
X165644999Y-81242927D02*
X165644999Y-75851999D01*
X166021999Y-75474999D02*
X166674999Y-75474999D01*
X164337926Y-82550000D02*
X165644999Y-81242927D01*
X163322074Y-82550000D02*
X164337926Y-82550000D01*
X159512074Y-78740000D02*
X163322074Y-82550000D01*
X148590000Y-78740000D02*
X159512074Y-78740000D01*
D26*
G04 #@! TO.N,GND*
X185420000Y-90170000D02*
X176530000Y-81280000D01*
X172560000Y-121525000D02*
X172860000Y-121525000D01*
X168829999Y-114540003D02*
X168829999Y-117794999D01*
X168910000Y-114460002D02*
X168829999Y-114540003D01*
X168910000Y-107950000D02*
X168910000Y-114460002D01*
X170415000Y-119380000D02*
X172560000Y-121525000D01*
X168829999Y-117794999D02*
X170415000Y-119380000D01*
X153670000Y-102615000D02*
X153810000Y-102475000D01*
X153670000Y-104140000D02*
X153670000Y-102615000D01*
X153670000Y-104140000D02*
X157480000Y-104140000D01*
X160020000Y-106680000D02*
X162560000Y-109220000D01*
X153670000Y-104140000D02*
X151130000Y-104140000D01*
X147320000Y-107950000D02*
X147320000Y-114300000D01*
X148590000Y-106680000D02*
X147320000Y-107950000D01*
X147320000Y-114300000D02*
X149860000Y-116840000D01*
X152510000Y-121525000D02*
X153810000Y-121525000D01*
X149860000Y-116840000D02*
X149860000Y-118875000D01*
X151635000Y-120650000D02*
X152510000Y-121525000D01*
X149860000Y-118875000D02*
X151635000Y-120650000D01*
X132955000Y-121525000D02*
X134760000Y-121525000D01*
X132080000Y-120650000D02*
X132955000Y-121525000D01*
X115410000Y-121525000D02*
X115710000Y-121525000D01*
X111679999Y-107505001D02*
X111679999Y-117794999D01*
X115710000Y-103475000D02*
X111679999Y-107505001D01*
X115710000Y-102475000D02*
X115710000Y-103475000D01*
X135060000Y-102475000D02*
X134760000Y-102475000D01*
X113905000Y-102475000D02*
X115710000Y-102475000D01*
X113030000Y-101600000D02*
X113905000Y-102475000D01*
X134016616Y-101731616D02*
X134760000Y-102475000D01*
X132211616Y-101731616D02*
X134016616Y-101731616D01*
X171030001Y-105829999D02*
X168910000Y-107950000D01*
X185420000Y-100330000D02*
X179920001Y-105829999D01*
X173990000Y-105829999D02*
X171030001Y-105829999D01*
X179920001Y-105829999D02*
X173990000Y-105829999D01*
X135060000Y-102475000D02*
X137995000Y-105410000D01*
X137995000Y-105410000D02*
X139700000Y-105410000D01*
X146900001Y-107530001D02*
X147320000Y-107950000D01*
X141820001Y-107530001D02*
X146900001Y-107530001D01*
X139700000Y-105410000D02*
X141820001Y-107530001D01*
X113265000Y-119380000D02*
X115410000Y-121525000D01*
X111679999Y-117794999D02*
X113265000Y-119380000D01*
X173326413Y-102475000D02*
X174159233Y-101642180D01*
X172860000Y-102475000D02*
X173326413Y-102475000D01*
D25*
G04 #@! TO.N,col0*
X130416299Y-85483701D02*
X129540000Y-86360000D01*
X130878699Y-85021301D02*
X130416299Y-85483701D01*
X162491301Y-85021301D02*
X130878699Y-85021301D01*
X163830000Y-86360000D02*
X162491301Y-85021301D01*
X115570000Y-111530000D02*
X115610000Y-111570000D01*
X115570000Y-106680000D02*
X115570000Y-111530000D01*
G04 #@! TO.N,col1*
X133620001Y-90440001D02*
X134620000Y-91440000D01*
X132080000Y-88900000D02*
X133620001Y-90440001D01*
X129540000Y-88900000D02*
X132080000Y-88900000D01*
X132350001Y-92980001D02*
X133350000Y-93980000D01*
X128963375Y-92778699D02*
X132148699Y-92778699D01*
X132148699Y-92778699D02*
X132350001Y-92980001D01*
X128270000Y-93472074D02*
X128963375Y-92778699D01*
X128270000Y-107950000D02*
X128270000Y-93472074D01*
X151130000Y-90170000D02*
X152400000Y-88900000D01*
X142240000Y-90170000D02*
X151130000Y-90170000D01*
X140970000Y-88900000D02*
X142240000Y-90170000D01*
X162590725Y-88900000D02*
X163830000Y-88900000D01*
X152400000Y-88900000D02*
X162590725Y-88900000D01*
X129540000Y-88900000D02*
X140970000Y-88900000D01*
G04 #@! TO.N,col2*
X142171301Y-87698699D02*
X153601301Y-87698699D01*
X153601301Y-87698699D02*
X153670000Y-87630000D01*
X152337032Y-110780000D02*
X153690000Y-110780000D01*
X149860000Y-109105000D02*
X151535000Y-110780000D01*
X151535000Y-110780000D02*
X152337032Y-110780000D01*
X149860000Y-107950000D02*
X149860000Y-109105000D01*
X133418699Y-87698699D02*
X133350000Y-87630000D01*
X142171301Y-87698699D02*
X133418699Y-87698699D01*
X154395001Y-86904999D02*
X160564999Y-86904999D01*
X153670000Y-87630000D02*
X154395001Y-86904999D01*
G04 #@! TO.N,col3*
X153670000Y-95628026D02*
X155318026Y-93980000D01*
X153670000Y-95793002D02*
X153670000Y-95628026D01*
X151718001Y-97745001D02*
X153670000Y-95793002D01*
X149904999Y-97108001D02*
X150541999Y-97745001D01*
X149904999Y-95919675D02*
X149904999Y-97108001D01*
X149166625Y-95181301D02*
X149904999Y-95919675D01*
X144340773Y-95181301D02*
X149166625Y-95181301D01*
X143578699Y-95943375D02*
X144340773Y-95181301D01*
X143578699Y-96994303D02*
X143578699Y-95943375D01*
X142828001Y-97745001D02*
X143578699Y-96994303D01*
X150541999Y-97745001D02*
X151718001Y-97745001D01*
X131491999Y-97745001D02*
X132668001Y-97745001D01*
X130854999Y-97108001D02*
X131491999Y-97745001D01*
X130854999Y-95294999D02*
X130854999Y-97108001D01*
X129540000Y-93980000D02*
X130854999Y-95294999D01*
X172720000Y-106680000D02*
X172720000Y-110490000D01*
X141651999Y-97745001D02*
X142828001Y-97745001D01*
X141014999Y-97108001D02*
X141651999Y-97745001D01*
X141014999Y-96564999D02*
X141014999Y-97108001D01*
X138651099Y-94201099D02*
X141014999Y-96564999D01*
X136046927Y-94201099D02*
X138651099Y-94201099D01*
X133305001Y-96943025D02*
X136046927Y-94201099D01*
X133305001Y-97108001D02*
X133305001Y-96943025D01*
X132668001Y-97745001D02*
X133305001Y-97108001D01*
X162953701Y-94856299D02*
X163830000Y-93980000D01*
X162628699Y-95181301D02*
X162953701Y-94856299D01*
X162628699Y-97084891D02*
X162628699Y-95181301D01*
X161923590Y-97790000D02*
X162628699Y-97084891D01*
X160746998Y-97790000D02*
X161923590Y-97790000D01*
X160064999Y-97108001D02*
X160746998Y-97790000D01*
X160064999Y-96943025D02*
X160064999Y-97108001D01*
X157101974Y-93980000D02*
X160064999Y-96943025D01*
X155318026Y-93980000D02*
X157101974Y-93980000D01*
G04 #@! TO.N,reset*
X144272074Y-82550000D02*
X152400000Y-82550000D01*
X130810000Y-82550000D02*
X144272074Y-82550000D01*
X129540000Y-81280000D02*
X130810000Y-82550000D01*
G04 #@! TO.N,Net-(U1-Pad24)*
X162953701Y-77076299D02*
X163830000Y-76200000D01*
X162560000Y-77470000D02*
X162953701Y-77076299D01*
X130810000Y-77470000D02*
X162560000Y-77470000D01*
X129540000Y-76200000D02*
X130810000Y-77470000D01*
G04 #@! TO.N,Net-(U1-Pad16)*
X162953701Y-97396299D02*
X163830000Y-96520000D01*
X144203375Y-100261301D02*
X152388697Y-100261301D01*
X161511099Y-98838901D02*
X162953701Y-97396299D01*
X153811097Y-98838901D02*
X161511099Y-98838901D01*
X143578699Y-99636625D02*
X144203375Y-100261301D01*
X136844651Y-99636625D02*
X143578699Y-99636625D01*
X152388697Y-100261301D02*
X153811097Y-98838901D01*
X135403037Y-98195011D02*
X136844651Y-99636625D01*
X131215011Y-98195011D02*
X135403037Y-98195011D01*
X129540000Y-96520000D02*
X131215011Y-98195011D01*
G04 #@! TO.N,Net-(U1-Pad15)*
X129540000Y-99060000D02*
X133350000Y-99060000D01*
X152356185Y-97833815D02*
X153973437Y-97833815D01*
X150980846Y-99209154D02*
X152356185Y-97833815D01*
G04 #@! TO.N,Net-(U1-Pad14)*
X129540000Y-101600000D02*
X131240001Y-103300001D01*
X134682919Y-103300001D02*
X136976459Y-105593541D01*
X131240001Y-103300001D02*
X134682919Y-103300001D01*
X152799998Y-101600000D02*
X162590725Y-101600000D01*
X139700000Y-104140000D02*
X142864676Y-104140000D01*
X151598697Y-102801301D02*
X152799998Y-101600000D01*
X162590725Y-101600000D02*
X163830000Y-101600000D01*
X144203375Y-102801301D02*
X151598697Y-102801301D01*
X142864676Y-104140000D02*
X144203375Y-102801301D01*
G04 #@! TO.N,Net-(U1-Pad13)*
X162953701Y-105016299D02*
X163830000Y-104140000D01*
X162628699Y-105341301D02*
X162953701Y-105016299D01*
X143578699Y-105341301D02*
X142240000Y-106680000D01*
X162628699Y-105341301D02*
X143578699Y-105341301D01*
X132080000Y-104140000D02*
X134620000Y-106680000D01*
X129540000Y-104140000D02*
X132080000Y-104140000D01*
G04 #@! TO.N,Net-(U1-Pad6)*
X144780000Y-88900000D02*
X148590000Y-88900000D01*
G04 #@! TO.N,Net-(U1-Pad5)*
X148590000Y-86360000D02*
X144780000Y-86360000D01*
G04 #@! TO.N,led*
X176135000Y-102475000D02*
X177660000Y-102475000D01*
X175260000Y-101600000D02*
X176135000Y-102475000D01*
X175260000Y-101034315D02*
X172720000Y-98494315D01*
X175260000Y-101600000D02*
X175260000Y-101034315D01*
X172015685Y-98494315D02*
X166370000Y-104140000D01*
X172720000Y-98494315D02*
X172015685Y-98494315D01*
X170341313Y-98494315D02*
X172015685Y-98494315D01*
X168954999Y-97108001D02*
X170341313Y-98494315D01*
X168954999Y-91395001D02*
X168954999Y-97108001D01*
X166370000Y-88810002D02*
X168954999Y-91395001D01*
X166370000Y-76200000D02*
X166370000Y-88810002D01*
G04 #@! TO.N,Net-(L1-Pad3)*
X122315000Y-102475000D02*
X122717348Y-102072652D01*
X120510000Y-102475000D02*
X122315000Y-102475000D01*
X134365000Y-100330000D02*
X134760000Y-100725000D01*
X131899999Y-100330000D02*
X134365000Y-100330000D01*
X135123375Y-100361625D02*
X134760000Y-100725000D01*
X137160000Y-100361625D02*
X135123375Y-100361625D01*
G04 #@! TO.N,Net-(L1-Pad1)*
X122315000Y-121525000D02*
X120510000Y-121525000D01*
X123190000Y-120650000D02*
X122315000Y-121525000D01*
X115710000Y-100190000D02*
X116840000Y-99060000D01*
X115710000Y-100725000D02*
X115710000Y-100190000D01*
X117405685Y-99060000D02*
X116840000Y-99060000D01*
X120730002Y-99060000D02*
X117405685Y-99060000D01*
X124460000Y-119380000D02*
X124460000Y-102789998D01*
X124460000Y-102789998D02*
X120730002Y-99060000D01*
X123190000Y-120650000D02*
X124460000Y-119380000D01*
G04 #@! TO.N,Net-(L2-Pad1)*
X127000000Y-124460000D02*
X119380000Y-124460000D01*
X119380000Y-123894315D02*
X119380000Y-124460000D01*
X119380000Y-123145000D02*
X119380000Y-123894315D01*
X116010000Y-119775000D02*
X119380000Y-123145000D01*
X115710000Y-119775000D02*
X116010000Y-119775000D01*
X138035000Y-121525000D02*
X139560000Y-121525000D01*
X137160000Y-120650000D02*
X138035000Y-121525000D01*
X137160000Y-121920000D02*
X134620000Y-124460000D01*
X137160000Y-120650000D02*
X137160000Y-121920000D01*
G04 #@! TO.N,Net-(L3-Pad3)*
X138035000Y-102475000D02*
X137160000Y-101600000D01*
X139560000Y-102475000D02*
X138035000Y-102475000D01*
X152005000Y-100725000D02*
X153810000Y-100725000D01*
X151130000Y-101600000D02*
X152005000Y-100725000D01*
G04 #@! TO.N,Net-(L4-Pad1)*
X135060000Y-119775000D02*
X135885001Y-120600001D01*
X134760000Y-119775000D02*
X135060000Y-119775000D01*
X134980002Y-123190000D02*
X133350000Y-123190000D01*
X135885001Y-122285001D02*
X134980002Y-123190000D01*
X135885001Y-120600001D02*
X135885001Y-122285001D01*
X155318026Y-118533026D02*
X155318026Y-118110000D01*
X158310000Y-121525000D02*
X155318026Y-118533026D01*
X158610000Y-121525000D02*
X158310000Y-121525000D01*
G04 #@! TO.N,Net-(L5-Pad3)*
X158215000Y-102870000D02*
X158610000Y-102475000D01*
X170810306Y-100725000D02*
X172860000Y-100725000D01*
X168228735Y-103306571D02*
X170810306Y-100725000D01*
X159005000Y-102870000D02*
X158610000Y-102475000D01*
X162560000Y-102870000D02*
X159005000Y-102870000D01*
G04 #@! TO.N,Net-(L6-Pad1)*
X176610000Y-121525000D02*
X175735000Y-120650000D01*
X177660000Y-121525000D02*
X176610000Y-121525000D01*
X175735000Y-120650000D02*
X175260000Y-120650000D01*
X168910000Y-124460000D02*
X158750000Y-124460000D01*
X153670000Y-119635000D02*
X153810000Y-119775000D01*
X153670000Y-118110000D02*
X153670000Y-119635000D01*
G04 #@! TO.N,Net-(L8-Pad1)*
X172720000Y-119635000D02*
X172860000Y-119775000D01*
X172720000Y-118110000D02*
X172720000Y-119635000D01*
G04 #@! TD*
D27*
G04 #@! TO.N,GND*
G36*
X128028700Y-75899384D02*
X128028700Y-76500616D01*
X128258782Y-77056083D01*
X128683917Y-77481218D01*
X128716520Y-77494722D01*
X128656604Y-77676999D01*
X129540000Y-78560395D01*
X129554143Y-78546253D01*
X129733748Y-78725858D01*
X129719605Y-78740000D01*
X130603001Y-79623396D01*
X130857027Y-79539896D01*
X131062882Y-78975003D01*
X131036891Y-78374332D01*
X130977106Y-78230000D01*
X143355430Y-78230000D01*
X143268700Y-78439384D01*
X143268700Y-79040616D01*
X143498782Y-79596083D01*
X143923917Y-80021218D01*
X143956520Y-80034722D01*
X143896604Y-80216999D01*
X144780000Y-81100395D01*
X145663396Y-80216999D01*
X145603480Y-80034722D01*
X145636083Y-80021218D01*
X146061218Y-79596083D01*
X146291300Y-79040616D01*
X146291300Y-78439384D01*
X146204570Y-78230000D01*
X147165430Y-78230000D01*
X147078700Y-78439384D01*
X147078700Y-79040616D01*
X147308782Y-79596083D01*
X147733917Y-80021218D01*
X147766520Y-80034722D01*
X147706604Y-80216999D01*
X148590000Y-81100395D01*
X149473396Y-80216999D01*
X149413480Y-80034722D01*
X149446083Y-80021218D01*
X149871218Y-79596083D01*
X149911017Y-79500000D01*
X159197273Y-79500000D01*
X162604986Y-82907713D01*
X162548782Y-82963917D01*
X162318700Y-83519384D01*
X162318700Y-84120616D01*
X162376974Y-84261301D01*
X150037704Y-84261301D01*
X150112882Y-84055003D01*
X150086891Y-83454332D01*
X150027106Y-83310000D01*
X151696289Y-83310000D01*
X151813720Y-83427431D01*
X152194126Y-83585000D01*
X152605874Y-83585000D01*
X152986280Y-83427431D01*
X153277431Y-83136280D01*
X153435000Y-82755874D01*
X153435000Y-82344126D01*
X153277431Y-81963720D01*
X152986280Y-81672569D01*
X152605874Y-81515000D01*
X152194126Y-81515000D01*
X151813720Y-81672569D01*
X151696289Y-81790000D01*
X150012669Y-81790000D01*
X150112882Y-81515003D01*
X150086891Y-80914332D01*
X149907027Y-80480104D01*
X149653001Y-80396604D01*
X148769605Y-81280000D01*
X148783748Y-81294143D01*
X148604143Y-81473748D01*
X148590000Y-81459605D01*
X148575858Y-81473748D01*
X148396253Y-81294143D01*
X148410395Y-81280000D01*
X147526999Y-80396604D01*
X147272973Y-80480104D01*
X147067118Y-81044997D01*
X147093109Y-81645668D01*
X147152894Y-81790000D01*
X146202669Y-81790000D01*
X146302882Y-81515003D01*
X146276891Y-80914332D01*
X146097027Y-80480104D01*
X145843001Y-80396604D01*
X144959605Y-81280000D01*
X144973748Y-81294143D01*
X144794143Y-81473748D01*
X144780000Y-81459605D01*
X144765858Y-81473748D01*
X144586253Y-81294143D01*
X144600395Y-81280000D01*
X143716999Y-80396604D01*
X143462973Y-80480104D01*
X143257118Y-81044997D01*
X143283109Y-81645668D01*
X143342894Y-81790000D01*
X131124802Y-81790000D01*
X131011501Y-81676699D01*
X131051300Y-81580616D01*
X131051300Y-80979384D01*
X130821218Y-80423917D01*
X130396083Y-79998782D01*
X130363480Y-79985278D01*
X130423396Y-79803001D01*
X129540000Y-78919605D01*
X128656604Y-79803001D01*
X128716520Y-79985278D01*
X128683917Y-79998782D01*
X128258782Y-80423917D01*
X128028700Y-80979384D01*
X128028700Y-81580616D01*
X128258782Y-82136083D01*
X128672699Y-82550000D01*
X128258782Y-82963917D01*
X128028700Y-83519384D01*
X128028700Y-84079721D01*
X124093422Y-88015000D01*
X118678007Y-88015000D01*
X118315874Y-87865000D01*
X117904126Y-87865000D01*
X117523720Y-88022569D01*
X117271808Y-88274481D01*
X117136537Y-88184096D01*
X116914852Y-88140000D01*
X116914847Y-88140000D01*
X116840000Y-88125112D01*
X116765153Y-88140000D01*
X111834846Y-88140000D01*
X111759999Y-88125112D01*
X111685152Y-88140000D01*
X111685148Y-88140000D01*
X111463463Y-88184096D01*
X111212071Y-88352071D01*
X111169671Y-88415527D01*
X108982027Y-90603172D01*
X108918571Y-90645572D01*
X108876171Y-90709028D01*
X108876170Y-90709029D01*
X108750596Y-90896964D01*
X108691611Y-91193501D01*
X108706500Y-91268353D01*
X108706499Y-97021652D01*
X108691611Y-97096499D01*
X108706499Y-97171346D01*
X108706499Y-97171350D01*
X108750595Y-97393035D01*
X108918570Y-97644428D01*
X108982029Y-97686830D01*
X109367560Y-98072361D01*
X109367560Y-98945000D01*
X109403739Y-99126886D01*
X109333691Y-99173691D01*
X109193343Y-99383735D01*
X109144060Y-99631500D01*
X109144060Y-101028500D01*
X109193343Y-101276265D01*
X109333691Y-101486309D01*
X109543735Y-101626657D01*
X109791500Y-101675940D01*
X111188500Y-101675940D01*
X111436265Y-101626657D01*
X111646309Y-101486309D01*
X111786657Y-101276265D01*
X111835940Y-101028500D01*
X111835940Y-99631500D01*
X111786657Y-99383735D01*
X111646309Y-99173691D01*
X111576261Y-99126886D01*
X111612440Y-98945000D01*
X111612440Y-97990245D01*
X111851672Y-98229477D01*
X111894070Y-98292930D01*
X111957523Y-98335328D01*
X111957525Y-98335330D01*
X112026989Y-98381744D01*
X112145462Y-98460905D01*
X112367147Y-98505001D01*
X112367151Y-98505001D01*
X112441998Y-98519889D01*
X112516845Y-98505001D01*
X113543154Y-98505001D01*
X113618001Y-98519889D01*
X113692848Y-98505001D01*
X113692853Y-98505001D01*
X113914538Y-98460905D01*
X114165930Y-98292930D01*
X114208332Y-98229471D01*
X115481100Y-96956703D01*
X115481100Y-97042921D01*
X115881326Y-98009152D01*
X116154232Y-98282058D01*
X115962569Y-98473720D01*
X115805000Y-98854126D01*
X115805000Y-99020198D01*
X115247639Y-99577560D01*
X114910000Y-99577560D01*
X114662235Y-99626843D01*
X114452191Y-99767191D01*
X114311843Y-99977235D01*
X114262560Y-100225000D01*
X114262560Y-101225000D01*
X114311843Y-101472765D01*
X114392900Y-101594074D01*
X114371673Y-101615301D01*
X114275000Y-101848690D01*
X114275000Y-102189250D01*
X114433750Y-102348000D01*
X115583000Y-102348000D01*
X115583000Y-102328000D01*
X115837000Y-102328000D01*
X115837000Y-102348000D01*
X116986250Y-102348000D01*
X117145000Y-102189250D01*
X117145000Y-101848690D01*
X117048327Y-101615301D01*
X117027100Y-101594074D01*
X117108157Y-101472765D01*
X117157440Y-101225000D01*
X117157440Y-100225000D01*
X117125058Y-100062201D01*
X117426280Y-99937431D01*
X117543711Y-99820000D01*
X119216905Y-99820000D01*
X119214524Y-99823563D01*
X119210000Y-99822663D01*
X119122839Y-99840000D01*
X119122835Y-99840000D01*
X118864690Y-99891348D01*
X118645845Y-100037576D01*
X118645844Y-100037577D01*
X118571951Y-100086951D01*
X118522577Y-100160844D01*
X117545847Y-101137575D01*
X117471951Y-101186951D01*
X117276348Y-101479691D01*
X117225000Y-101737836D01*
X117225000Y-101737839D01*
X117207663Y-101825000D01*
X117225000Y-101912161D01*
X117225000Y-104006993D01*
X117075000Y-104369126D01*
X117075000Y-104780874D01*
X117225000Y-105143008D01*
X117225001Y-109548912D01*
X116832291Y-109040714D01*
X116330000Y-108752990D01*
X116330000Y-107383711D01*
X116447431Y-107266280D01*
X116605000Y-106885874D01*
X116605000Y-106474126D01*
X116447431Y-106093720D01*
X116156280Y-105802569D01*
X115775874Y-105645000D01*
X115364126Y-105645000D01*
X114983720Y-105802569D01*
X114692569Y-106093720D01*
X114535000Y-106474126D01*
X114535000Y-106885874D01*
X114692569Y-107266280D01*
X114810000Y-107383711D01*
X114810000Y-108743129D01*
X114714093Y-108769177D01*
X114120715Y-109227710D01*
X113747977Y-109878414D01*
X113676695Y-110434471D01*
X113706644Y-110868752D01*
X112772992Y-111909325D01*
X112487199Y-112391614D01*
X112380889Y-113133939D01*
X112566748Y-113860442D01*
X112703991Y-114043565D01*
X112160493Y-114268690D01*
X111728690Y-114700493D01*
X111495000Y-115264670D01*
X111495000Y-115875330D01*
X111728690Y-116439507D01*
X112160493Y-116871310D01*
X112724670Y-117105000D01*
X113335330Y-117105000D01*
X113899507Y-116871310D01*
X114331310Y-116439507D01*
X114565000Y-115875330D01*
X114565000Y-115264670D01*
X114431386Y-114942098D01*
X115130443Y-114763261D01*
X115579045Y-114427053D01*
X115874165Y-114098137D01*
X115481100Y-115047079D01*
X115481100Y-116092921D01*
X115881326Y-117059152D01*
X116620848Y-117798674D01*
X117587079Y-118198900D01*
X118632921Y-118198900D01*
X119599152Y-117798674D01*
X119625001Y-117772825D01*
X119625000Y-118644467D01*
X119462235Y-118676843D01*
X119252191Y-118817191D01*
X119203541Y-118890000D01*
X119027311Y-118890000D01*
X118987431Y-118793720D01*
X118696280Y-118502569D01*
X118315874Y-118345000D01*
X117904126Y-118345000D01*
X117523720Y-118502569D01*
X117232569Y-118793720D01*
X117117139Y-119072393D01*
X117108157Y-119027235D01*
X116967809Y-118817191D01*
X116757765Y-118676843D01*
X116510000Y-118627560D01*
X114910000Y-118627560D01*
X114662235Y-118676843D01*
X114452191Y-118817191D01*
X114311843Y-119027235D01*
X114262560Y-119275000D01*
X114262560Y-120275000D01*
X114311843Y-120522765D01*
X114392900Y-120644074D01*
X114371673Y-120665301D01*
X114275000Y-120898690D01*
X114275000Y-121239250D01*
X114433750Y-121398000D01*
X115583000Y-121398000D01*
X115583000Y-121378000D01*
X115837000Y-121378000D01*
X115837000Y-121398000D01*
X115857000Y-121398000D01*
X115857000Y-121652000D01*
X115837000Y-121652000D01*
X115837000Y-122501250D01*
X115995750Y-122660000D01*
X116636309Y-122660000D01*
X116869698Y-122563327D01*
X117048327Y-122384699D01*
X117145000Y-122151310D01*
X117145000Y-121984801D01*
X118620000Y-123459802D01*
X118620000Y-123756289D01*
X118502569Y-123873720D01*
X118345000Y-124254126D01*
X118345000Y-124665874D01*
X118502569Y-125046280D01*
X118793720Y-125337431D01*
X119174126Y-125495000D01*
X119585874Y-125495000D01*
X119966280Y-125337431D01*
X120083711Y-125220000D01*
X126296289Y-125220000D01*
X126413720Y-125337431D01*
X126794126Y-125495000D01*
X127205874Y-125495000D01*
X127586280Y-125337431D01*
X127877431Y-125046280D01*
X128035000Y-124665874D01*
X128035000Y-124254126D01*
X127877431Y-123873720D01*
X127586280Y-123582569D01*
X127205874Y-123425000D01*
X126794126Y-123425000D01*
X126413720Y-123582569D01*
X126296289Y-123700000D01*
X120140000Y-123700000D01*
X120140000Y-123219848D01*
X120154888Y-123145000D01*
X120140000Y-123070152D01*
X120140000Y-123070148D01*
X120095904Y-122848463D01*
X120095904Y-122848462D01*
X119978289Y-122672440D01*
X121310000Y-122672440D01*
X121557765Y-122623157D01*
X121767809Y-122482809D01*
X121899982Y-122285000D01*
X122240153Y-122285000D01*
X122315000Y-122299888D01*
X122389847Y-122285000D01*
X122389852Y-122285000D01*
X122611537Y-122240904D01*
X122862929Y-122072929D01*
X122905331Y-122009470D01*
X123229801Y-121685000D01*
X123395874Y-121685000D01*
X123776280Y-121527431D01*
X124067431Y-121236280D01*
X124225000Y-120855874D01*
X124225000Y-120689801D01*
X124495505Y-120419296D01*
X124573691Y-120536309D01*
X124783735Y-120676657D01*
X125031500Y-120725940D01*
X126428500Y-120725940D01*
X126676265Y-120676657D01*
X126886309Y-120536309D01*
X127026657Y-120326265D01*
X127075940Y-120078500D01*
X127075940Y-118681500D01*
X127026657Y-118433735D01*
X126886309Y-118223691D01*
X126816261Y-118176886D01*
X126852440Y-117995000D01*
X126852440Y-116695000D01*
X126803157Y-116447235D01*
X126662809Y-116237191D01*
X126452765Y-116096843D01*
X126205000Y-116047560D01*
X125255000Y-116047560D01*
X125220000Y-116054522D01*
X125220000Y-115085478D01*
X125255000Y-115092440D01*
X126205000Y-115092440D01*
X126452765Y-115043157D01*
X126662809Y-114902809D01*
X126803157Y-114692765D01*
X126852440Y-114445000D01*
X126852440Y-113145000D01*
X126803157Y-112897235D01*
X126673165Y-112702689D01*
X126855854Y-112520000D01*
X130538150Y-112520000D01*
X130613002Y-112534889D01*
X130687854Y-112520000D01*
X130909539Y-112475904D01*
X131160931Y-112307929D01*
X131328906Y-112056537D01*
X131387891Y-111760000D01*
X131373002Y-111685148D01*
X131373002Y-111001799D01*
X133664802Y-108710000D01*
X133981976Y-108710000D01*
X133764093Y-108769177D01*
X133170715Y-109227710D01*
X132797977Y-109878414D01*
X132726695Y-110434471D01*
X132756644Y-110868752D01*
X131822992Y-111909325D01*
X131537199Y-112391614D01*
X131430889Y-113133939D01*
X131616748Y-113860442D01*
X131753991Y-114043565D01*
X131210493Y-114268690D01*
X130778690Y-114700493D01*
X130545000Y-115264670D01*
X130545000Y-115875330D01*
X130778690Y-116439507D01*
X131210493Y-116871310D01*
X131774670Y-117105000D01*
X132385330Y-117105000D01*
X132949507Y-116871310D01*
X133381310Y-116439507D01*
X133615000Y-115875330D01*
X133615000Y-115264670D01*
X133481386Y-114942098D01*
X134180443Y-114763261D01*
X134629045Y-114427053D01*
X134924165Y-114098137D01*
X134531100Y-115047079D01*
X134531100Y-116092921D01*
X134931326Y-117059152D01*
X135670848Y-117798674D01*
X136637079Y-118198900D01*
X137682921Y-118198900D01*
X138649152Y-117798674D01*
X139388674Y-117059152D01*
X139788900Y-116092921D01*
X139788900Y-115047079D01*
X139395836Y-114098138D01*
X139690954Y-114427053D01*
X140139556Y-114763261D01*
X140838614Y-114942099D01*
X140705000Y-115264670D01*
X140705000Y-115875330D01*
X140938690Y-116439507D01*
X141370493Y-116871310D01*
X141934670Y-117105000D01*
X142545330Y-117105000D01*
X143109507Y-116871310D01*
X143541310Y-116439507D01*
X143775000Y-115875330D01*
X143775000Y-115264670D01*
X143541310Y-114700493D01*
X143109507Y-114268690D01*
X142566009Y-114043565D01*
X142703252Y-113860442D01*
X142818054Y-113411690D01*
X145923000Y-113411690D01*
X145923000Y-114014250D01*
X146081750Y-114173000D01*
X147193000Y-114173000D01*
X147193000Y-113061750D01*
X147447000Y-113061750D01*
X147447000Y-114173000D01*
X148558250Y-114173000D01*
X148717000Y-114014250D01*
X148717000Y-113411690D01*
X148620327Y-113178301D01*
X148441698Y-112999673D01*
X148208309Y-112903000D01*
X147605750Y-112903000D01*
X147447000Y-113061750D01*
X147193000Y-113061750D01*
X147034250Y-112903000D01*
X146431691Y-112903000D01*
X146198302Y-112999673D01*
X146019673Y-113178301D01*
X145923000Y-113411690D01*
X142818054Y-113411690D01*
X142889111Y-113133939D01*
X142782802Y-112391613D01*
X142497008Y-111909325D01*
X141563356Y-110868753D01*
X141593305Y-110434470D01*
X141522023Y-109878414D01*
X141149285Y-109227709D01*
X140555907Y-108769177D01*
X140338024Y-108710000D01*
X140655199Y-108710000D01*
X144189671Y-112244473D01*
X144232071Y-112307929D01*
X144295527Y-112350329D01*
X144483462Y-112475904D01*
X144531605Y-112485480D01*
X144705148Y-112520000D01*
X144705152Y-112520000D01*
X144780000Y-112534888D01*
X144854848Y-112520000D01*
X145346289Y-112520000D01*
X145463720Y-112637431D01*
X145844126Y-112795000D01*
X146255874Y-112795000D01*
X146636280Y-112637431D01*
X146927431Y-112346280D01*
X147085000Y-111965874D01*
X147085000Y-111554126D01*
X146927431Y-111173720D01*
X146636280Y-110882569D01*
X146255874Y-110725000D01*
X145844126Y-110725000D01*
X145463720Y-110882569D01*
X145346289Y-111000000D01*
X145094802Y-111000000D01*
X141560331Y-107465530D01*
X141557335Y-107461046D01*
X141653720Y-107557431D01*
X142034126Y-107715000D01*
X142445874Y-107715000D01*
X142826280Y-107557431D01*
X143117431Y-107266280D01*
X143275000Y-106885874D01*
X143275000Y-106719801D01*
X143893501Y-106101301D01*
X149166899Y-106101301D01*
X148105528Y-107162673D01*
X148042072Y-107205073D01*
X147999672Y-107268529D01*
X147999671Y-107268530D01*
X147874097Y-107456465D01*
X147815112Y-107753002D01*
X147830001Y-107827854D01*
X147830000Y-111056289D01*
X147712569Y-111173720D01*
X147555000Y-111554126D01*
X147555000Y-111965874D01*
X147712569Y-112346280D01*
X148003720Y-112637431D01*
X148384126Y-112795000D01*
X148795874Y-112795000D01*
X149176280Y-112637431D01*
X149467431Y-112346280D01*
X149625000Y-111965874D01*
X149625000Y-111554126D01*
X149467431Y-111173720D01*
X149350000Y-111056289D01*
X149350000Y-109678272D01*
X149375528Y-109695329D01*
X150944671Y-111264473D01*
X150987071Y-111327929D01*
X151050527Y-111370329D01*
X151238462Y-111495904D01*
X151243105Y-111496827D01*
X150872992Y-111909325D01*
X150587199Y-112391614D01*
X150480889Y-113133939D01*
X150666748Y-113860442D01*
X150803991Y-114043565D01*
X150260493Y-114268690D01*
X149828690Y-114700493D01*
X149595000Y-115264670D01*
X149595000Y-115875330D01*
X149828690Y-116439507D01*
X150260493Y-116871310D01*
X150824670Y-117105000D01*
X151435330Y-117105000D01*
X151999507Y-116871310D01*
X152431310Y-116439507D01*
X152665000Y-115875330D01*
X152665000Y-115264670D01*
X152531386Y-114942098D01*
X153230443Y-114763261D01*
X153679045Y-114427053D01*
X153974165Y-114098137D01*
X153581100Y-115047079D01*
X153581100Y-116092921D01*
X153981326Y-117059152D01*
X154082946Y-117160772D01*
X153875874Y-117075000D01*
X153464126Y-117075000D01*
X153083720Y-117232569D01*
X152792569Y-117523720D01*
X152635000Y-117904126D01*
X152635000Y-118315874D01*
X152782822Y-118672748D01*
X152762235Y-118676843D01*
X152552191Y-118817191D01*
X152411843Y-119027235D01*
X152362560Y-119275000D01*
X152362560Y-120275000D01*
X152411843Y-120522765D01*
X152492900Y-120644074D01*
X152471673Y-120665301D01*
X152375000Y-120898690D01*
X152375000Y-121239250D01*
X152533750Y-121398000D01*
X153683000Y-121398000D01*
X153683000Y-121378000D01*
X153937000Y-121378000D01*
X153937000Y-121398000D01*
X155086250Y-121398000D01*
X155245000Y-121239250D01*
X155245000Y-120898690D01*
X155148327Y-120665301D01*
X155127100Y-120644074D01*
X155208157Y-120522765D01*
X155257440Y-120275000D01*
X155257440Y-119547241D01*
X157162560Y-121452362D01*
X157162560Y-122025000D01*
X157211843Y-122272765D01*
X157233382Y-122305000D01*
X155181339Y-122305000D01*
X155245000Y-122151310D01*
X155245000Y-121810750D01*
X155086250Y-121652000D01*
X153937000Y-121652000D01*
X153937000Y-121672000D01*
X153683000Y-121672000D01*
X153683000Y-121652000D01*
X152533750Y-121652000D01*
X152375000Y-121810750D01*
X152375000Y-121913421D01*
X149277425Y-118815847D01*
X149228049Y-118741951D01*
X148935310Y-118546348D01*
X148706120Y-118500759D01*
X148680157Y-118370235D01*
X148539809Y-118160191D01*
X148464693Y-118110000D01*
X148539809Y-118059809D01*
X148680157Y-117849765D01*
X148729440Y-117602000D01*
X148729440Y-116078000D01*
X148680157Y-115830235D01*
X148539809Y-115620191D01*
X148469088Y-115572937D01*
X148620327Y-115421699D01*
X148717000Y-115188310D01*
X148717000Y-114585750D01*
X148558250Y-114427000D01*
X147447000Y-114427000D01*
X147447000Y-114447000D01*
X147193000Y-114447000D01*
X147193000Y-114427000D01*
X146081750Y-114427000D01*
X145923000Y-114585750D01*
X145923000Y-115188310D01*
X146019673Y-115421699D01*
X146170912Y-115572937D01*
X146100191Y-115620191D01*
X145959843Y-115830235D01*
X145910560Y-116078000D01*
X145910560Y-116718982D01*
X145807431Y-116615853D01*
X145657431Y-116253720D01*
X145366280Y-115962569D01*
X144985874Y-115805000D01*
X144574126Y-115805000D01*
X144193720Y-115962569D01*
X143902569Y-116253720D01*
X143745000Y-116634126D01*
X143745000Y-117045874D01*
X143902569Y-117426280D01*
X144193720Y-117717431D01*
X144555853Y-117867431D01*
X145183422Y-118495000D01*
X140042159Y-118495000D01*
X139954999Y-118477663D01*
X139867839Y-118495000D01*
X139867835Y-118495000D01*
X139609690Y-118546348D01*
X139488148Y-118627560D01*
X138760000Y-118627560D01*
X138512235Y-118676843D01*
X138302191Y-118817191D01*
X138161843Y-119027235D01*
X138112560Y-119275000D01*
X138112560Y-120245098D01*
X138037431Y-120063720D01*
X137746280Y-119772569D01*
X137365874Y-119615000D01*
X136954126Y-119615000D01*
X136573720Y-119772569D01*
X136353045Y-119993244D01*
X136207440Y-119847638D01*
X136207440Y-119275000D01*
X136158157Y-119027235D01*
X136017809Y-118817191D01*
X135807765Y-118676843D01*
X135560000Y-118627560D01*
X133960000Y-118627560D01*
X133712235Y-118676843D01*
X133502191Y-118817191D01*
X133361843Y-119027235D01*
X133312560Y-119275000D01*
X133312560Y-120275000D01*
X133361843Y-120522765D01*
X133442900Y-120644074D01*
X133421673Y-120665301D01*
X133325000Y-120898690D01*
X133325000Y-121239250D01*
X133483750Y-121398000D01*
X134633000Y-121398000D01*
X134633000Y-121378000D01*
X134887000Y-121378000D01*
X134887000Y-121398000D01*
X134907000Y-121398000D01*
X134907000Y-121652000D01*
X134887000Y-121652000D01*
X134887000Y-121672000D01*
X134633000Y-121672000D01*
X134633000Y-121652000D01*
X133483750Y-121652000D01*
X133325000Y-121810750D01*
X133325000Y-122151310D01*
X133326528Y-122155000D01*
X133144126Y-122155000D01*
X132763720Y-122312569D01*
X132472569Y-122603720D01*
X132315000Y-122984126D01*
X132315000Y-123395874D01*
X132472569Y-123776280D01*
X132763720Y-124067431D01*
X133144126Y-124225000D01*
X133555874Y-124225000D01*
X133605595Y-124204405D01*
X133585000Y-124254126D01*
X133585000Y-124665874D01*
X133742569Y-125046280D01*
X134033720Y-125337431D01*
X134414126Y-125495000D01*
X134825874Y-125495000D01*
X135206280Y-125337431D01*
X135497431Y-125046280D01*
X135655000Y-124665874D01*
X135655000Y-124499801D01*
X137644476Y-122510327D01*
X137707929Y-122467929D01*
X137750327Y-122404476D01*
X137750329Y-122404474D01*
X137845408Y-122262177D01*
X137960148Y-122285000D01*
X137960153Y-122285000D01*
X138035000Y-122299888D01*
X138109847Y-122285000D01*
X138170018Y-122285000D01*
X138302191Y-122482809D01*
X138512235Y-122623157D01*
X138760000Y-122672440D01*
X140360000Y-122672440D01*
X140607765Y-122623157D01*
X140817809Y-122482809D01*
X140958157Y-122272765D01*
X141007440Y-122025000D01*
X141007440Y-121025000D01*
X140958157Y-120777235D01*
X140879822Y-120660000D01*
X140998422Y-120660000D01*
X141212569Y-120874148D01*
X141362569Y-121236280D01*
X141653720Y-121527431D01*
X142034126Y-121685000D01*
X142445874Y-121685000D01*
X142826280Y-121527431D01*
X143117431Y-121236280D01*
X143275000Y-120855874D01*
X143275000Y-120444126D01*
X143200804Y-120265000D01*
X145935026Y-120265000D01*
X145959843Y-120389765D01*
X146100191Y-120599809D01*
X146310235Y-120740157D01*
X146558000Y-120789440D01*
X148082000Y-120789440D01*
X148329765Y-120740157D01*
X148539809Y-120599809D01*
X148547188Y-120588766D01*
X151712577Y-123754156D01*
X151761951Y-123828049D01*
X151835844Y-123877423D01*
X151835845Y-123877424D01*
X151966744Y-123964888D01*
X152054690Y-124023652D01*
X152312835Y-124075000D01*
X152312839Y-124075000D01*
X152400000Y-124092337D01*
X152487161Y-124075000D01*
X157789196Y-124075000D01*
X157715000Y-124254126D01*
X157715000Y-124665874D01*
X157872569Y-125046280D01*
X158163720Y-125337431D01*
X158544126Y-125495000D01*
X158955874Y-125495000D01*
X159336280Y-125337431D01*
X159453711Y-125220000D01*
X168206289Y-125220000D01*
X168323720Y-125337431D01*
X168704126Y-125495000D01*
X169115874Y-125495000D01*
X169496280Y-125337431D01*
X169787431Y-125046280D01*
X169945000Y-124665874D01*
X169945000Y-124254126D01*
X169787431Y-123873720D01*
X169750121Y-123836410D01*
X184825000Y-123836410D01*
X184825000Y-125083590D01*
X185302276Y-126235835D01*
X186184165Y-127117724D01*
X187336410Y-127595000D01*
X188583590Y-127595000D01*
X189735835Y-127117724D01*
X190617724Y-126235835D01*
X191095000Y-125083590D01*
X191095000Y-123836410D01*
X190617724Y-122684165D01*
X189735835Y-121802276D01*
X188583590Y-121325000D01*
X187336410Y-121325000D01*
X186184165Y-121802276D01*
X185302276Y-122684165D01*
X184825000Y-123836410D01*
X169750121Y-123836410D01*
X169496280Y-123582569D01*
X169115874Y-123425000D01*
X168704126Y-123425000D01*
X168323720Y-123582569D01*
X168206289Y-123700000D01*
X159796580Y-123700000D01*
X161685830Y-121810750D01*
X171425000Y-121810750D01*
X171425000Y-122151310D01*
X171521673Y-122384699D01*
X171700302Y-122563327D01*
X171933691Y-122660000D01*
X172574250Y-122660000D01*
X172733000Y-122501250D01*
X172733000Y-121652000D01*
X172987000Y-121652000D01*
X172987000Y-122501250D01*
X173145750Y-122660000D01*
X173786309Y-122660000D01*
X174019698Y-122563327D01*
X174198327Y-122384699D01*
X174295000Y-122151310D01*
X174295000Y-121810750D01*
X174136250Y-121652000D01*
X172987000Y-121652000D01*
X172733000Y-121652000D01*
X171583750Y-121652000D01*
X171425000Y-121810750D01*
X161685830Y-121810750D01*
X164394156Y-119102425D01*
X164468049Y-119053051D01*
X164541148Y-118943652D01*
X164663652Y-118760312D01*
X164667304Y-118741951D01*
X164679328Y-118681500D01*
X166294060Y-118681500D01*
X166294060Y-120078500D01*
X166343343Y-120326265D01*
X166483691Y-120536309D01*
X166693735Y-120676657D01*
X166941500Y-120725940D01*
X168338500Y-120725940D01*
X168586265Y-120676657D01*
X168796309Y-120536309D01*
X168936657Y-120326265D01*
X168985940Y-120078500D01*
X168985940Y-118681500D01*
X168936657Y-118433735D01*
X168796309Y-118223691D01*
X168726261Y-118176886D01*
X168762440Y-117995000D01*
X168762440Y-116695000D01*
X168713157Y-116447235D01*
X168572809Y-116237191D01*
X168362765Y-116096843D01*
X168115000Y-116047560D01*
X167165000Y-116047560D01*
X166917235Y-116096843D01*
X166707191Y-116237191D01*
X166566843Y-116447235D01*
X166517560Y-116695000D01*
X166517560Y-117995000D01*
X166553739Y-118176886D01*
X166483691Y-118223691D01*
X166343343Y-118433735D01*
X166294060Y-118681500D01*
X164679328Y-118681500D01*
X164715000Y-118502167D01*
X164715000Y-118502163D01*
X164732337Y-118415002D01*
X164715000Y-118327841D01*
X164715000Y-116423007D01*
X164865000Y-116060874D01*
X164865000Y-115649126D01*
X164715000Y-115286993D01*
X164715000Y-115264670D01*
X168645000Y-115264670D01*
X168645000Y-115875330D01*
X168878690Y-116439507D01*
X169310493Y-116871310D01*
X169874670Y-117105000D01*
X170485330Y-117105000D01*
X171049507Y-116871310D01*
X171481310Y-116439507D01*
X171715000Y-115875330D01*
X171715000Y-115264670D01*
X171581386Y-114942098D01*
X172280443Y-114763261D01*
X172729045Y-114427053D01*
X173024165Y-114098137D01*
X172631100Y-115047079D01*
X172631100Y-116092921D01*
X173031326Y-117059152D01*
X173132946Y-117160772D01*
X172925874Y-117075000D01*
X172514126Y-117075000D01*
X172133720Y-117232569D01*
X171842569Y-117523720D01*
X171685000Y-117904126D01*
X171685000Y-118315874D01*
X171832822Y-118672748D01*
X171812235Y-118676843D01*
X171602191Y-118817191D01*
X171461843Y-119027235D01*
X171412560Y-119275000D01*
X171412560Y-120275000D01*
X171461843Y-120522765D01*
X171542900Y-120644074D01*
X171521673Y-120665301D01*
X171425000Y-120898690D01*
X171425000Y-121239250D01*
X171583750Y-121398000D01*
X172733000Y-121398000D01*
X172733000Y-121378000D01*
X172987000Y-121378000D01*
X172987000Y-121398000D01*
X174136250Y-121398000D01*
X174295000Y-121239250D01*
X174295000Y-121024869D01*
X174382569Y-121236280D01*
X174673720Y-121527431D01*
X175054126Y-121685000D01*
X175465874Y-121685000D01*
X175628031Y-121617833D01*
X176019671Y-122009473D01*
X176062071Y-122072929D01*
X176246622Y-122196242D01*
X176261843Y-122272765D01*
X176402191Y-122482809D01*
X176612235Y-122623157D01*
X176860000Y-122672440D01*
X178460000Y-122672440D01*
X178707765Y-122623157D01*
X178917809Y-122482809D01*
X179058157Y-122272765D01*
X179107440Y-122025000D01*
X179107440Y-121025000D01*
X179058157Y-120777235D01*
X178973141Y-120650000D01*
X178997773Y-120613135D01*
X179020310Y-120608652D01*
X179313049Y-120413049D01*
X179362425Y-120339153D01*
X180564148Y-119137431D01*
X180926280Y-118987431D01*
X181217431Y-118696280D01*
X181223553Y-118681500D01*
X181534060Y-118681500D01*
X181534060Y-120078500D01*
X181583343Y-120326265D01*
X181723691Y-120536309D01*
X181933735Y-120676657D01*
X182181500Y-120725940D01*
X183578500Y-120725940D01*
X183826265Y-120676657D01*
X184036309Y-120536309D01*
X184176657Y-120326265D01*
X184225940Y-120078500D01*
X184225940Y-118681500D01*
X184176657Y-118433735D01*
X184036309Y-118223691D01*
X183966261Y-118176886D01*
X184002440Y-117995000D01*
X184002440Y-116695000D01*
X183953157Y-116447235D01*
X183812809Y-116237191D01*
X183602765Y-116096843D01*
X183355000Y-116047560D01*
X182405000Y-116047560D01*
X182157235Y-116096843D01*
X181947191Y-116237191D01*
X181806843Y-116447235D01*
X181757560Y-116695000D01*
X181757560Y-117995000D01*
X181793739Y-118176886D01*
X181723691Y-118223691D01*
X181583343Y-118433735D01*
X181534060Y-118681500D01*
X181223553Y-118681500D01*
X181375000Y-118315874D01*
X181375000Y-117904126D01*
X181217431Y-117523720D01*
X180926280Y-117232569D01*
X180618301Y-117105000D01*
X180645330Y-117105000D01*
X181209507Y-116871310D01*
X181641310Y-116439507D01*
X181875000Y-115875330D01*
X181875000Y-115264670D01*
X181641310Y-114700493D01*
X181209507Y-114268690D01*
X180666009Y-114043565D01*
X180803252Y-113860442D01*
X180989111Y-113133939D01*
X180882802Y-112391613D01*
X180597008Y-111909325D01*
X180225032Y-111494750D01*
X181546500Y-111494750D01*
X181546500Y-112025250D01*
X181749513Y-112515367D01*
X181936835Y-112702689D01*
X181806843Y-112897235D01*
X181757560Y-113145000D01*
X181757560Y-114445000D01*
X181806843Y-114692765D01*
X181947191Y-114902809D01*
X182157235Y-115043157D01*
X182405000Y-115092440D01*
X183355000Y-115092440D01*
X183602765Y-115043157D01*
X183812809Y-114902809D01*
X183953157Y-114692765D01*
X184002440Y-114445000D01*
X184002440Y-113145000D01*
X183953157Y-112897235D01*
X183823165Y-112702689D01*
X184010487Y-112515367D01*
X184213500Y-112025250D01*
X184213500Y-111494750D01*
X184010487Y-111004633D01*
X183635367Y-110629513D01*
X183145250Y-110426500D01*
X182614750Y-110426500D01*
X182124633Y-110629513D01*
X181749513Y-111004633D01*
X181546500Y-111494750D01*
X180225032Y-111494750D01*
X179663356Y-110868753D01*
X179693305Y-110434470D01*
X179622023Y-109878414D01*
X179249285Y-109227709D01*
X178655907Y-108769177D01*
X177932225Y-108572625D01*
X177188413Y-108667976D01*
X176537709Y-109040713D01*
X176145000Y-109548911D01*
X176145000Y-107248007D01*
X176295000Y-106885874D01*
X176295000Y-106474126D01*
X176137431Y-106093720D01*
X175846280Y-105802569D01*
X175465874Y-105645000D01*
X175054126Y-105645000D01*
X174673720Y-105802569D01*
X174382569Y-106093720D01*
X174225000Y-106474126D01*
X174225000Y-106885874D01*
X174375000Y-107248007D01*
X174375001Y-109548911D01*
X173982291Y-109040714D01*
X173480000Y-108752990D01*
X173480000Y-107383711D01*
X173597431Y-107266280D01*
X173755000Y-106885874D01*
X173755000Y-106474126D01*
X173597431Y-106093720D01*
X173306280Y-105802569D01*
X172925874Y-105645000D01*
X172514126Y-105645000D01*
X172133720Y-105802569D01*
X171842569Y-106093720D01*
X171685000Y-106474126D01*
X171685000Y-106885874D01*
X171842569Y-107266280D01*
X171960000Y-107383711D01*
X171960001Y-108743129D01*
X171864093Y-108769177D01*
X171270715Y-109227710D01*
X170897977Y-109878414D01*
X170826695Y-110434471D01*
X170856644Y-110868752D01*
X169922992Y-111909325D01*
X169637199Y-112391614D01*
X169530889Y-113133939D01*
X169716748Y-113860442D01*
X169853991Y-114043565D01*
X169310493Y-114268690D01*
X168878690Y-114700493D01*
X168645000Y-115264670D01*
X164715000Y-115264670D01*
X164715000Y-111494750D01*
X166306500Y-111494750D01*
X166306500Y-112025250D01*
X166509513Y-112515367D01*
X166696835Y-112702689D01*
X166566843Y-112897235D01*
X166517560Y-113145000D01*
X166517560Y-114445000D01*
X166566843Y-114692765D01*
X166707191Y-114902809D01*
X166917235Y-115043157D01*
X167165000Y-115092440D01*
X168115000Y-115092440D01*
X168362765Y-115043157D01*
X168572809Y-114902809D01*
X168713157Y-114692765D01*
X168762440Y-114445000D01*
X168762440Y-113145000D01*
X168713157Y-112897235D01*
X168583165Y-112702689D01*
X168770487Y-112515367D01*
X168973500Y-112025250D01*
X168973500Y-111494750D01*
X168770487Y-111004633D01*
X168395367Y-110629513D01*
X167905250Y-110426500D01*
X167374750Y-110426500D01*
X166884633Y-110629513D01*
X166509513Y-111004633D01*
X166306500Y-111494750D01*
X164715000Y-111494750D01*
X164715000Y-108037159D01*
X164732337Y-107949999D01*
X164715000Y-107862839D01*
X164715000Y-107862835D01*
X164663652Y-107604690D01*
X164637132Y-107565000D01*
X166282839Y-107565000D01*
X166370000Y-107582337D01*
X166457161Y-107565000D01*
X166457165Y-107565000D01*
X166715310Y-107513652D01*
X167008049Y-107318049D01*
X167057425Y-107244153D01*
X168327424Y-105974155D01*
X168327426Y-105974152D01*
X169276579Y-105025000D01*
X178017841Y-105025000D01*
X178105002Y-105042337D01*
X178192163Y-105025000D01*
X178192167Y-105025000D01*
X178450312Y-104973652D01*
X178743051Y-104778049D01*
X178792427Y-104704153D01*
X179474157Y-104022424D01*
X179548050Y-103973050D01*
X179743653Y-103680311D01*
X179795001Y-103422166D01*
X179795001Y-103422162D01*
X179812338Y-103335001D01*
X179795001Y-103247840D01*
X179795001Y-101762160D01*
X179812338Y-101675000D01*
X179795001Y-101587840D01*
X179795001Y-101587836D01*
X179743653Y-101329691D01*
X179688872Y-101247706D01*
X180564148Y-100372431D01*
X180926280Y-100222431D01*
X181217431Y-99931280D01*
X181367431Y-99569147D01*
X181644760Y-99291818D01*
X181583343Y-99383735D01*
X181534060Y-99631500D01*
X181534060Y-101028500D01*
X181583343Y-101276265D01*
X181723691Y-101486309D01*
X181933735Y-101626657D01*
X182181500Y-101675940D01*
X183578500Y-101675940D01*
X183826265Y-101626657D01*
X184036309Y-101486309D01*
X184176657Y-101276265D01*
X184225940Y-101028500D01*
X184225940Y-99631500D01*
X184176657Y-99383735D01*
X184036309Y-99173691D01*
X183966261Y-99126886D01*
X184002440Y-98945000D01*
X184002440Y-97645000D01*
X183953157Y-97397235D01*
X183812809Y-97187191D01*
X183602765Y-97046843D01*
X183355000Y-96997560D01*
X182616499Y-96997560D01*
X182616499Y-96042440D01*
X183355000Y-96042440D01*
X183602765Y-95993157D01*
X183812809Y-95852809D01*
X183953157Y-95642765D01*
X184002440Y-95395000D01*
X184002440Y-94095000D01*
X183953157Y-93847235D01*
X183823165Y-93652689D01*
X184010487Y-93465367D01*
X184213500Y-92975250D01*
X184213500Y-92444750D01*
X184010487Y-91954633D01*
X183635367Y-91579513D01*
X183145250Y-91376500D01*
X182616499Y-91376500D01*
X182616499Y-89218658D01*
X182633836Y-89131498D01*
X182616499Y-89044338D01*
X182616499Y-89044334D01*
X182565151Y-88786189D01*
X182440331Y-88599384D01*
X182418923Y-88567344D01*
X182418922Y-88567343D01*
X182369548Y-88493450D01*
X182295655Y-88444076D01*
X178567425Y-84715847D01*
X178518049Y-84641951D01*
X178225310Y-84446348D01*
X177967165Y-84395000D01*
X177967161Y-84395000D01*
X177946815Y-84390953D01*
X177928839Y-84300582D01*
X177600625Y-83809375D01*
X177109418Y-83481161D01*
X176530000Y-83365908D01*
X175950583Y-83481161D01*
X175665000Y-83671981D01*
X175665000Y-83234343D01*
X175476982Y-82780429D01*
X175129571Y-82433018D01*
X174675657Y-82245000D01*
X174184343Y-82245000D01*
X173730429Y-82433018D01*
X173555000Y-82608447D01*
X173379571Y-82433018D01*
X172925657Y-82245000D01*
X172434343Y-82245000D01*
X171980429Y-82433018D01*
X171633018Y-82780429D01*
X171445000Y-83234343D01*
X171445000Y-83671981D01*
X171159418Y-83481161D01*
X170580000Y-83365908D01*
X170000583Y-83481161D01*
X169509375Y-83809375D01*
X169181161Y-84300582D01*
X169095000Y-84733744D01*
X169095000Y-85826255D01*
X169181161Y-86259417D01*
X169509375Y-86750625D01*
X170000582Y-87078839D01*
X170580000Y-87194092D01*
X170845000Y-87141380D01*
X170845000Y-87326255D01*
X170931161Y-87759417D01*
X171259375Y-88250625D01*
X171750582Y-88578839D01*
X172330000Y-88694092D01*
X172909417Y-88578839D01*
X173400625Y-88250625D01*
X173555000Y-88019586D01*
X173709375Y-88250625D01*
X174200582Y-88578839D01*
X174780000Y-88694092D01*
X175359417Y-88578839D01*
X175850625Y-88250625D01*
X176178839Y-87759418D01*
X176265000Y-87326256D01*
X176265000Y-87141380D01*
X176530000Y-87194092D01*
X177109417Y-87078839D01*
X177600625Y-86750625D01*
X177800265Y-86451843D01*
X180846499Y-89498078D01*
X180846499Y-93280351D01*
X180597008Y-92859325D01*
X179663356Y-91818753D01*
X179693305Y-91384470D01*
X179622023Y-90828414D01*
X179249285Y-90177709D01*
X178655907Y-89719177D01*
X177932225Y-89522625D01*
X177188413Y-89617976D01*
X176537709Y-89990713D01*
X176079177Y-90584092D01*
X175932239Y-91125099D01*
X175866695Y-92075529D01*
X175887162Y-92235186D01*
X175840889Y-92416061D01*
X175947199Y-93158386D01*
X176232992Y-93640675D01*
X177407393Y-94949567D01*
X176749152Y-94291326D01*
X175782921Y-93891100D01*
X174737079Y-93891100D01*
X173770848Y-94291326D01*
X173112600Y-94949574D01*
X174287008Y-93640675D01*
X174572802Y-93158387D01*
X174679111Y-92416061D01*
X174632838Y-92235186D01*
X174653305Y-92075530D01*
X174587761Y-91125100D01*
X174440824Y-90584092D01*
X173982291Y-89990714D01*
X173331587Y-89617976D01*
X172587775Y-89522625D01*
X171864093Y-89719177D01*
X171270715Y-90177710D01*
X170897977Y-90828414D01*
X170826695Y-91384471D01*
X170856644Y-91818752D01*
X169922992Y-92859325D01*
X169714999Y-93210323D01*
X169714999Y-91469849D01*
X169729887Y-91395001D01*
X169714999Y-91320153D01*
X169714999Y-91320149D01*
X169670903Y-91098464D01*
X169502928Y-90847072D01*
X169439472Y-90804672D01*
X167130000Y-88495201D01*
X167130000Y-81407000D01*
X169095000Y-81407000D01*
X169095000Y-81807000D01*
X169256640Y-82365618D01*
X169619749Y-82819856D01*
X170129048Y-83100562D01*
X170223110Y-83121476D01*
X170453000Y-83000155D01*
X170453000Y-81407000D01*
X170707000Y-81407000D01*
X170707000Y-83000155D01*
X170936890Y-83121476D01*
X171030952Y-83100562D01*
X171540251Y-82819856D01*
X171903360Y-82365618D01*
X172065000Y-81807000D01*
X172065000Y-81407000D01*
X175045000Y-81407000D01*
X175045000Y-81807000D01*
X175206640Y-82365618D01*
X175569749Y-82819856D01*
X176079048Y-83100562D01*
X176173110Y-83121476D01*
X176403000Y-83000155D01*
X176403000Y-81407000D01*
X176657000Y-81407000D01*
X176657000Y-83000155D01*
X176886890Y-83121476D01*
X176980952Y-83100562D01*
X177490251Y-82819856D01*
X177853360Y-82365618D01*
X178015000Y-81807000D01*
X178015000Y-81407000D01*
X176657000Y-81407000D01*
X176403000Y-81407000D01*
X175045000Y-81407000D01*
X172065000Y-81407000D01*
X170707000Y-81407000D01*
X170453000Y-81407000D01*
X169095000Y-81407000D01*
X167130000Y-81407000D01*
X167130000Y-77004802D01*
X168889673Y-78764476D01*
X168932071Y-78827929D01*
X168995524Y-78870327D01*
X168995526Y-78870329D01*
X169093364Y-78935702D01*
X169120358Y-78953739D01*
X169181161Y-79259417D01*
X169509375Y-79750625D01*
X169575859Y-79795048D01*
X169256640Y-80194382D01*
X169095000Y-80753000D01*
X169095000Y-81153000D01*
X170453000Y-81153000D01*
X170453000Y-81133000D01*
X170707000Y-81133000D01*
X170707000Y-81153000D01*
X172065000Y-81153000D01*
X172065000Y-80753000D01*
X171903360Y-80194382D01*
X171584141Y-79795048D01*
X171650625Y-79750625D01*
X171978839Y-79259418D01*
X172065000Y-78826256D01*
X172065000Y-77733745D01*
X172027773Y-77546593D01*
X172434343Y-77715000D01*
X172925657Y-77715000D01*
X173379571Y-77526982D01*
X173555000Y-77351553D01*
X173730429Y-77526982D01*
X174184343Y-77715000D01*
X174675657Y-77715000D01*
X175082227Y-77546593D01*
X175045000Y-77733744D01*
X175045000Y-78826255D01*
X175131161Y-79259417D01*
X175459375Y-79750625D01*
X175525859Y-79795048D01*
X175206640Y-80194382D01*
X175045000Y-80753000D01*
X175045000Y-81153000D01*
X176403000Y-81153000D01*
X176403000Y-81133000D01*
X176657000Y-81133000D01*
X176657000Y-81153000D01*
X178015000Y-81153000D01*
X178015000Y-80753000D01*
X177853360Y-80194382D01*
X177534141Y-79795048D01*
X177600625Y-79750625D01*
X177843985Y-79386410D01*
X184825000Y-79386410D01*
X184825000Y-80633590D01*
X185302276Y-81785835D01*
X186184165Y-82667724D01*
X187336410Y-83145000D01*
X188583590Y-83145000D01*
X189735835Y-82667724D01*
X190617724Y-81785835D01*
X191095000Y-80633590D01*
X191095000Y-79386410D01*
X190617724Y-78234165D01*
X189735835Y-77352276D01*
X188583590Y-76875000D01*
X187336410Y-76875000D01*
X186184165Y-77352276D01*
X185302276Y-78234165D01*
X184825000Y-79386410D01*
X177843985Y-79386410D01*
X177928839Y-79259418D01*
X178015000Y-78826256D01*
X178015000Y-77733745D01*
X177928839Y-77300582D01*
X177600625Y-76809375D01*
X177109418Y-76481161D01*
X176530000Y-76365908D01*
X175950583Y-76481161D01*
X175665000Y-76671981D01*
X175665000Y-76234343D01*
X175476982Y-75780429D01*
X175336553Y-75640000D01*
X188434036Y-75640000D01*
X189092604Y-75706895D01*
X189689782Y-75894039D01*
X190237124Y-76197436D01*
X190712289Y-76604701D01*
X191095852Y-77099188D01*
X191372150Y-77660700D01*
X191532104Y-78274774D01*
X191570000Y-78767270D01*
X191570001Y-125064026D01*
X191503105Y-125722604D01*
X191315961Y-126319782D01*
X191012563Y-126867125D01*
X190605299Y-127342289D01*
X190110812Y-127725852D01*
X189549304Y-128002148D01*
X188935227Y-128162104D01*
X188442730Y-128200000D01*
X110525964Y-128200000D01*
X109867396Y-128133105D01*
X109270218Y-127945961D01*
X108722875Y-127642563D01*
X108247711Y-127235299D01*
X107864148Y-126740812D01*
X107587852Y-126179304D01*
X107427896Y-125565227D01*
X107390000Y-125072730D01*
X107390000Y-123836410D01*
X108625000Y-123836410D01*
X108625000Y-125083590D01*
X109102276Y-126235835D01*
X109984165Y-127117724D01*
X111136410Y-127595000D01*
X112383590Y-127595000D01*
X113535835Y-127117724D01*
X114417724Y-126235835D01*
X114895000Y-125083590D01*
X114895000Y-123836410D01*
X114417724Y-122684165D01*
X113544309Y-121810750D01*
X114275000Y-121810750D01*
X114275000Y-122151310D01*
X114371673Y-122384699D01*
X114550302Y-122563327D01*
X114783691Y-122660000D01*
X115424250Y-122660000D01*
X115583000Y-122501250D01*
X115583000Y-121652000D01*
X114433750Y-121652000D01*
X114275000Y-121810750D01*
X113544309Y-121810750D01*
X113535835Y-121802276D01*
X112383590Y-121325000D01*
X111136410Y-121325000D01*
X109984165Y-121802276D01*
X109102276Y-122684165D01*
X108625000Y-123836410D01*
X107390000Y-123836410D01*
X107390000Y-118681500D01*
X109144060Y-118681500D01*
X109144060Y-120078500D01*
X109193343Y-120326265D01*
X109333691Y-120536309D01*
X109543735Y-120676657D01*
X109791500Y-120725940D01*
X111188500Y-120725940D01*
X111436265Y-120676657D01*
X111646309Y-120536309D01*
X111786657Y-120326265D01*
X111835940Y-120078500D01*
X111835940Y-118681500D01*
X111786657Y-118433735D01*
X111646309Y-118223691D01*
X111576261Y-118176886D01*
X111612440Y-117995000D01*
X111612440Y-116695000D01*
X111563157Y-116447235D01*
X111422809Y-116237191D01*
X111212765Y-116096843D01*
X110965000Y-116047560D01*
X110015000Y-116047560D01*
X109767235Y-116096843D01*
X109557191Y-116237191D01*
X109416843Y-116447235D01*
X109367560Y-116695000D01*
X109367560Y-117995000D01*
X109403739Y-118176886D01*
X109333691Y-118223691D01*
X109193343Y-118433735D01*
X109144060Y-118681500D01*
X107390000Y-118681500D01*
X107390000Y-111494750D01*
X109156500Y-111494750D01*
X109156500Y-112025250D01*
X109359513Y-112515367D01*
X109546835Y-112702689D01*
X109416843Y-112897235D01*
X109367560Y-113145000D01*
X109367560Y-114445000D01*
X109416843Y-114692765D01*
X109557191Y-114902809D01*
X109767235Y-115043157D01*
X110015000Y-115092440D01*
X110965000Y-115092440D01*
X111212765Y-115043157D01*
X111422809Y-114902809D01*
X111563157Y-114692765D01*
X111612440Y-114445000D01*
X111612440Y-113145000D01*
X111563157Y-112897235D01*
X111433165Y-112702689D01*
X111620487Y-112515367D01*
X111823500Y-112025250D01*
X111823500Y-111494750D01*
X111620487Y-111004633D01*
X111245367Y-110629513D01*
X110755250Y-110426500D01*
X110224750Y-110426500D01*
X109734633Y-110629513D01*
X109359513Y-111004633D01*
X109156500Y-111494750D01*
X107390000Y-111494750D01*
X107390000Y-102760750D01*
X114275000Y-102760750D01*
X114275000Y-103101310D01*
X114371673Y-103334699D01*
X114550302Y-103513327D01*
X114783691Y-103610000D01*
X115424250Y-103610000D01*
X115583000Y-103451250D01*
X115583000Y-102602000D01*
X115837000Y-102602000D01*
X115837000Y-103451250D01*
X115995750Y-103610000D01*
X116636309Y-103610000D01*
X116869698Y-103513327D01*
X117048327Y-103334699D01*
X117145000Y-103101310D01*
X117145000Y-102760750D01*
X116986250Y-102602000D01*
X115837000Y-102602000D01*
X115583000Y-102602000D01*
X114433750Y-102602000D01*
X114275000Y-102760750D01*
X107390000Y-102760750D01*
X107390000Y-79386410D01*
X108625000Y-79386410D01*
X108625000Y-80633590D01*
X109102276Y-81785835D01*
X109984165Y-82667724D01*
X111136410Y-83145000D01*
X112383590Y-83145000D01*
X113535835Y-82667724D01*
X114038726Y-82164833D01*
X116765000Y-82164833D01*
X116765000Y-82835167D01*
X117021526Y-83454476D01*
X117495524Y-83928474D01*
X118114833Y-84185000D01*
X118785167Y-84185000D01*
X119404476Y-83928474D01*
X119878474Y-83454476D01*
X120135000Y-82835167D01*
X120135000Y-82164833D01*
X119878474Y-81545524D01*
X119834701Y-81501751D01*
X120259116Y-81325953D01*
X120342455Y-81072060D01*
X119460000Y-80189605D01*
X119445858Y-80203748D01*
X119266253Y-80024143D01*
X119280395Y-80010000D01*
X119639605Y-80010000D01*
X120522060Y-80892455D01*
X120775953Y-80809116D01*
X120981590Y-80244694D01*
X120955579Y-79644542D01*
X120775953Y-79210884D01*
X120522060Y-79127545D01*
X119639605Y-80010000D01*
X119280395Y-80010000D01*
X118397940Y-79127545D01*
X118144047Y-79210884D01*
X117938410Y-79775306D01*
X117964421Y-80375458D01*
X118144047Y-80809116D01*
X118161973Y-80815000D01*
X118114833Y-80815000D01*
X117495524Y-81071526D01*
X117021526Y-81545524D01*
X116765000Y-82164833D01*
X114038726Y-82164833D01*
X114417724Y-81785835D01*
X114895000Y-80633590D01*
X114895000Y-79386410D01*
X114713380Y-78947940D01*
X118577545Y-78947940D01*
X119460000Y-79830395D01*
X120342455Y-78947940D01*
X120259116Y-78694047D01*
X119875664Y-78554343D01*
X120725000Y-78554343D01*
X120725000Y-79045657D01*
X120913018Y-79499571D01*
X121260429Y-79846982D01*
X121714343Y-80035000D01*
X122205657Y-80035000D01*
X122659571Y-79846982D01*
X122796911Y-79709642D01*
X122950000Y-79709642D01*
X122950000Y-80310358D01*
X123179884Y-80865346D01*
X123604654Y-81290116D01*
X124087099Y-81489951D01*
X124031526Y-81545524D01*
X123775000Y-82164833D01*
X123775000Y-82835167D01*
X124031526Y-83454476D01*
X124505524Y-83928474D01*
X125124833Y-84185000D01*
X125795167Y-84185000D01*
X126414476Y-83928474D01*
X126888474Y-83454476D01*
X127145000Y-82835167D01*
X127145000Y-82164833D01*
X126888474Y-81545524D01*
X126414476Y-81071526D01*
X125795167Y-80815000D01*
X125760970Y-80815000D01*
X125970000Y-80310358D01*
X125970000Y-79709642D01*
X125740116Y-79154654D01*
X125315346Y-78729884D01*
X124772422Y-78504997D01*
X128017118Y-78504997D01*
X128043109Y-79105668D01*
X128222973Y-79539896D01*
X128476999Y-79623396D01*
X129360395Y-78740000D01*
X128476999Y-77856604D01*
X128222973Y-77940104D01*
X128017118Y-78504997D01*
X124772422Y-78504997D01*
X124760358Y-78500000D01*
X124159642Y-78500000D01*
X123604654Y-78729884D01*
X123179884Y-79154654D01*
X122950000Y-79709642D01*
X122796911Y-79709642D01*
X123006982Y-79499571D01*
X123195000Y-79045657D01*
X123195000Y-78554343D01*
X123006982Y-78100429D01*
X122659571Y-77753018D01*
X122205657Y-77565000D01*
X121714343Y-77565000D01*
X121260429Y-77753018D01*
X120913018Y-78100429D01*
X120725000Y-78554343D01*
X119875664Y-78554343D01*
X119694694Y-78488410D01*
X119094542Y-78514421D01*
X118660884Y-78694047D01*
X118577545Y-78947940D01*
X114713380Y-78947940D01*
X114417724Y-78234165D01*
X113535835Y-77352276D01*
X112383590Y-76875000D01*
X111136410Y-76875000D01*
X109984165Y-77352276D01*
X109102276Y-78234165D01*
X108625000Y-79386410D01*
X107390000Y-79386410D01*
X107390000Y-78775964D01*
X107456895Y-78117396D01*
X107644039Y-77520218D01*
X107947436Y-76972876D01*
X108354701Y-76497711D01*
X108849188Y-76114148D01*
X109410700Y-75837850D01*
X110024774Y-75677896D01*
X110517270Y-75640000D01*
X128136140Y-75640000D01*
X128028700Y-75899384D01*
X128028700Y-75899384D01*
G37*
X128028700Y-75899384D02*
X128028700Y-76500616D01*
X128258782Y-77056083D01*
X128683917Y-77481218D01*
X128716520Y-77494722D01*
X128656604Y-77676999D01*
X129540000Y-78560395D01*
X129554143Y-78546253D01*
X129733748Y-78725858D01*
X129719605Y-78740000D01*
X130603001Y-79623396D01*
X130857027Y-79539896D01*
X131062882Y-78975003D01*
X131036891Y-78374332D01*
X130977106Y-78230000D01*
X143355430Y-78230000D01*
X143268700Y-78439384D01*
X143268700Y-79040616D01*
X143498782Y-79596083D01*
X143923917Y-80021218D01*
X143956520Y-80034722D01*
X143896604Y-80216999D01*
X144780000Y-81100395D01*
X145663396Y-80216999D01*
X145603480Y-80034722D01*
X145636083Y-80021218D01*
X146061218Y-79596083D01*
X146291300Y-79040616D01*
X146291300Y-78439384D01*
X146204570Y-78230000D01*
X147165430Y-78230000D01*
X147078700Y-78439384D01*
X147078700Y-79040616D01*
X147308782Y-79596083D01*
X147733917Y-80021218D01*
X147766520Y-80034722D01*
X147706604Y-80216999D01*
X148590000Y-81100395D01*
X149473396Y-80216999D01*
X149413480Y-80034722D01*
X149446083Y-80021218D01*
X149871218Y-79596083D01*
X149911017Y-79500000D01*
X159197273Y-79500000D01*
X162604986Y-82907713D01*
X162548782Y-82963917D01*
X162318700Y-83519384D01*
X162318700Y-84120616D01*
X162376974Y-84261301D01*
X150037704Y-84261301D01*
X150112882Y-84055003D01*
X150086891Y-83454332D01*
X150027106Y-83310000D01*
X151696289Y-83310000D01*
X151813720Y-83427431D01*
X152194126Y-83585000D01*
X152605874Y-83585000D01*
X152986280Y-83427431D01*
X153277431Y-83136280D01*
X153435000Y-82755874D01*
X153435000Y-82344126D01*
X153277431Y-81963720D01*
X152986280Y-81672569D01*
X152605874Y-81515000D01*
X152194126Y-81515000D01*
X151813720Y-81672569D01*
X151696289Y-81790000D01*
X150012669Y-81790000D01*
X150112882Y-81515003D01*
X150086891Y-80914332D01*
X149907027Y-80480104D01*
X149653001Y-80396604D01*
X148769605Y-81280000D01*
X148783748Y-81294143D01*
X148604143Y-81473748D01*
X148590000Y-81459605D01*
X148575858Y-81473748D01*
X148396253Y-81294143D01*
X148410395Y-81280000D01*
X147526999Y-80396604D01*
X147272973Y-80480104D01*
X147067118Y-81044997D01*
X147093109Y-81645668D01*
X147152894Y-81790000D01*
X146202669Y-81790000D01*
X146302882Y-81515003D01*
X146276891Y-80914332D01*
X146097027Y-80480104D01*
X145843001Y-80396604D01*
X144959605Y-81280000D01*
X144973748Y-81294143D01*
X144794143Y-81473748D01*
X144780000Y-81459605D01*
X144765858Y-81473748D01*
X144586253Y-81294143D01*
X144600395Y-81280000D01*
X143716999Y-80396604D01*
X143462973Y-80480104D01*
X143257118Y-81044997D01*
X143283109Y-81645668D01*
X143342894Y-81790000D01*
X131124802Y-81790000D01*
X131011501Y-81676699D01*
X131051300Y-81580616D01*
X131051300Y-80979384D01*
X130821218Y-80423917D01*
X130396083Y-79998782D01*
X130363480Y-79985278D01*
X130423396Y-79803001D01*
X129540000Y-78919605D01*
X128656604Y-79803001D01*
X128716520Y-79985278D01*
X128683917Y-79998782D01*
X128258782Y-80423917D01*
X128028700Y-80979384D01*
X128028700Y-81580616D01*
X128258782Y-82136083D01*
X128672699Y-82550000D01*
X128258782Y-82963917D01*
X128028700Y-83519384D01*
X128028700Y-84079721D01*
X124093422Y-88015000D01*
X118678007Y-88015000D01*
X118315874Y-87865000D01*
X117904126Y-87865000D01*
X117523720Y-88022569D01*
X117271808Y-88274481D01*
X117136537Y-88184096D01*
X116914852Y-88140000D01*
X116914847Y-88140000D01*
X116840000Y-88125112D01*
X116765153Y-88140000D01*
X111834846Y-88140000D01*
X111759999Y-88125112D01*
X111685152Y-88140000D01*
X111685148Y-88140000D01*
X111463463Y-88184096D01*
X111212071Y-88352071D01*
X111169671Y-88415527D01*
X108982027Y-90603172D01*
X108918571Y-90645572D01*
X108876171Y-90709028D01*
X108876170Y-90709029D01*
X108750596Y-90896964D01*
X108691611Y-91193501D01*
X108706500Y-91268353D01*
X108706499Y-97021652D01*
X108691611Y-97096499D01*
X108706499Y-97171346D01*
X108706499Y-97171350D01*
X108750595Y-97393035D01*
X108918570Y-97644428D01*
X108982029Y-97686830D01*
X109367560Y-98072361D01*
X109367560Y-98945000D01*
X109403739Y-99126886D01*
X109333691Y-99173691D01*
X109193343Y-99383735D01*
X109144060Y-99631500D01*
X109144060Y-101028500D01*
X109193343Y-101276265D01*
X109333691Y-101486309D01*
X109543735Y-101626657D01*
X109791500Y-101675940D01*
X111188500Y-101675940D01*
X111436265Y-101626657D01*
X111646309Y-101486309D01*
X111786657Y-101276265D01*
X111835940Y-101028500D01*
X111835940Y-99631500D01*
X111786657Y-99383735D01*
X111646309Y-99173691D01*
X111576261Y-99126886D01*
X111612440Y-98945000D01*
X111612440Y-97990245D01*
X111851672Y-98229477D01*
X111894070Y-98292930D01*
X111957523Y-98335328D01*
X111957525Y-98335330D01*
X112026989Y-98381744D01*
X112145462Y-98460905D01*
X112367147Y-98505001D01*
X112367151Y-98505001D01*
X112441998Y-98519889D01*
X112516845Y-98505001D01*
X113543154Y-98505001D01*
X113618001Y-98519889D01*
X113692848Y-98505001D01*
X113692853Y-98505001D01*
X113914538Y-98460905D01*
X114165930Y-98292930D01*
X114208332Y-98229471D01*
X115481100Y-96956703D01*
X115481100Y-97042921D01*
X115881326Y-98009152D01*
X116154232Y-98282058D01*
X115962569Y-98473720D01*
X115805000Y-98854126D01*
X115805000Y-99020198D01*
X115247639Y-99577560D01*
X114910000Y-99577560D01*
X114662235Y-99626843D01*
X114452191Y-99767191D01*
X114311843Y-99977235D01*
X114262560Y-100225000D01*
X114262560Y-101225000D01*
X114311843Y-101472765D01*
X114392900Y-101594074D01*
X114371673Y-101615301D01*
X114275000Y-101848690D01*
X114275000Y-102189250D01*
X114433750Y-102348000D01*
X115583000Y-102348000D01*
X115583000Y-102328000D01*
X115837000Y-102328000D01*
X115837000Y-102348000D01*
X116986250Y-102348000D01*
X117145000Y-102189250D01*
X117145000Y-101848690D01*
X117048327Y-101615301D01*
X117027100Y-101594074D01*
X117108157Y-101472765D01*
X117157440Y-101225000D01*
X117157440Y-100225000D01*
X117125058Y-100062201D01*
X117426280Y-99937431D01*
X117543711Y-99820000D01*
X119216905Y-99820000D01*
X119214524Y-99823563D01*
X119210000Y-99822663D01*
X119122839Y-99840000D01*
X119122835Y-99840000D01*
X118864690Y-99891348D01*
X118645845Y-100037576D01*
X118645844Y-100037577D01*
X118571951Y-100086951D01*
X118522577Y-100160844D01*
X117545847Y-101137575D01*
X117471951Y-101186951D01*
X117276348Y-101479691D01*
X117225000Y-101737836D01*
X117225000Y-101737839D01*
X117207663Y-101825000D01*
X117225000Y-101912161D01*
X117225000Y-104006993D01*
X117075000Y-104369126D01*
X117075000Y-104780874D01*
X117225000Y-105143008D01*
X117225001Y-109548912D01*
X116832291Y-109040714D01*
X116330000Y-108752990D01*
X116330000Y-107383711D01*
X116447431Y-107266280D01*
X116605000Y-106885874D01*
X116605000Y-106474126D01*
X116447431Y-106093720D01*
X116156280Y-105802569D01*
X115775874Y-105645000D01*
X115364126Y-105645000D01*
X114983720Y-105802569D01*
X114692569Y-106093720D01*
X114535000Y-106474126D01*
X114535000Y-106885874D01*
X114692569Y-107266280D01*
X114810000Y-107383711D01*
X114810000Y-108743129D01*
X114714093Y-108769177D01*
X114120715Y-109227710D01*
X113747977Y-109878414D01*
X113676695Y-110434471D01*
X113706644Y-110868752D01*
X112772992Y-111909325D01*
X112487199Y-112391614D01*
X112380889Y-113133939D01*
X112566748Y-113860442D01*
X112703991Y-114043565D01*
X112160493Y-114268690D01*
X111728690Y-114700493D01*
X111495000Y-115264670D01*
X111495000Y-115875330D01*
X111728690Y-116439507D01*
X112160493Y-116871310D01*
X112724670Y-117105000D01*
X113335330Y-117105000D01*
X113899507Y-116871310D01*
X114331310Y-116439507D01*
X114565000Y-115875330D01*
X114565000Y-115264670D01*
X114431386Y-114942098D01*
X115130443Y-114763261D01*
X115579045Y-114427053D01*
X115874165Y-114098137D01*
X115481100Y-115047079D01*
X115481100Y-116092921D01*
X115881326Y-117059152D01*
X116620848Y-117798674D01*
X117587079Y-118198900D01*
X118632921Y-118198900D01*
X119599152Y-117798674D01*
X119625001Y-117772825D01*
X119625000Y-118644467D01*
X119462235Y-118676843D01*
X119252191Y-118817191D01*
X119203541Y-118890000D01*
X119027311Y-118890000D01*
X118987431Y-118793720D01*
X118696280Y-118502569D01*
X118315874Y-118345000D01*
X117904126Y-118345000D01*
X117523720Y-118502569D01*
X117232569Y-118793720D01*
X117117139Y-119072393D01*
X117108157Y-119027235D01*
X116967809Y-118817191D01*
X116757765Y-118676843D01*
X116510000Y-118627560D01*
X114910000Y-118627560D01*
X114662235Y-118676843D01*
X114452191Y-118817191D01*
X114311843Y-119027235D01*
X114262560Y-119275000D01*
X114262560Y-120275000D01*
X114311843Y-120522765D01*
X114392900Y-120644074D01*
X114371673Y-120665301D01*
X114275000Y-120898690D01*
X114275000Y-121239250D01*
X114433750Y-121398000D01*
X115583000Y-121398000D01*
X115583000Y-121378000D01*
X115837000Y-121378000D01*
X115837000Y-121398000D01*
X115857000Y-121398000D01*
X115857000Y-121652000D01*
X115837000Y-121652000D01*
X115837000Y-122501250D01*
X115995750Y-122660000D01*
X116636309Y-122660000D01*
X116869698Y-122563327D01*
X117048327Y-122384699D01*
X117145000Y-122151310D01*
X117145000Y-121984801D01*
X118620000Y-123459802D01*
X118620000Y-123756289D01*
X118502569Y-123873720D01*
X118345000Y-124254126D01*
X118345000Y-124665874D01*
X118502569Y-125046280D01*
X118793720Y-125337431D01*
X119174126Y-125495000D01*
X119585874Y-125495000D01*
X119966280Y-125337431D01*
X120083711Y-125220000D01*
X126296289Y-125220000D01*
X126413720Y-125337431D01*
X126794126Y-125495000D01*
X127205874Y-125495000D01*
X127586280Y-125337431D01*
X127877431Y-125046280D01*
X128035000Y-124665874D01*
X128035000Y-124254126D01*
X127877431Y-123873720D01*
X127586280Y-123582569D01*
X127205874Y-123425000D01*
X126794126Y-123425000D01*
X126413720Y-123582569D01*
X126296289Y-123700000D01*
X120140000Y-123700000D01*
X120140000Y-123219848D01*
X120154888Y-123145000D01*
X120140000Y-123070152D01*
X120140000Y-123070148D01*
X120095904Y-122848463D01*
X120095904Y-122848462D01*
X119978289Y-122672440D01*
X121310000Y-122672440D01*
X121557765Y-122623157D01*
X121767809Y-122482809D01*
X121899982Y-122285000D01*
X122240153Y-122285000D01*
X122315000Y-122299888D01*
X122389847Y-122285000D01*
X122389852Y-122285000D01*
X122611537Y-122240904D01*
X122862929Y-122072929D01*
X122905331Y-122009470D01*
X123229801Y-121685000D01*
X123395874Y-121685000D01*
X123776280Y-121527431D01*
X124067431Y-121236280D01*
X124225000Y-120855874D01*
X124225000Y-120689801D01*
X124495505Y-120419296D01*
X124573691Y-120536309D01*
X124783735Y-120676657D01*
X125031500Y-120725940D01*
X126428500Y-120725940D01*
X126676265Y-120676657D01*
X126886309Y-120536309D01*
X127026657Y-120326265D01*
X127075940Y-120078500D01*
X127075940Y-118681500D01*
X127026657Y-118433735D01*
X126886309Y-118223691D01*
X126816261Y-118176886D01*
X126852440Y-117995000D01*
X126852440Y-116695000D01*
X126803157Y-116447235D01*
X126662809Y-116237191D01*
X126452765Y-116096843D01*
X126205000Y-116047560D01*
X125255000Y-116047560D01*
X125220000Y-116054522D01*
X125220000Y-115085478D01*
X125255000Y-115092440D01*
X126205000Y-115092440D01*
X126452765Y-115043157D01*
X126662809Y-114902809D01*
X126803157Y-114692765D01*
X126852440Y-114445000D01*
X126852440Y-113145000D01*
X126803157Y-112897235D01*
X126673165Y-112702689D01*
X126855854Y-112520000D01*
X130538150Y-112520000D01*
X130613002Y-112534889D01*
X130687854Y-112520000D01*
X130909539Y-112475904D01*
X131160931Y-112307929D01*
X131328906Y-112056537D01*
X131387891Y-111760000D01*
X131373002Y-111685148D01*
X131373002Y-111001799D01*
X133664802Y-108710000D01*
X133981976Y-108710000D01*
X133764093Y-108769177D01*
X133170715Y-109227710D01*
X132797977Y-109878414D01*
X132726695Y-110434471D01*
X132756644Y-110868752D01*
X131822992Y-111909325D01*
X131537199Y-112391614D01*
X131430889Y-113133939D01*
X131616748Y-113860442D01*
X131753991Y-114043565D01*
X131210493Y-114268690D01*
X130778690Y-114700493D01*
X130545000Y-115264670D01*
X130545000Y-115875330D01*
X130778690Y-116439507D01*
X131210493Y-116871310D01*
X131774670Y-117105000D01*
X132385330Y-117105000D01*
X132949507Y-116871310D01*
X133381310Y-116439507D01*
X133615000Y-115875330D01*
X133615000Y-115264670D01*
X133481386Y-114942098D01*
X134180443Y-114763261D01*
X134629045Y-114427053D01*
X134924165Y-114098137D01*
X134531100Y-115047079D01*
X134531100Y-116092921D01*
X134931326Y-117059152D01*
X135670848Y-117798674D01*
X136637079Y-118198900D01*
X137682921Y-118198900D01*
X138649152Y-117798674D01*
X139388674Y-117059152D01*
X139788900Y-116092921D01*
X139788900Y-115047079D01*
X139395836Y-114098138D01*
X139690954Y-114427053D01*
X140139556Y-114763261D01*
X140838614Y-114942099D01*
X140705000Y-115264670D01*
X140705000Y-115875330D01*
X140938690Y-116439507D01*
X141370493Y-116871310D01*
X141934670Y-117105000D01*
X142545330Y-117105000D01*
X143109507Y-116871310D01*
X143541310Y-116439507D01*
X143775000Y-115875330D01*
X143775000Y-115264670D01*
X143541310Y-114700493D01*
X143109507Y-114268690D01*
X142566009Y-114043565D01*
X142703252Y-113860442D01*
X142818054Y-113411690D01*
X145923000Y-113411690D01*
X145923000Y-114014250D01*
X146081750Y-114173000D01*
X147193000Y-114173000D01*
X147193000Y-113061750D01*
X147447000Y-113061750D01*
X147447000Y-114173000D01*
X148558250Y-114173000D01*
X148717000Y-114014250D01*
X148717000Y-113411690D01*
X148620327Y-113178301D01*
X148441698Y-112999673D01*
X148208309Y-112903000D01*
X147605750Y-112903000D01*
X147447000Y-113061750D01*
X147193000Y-113061750D01*
X147034250Y-112903000D01*
X146431691Y-112903000D01*
X146198302Y-112999673D01*
X146019673Y-113178301D01*
X145923000Y-113411690D01*
X142818054Y-113411690D01*
X142889111Y-113133939D01*
X142782802Y-112391613D01*
X142497008Y-111909325D01*
X141563356Y-110868753D01*
X141593305Y-110434470D01*
X141522023Y-109878414D01*
X141149285Y-109227709D01*
X140555907Y-108769177D01*
X140338024Y-108710000D01*
X140655199Y-108710000D01*
X144189671Y-112244473D01*
X144232071Y-112307929D01*
X144295527Y-112350329D01*
X144483462Y-112475904D01*
X144531605Y-112485480D01*
X144705148Y-112520000D01*
X144705152Y-112520000D01*
X144780000Y-112534888D01*
X144854848Y-112520000D01*
X145346289Y-112520000D01*
X145463720Y-112637431D01*
X145844126Y-112795000D01*
X146255874Y-112795000D01*
X146636280Y-112637431D01*
X146927431Y-112346280D01*
X147085000Y-111965874D01*
X147085000Y-111554126D01*
X146927431Y-111173720D01*
X146636280Y-110882569D01*
X146255874Y-110725000D01*
X145844126Y-110725000D01*
X145463720Y-110882569D01*
X145346289Y-111000000D01*
X145094802Y-111000000D01*
X141560331Y-107465530D01*
X141557335Y-107461046D01*
X141653720Y-107557431D01*
X142034126Y-107715000D01*
X142445874Y-107715000D01*
X142826280Y-107557431D01*
X143117431Y-107266280D01*
X143275000Y-106885874D01*
X143275000Y-106719801D01*
X143893501Y-106101301D01*
X149166899Y-106101301D01*
X148105528Y-107162673D01*
X148042072Y-107205073D01*
X147999672Y-107268529D01*
X147999671Y-107268530D01*
X147874097Y-107456465D01*
X147815112Y-107753002D01*
X147830001Y-107827854D01*
X147830000Y-111056289D01*
X147712569Y-111173720D01*
X147555000Y-111554126D01*
X147555000Y-111965874D01*
X147712569Y-112346280D01*
X148003720Y-112637431D01*
X148384126Y-112795000D01*
X148795874Y-112795000D01*
X149176280Y-112637431D01*
X149467431Y-112346280D01*
X149625000Y-111965874D01*
X149625000Y-111554126D01*
X149467431Y-111173720D01*
X149350000Y-111056289D01*
X149350000Y-109678272D01*
X149375528Y-109695329D01*
X150944671Y-111264473D01*
X150987071Y-111327929D01*
X151050527Y-111370329D01*
X151238462Y-111495904D01*
X151243105Y-111496827D01*
X150872992Y-111909325D01*
X150587199Y-112391614D01*
X150480889Y-113133939D01*
X150666748Y-113860442D01*
X150803991Y-114043565D01*
X150260493Y-114268690D01*
X149828690Y-114700493D01*
X149595000Y-115264670D01*
X149595000Y-115875330D01*
X149828690Y-116439507D01*
X150260493Y-116871310D01*
X150824670Y-117105000D01*
X151435330Y-117105000D01*
X151999507Y-116871310D01*
X152431310Y-116439507D01*
X152665000Y-115875330D01*
X152665000Y-115264670D01*
X152531386Y-114942098D01*
X153230443Y-114763261D01*
X153679045Y-114427053D01*
X153974165Y-114098137D01*
X153581100Y-115047079D01*
X153581100Y-116092921D01*
X153981326Y-117059152D01*
X154082946Y-117160772D01*
X153875874Y-117075000D01*
X153464126Y-117075000D01*
X153083720Y-117232569D01*
X152792569Y-117523720D01*
X152635000Y-117904126D01*
X152635000Y-118315874D01*
X152782822Y-118672748D01*
X152762235Y-118676843D01*
X152552191Y-118817191D01*
X152411843Y-119027235D01*
X152362560Y-119275000D01*
X152362560Y-120275000D01*
X152411843Y-120522765D01*
X152492900Y-120644074D01*
X152471673Y-120665301D01*
X152375000Y-120898690D01*
X152375000Y-121239250D01*
X152533750Y-121398000D01*
X153683000Y-121398000D01*
X153683000Y-121378000D01*
X153937000Y-121378000D01*
X153937000Y-121398000D01*
X155086250Y-121398000D01*
X155245000Y-121239250D01*
X155245000Y-120898690D01*
X155148327Y-120665301D01*
X155127100Y-120644074D01*
X155208157Y-120522765D01*
X155257440Y-120275000D01*
X155257440Y-119547241D01*
X157162560Y-121452362D01*
X157162560Y-122025000D01*
X157211843Y-122272765D01*
X157233382Y-122305000D01*
X155181339Y-122305000D01*
X155245000Y-122151310D01*
X155245000Y-121810750D01*
X155086250Y-121652000D01*
X153937000Y-121652000D01*
X153937000Y-121672000D01*
X153683000Y-121672000D01*
X153683000Y-121652000D01*
X152533750Y-121652000D01*
X152375000Y-121810750D01*
X152375000Y-121913421D01*
X149277425Y-118815847D01*
X149228049Y-118741951D01*
X148935310Y-118546348D01*
X148706120Y-118500759D01*
X148680157Y-118370235D01*
X148539809Y-118160191D01*
X148464693Y-118110000D01*
X148539809Y-118059809D01*
X148680157Y-117849765D01*
X148729440Y-117602000D01*
X148729440Y-116078000D01*
X148680157Y-115830235D01*
X148539809Y-115620191D01*
X148469088Y-115572937D01*
X148620327Y-115421699D01*
X148717000Y-115188310D01*
X148717000Y-114585750D01*
X148558250Y-114427000D01*
X147447000Y-114427000D01*
X147447000Y-114447000D01*
X147193000Y-114447000D01*
X147193000Y-114427000D01*
X146081750Y-114427000D01*
X145923000Y-114585750D01*
X145923000Y-115188310D01*
X146019673Y-115421699D01*
X146170912Y-115572937D01*
X146100191Y-115620191D01*
X145959843Y-115830235D01*
X145910560Y-116078000D01*
X145910560Y-116718982D01*
X145807431Y-116615853D01*
X145657431Y-116253720D01*
X145366280Y-115962569D01*
X144985874Y-115805000D01*
X144574126Y-115805000D01*
X144193720Y-115962569D01*
X143902569Y-116253720D01*
X143745000Y-116634126D01*
X143745000Y-117045874D01*
X143902569Y-117426280D01*
X144193720Y-117717431D01*
X144555853Y-117867431D01*
X145183422Y-118495000D01*
X140042159Y-118495000D01*
X139954999Y-118477663D01*
X139867839Y-118495000D01*
X139867835Y-118495000D01*
X139609690Y-118546348D01*
X139488148Y-118627560D01*
X138760000Y-118627560D01*
X138512235Y-118676843D01*
X138302191Y-118817191D01*
X138161843Y-119027235D01*
X138112560Y-119275000D01*
X138112560Y-120245098D01*
X138037431Y-120063720D01*
X137746280Y-119772569D01*
X137365874Y-119615000D01*
X136954126Y-119615000D01*
X136573720Y-119772569D01*
X136353045Y-119993244D01*
X136207440Y-119847638D01*
X136207440Y-119275000D01*
X136158157Y-119027235D01*
X136017809Y-118817191D01*
X135807765Y-118676843D01*
X135560000Y-118627560D01*
X133960000Y-118627560D01*
X133712235Y-118676843D01*
X133502191Y-118817191D01*
X133361843Y-119027235D01*
X133312560Y-119275000D01*
X133312560Y-120275000D01*
X133361843Y-120522765D01*
X133442900Y-120644074D01*
X133421673Y-120665301D01*
X133325000Y-120898690D01*
X133325000Y-121239250D01*
X133483750Y-121398000D01*
X134633000Y-121398000D01*
X134633000Y-121378000D01*
X134887000Y-121378000D01*
X134887000Y-121398000D01*
X134907000Y-121398000D01*
X134907000Y-121652000D01*
X134887000Y-121652000D01*
X134887000Y-121672000D01*
X134633000Y-121672000D01*
X134633000Y-121652000D01*
X133483750Y-121652000D01*
X133325000Y-121810750D01*
X133325000Y-122151310D01*
X133326528Y-122155000D01*
X133144126Y-122155000D01*
X132763720Y-122312569D01*
X132472569Y-122603720D01*
X132315000Y-122984126D01*
X132315000Y-123395874D01*
X132472569Y-123776280D01*
X132763720Y-124067431D01*
X133144126Y-124225000D01*
X133555874Y-124225000D01*
X133605595Y-124204405D01*
X133585000Y-124254126D01*
X133585000Y-124665874D01*
X133742569Y-125046280D01*
X134033720Y-125337431D01*
X134414126Y-125495000D01*
X134825874Y-125495000D01*
X135206280Y-125337431D01*
X135497431Y-125046280D01*
X135655000Y-124665874D01*
X135655000Y-124499801D01*
X137644476Y-122510327D01*
X137707929Y-122467929D01*
X137750327Y-122404476D01*
X137750329Y-122404474D01*
X137845408Y-122262177D01*
X137960148Y-122285000D01*
X137960153Y-122285000D01*
X138035000Y-122299888D01*
X138109847Y-122285000D01*
X138170018Y-122285000D01*
X138302191Y-122482809D01*
X138512235Y-122623157D01*
X138760000Y-122672440D01*
X140360000Y-122672440D01*
X140607765Y-122623157D01*
X140817809Y-122482809D01*
X140958157Y-122272765D01*
X141007440Y-122025000D01*
X141007440Y-121025000D01*
X140958157Y-120777235D01*
X140879822Y-120660000D01*
X140998422Y-120660000D01*
X141212569Y-120874148D01*
X141362569Y-121236280D01*
X141653720Y-121527431D01*
X142034126Y-121685000D01*
X142445874Y-121685000D01*
X142826280Y-121527431D01*
X143117431Y-121236280D01*
X143275000Y-120855874D01*
X143275000Y-120444126D01*
X143200804Y-120265000D01*
X145935026Y-120265000D01*
X145959843Y-120389765D01*
X146100191Y-120599809D01*
X146310235Y-120740157D01*
X146558000Y-120789440D01*
X148082000Y-120789440D01*
X148329765Y-120740157D01*
X148539809Y-120599809D01*
X148547188Y-120588766D01*
X151712577Y-123754156D01*
X151761951Y-123828049D01*
X151835844Y-123877423D01*
X151835845Y-123877424D01*
X151966744Y-123964888D01*
X152054690Y-124023652D01*
X152312835Y-124075000D01*
X152312839Y-124075000D01*
X152400000Y-124092337D01*
X152487161Y-124075000D01*
X157789196Y-124075000D01*
X157715000Y-124254126D01*
X157715000Y-124665874D01*
X157872569Y-125046280D01*
X158163720Y-125337431D01*
X158544126Y-125495000D01*
X158955874Y-125495000D01*
X159336280Y-125337431D01*
X159453711Y-125220000D01*
X168206289Y-125220000D01*
X168323720Y-125337431D01*
X168704126Y-125495000D01*
X169115874Y-125495000D01*
X169496280Y-125337431D01*
X169787431Y-125046280D01*
X169945000Y-124665874D01*
X169945000Y-124254126D01*
X169787431Y-123873720D01*
X169750121Y-123836410D01*
X184825000Y-123836410D01*
X184825000Y-125083590D01*
X185302276Y-126235835D01*
X186184165Y-127117724D01*
X187336410Y-127595000D01*
X188583590Y-127595000D01*
X189735835Y-127117724D01*
X190617724Y-126235835D01*
X191095000Y-125083590D01*
X191095000Y-123836410D01*
X190617724Y-122684165D01*
X189735835Y-121802276D01*
X188583590Y-121325000D01*
X187336410Y-121325000D01*
X186184165Y-121802276D01*
X185302276Y-122684165D01*
X184825000Y-123836410D01*
X169750121Y-123836410D01*
X169496280Y-123582569D01*
X169115874Y-123425000D01*
X168704126Y-123425000D01*
X168323720Y-123582569D01*
X168206289Y-123700000D01*
X159796580Y-123700000D01*
X161685830Y-121810750D01*
X171425000Y-121810750D01*
X171425000Y-122151310D01*
X171521673Y-122384699D01*
X171700302Y-122563327D01*
X171933691Y-122660000D01*
X172574250Y-122660000D01*
X172733000Y-122501250D01*
X172733000Y-121652000D01*
X172987000Y-121652000D01*
X172987000Y-122501250D01*
X173145750Y-122660000D01*
X173786309Y-122660000D01*
X174019698Y-122563327D01*
X174198327Y-122384699D01*
X174295000Y-122151310D01*
X174295000Y-121810750D01*
X174136250Y-121652000D01*
X172987000Y-121652000D01*
X172733000Y-121652000D01*
X171583750Y-121652000D01*
X171425000Y-121810750D01*
X161685830Y-121810750D01*
X164394156Y-119102425D01*
X164468049Y-119053051D01*
X164541148Y-118943652D01*
X164663652Y-118760312D01*
X164667304Y-118741951D01*
X164679328Y-118681500D01*
X166294060Y-118681500D01*
X166294060Y-120078500D01*
X166343343Y-120326265D01*
X166483691Y-120536309D01*
X166693735Y-120676657D01*
X166941500Y-120725940D01*
X168338500Y-120725940D01*
X168586265Y-120676657D01*
X168796309Y-120536309D01*
X168936657Y-120326265D01*
X168985940Y-120078500D01*
X168985940Y-118681500D01*
X168936657Y-118433735D01*
X168796309Y-118223691D01*
X168726261Y-118176886D01*
X168762440Y-117995000D01*
X168762440Y-116695000D01*
X168713157Y-116447235D01*
X168572809Y-116237191D01*
X168362765Y-116096843D01*
X168115000Y-116047560D01*
X167165000Y-116047560D01*
X166917235Y-116096843D01*
X166707191Y-116237191D01*
X166566843Y-116447235D01*
X166517560Y-116695000D01*
X166517560Y-117995000D01*
X166553739Y-118176886D01*
X166483691Y-118223691D01*
X166343343Y-118433735D01*
X166294060Y-118681500D01*
X164679328Y-118681500D01*
X164715000Y-118502167D01*
X164715000Y-118502163D01*
X164732337Y-118415002D01*
X164715000Y-118327841D01*
X164715000Y-116423007D01*
X164865000Y-116060874D01*
X164865000Y-115649126D01*
X164715000Y-115286993D01*
X164715000Y-115264670D01*
X168645000Y-115264670D01*
X168645000Y-115875330D01*
X168878690Y-116439507D01*
X169310493Y-116871310D01*
X169874670Y-117105000D01*
X170485330Y-117105000D01*
X171049507Y-116871310D01*
X171481310Y-116439507D01*
X171715000Y-115875330D01*
X171715000Y-115264670D01*
X171581386Y-114942098D01*
X172280443Y-114763261D01*
X172729045Y-114427053D01*
X173024165Y-114098137D01*
X172631100Y-115047079D01*
X172631100Y-116092921D01*
X173031326Y-117059152D01*
X173132946Y-117160772D01*
X172925874Y-117075000D01*
X172514126Y-117075000D01*
X172133720Y-117232569D01*
X171842569Y-117523720D01*
X171685000Y-117904126D01*
X171685000Y-118315874D01*
X171832822Y-118672748D01*
X171812235Y-118676843D01*
X171602191Y-118817191D01*
X171461843Y-119027235D01*
X171412560Y-119275000D01*
X171412560Y-120275000D01*
X171461843Y-120522765D01*
X171542900Y-120644074D01*
X171521673Y-120665301D01*
X171425000Y-120898690D01*
X171425000Y-121239250D01*
X171583750Y-121398000D01*
X172733000Y-121398000D01*
X172733000Y-121378000D01*
X172987000Y-121378000D01*
X172987000Y-121398000D01*
X174136250Y-121398000D01*
X174295000Y-121239250D01*
X174295000Y-121024869D01*
X174382569Y-121236280D01*
X174673720Y-121527431D01*
X175054126Y-121685000D01*
X175465874Y-121685000D01*
X175628031Y-121617833D01*
X176019671Y-122009473D01*
X176062071Y-122072929D01*
X176246622Y-122196242D01*
X176261843Y-122272765D01*
X176402191Y-122482809D01*
X176612235Y-122623157D01*
X176860000Y-122672440D01*
X178460000Y-122672440D01*
X178707765Y-122623157D01*
X178917809Y-122482809D01*
X179058157Y-122272765D01*
X179107440Y-122025000D01*
X179107440Y-121025000D01*
X179058157Y-120777235D01*
X178973141Y-120650000D01*
X178997773Y-120613135D01*
X179020310Y-120608652D01*
X179313049Y-120413049D01*
X179362425Y-120339153D01*
X180564148Y-119137431D01*
X180926280Y-118987431D01*
X181217431Y-118696280D01*
X181223553Y-118681500D01*
X181534060Y-118681500D01*
X181534060Y-120078500D01*
X181583343Y-120326265D01*
X181723691Y-120536309D01*
X181933735Y-120676657D01*
X182181500Y-120725940D01*
X183578500Y-120725940D01*
X183826265Y-120676657D01*
X184036309Y-120536309D01*
X184176657Y-120326265D01*
X184225940Y-120078500D01*
X184225940Y-118681500D01*
X184176657Y-118433735D01*
X184036309Y-118223691D01*
X183966261Y-118176886D01*
X184002440Y-117995000D01*
X184002440Y-116695000D01*
X183953157Y-116447235D01*
X183812809Y-116237191D01*
X183602765Y-116096843D01*
X183355000Y-116047560D01*
X182405000Y-116047560D01*
X182157235Y-116096843D01*
X181947191Y-116237191D01*
X181806843Y-116447235D01*
X181757560Y-116695000D01*
X181757560Y-117995000D01*
X181793739Y-118176886D01*
X181723691Y-118223691D01*
X181583343Y-118433735D01*
X181534060Y-118681500D01*
X181223553Y-118681500D01*
X181375000Y-118315874D01*
X181375000Y-117904126D01*
X181217431Y-117523720D01*
X180926280Y-117232569D01*
X180618301Y-117105000D01*
X180645330Y-117105000D01*
X181209507Y-116871310D01*
X181641310Y-116439507D01*
X181875000Y-115875330D01*
X181875000Y-115264670D01*
X181641310Y-114700493D01*
X181209507Y-114268690D01*
X180666009Y-114043565D01*
X180803252Y-113860442D01*
X180989111Y-113133939D01*
X180882802Y-112391613D01*
X180597008Y-111909325D01*
X180225032Y-111494750D01*
X181546500Y-111494750D01*
X181546500Y-112025250D01*
X181749513Y-112515367D01*
X181936835Y-112702689D01*
X181806843Y-112897235D01*
X181757560Y-113145000D01*
X181757560Y-114445000D01*
X181806843Y-114692765D01*
X181947191Y-114902809D01*
X182157235Y-115043157D01*
X182405000Y-115092440D01*
X183355000Y-115092440D01*
X183602765Y-115043157D01*
X183812809Y-114902809D01*
X183953157Y-114692765D01*
X184002440Y-114445000D01*
X184002440Y-113145000D01*
X183953157Y-112897235D01*
X183823165Y-112702689D01*
X184010487Y-112515367D01*
X184213500Y-112025250D01*
X184213500Y-111494750D01*
X184010487Y-111004633D01*
X183635367Y-110629513D01*
X183145250Y-110426500D01*
X182614750Y-110426500D01*
X182124633Y-110629513D01*
X181749513Y-111004633D01*
X181546500Y-111494750D01*
X180225032Y-111494750D01*
X179663356Y-110868753D01*
X179693305Y-110434470D01*
X179622023Y-109878414D01*
X179249285Y-109227709D01*
X178655907Y-108769177D01*
X177932225Y-108572625D01*
X177188413Y-108667976D01*
X176537709Y-109040713D01*
X176145000Y-109548911D01*
X176145000Y-107248007D01*
X176295000Y-106885874D01*
X176295000Y-106474126D01*
X176137431Y-106093720D01*
X175846280Y-105802569D01*
X175465874Y-105645000D01*
X175054126Y-105645000D01*
X174673720Y-105802569D01*
X174382569Y-106093720D01*
X174225000Y-106474126D01*
X174225000Y-106885874D01*
X174375000Y-107248007D01*
X174375001Y-109548911D01*
X173982291Y-109040714D01*
X173480000Y-108752990D01*
X173480000Y-107383711D01*
X173597431Y-107266280D01*
X173755000Y-106885874D01*
X173755000Y-106474126D01*
X173597431Y-106093720D01*
X173306280Y-105802569D01*
X172925874Y-105645000D01*
X172514126Y-105645000D01*
X172133720Y-105802569D01*
X171842569Y-106093720D01*
X171685000Y-106474126D01*
X171685000Y-106885874D01*
X171842569Y-107266280D01*
X171960000Y-107383711D01*
X171960001Y-108743129D01*
X171864093Y-108769177D01*
X171270715Y-109227710D01*
X170897977Y-109878414D01*
X170826695Y-110434471D01*
X170856644Y-110868752D01*
X169922992Y-111909325D01*
X169637199Y-112391614D01*
X169530889Y-113133939D01*
X169716748Y-113860442D01*
X169853991Y-114043565D01*
X169310493Y-114268690D01*
X168878690Y-114700493D01*
X168645000Y-115264670D01*
X164715000Y-115264670D01*
X164715000Y-111494750D01*
X166306500Y-111494750D01*
X166306500Y-112025250D01*
X166509513Y-112515367D01*
X166696835Y-112702689D01*
X166566843Y-112897235D01*
X166517560Y-113145000D01*
X166517560Y-114445000D01*
X166566843Y-114692765D01*
X166707191Y-114902809D01*
X166917235Y-115043157D01*
X167165000Y-115092440D01*
X168115000Y-115092440D01*
X168362765Y-115043157D01*
X168572809Y-114902809D01*
X168713157Y-114692765D01*
X168762440Y-114445000D01*
X168762440Y-113145000D01*
X168713157Y-112897235D01*
X168583165Y-112702689D01*
X168770487Y-112515367D01*
X168973500Y-112025250D01*
X168973500Y-111494750D01*
X168770487Y-111004633D01*
X168395367Y-110629513D01*
X167905250Y-110426500D01*
X167374750Y-110426500D01*
X166884633Y-110629513D01*
X166509513Y-111004633D01*
X166306500Y-111494750D01*
X164715000Y-111494750D01*
X164715000Y-108037159D01*
X164732337Y-107949999D01*
X164715000Y-107862839D01*
X164715000Y-107862835D01*
X164663652Y-107604690D01*
X164637132Y-107565000D01*
X166282839Y-107565000D01*
X166370000Y-107582337D01*
X166457161Y-107565000D01*
X166457165Y-107565000D01*
X166715310Y-107513652D01*
X167008049Y-107318049D01*
X167057425Y-107244153D01*
X168327424Y-105974155D01*
X168327426Y-105974152D01*
X169276579Y-105025000D01*
X178017841Y-105025000D01*
X178105002Y-105042337D01*
X178192163Y-105025000D01*
X178192167Y-105025000D01*
X178450312Y-104973652D01*
X178743051Y-104778049D01*
X178792427Y-104704153D01*
X179474157Y-104022424D01*
X179548050Y-103973050D01*
X179743653Y-103680311D01*
X179795001Y-103422166D01*
X179795001Y-103422162D01*
X179812338Y-103335001D01*
X179795001Y-103247840D01*
X179795001Y-101762160D01*
X179812338Y-101675000D01*
X179795001Y-101587840D01*
X179795001Y-101587836D01*
X179743653Y-101329691D01*
X179688872Y-101247706D01*
X180564148Y-100372431D01*
X180926280Y-100222431D01*
X181217431Y-99931280D01*
X181367431Y-99569147D01*
X181644760Y-99291818D01*
X181583343Y-99383735D01*
X181534060Y-99631500D01*
X181534060Y-101028500D01*
X181583343Y-101276265D01*
X181723691Y-101486309D01*
X181933735Y-101626657D01*
X182181500Y-101675940D01*
X183578500Y-101675940D01*
X183826265Y-101626657D01*
X184036309Y-101486309D01*
X184176657Y-101276265D01*
X184225940Y-101028500D01*
X184225940Y-99631500D01*
X184176657Y-99383735D01*
X184036309Y-99173691D01*
X183966261Y-99126886D01*
X184002440Y-98945000D01*
X184002440Y-97645000D01*
X183953157Y-97397235D01*
X183812809Y-97187191D01*
X183602765Y-97046843D01*
X183355000Y-96997560D01*
X182616499Y-96997560D01*
X182616499Y-96042440D01*
X183355000Y-96042440D01*
X183602765Y-95993157D01*
X183812809Y-95852809D01*
X183953157Y-95642765D01*
X184002440Y-95395000D01*
X184002440Y-94095000D01*
X183953157Y-93847235D01*
X183823165Y-93652689D01*
X184010487Y-93465367D01*
X184213500Y-92975250D01*
X184213500Y-92444750D01*
X184010487Y-91954633D01*
X183635367Y-91579513D01*
X183145250Y-91376500D01*
X182616499Y-91376500D01*
X182616499Y-89218658D01*
X182633836Y-89131498D01*
X182616499Y-89044338D01*
X182616499Y-89044334D01*
X182565151Y-88786189D01*
X182440331Y-88599384D01*
X182418923Y-88567344D01*
X182418922Y-88567343D01*
X182369548Y-88493450D01*
X182295655Y-88444076D01*
X178567425Y-84715847D01*
X178518049Y-84641951D01*
X178225310Y-84446348D01*
X177967165Y-84395000D01*
X177967161Y-84395000D01*
X177946815Y-84390953D01*
X177928839Y-84300582D01*
X177600625Y-83809375D01*
X177109418Y-83481161D01*
X176530000Y-83365908D01*
X175950583Y-83481161D01*
X175665000Y-83671981D01*
X175665000Y-83234343D01*
X175476982Y-82780429D01*
X175129571Y-82433018D01*
X174675657Y-82245000D01*
X174184343Y-82245000D01*
X173730429Y-82433018D01*
X173555000Y-82608447D01*
X173379571Y-82433018D01*
X172925657Y-82245000D01*
X172434343Y-82245000D01*
X171980429Y-82433018D01*
X171633018Y-82780429D01*
X171445000Y-83234343D01*
X171445000Y-83671981D01*
X171159418Y-83481161D01*
X170580000Y-83365908D01*
X170000583Y-83481161D01*
X169509375Y-83809375D01*
X169181161Y-84300582D01*
X169095000Y-84733744D01*
X169095000Y-85826255D01*
X169181161Y-86259417D01*
X169509375Y-86750625D01*
X170000582Y-87078839D01*
X170580000Y-87194092D01*
X170845000Y-87141380D01*
X170845000Y-87326255D01*
X170931161Y-87759417D01*
X171259375Y-88250625D01*
X171750582Y-88578839D01*
X172330000Y-88694092D01*
X172909417Y-88578839D01*
X173400625Y-88250625D01*
X173555000Y-88019586D01*
X173709375Y-88250625D01*
X174200582Y-88578839D01*
X174780000Y-88694092D01*
X175359417Y-88578839D01*
X175850625Y-88250625D01*
X176178839Y-87759418D01*
X176265000Y-87326256D01*
X176265000Y-87141380D01*
X176530000Y-87194092D01*
X177109417Y-87078839D01*
X177600625Y-86750625D01*
X177800265Y-86451843D01*
X180846499Y-89498078D01*
X180846499Y-93280351D01*
X180597008Y-92859325D01*
X179663356Y-91818753D01*
X179693305Y-91384470D01*
X179622023Y-90828414D01*
X179249285Y-90177709D01*
X178655907Y-89719177D01*
X177932225Y-89522625D01*
X177188413Y-89617976D01*
X176537709Y-89990713D01*
X176079177Y-90584092D01*
X175932239Y-91125099D01*
X175866695Y-92075529D01*
X175887162Y-92235186D01*
X175840889Y-92416061D01*
X175947199Y-93158386D01*
X176232992Y-93640675D01*
X177407393Y-94949567D01*
X176749152Y-94291326D01*
X175782921Y-93891100D01*
X174737079Y-93891100D01*
X173770848Y-94291326D01*
X173112600Y-94949574D01*
X174287008Y-93640675D01*
X174572802Y-93158387D01*
X174679111Y-92416061D01*
X174632838Y-92235186D01*
X174653305Y-92075530D01*
X174587761Y-91125100D01*
X174440824Y-90584092D01*
X173982291Y-89990714D01*
X173331587Y-89617976D01*
X172587775Y-89522625D01*
X171864093Y-89719177D01*
X171270715Y-90177710D01*
X170897977Y-90828414D01*
X170826695Y-91384471D01*
X170856644Y-91818752D01*
X169922992Y-92859325D01*
X169714999Y-93210323D01*
X169714999Y-91469849D01*
X169729887Y-91395001D01*
X169714999Y-91320153D01*
X169714999Y-91320149D01*
X169670903Y-91098464D01*
X169502928Y-90847072D01*
X169439472Y-90804672D01*
X167130000Y-88495201D01*
X167130000Y-81407000D01*
X169095000Y-81407000D01*
X169095000Y-81807000D01*
X169256640Y-82365618D01*
X169619749Y-82819856D01*
X170129048Y-83100562D01*
X170223110Y-83121476D01*
X170453000Y-83000155D01*
X170453000Y-81407000D01*
X170707000Y-81407000D01*
X170707000Y-83000155D01*
X170936890Y-83121476D01*
X171030952Y-83100562D01*
X171540251Y-82819856D01*
X171903360Y-82365618D01*
X172065000Y-81807000D01*
X172065000Y-81407000D01*
X175045000Y-81407000D01*
X175045000Y-81807000D01*
X175206640Y-82365618D01*
X175569749Y-82819856D01*
X176079048Y-83100562D01*
X176173110Y-83121476D01*
X176403000Y-83000155D01*
X176403000Y-81407000D01*
X176657000Y-81407000D01*
X176657000Y-83000155D01*
X176886890Y-83121476D01*
X176980952Y-83100562D01*
X177490251Y-82819856D01*
X177853360Y-82365618D01*
X178015000Y-81807000D01*
X178015000Y-81407000D01*
X176657000Y-81407000D01*
X176403000Y-81407000D01*
X175045000Y-81407000D01*
X172065000Y-81407000D01*
X170707000Y-81407000D01*
X170453000Y-81407000D01*
X169095000Y-81407000D01*
X167130000Y-81407000D01*
X167130000Y-77004802D01*
X168889673Y-78764476D01*
X168932071Y-78827929D01*
X168995524Y-78870327D01*
X168995526Y-78870329D01*
X169093364Y-78935702D01*
X169120358Y-78953739D01*
X169181161Y-79259417D01*
X169509375Y-79750625D01*
X169575859Y-79795048D01*
X169256640Y-80194382D01*
X169095000Y-80753000D01*
X169095000Y-81153000D01*
X170453000Y-81153000D01*
X170453000Y-81133000D01*
X170707000Y-81133000D01*
X170707000Y-81153000D01*
X172065000Y-81153000D01*
X172065000Y-80753000D01*
X171903360Y-80194382D01*
X171584141Y-79795048D01*
X171650625Y-79750625D01*
X171978839Y-79259418D01*
X172065000Y-78826256D01*
X172065000Y-77733745D01*
X172027773Y-77546593D01*
X172434343Y-77715000D01*
X172925657Y-77715000D01*
X173379571Y-77526982D01*
X173555000Y-77351553D01*
X173730429Y-77526982D01*
X174184343Y-77715000D01*
X174675657Y-77715000D01*
X175082227Y-77546593D01*
X175045000Y-77733744D01*
X175045000Y-78826255D01*
X175131161Y-79259417D01*
X175459375Y-79750625D01*
X175525859Y-79795048D01*
X175206640Y-80194382D01*
X175045000Y-80753000D01*
X175045000Y-81153000D01*
X176403000Y-81153000D01*
X176403000Y-81133000D01*
X176657000Y-81133000D01*
X176657000Y-81153000D01*
X178015000Y-81153000D01*
X178015000Y-80753000D01*
X177853360Y-80194382D01*
X177534141Y-79795048D01*
X177600625Y-79750625D01*
X177843985Y-79386410D01*
X184825000Y-79386410D01*
X184825000Y-80633590D01*
X185302276Y-81785835D01*
X186184165Y-82667724D01*
X187336410Y-83145000D01*
X188583590Y-83145000D01*
X189735835Y-82667724D01*
X190617724Y-81785835D01*
X191095000Y-80633590D01*
X191095000Y-79386410D01*
X190617724Y-78234165D01*
X189735835Y-77352276D01*
X188583590Y-76875000D01*
X187336410Y-76875000D01*
X186184165Y-77352276D01*
X185302276Y-78234165D01*
X184825000Y-79386410D01*
X177843985Y-79386410D01*
X177928839Y-79259418D01*
X178015000Y-78826256D01*
X178015000Y-77733745D01*
X177928839Y-77300582D01*
X177600625Y-76809375D01*
X177109418Y-76481161D01*
X176530000Y-76365908D01*
X175950583Y-76481161D01*
X175665000Y-76671981D01*
X175665000Y-76234343D01*
X175476982Y-75780429D01*
X175336553Y-75640000D01*
X188434036Y-75640000D01*
X189092604Y-75706895D01*
X189689782Y-75894039D01*
X190237124Y-76197436D01*
X190712289Y-76604701D01*
X191095852Y-77099188D01*
X191372150Y-77660700D01*
X191532104Y-78274774D01*
X191570000Y-78767270D01*
X191570001Y-125064026D01*
X191503105Y-125722604D01*
X191315961Y-126319782D01*
X191012563Y-126867125D01*
X190605299Y-127342289D01*
X190110812Y-127725852D01*
X189549304Y-128002148D01*
X188935227Y-128162104D01*
X188442730Y-128200000D01*
X110525964Y-128200000D01*
X109867396Y-128133105D01*
X109270218Y-127945961D01*
X108722875Y-127642563D01*
X108247711Y-127235299D01*
X107864148Y-126740812D01*
X107587852Y-126179304D01*
X107427896Y-125565227D01*
X107390000Y-125072730D01*
X107390000Y-123836410D01*
X108625000Y-123836410D01*
X108625000Y-125083590D01*
X109102276Y-126235835D01*
X109984165Y-127117724D01*
X111136410Y-127595000D01*
X112383590Y-127595000D01*
X113535835Y-127117724D01*
X114417724Y-126235835D01*
X114895000Y-125083590D01*
X114895000Y-123836410D01*
X114417724Y-122684165D01*
X113544309Y-121810750D01*
X114275000Y-121810750D01*
X114275000Y-122151310D01*
X114371673Y-122384699D01*
X114550302Y-122563327D01*
X114783691Y-122660000D01*
X115424250Y-122660000D01*
X115583000Y-122501250D01*
X115583000Y-121652000D01*
X114433750Y-121652000D01*
X114275000Y-121810750D01*
X113544309Y-121810750D01*
X113535835Y-121802276D01*
X112383590Y-121325000D01*
X111136410Y-121325000D01*
X109984165Y-121802276D01*
X109102276Y-122684165D01*
X108625000Y-123836410D01*
X107390000Y-123836410D01*
X107390000Y-118681500D01*
X109144060Y-118681500D01*
X109144060Y-120078500D01*
X109193343Y-120326265D01*
X109333691Y-120536309D01*
X109543735Y-120676657D01*
X109791500Y-120725940D01*
X111188500Y-120725940D01*
X111436265Y-120676657D01*
X111646309Y-120536309D01*
X111786657Y-120326265D01*
X111835940Y-120078500D01*
X111835940Y-118681500D01*
X111786657Y-118433735D01*
X111646309Y-118223691D01*
X111576261Y-118176886D01*
X111612440Y-117995000D01*
X111612440Y-116695000D01*
X111563157Y-116447235D01*
X111422809Y-116237191D01*
X111212765Y-116096843D01*
X110965000Y-116047560D01*
X110015000Y-116047560D01*
X109767235Y-116096843D01*
X109557191Y-116237191D01*
X109416843Y-116447235D01*
X109367560Y-116695000D01*
X109367560Y-117995000D01*
X109403739Y-118176886D01*
X109333691Y-118223691D01*
X109193343Y-118433735D01*
X109144060Y-118681500D01*
X107390000Y-118681500D01*
X107390000Y-111494750D01*
X109156500Y-111494750D01*
X109156500Y-112025250D01*
X109359513Y-112515367D01*
X109546835Y-112702689D01*
X109416843Y-112897235D01*
X109367560Y-113145000D01*
X109367560Y-114445000D01*
X109416843Y-114692765D01*
X109557191Y-114902809D01*
X109767235Y-115043157D01*
X110015000Y-115092440D01*
X110965000Y-115092440D01*
X111212765Y-115043157D01*
X111422809Y-114902809D01*
X111563157Y-114692765D01*
X111612440Y-114445000D01*
X111612440Y-113145000D01*
X111563157Y-112897235D01*
X111433165Y-112702689D01*
X111620487Y-112515367D01*
X111823500Y-112025250D01*
X111823500Y-111494750D01*
X111620487Y-111004633D01*
X111245367Y-110629513D01*
X110755250Y-110426500D01*
X110224750Y-110426500D01*
X109734633Y-110629513D01*
X109359513Y-111004633D01*
X109156500Y-111494750D01*
X107390000Y-111494750D01*
X107390000Y-102760750D01*
X114275000Y-102760750D01*
X114275000Y-103101310D01*
X114371673Y-103334699D01*
X114550302Y-103513327D01*
X114783691Y-103610000D01*
X115424250Y-103610000D01*
X115583000Y-103451250D01*
X115583000Y-102602000D01*
X115837000Y-102602000D01*
X115837000Y-103451250D01*
X115995750Y-103610000D01*
X116636309Y-103610000D01*
X116869698Y-103513327D01*
X117048327Y-103334699D01*
X117145000Y-103101310D01*
X117145000Y-102760750D01*
X116986250Y-102602000D01*
X115837000Y-102602000D01*
X115583000Y-102602000D01*
X114433750Y-102602000D01*
X114275000Y-102760750D01*
X107390000Y-102760750D01*
X107390000Y-79386410D01*
X108625000Y-79386410D01*
X108625000Y-80633590D01*
X109102276Y-81785835D01*
X109984165Y-82667724D01*
X111136410Y-83145000D01*
X112383590Y-83145000D01*
X113535835Y-82667724D01*
X114038726Y-82164833D01*
X116765000Y-82164833D01*
X116765000Y-82835167D01*
X117021526Y-83454476D01*
X117495524Y-83928474D01*
X118114833Y-84185000D01*
X118785167Y-84185000D01*
X119404476Y-83928474D01*
X119878474Y-83454476D01*
X120135000Y-82835167D01*
X120135000Y-82164833D01*
X119878474Y-81545524D01*
X119834701Y-81501751D01*
X120259116Y-81325953D01*
X120342455Y-81072060D01*
X119460000Y-80189605D01*
X119445858Y-80203748D01*
X119266253Y-80024143D01*
X119280395Y-80010000D01*
X119639605Y-80010000D01*
X120522060Y-80892455D01*
X120775953Y-80809116D01*
X120981590Y-80244694D01*
X120955579Y-79644542D01*
X120775953Y-79210884D01*
X120522060Y-79127545D01*
X119639605Y-80010000D01*
X119280395Y-80010000D01*
X118397940Y-79127545D01*
X118144047Y-79210884D01*
X117938410Y-79775306D01*
X117964421Y-80375458D01*
X118144047Y-80809116D01*
X118161973Y-80815000D01*
X118114833Y-80815000D01*
X117495524Y-81071526D01*
X117021526Y-81545524D01*
X116765000Y-82164833D01*
X114038726Y-82164833D01*
X114417724Y-81785835D01*
X114895000Y-80633590D01*
X114895000Y-79386410D01*
X114713380Y-78947940D01*
X118577545Y-78947940D01*
X119460000Y-79830395D01*
X120342455Y-78947940D01*
X120259116Y-78694047D01*
X119875664Y-78554343D01*
X120725000Y-78554343D01*
X120725000Y-79045657D01*
X120913018Y-79499571D01*
X121260429Y-79846982D01*
X121714343Y-80035000D01*
X122205657Y-80035000D01*
X122659571Y-79846982D01*
X122796911Y-79709642D01*
X122950000Y-79709642D01*
X122950000Y-80310358D01*
X123179884Y-80865346D01*
X123604654Y-81290116D01*
X124087099Y-81489951D01*
X124031526Y-81545524D01*
X123775000Y-82164833D01*
X123775000Y-82835167D01*
X124031526Y-83454476D01*
X124505524Y-83928474D01*
X125124833Y-84185000D01*
X125795167Y-84185000D01*
X126414476Y-83928474D01*
X126888474Y-83454476D01*
X127145000Y-82835167D01*
X127145000Y-82164833D01*
X126888474Y-81545524D01*
X126414476Y-81071526D01*
X125795167Y-80815000D01*
X125760970Y-80815000D01*
X125970000Y-80310358D01*
X125970000Y-79709642D01*
X125740116Y-79154654D01*
X125315346Y-78729884D01*
X124772422Y-78504997D01*
X128017118Y-78504997D01*
X128043109Y-79105668D01*
X128222973Y-79539896D01*
X128476999Y-79623396D01*
X129360395Y-78740000D01*
X128476999Y-77856604D01*
X128222973Y-77940104D01*
X128017118Y-78504997D01*
X124772422Y-78504997D01*
X124760358Y-78500000D01*
X124159642Y-78500000D01*
X123604654Y-78729884D01*
X123179884Y-79154654D01*
X122950000Y-79709642D01*
X122796911Y-79709642D01*
X123006982Y-79499571D01*
X123195000Y-79045657D01*
X123195000Y-78554343D01*
X123006982Y-78100429D01*
X122659571Y-77753018D01*
X122205657Y-77565000D01*
X121714343Y-77565000D01*
X121260429Y-77753018D01*
X120913018Y-78100429D01*
X120725000Y-78554343D01*
X119875664Y-78554343D01*
X119694694Y-78488410D01*
X119094542Y-78514421D01*
X118660884Y-78694047D01*
X118577545Y-78947940D01*
X114713380Y-78947940D01*
X114417724Y-78234165D01*
X113535835Y-77352276D01*
X112383590Y-76875000D01*
X111136410Y-76875000D01*
X109984165Y-77352276D01*
X109102276Y-78234165D01*
X108625000Y-79386410D01*
X107390000Y-79386410D01*
X107390000Y-78775964D01*
X107456895Y-78117396D01*
X107644039Y-77520218D01*
X107947436Y-76972876D01*
X108354701Y-76497711D01*
X108849188Y-76114148D01*
X109410700Y-75837850D01*
X110024774Y-75677896D01*
X110517270Y-75640000D01*
X128136140Y-75640000D01*
X128028700Y-75899384D01*
G36*
X161525000Y-106474126D02*
X161525000Y-106885874D01*
X161682569Y-107266280D01*
X161973720Y-107557431D01*
X162335853Y-107707431D01*
X162945000Y-108316579D01*
X162945001Y-115286991D01*
X162825000Y-115576699D01*
X162825000Y-115264670D01*
X162591310Y-114700493D01*
X162159507Y-114268690D01*
X161616009Y-114043565D01*
X161753252Y-113860442D01*
X161939111Y-113133939D01*
X161832802Y-112391613D01*
X161547008Y-111909325D01*
X160613356Y-110868753D01*
X160643305Y-110434470D01*
X160584863Y-109978574D01*
X160703720Y-110097431D01*
X161084126Y-110255000D01*
X161495874Y-110255000D01*
X161876280Y-110097431D01*
X162167431Y-109806280D01*
X162325000Y-109425874D01*
X162325000Y-109014126D01*
X162167431Y-108633720D01*
X161876280Y-108342569D01*
X161495874Y-108185000D01*
X161329802Y-108185000D01*
X159246102Y-106101301D01*
X161679429Y-106101301D01*
X161525000Y-106474126D01*
X161525000Y-106474126D01*
G37*
X161525000Y-106474126D02*
X161525000Y-106885874D01*
X161682569Y-107266280D01*
X161973720Y-107557431D01*
X162335853Y-107707431D01*
X162945000Y-108316579D01*
X162945001Y-115286991D01*
X162825000Y-115576699D01*
X162825000Y-115264670D01*
X162591310Y-114700493D01*
X162159507Y-114268690D01*
X161616009Y-114043565D01*
X161753252Y-113860442D01*
X161939111Y-113133939D01*
X161832802Y-112391613D01*
X161547008Y-111909325D01*
X160613356Y-110868753D01*
X160643305Y-110434470D01*
X160584863Y-109978574D01*
X160703720Y-110097431D01*
X161084126Y-110255000D01*
X161495874Y-110255000D01*
X161876280Y-110097431D01*
X162167431Y-109806280D01*
X162325000Y-109425874D01*
X162325000Y-109014126D01*
X162167431Y-108633720D01*
X161876280Y-108342569D01*
X161495874Y-108185000D01*
X161329802Y-108185000D01*
X159246102Y-106101301D01*
X161679429Y-106101301D01*
X161525000Y-106474126D01*
G36*
X130864999Y-100124126D02*
X130864999Y-100535874D01*
X131022568Y-100916280D01*
X131313719Y-101207431D01*
X131694125Y-101365000D01*
X132105873Y-101365000D01*
X132486279Y-101207431D01*
X132603710Y-101090000D01*
X133312560Y-101090000D01*
X133312560Y-101225000D01*
X133361843Y-101472765D01*
X133442900Y-101594074D01*
X133421673Y-101615301D01*
X133325000Y-101848690D01*
X133325000Y-102189250D01*
X133483750Y-102348000D01*
X134633000Y-102348000D01*
X134633000Y-102328000D01*
X134887000Y-102328000D01*
X134887000Y-102348000D01*
X136036250Y-102348000D01*
X136195000Y-102189250D01*
X136195000Y-101974869D01*
X136282569Y-102186280D01*
X136573720Y-102477431D01*
X136954126Y-102635000D01*
X137120198Y-102635000D01*
X137444670Y-102959472D01*
X137487071Y-103022929D01*
X137738463Y-103190904D01*
X137960148Y-103235000D01*
X137960153Y-103235000D01*
X138035000Y-103249888D01*
X138109847Y-103235000D01*
X138170018Y-103235000D01*
X138302191Y-103432809D01*
X138512235Y-103573157D01*
X138760000Y-103622440D01*
X138794104Y-103622440D01*
X138665000Y-103934126D01*
X138665000Y-104345874D01*
X138822569Y-104726280D01*
X139113720Y-105017431D01*
X139494126Y-105175000D01*
X139905874Y-105175000D01*
X140286280Y-105017431D01*
X140403711Y-104900000D01*
X142789829Y-104900000D01*
X142864676Y-104914888D01*
X142939523Y-104900000D01*
X142939528Y-104900000D01*
X142946606Y-104898592D01*
X142200199Y-105645000D01*
X142034126Y-105645000D01*
X141653720Y-105802569D01*
X141362569Y-106093720D01*
X141205000Y-106474126D01*
X141205000Y-106885874D01*
X141362569Y-107266280D01*
X141458954Y-107362665D01*
X141266537Y-107234096D01*
X141044852Y-107190000D01*
X141044847Y-107190000D01*
X140970000Y-107175112D01*
X140895153Y-107190000D01*
X135529027Y-107190000D01*
X135655000Y-106885874D01*
X135655000Y-106474126D01*
X135497431Y-106093720D01*
X135206280Y-105802569D01*
X134825874Y-105645000D01*
X134659803Y-105645000D01*
X133074802Y-104060001D01*
X134368118Y-104060001D01*
X135941459Y-105633344D01*
X135941459Y-105799415D01*
X136099028Y-106179821D01*
X136390179Y-106470972D01*
X136770585Y-106628541D01*
X137182333Y-106628541D01*
X137562739Y-106470972D01*
X137853890Y-106179821D01*
X138011459Y-105799415D01*
X138011459Y-105387667D01*
X137853890Y-105007261D01*
X137562739Y-104716110D01*
X137182333Y-104558541D01*
X137016262Y-104558541D01*
X135945372Y-103487653D01*
X136098327Y-103334699D01*
X136195000Y-103101310D01*
X136195000Y-102760750D01*
X136036250Y-102602000D01*
X135006250Y-102602000D01*
X134979456Y-102584097D01*
X134757771Y-102540001D01*
X134757766Y-102540001D01*
X134682919Y-102525113D01*
X134608072Y-102540001D01*
X131554804Y-102540001D01*
X131011501Y-101996699D01*
X131051300Y-101900616D01*
X131051300Y-101299384D01*
X130821218Y-100743917D01*
X130407301Y-100330000D01*
X130821218Y-99916083D01*
X130861017Y-99820000D01*
X130990972Y-99820000D01*
X130864999Y-100124126D01*
X130864999Y-100124126D01*
G37*
X130864999Y-100124126D02*
X130864999Y-100535874D01*
X131022568Y-100916280D01*
X131313719Y-101207431D01*
X131694125Y-101365000D01*
X132105873Y-101365000D01*
X132486279Y-101207431D01*
X132603710Y-101090000D01*
X133312560Y-101090000D01*
X133312560Y-101225000D01*
X133361843Y-101472765D01*
X133442900Y-101594074D01*
X133421673Y-101615301D01*
X133325000Y-101848690D01*
X133325000Y-102189250D01*
X133483750Y-102348000D01*
X134633000Y-102348000D01*
X134633000Y-102328000D01*
X134887000Y-102328000D01*
X134887000Y-102348000D01*
X136036250Y-102348000D01*
X136195000Y-102189250D01*
X136195000Y-101974869D01*
X136282569Y-102186280D01*
X136573720Y-102477431D01*
X136954126Y-102635000D01*
X137120198Y-102635000D01*
X137444670Y-102959472D01*
X137487071Y-103022929D01*
X137738463Y-103190904D01*
X137960148Y-103235000D01*
X137960153Y-103235000D01*
X138035000Y-103249888D01*
X138109847Y-103235000D01*
X138170018Y-103235000D01*
X138302191Y-103432809D01*
X138512235Y-103573157D01*
X138760000Y-103622440D01*
X138794104Y-103622440D01*
X138665000Y-103934126D01*
X138665000Y-104345874D01*
X138822569Y-104726280D01*
X139113720Y-105017431D01*
X139494126Y-105175000D01*
X139905874Y-105175000D01*
X140286280Y-105017431D01*
X140403711Y-104900000D01*
X142789829Y-104900000D01*
X142864676Y-104914888D01*
X142939523Y-104900000D01*
X142939528Y-104900000D01*
X142946606Y-104898592D01*
X142200199Y-105645000D01*
X142034126Y-105645000D01*
X141653720Y-105802569D01*
X141362569Y-106093720D01*
X141205000Y-106474126D01*
X141205000Y-106885874D01*
X141362569Y-107266280D01*
X141458954Y-107362665D01*
X141266537Y-107234096D01*
X141044852Y-107190000D01*
X141044847Y-107190000D01*
X140970000Y-107175112D01*
X140895153Y-107190000D01*
X135529027Y-107190000D01*
X135655000Y-106885874D01*
X135655000Y-106474126D01*
X135497431Y-106093720D01*
X135206280Y-105802569D01*
X134825874Y-105645000D01*
X134659803Y-105645000D01*
X133074802Y-104060001D01*
X134368118Y-104060001D01*
X135941459Y-105633344D01*
X135941459Y-105799415D01*
X136099028Y-106179821D01*
X136390179Y-106470972D01*
X136770585Y-106628541D01*
X137182333Y-106628541D01*
X137562739Y-106470972D01*
X137853890Y-106179821D01*
X138011459Y-105799415D01*
X138011459Y-105387667D01*
X137853890Y-105007261D01*
X137562739Y-104716110D01*
X137182333Y-104558541D01*
X137016262Y-104558541D01*
X135945372Y-103487653D01*
X136098327Y-103334699D01*
X136195000Y-103101310D01*
X136195000Y-102760750D01*
X136036250Y-102602000D01*
X135006250Y-102602000D01*
X134979456Y-102584097D01*
X134757771Y-102540001D01*
X134757766Y-102540001D01*
X134682919Y-102525113D01*
X134608072Y-102540001D01*
X131554804Y-102540001D01*
X131011501Y-101996699D01*
X131051300Y-101900616D01*
X131051300Y-101299384D01*
X130821218Y-100743917D01*
X130407301Y-100330000D01*
X130821218Y-99916083D01*
X130861017Y-99820000D01*
X130990972Y-99820000D01*
X130864999Y-100124126D01*
G36*
X157162560Y-102975000D02*
X157211843Y-103222765D01*
X157352191Y-103432809D01*
X157562235Y-103573157D01*
X157810000Y-103622440D01*
X158102147Y-103622440D01*
X158215000Y-103644888D01*
X158327853Y-103622440D01*
X158892141Y-103622440D01*
X158930148Y-103630000D01*
X158930152Y-103630000D01*
X159004999Y-103644888D01*
X159079846Y-103630000D01*
X161856289Y-103630000D01*
X161973720Y-103747431D01*
X162318700Y-103890326D01*
X162318700Y-104440616D01*
X162358499Y-104536700D01*
X162313898Y-104581301D01*
X150043026Y-104581301D01*
X150101300Y-104440616D01*
X150101300Y-103839384D01*
X149986114Y-103561301D01*
X151523850Y-103561301D01*
X151598697Y-103576189D01*
X151673544Y-103561301D01*
X151673549Y-103561301D01*
X151895234Y-103517205D01*
X152146626Y-103349230D01*
X152189028Y-103285771D01*
X152375000Y-103099799D01*
X152375000Y-103101310D01*
X152471673Y-103334699D01*
X152650302Y-103513327D01*
X152883691Y-103610000D01*
X153524250Y-103610000D01*
X153683000Y-103451250D01*
X153683000Y-102602000D01*
X153937000Y-102602000D01*
X153937000Y-103451250D01*
X154095750Y-103610000D01*
X154736309Y-103610000D01*
X154969698Y-103513327D01*
X155148327Y-103334699D01*
X155245000Y-103101310D01*
X155245000Y-102760750D01*
X155086250Y-102602000D01*
X153937000Y-102602000D01*
X153683000Y-102602000D01*
X153663000Y-102602000D01*
X153663000Y-102360000D01*
X157162560Y-102360000D01*
X157162560Y-102975000D01*
X157162560Y-102975000D01*
G37*
X157162560Y-102975000D02*
X157211843Y-103222765D01*
X157352191Y-103432809D01*
X157562235Y-103573157D01*
X157810000Y-103622440D01*
X158102147Y-103622440D01*
X158215000Y-103644888D01*
X158327853Y-103622440D01*
X158892141Y-103622440D01*
X158930148Y-103630000D01*
X158930152Y-103630000D01*
X159004999Y-103644888D01*
X159079846Y-103630000D01*
X161856289Y-103630000D01*
X161973720Y-103747431D01*
X162318700Y-103890326D01*
X162318700Y-104440616D01*
X162358499Y-104536700D01*
X162313898Y-104581301D01*
X150043026Y-104581301D01*
X150101300Y-104440616D01*
X150101300Y-103839384D01*
X149986114Y-103561301D01*
X151523850Y-103561301D01*
X151598697Y-103576189D01*
X151673544Y-103561301D01*
X151673549Y-103561301D01*
X151895234Y-103517205D01*
X152146626Y-103349230D01*
X152189028Y-103285771D01*
X152375000Y-103099799D01*
X152375000Y-103101310D01*
X152471673Y-103334699D01*
X152650302Y-103513327D01*
X152883691Y-103610000D01*
X153524250Y-103610000D01*
X153683000Y-103451250D01*
X153683000Y-102602000D01*
X153937000Y-102602000D01*
X153937000Y-103451250D01*
X154095750Y-103610000D01*
X154736309Y-103610000D01*
X154969698Y-103513327D01*
X155148327Y-103334699D01*
X155245000Y-103101310D01*
X155245000Y-102760750D01*
X155086250Y-102602000D01*
X153937000Y-102602000D01*
X153683000Y-102602000D01*
X153663000Y-102602000D01*
X153663000Y-102360000D01*
X157162560Y-102360000D01*
X157162560Y-102975000D01*
G36*
X171542900Y-101594074D02*
X171521673Y-101615301D01*
X171425000Y-101848690D01*
X171425000Y-102189250D01*
X171583750Y-102348000D01*
X172733000Y-102348000D01*
X172733000Y-102328000D01*
X172987000Y-102328000D01*
X172987000Y-102348000D01*
X174136250Y-102348000D01*
X174295000Y-102189250D01*
X174295000Y-101974869D01*
X174382569Y-102186280D01*
X174673720Y-102477431D01*
X175054126Y-102635000D01*
X175220198Y-102635000D01*
X175544670Y-102959472D01*
X175587071Y-103022929D01*
X175838463Y-103190904D01*
X176060148Y-103235000D01*
X176060153Y-103235000D01*
X176135000Y-103249888D01*
X176209847Y-103235000D01*
X176270018Y-103235000D01*
X176283382Y-103255000D01*
X174231339Y-103255000D01*
X174295000Y-103101310D01*
X174295000Y-102760750D01*
X174136250Y-102602000D01*
X172987000Y-102602000D01*
X172987000Y-102622000D01*
X172733000Y-102622000D01*
X172733000Y-102602000D01*
X171583750Y-102602000D01*
X171425000Y-102760750D01*
X171425000Y-103101310D01*
X171488661Y-103255000D01*
X169355107Y-103255000D01*
X171125108Y-101485000D01*
X171470018Y-101485000D01*
X171542900Y-101594074D01*
X171542900Y-101594074D01*
G37*
X171542900Y-101594074D02*
X171521673Y-101615301D01*
X171425000Y-101848690D01*
X171425000Y-102189250D01*
X171583750Y-102348000D01*
X172733000Y-102348000D01*
X172733000Y-102328000D01*
X172987000Y-102328000D01*
X172987000Y-102348000D01*
X174136250Y-102348000D01*
X174295000Y-102189250D01*
X174295000Y-101974869D01*
X174382569Y-102186280D01*
X174673720Y-102477431D01*
X175054126Y-102635000D01*
X175220198Y-102635000D01*
X175544670Y-102959472D01*
X175587071Y-103022929D01*
X175838463Y-103190904D01*
X176060148Y-103235000D01*
X176060153Y-103235000D01*
X176135000Y-103249888D01*
X176209847Y-103235000D01*
X176270018Y-103235000D01*
X176283382Y-103255000D01*
X174231339Y-103255000D01*
X174295000Y-103101310D01*
X174295000Y-102760750D01*
X174136250Y-102602000D01*
X172987000Y-102602000D01*
X172987000Y-102622000D01*
X172733000Y-102622000D01*
X172733000Y-102602000D01*
X171583750Y-102602000D01*
X171425000Y-102760750D01*
X171425000Y-103101310D01*
X171488661Y-103255000D01*
X169355107Y-103255000D01*
X171125108Y-101485000D01*
X171470018Y-101485000D01*
X171542900Y-101594074D01*
G36*
X174225000Y-101679695D02*
X174198327Y-101615301D01*
X174177100Y-101594074D01*
X174225000Y-101522388D01*
X174225000Y-101679695D01*
X174225000Y-101679695D01*
G37*
X174225000Y-101679695D02*
X174198327Y-101615301D01*
X174177100Y-101594074D01*
X174225000Y-101522388D01*
X174225000Y-101679695D01*
G36*
X144973748Y-83805858D02*
X144959605Y-83820000D01*
X144973748Y-83834143D01*
X144794143Y-84013748D01*
X144780000Y-83999605D01*
X144765858Y-84013748D01*
X144586253Y-83834143D01*
X144600395Y-83820000D01*
X144586253Y-83805858D01*
X144765858Y-83626253D01*
X144780000Y-83640395D01*
X144794143Y-83626253D01*
X144973748Y-83805858D01*
X144973748Y-83805858D01*
G37*
X144973748Y-83805858D02*
X144959605Y-83820000D01*
X144973748Y-83834143D01*
X144794143Y-84013748D01*
X144780000Y-83999605D01*
X144765858Y-84013748D01*
X144586253Y-83834143D01*
X144600395Y-83820000D01*
X144586253Y-83805858D01*
X144765858Y-83626253D01*
X144780000Y-83640395D01*
X144794143Y-83626253D01*
X144973748Y-83805858D01*
G36*
X148783748Y-83805858D02*
X148769605Y-83820000D01*
X148783748Y-83834143D01*
X148604143Y-84013748D01*
X148590000Y-83999605D01*
X148575858Y-84013748D01*
X148396253Y-83834143D01*
X148410395Y-83820000D01*
X148396253Y-83805858D01*
X148575858Y-83626253D01*
X148590000Y-83640395D01*
X148604143Y-83626253D01*
X148783748Y-83805858D01*
X148783748Y-83805858D01*
G37*
X148783748Y-83805858D02*
X148769605Y-83820000D01*
X148783748Y-83834143D01*
X148604143Y-84013748D01*
X148590000Y-83999605D01*
X148575858Y-84013748D01*
X148396253Y-83834143D01*
X148410395Y-83820000D01*
X148396253Y-83805858D01*
X148575858Y-83626253D01*
X148590000Y-83640395D01*
X148604143Y-83626253D01*
X148783748Y-83805858D01*
G36*
X162307118Y-78504997D02*
X162333109Y-79105668D01*
X162512973Y-79539896D01*
X162766999Y-79623396D01*
X163650395Y-78740000D01*
X163636253Y-78725858D01*
X163815858Y-78546253D01*
X163830000Y-78560395D01*
X163844143Y-78546253D01*
X164023748Y-78725858D01*
X164009605Y-78740000D01*
X164023748Y-78754143D01*
X163844143Y-78933748D01*
X163830000Y-78919605D01*
X162946604Y-79803001D01*
X163006520Y-79985278D01*
X162973917Y-79998782D01*
X162548782Y-80423917D01*
X162467361Y-80620485D01*
X160102405Y-78255530D01*
X160085346Y-78230000D01*
X162407331Y-78230000D01*
X162307118Y-78504997D01*
X162307118Y-78504997D01*
G37*
X162307118Y-78504997D02*
X162333109Y-79105668D01*
X162512973Y-79539896D01*
X162766999Y-79623396D01*
X163650395Y-78740000D01*
X163636253Y-78725858D01*
X163815858Y-78546253D01*
X163830000Y-78560395D01*
X163844143Y-78546253D01*
X164023748Y-78725858D01*
X164009605Y-78740000D01*
X164023748Y-78754143D01*
X163844143Y-78933748D01*
X163830000Y-78919605D01*
X162946604Y-79803001D01*
X163006520Y-79985278D01*
X162973917Y-79998782D01*
X162548782Y-80423917D01*
X162467361Y-80620485D01*
X160102405Y-78255530D01*
X160085346Y-78230000D01*
X162407331Y-78230000D01*
X162307118Y-78504997D01*
G04 #@! TD*
M02*
