M48
;DRILL file {KiCad (5.0.1-3-g963ef8bb5)} date 2019 January 31, Thursday 04:05:45
;FORMAT={-:-/ absolute / metric / decimal}
FMAT,2
METRIC,TZ
T1C1.200
T2C1.800
T3C3.988
T4C4.800
%
G90
G05
M71
T1
X121.96Y-78.8
X172.68Y-76.48
X172.68Y-83.48
X174.43Y-76.48
X174.43Y-83.48
T2
X132.08Y-115.57
X142.24Y-115.57
X170.18Y-115.57
X180.34Y-115.57
X113.03Y-96.52
X123.19Y-96.52
X151.13Y-96.52
X161.29Y-96.52
X170.18Y-96.52
X180.34Y-96.52
X151.13Y-115.57
X161.29Y-115.57
X132.08Y-96.52
X142.24Y-96.52
X113.03Y-115.57
X123.19Y-115.57
T3
X118.11Y-115.57
X175.26Y-115.57
X118.11Y-96.52
X156.21Y-96.52
X175.26Y-96.52
X156.21Y-115.57
X137.16Y-115.57
X137.16Y-96.52
T4
X111.76Y-124.46
X111.76Y-80.01
X187.96Y-80.01
X187.96Y-124.46
T0
M30
