G04 #@! TF.GenerationSoftware,KiCad,Pcbnew,(5.0.1-3-g963ef8bb5)*
G04 #@! TF.CreationDate,2019-01-31T04:05:24+09:00*
G04 #@! TF.ProjectId,mykeyboard,6D796B6579626F6172642E6B69636164,rev?*
G04 #@! TF.SameCoordinates,Original*
G04 #@! TF.FileFunction,Legend,Top*
G04 #@! TF.FilePolarity,Positive*
%FSLAX46Y46*%
G04 Gerber Fmt 4.6, Leading zero omitted, Abs format (unit mm)*
G04 Created by KiCad (PCBNEW (5.0.1-3-g963ef8bb5)) date 2019 January 31, Thursday 04:05:24*
%MOMM*%
%LPD*%
G01*
G04 APERTURE LIST*
%ADD10C,0.200000*%
%ADD11C,0.381000*%
%ADD12C,0.150000*%
%ADD13C,0.300000*%
G04 APERTURE END LIST*
D10*
X186702857Y-116538571D02*
X187502857Y-116310000D01*
X186931428Y-116081428D01*
X187502857Y-115852857D01*
X186702857Y-115624285D01*
X187502857Y-115167142D02*
X186302857Y-115167142D01*
X187045714Y-115052857D02*
X187502857Y-114710000D01*
X186702857Y-114710000D02*
X187160000Y-115167142D01*
X186702857Y-114367142D02*
X186702857Y-113910000D01*
X186302857Y-114195714D02*
X187331428Y-114195714D01*
X187445714Y-114138571D01*
X187502857Y-114024285D01*
X187502857Y-113910000D01*
X187502857Y-113510000D02*
X186302857Y-113510000D01*
X187045714Y-113395714D02*
X187502857Y-113052857D01*
X186702857Y-113052857D02*
X187160000Y-113510000D01*
X186245714Y-111681428D02*
X187788571Y-112710000D01*
X187502857Y-111281428D02*
X186702857Y-111281428D01*
X186302857Y-111281428D02*
X186360000Y-111338571D01*
X186417142Y-111281428D01*
X186360000Y-111224285D01*
X186302857Y-111281428D01*
X186417142Y-111281428D01*
X187502857Y-110195714D02*
X186302857Y-110195714D01*
X187445714Y-110195714D02*
X187502857Y-110310000D01*
X187502857Y-110538571D01*
X187445714Y-110652857D01*
X187388571Y-110710000D01*
X187274285Y-110767142D01*
X186931428Y-110767142D01*
X186817142Y-110710000D01*
X186760000Y-110652857D01*
X186702857Y-110538571D01*
X186702857Y-110310000D01*
X186760000Y-110195714D01*
X187502857Y-108995714D02*
X187502857Y-109681428D01*
X187502857Y-109338571D02*
X186302857Y-109338571D01*
X186474285Y-109452857D01*
X186588571Y-109567142D01*
X186645714Y-109681428D01*
X187502857Y-108481428D02*
X186302857Y-108481428D01*
X187045714Y-108367142D02*
X187502857Y-108024285D01*
X186702857Y-108024285D02*
X187160000Y-108481428D01*
X187502857Y-107510000D02*
X186302857Y-107510000D01*
X186760000Y-107510000D02*
X186702857Y-107395714D01*
X186702857Y-107167142D01*
X186760000Y-107052857D01*
X186817142Y-106995714D01*
X186931428Y-106938571D01*
X187274285Y-106938571D01*
X187388571Y-106995714D01*
X187445714Y-107052857D01*
X187502857Y-107167142D01*
X187502857Y-107395714D01*
X187445714Y-107510000D01*
X186702857Y-105624285D02*
X187502857Y-105338571D01*
X186702857Y-105052857D01*
X186302857Y-104367142D02*
X186302857Y-104252857D01*
X186360000Y-104138571D01*
X186417142Y-104081428D01*
X186531428Y-104024285D01*
X186760000Y-103967142D01*
X187045714Y-103967142D01*
X187274285Y-104024285D01*
X187388571Y-104081428D01*
X187445714Y-104138571D01*
X187502857Y-104252857D01*
X187502857Y-104367142D01*
X187445714Y-104481428D01*
X187388571Y-104538571D01*
X187274285Y-104595714D01*
X187045714Y-104652857D01*
X186760000Y-104652857D01*
X186531428Y-104595714D01*
X186417142Y-104538571D01*
X186360000Y-104481428D01*
X186302857Y-104367142D01*
X187388571Y-103452857D02*
X187445714Y-103395714D01*
X187502857Y-103452857D01*
X187445714Y-103510000D01*
X187388571Y-103452857D01*
X187502857Y-103452857D01*
X187502857Y-102252857D02*
X187502857Y-102938571D01*
X187502857Y-102595714D02*
X186302857Y-102595714D01*
X186474285Y-102710000D01*
X186588571Y-102824285D01*
X186645714Y-102938571D01*
X187960000Y-100481428D02*
X187902857Y-100538571D01*
X187731428Y-100652857D01*
X187617142Y-100710000D01*
X187445714Y-100767142D01*
X187160000Y-100824285D01*
X186931428Y-100824285D01*
X186645714Y-100767142D01*
X186474285Y-100710000D01*
X186360000Y-100652857D01*
X186188571Y-100538571D01*
X186131428Y-100481428D01*
X186417142Y-100081428D02*
X186360000Y-100024285D01*
X186302857Y-99910000D01*
X186302857Y-99624285D01*
X186360000Y-99510000D01*
X186417142Y-99452857D01*
X186531428Y-99395714D01*
X186645714Y-99395714D01*
X186817142Y-99452857D01*
X187502857Y-100138571D01*
X187502857Y-99395714D01*
X186302857Y-98652857D02*
X186302857Y-98538571D01*
X186360000Y-98424285D01*
X186417142Y-98367142D01*
X186531428Y-98310000D01*
X186760000Y-98252857D01*
X187045714Y-98252857D01*
X187274285Y-98310000D01*
X187388571Y-98367142D01*
X187445714Y-98424285D01*
X187502857Y-98538571D01*
X187502857Y-98652857D01*
X187445714Y-98767142D01*
X187388571Y-98824285D01*
X187274285Y-98881428D01*
X187045714Y-98938571D01*
X186760000Y-98938571D01*
X186531428Y-98881428D01*
X186417142Y-98824285D01*
X186360000Y-98767142D01*
X186302857Y-98652857D01*
X187502857Y-97110000D02*
X187502857Y-97795714D01*
X187502857Y-97452857D02*
X186302857Y-97452857D01*
X186474285Y-97567142D01*
X186588571Y-97681428D01*
X186645714Y-97795714D01*
X187502857Y-96538571D02*
X187502857Y-96310000D01*
X187445714Y-96195714D01*
X187388571Y-96138571D01*
X187217142Y-96024285D01*
X186988571Y-95967142D01*
X186531428Y-95967142D01*
X186417142Y-96024285D01*
X186360000Y-96081428D01*
X186302857Y-96195714D01*
X186302857Y-96424285D01*
X186360000Y-96538571D01*
X186417142Y-96595714D01*
X186531428Y-96652857D01*
X186817142Y-96652857D01*
X186931428Y-96595714D01*
X186988571Y-96538571D01*
X187045714Y-96424285D01*
X187045714Y-96195714D01*
X186988571Y-96081428D01*
X186931428Y-96024285D01*
X186817142Y-95967142D01*
X187045714Y-95452857D02*
X187045714Y-94538571D01*
X186302857Y-93738571D02*
X186302857Y-93624285D01*
X186360000Y-93510000D01*
X186417142Y-93452857D01*
X186531428Y-93395714D01*
X186760000Y-93338571D01*
X187045714Y-93338571D01*
X187274285Y-93395714D01*
X187388571Y-93452857D01*
X187445714Y-93510000D01*
X187502857Y-93624285D01*
X187502857Y-93738571D01*
X187445714Y-93852857D01*
X187388571Y-93910000D01*
X187274285Y-93967142D01*
X187045714Y-94024285D01*
X186760000Y-94024285D01*
X186531428Y-93967142D01*
X186417142Y-93910000D01*
X186360000Y-93852857D01*
X186302857Y-93738571D01*
X187502857Y-92195714D02*
X187502857Y-92881428D01*
X187502857Y-92538571D02*
X186302857Y-92538571D01*
X186474285Y-92652857D01*
X186588571Y-92767142D01*
X186645714Y-92881428D01*
X187045714Y-91681428D02*
X187045714Y-90767142D01*
X186302857Y-90310000D02*
X186302857Y-89567142D01*
X186760000Y-89967142D01*
X186760000Y-89795714D01*
X186817142Y-89681428D01*
X186874285Y-89624285D01*
X186988571Y-89567142D01*
X187274285Y-89567142D01*
X187388571Y-89624285D01*
X187445714Y-89681428D01*
X187502857Y-89795714D01*
X187502857Y-90138571D01*
X187445714Y-90252857D01*
X187388571Y-90310000D01*
X186302857Y-88824285D02*
X186302857Y-88710000D01*
X186360000Y-88595714D01*
X186417142Y-88538571D01*
X186531428Y-88481428D01*
X186760000Y-88424285D01*
X187045714Y-88424285D01*
X187274285Y-88481428D01*
X187388571Y-88538571D01*
X187445714Y-88595714D01*
X187502857Y-88710000D01*
X187502857Y-88824285D01*
X187445714Y-88938571D01*
X187388571Y-88995714D01*
X187274285Y-89052857D01*
X187045714Y-89110000D01*
X186760000Y-89110000D01*
X186531428Y-89052857D01*
X186417142Y-88995714D01*
X186360000Y-88938571D01*
X186302857Y-88824285D01*
X187960000Y-88024285D02*
X187902857Y-87967142D01*
X187731428Y-87852857D01*
X187617142Y-87795714D01*
X187445714Y-87738571D01*
X187160000Y-87681428D01*
X186931428Y-87681428D01*
X186645714Y-87738571D01*
X186474285Y-87795714D01*
X186360000Y-87852857D01*
X186188571Y-87967142D01*
X186131428Y-88024285D01*
X189502857Y-116424285D02*
X188302857Y-116424285D01*
X188302857Y-116138571D01*
X188360000Y-115967142D01*
X188474285Y-115852857D01*
X188588571Y-115795714D01*
X188817142Y-115738571D01*
X188988571Y-115738571D01*
X189217142Y-115795714D01*
X189331428Y-115852857D01*
X189445714Y-115967142D01*
X189502857Y-116138571D01*
X189502857Y-116424285D01*
X189445714Y-114767142D02*
X189502857Y-114881428D01*
X189502857Y-115110000D01*
X189445714Y-115224285D01*
X189331428Y-115281428D01*
X188874285Y-115281428D01*
X188760000Y-115224285D01*
X188702857Y-115110000D01*
X188702857Y-114881428D01*
X188760000Y-114767142D01*
X188874285Y-114710000D01*
X188988571Y-114710000D01*
X189102857Y-115281428D01*
X189445714Y-114252857D02*
X189502857Y-114138571D01*
X189502857Y-113910000D01*
X189445714Y-113795714D01*
X189331428Y-113738571D01*
X189274285Y-113738571D01*
X189160000Y-113795714D01*
X189102857Y-113910000D01*
X189102857Y-114081428D01*
X189045714Y-114195714D01*
X188931428Y-114252857D01*
X188874285Y-114252857D01*
X188760000Y-114195714D01*
X188702857Y-114081428D01*
X188702857Y-113910000D01*
X188760000Y-113795714D01*
X189502857Y-113224285D02*
X188702857Y-113224285D01*
X188302857Y-113224285D02*
X188360000Y-113281428D01*
X188417142Y-113224285D01*
X188360000Y-113167142D01*
X188302857Y-113224285D01*
X188417142Y-113224285D01*
X188702857Y-112138571D02*
X189674285Y-112138571D01*
X189788571Y-112195714D01*
X189845714Y-112252857D01*
X189902857Y-112367142D01*
X189902857Y-112538571D01*
X189845714Y-112652857D01*
X189445714Y-112138571D02*
X189502857Y-112252857D01*
X189502857Y-112481428D01*
X189445714Y-112595714D01*
X189388571Y-112652857D01*
X189274285Y-112710000D01*
X188931428Y-112710000D01*
X188817142Y-112652857D01*
X188760000Y-112595714D01*
X188702857Y-112481428D01*
X188702857Y-112252857D01*
X188760000Y-112138571D01*
X188702857Y-111567142D02*
X189502857Y-111567142D01*
X188817142Y-111567142D02*
X188760000Y-111510000D01*
X188702857Y-111395714D01*
X188702857Y-111224285D01*
X188760000Y-111110000D01*
X188874285Y-111052857D01*
X189502857Y-111052857D01*
X189445714Y-110024285D02*
X189502857Y-110138571D01*
X189502857Y-110367142D01*
X189445714Y-110481428D01*
X189331428Y-110538571D01*
X188874285Y-110538571D01*
X188760000Y-110481428D01*
X188702857Y-110367142D01*
X188702857Y-110138571D01*
X188760000Y-110024285D01*
X188874285Y-109967142D01*
X188988571Y-109967142D01*
X189102857Y-110538571D01*
X189502857Y-108938571D02*
X188302857Y-108938571D01*
X189445714Y-108938571D02*
X189502857Y-109052857D01*
X189502857Y-109281428D01*
X189445714Y-109395714D01*
X189388571Y-109452857D01*
X189274285Y-109510000D01*
X188931428Y-109510000D01*
X188817142Y-109452857D01*
X188760000Y-109395714D01*
X188702857Y-109281428D01*
X188702857Y-109052857D01*
X188760000Y-108938571D01*
X189502857Y-107452857D02*
X188302857Y-107452857D01*
X188760000Y-107452857D02*
X188702857Y-107338571D01*
X188702857Y-107110000D01*
X188760000Y-106995714D01*
X188817142Y-106938571D01*
X188931428Y-106881428D01*
X189274285Y-106881428D01*
X189388571Y-106938571D01*
X189445714Y-106995714D01*
X189502857Y-107110000D01*
X189502857Y-107338571D01*
X189445714Y-107452857D01*
X188702857Y-106481428D02*
X189502857Y-106195714D01*
X188702857Y-105910000D02*
X189502857Y-106195714D01*
X189788571Y-106310000D01*
X189845714Y-106367142D01*
X189902857Y-106481428D01*
X188931428Y-103795714D02*
X188874285Y-103852857D01*
X188817142Y-103967142D01*
X188817142Y-104081428D01*
X188874285Y-104195714D01*
X188931428Y-104252857D01*
X189045714Y-104310000D01*
X189160000Y-104310000D01*
X189274285Y-104252857D01*
X189331428Y-104195714D01*
X189388571Y-104081428D01*
X189388571Y-103967142D01*
X189331428Y-103852857D01*
X189274285Y-103795714D01*
X188817142Y-103795714D02*
X189274285Y-103795714D01*
X189331428Y-103738571D01*
X189331428Y-103681428D01*
X189274285Y-103567142D01*
X189160000Y-103510000D01*
X188874285Y-103510000D01*
X188702857Y-103624285D01*
X188588571Y-103795714D01*
X188531428Y-104024285D01*
X188588571Y-104252857D01*
X188702857Y-104424285D01*
X188874285Y-104538571D01*
X189102857Y-104595714D01*
X189331428Y-104538571D01*
X189502857Y-104424285D01*
X189617142Y-104252857D01*
X189674285Y-104024285D01*
X189617142Y-103795714D01*
X189502857Y-103624285D01*
X188702857Y-103110000D02*
X189502857Y-102881428D01*
X188931428Y-102652857D01*
X189502857Y-102424285D01*
X188702857Y-102195714D01*
X189502857Y-101738571D02*
X188302857Y-101738571D01*
X189045714Y-101624285D02*
X189502857Y-101281428D01*
X188702857Y-101281428D02*
X189160000Y-101738571D01*
X188702857Y-99967142D02*
X189502857Y-99738571D01*
X188931428Y-99510000D01*
X189502857Y-99281428D01*
X188702857Y-99052857D01*
X189502857Y-98595714D02*
X188302857Y-98595714D01*
X189045714Y-98481428D02*
X189502857Y-98138571D01*
X188702857Y-98138571D02*
X189160000Y-98595714D01*
X188702857Y-97795714D02*
X188702857Y-97338571D01*
X188302857Y-97624285D02*
X189331428Y-97624285D01*
X189445714Y-97567142D01*
X189502857Y-97452857D01*
X189502857Y-97338571D01*
X189502857Y-96938571D02*
X188302857Y-96938571D01*
X189045714Y-96824285D02*
X189502857Y-96481428D01*
X188702857Y-96481428D02*
X189160000Y-96938571D01*
X189388571Y-95967142D02*
X189445714Y-95910000D01*
X189502857Y-95967142D01*
X189445714Y-96024285D01*
X189388571Y-95967142D01*
X189502857Y-95967142D01*
X188702857Y-95395714D02*
X189731428Y-95395714D01*
X189845714Y-95452857D01*
X189902857Y-95567142D01*
X189902857Y-95624285D01*
X188302857Y-95395714D02*
X188360000Y-95452857D01*
X188417142Y-95395714D01*
X188360000Y-95338571D01*
X188302857Y-95395714D01*
X188417142Y-95395714D01*
X188702857Y-94824285D02*
X189902857Y-94824285D01*
X188760000Y-94824285D02*
X188702857Y-94710000D01*
X188702857Y-94481428D01*
X188760000Y-94367142D01*
X188817142Y-94310000D01*
X188931428Y-94252857D01*
X189274285Y-94252857D01*
X189388571Y-94310000D01*
X189445714Y-94367142D01*
X189502857Y-94481428D01*
X189502857Y-94710000D01*
X189445714Y-94824285D01*
X188245714Y-92881428D02*
X189788571Y-93910000D01*
D11*
G04 #@! TO.C,U1*
X128270000Y-74930000D02*
X146050000Y-74930000D01*
X146050000Y-74930000D02*
X146050000Y-105410000D01*
X146050000Y-105410000D02*
X128270000Y-105410000D01*
X128270000Y-105410000D02*
X128270000Y-74930000D01*
X143510000Y-74930000D02*
X143510000Y-77470000D01*
X143510000Y-77470000D02*
X146050000Y-77470000D01*
D12*
G04 #@! TO.C,D8*
X182130000Y-112870000D02*
X183630000Y-112870000D01*
X182130000Y-118270000D02*
X182130000Y-112870000D01*
X183630000Y-118270000D02*
X182130000Y-118270000D01*
X183630000Y-112870000D02*
X183630000Y-118270000D01*
X183380000Y-116070000D02*
X182380000Y-116070000D01*
X182380000Y-115070000D02*
X182880000Y-115970000D01*
X183380000Y-115070000D02*
X182380000Y-115070000D01*
X182880000Y-115970000D02*
X183380000Y-115070000D01*
G04 #@! TO.C,D7*
X182880000Y-96920000D02*
X183380000Y-96020000D01*
X183380000Y-96020000D02*
X182380000Y-96020000D01*
X182380000Y-96020000D02*
X182880000Y-96920000D01*
X183380000Y-97020000D02*
X182380000Y-97020000D01*
X183630000Y-93820000D02*
X183630000Y-99220000D01*
X183630000Y-99220000D02*
X182130000Y-99220000D01*
X182130000Y-99220000D02*
X182130000Y-93820000D01*
X182130000Y-93820000D02*
X183630000Y-93820000D01*
G04 #@! TO.C,D6*
X166890000Y-112870000D02*
X168390000Y-112870000D01*
X166890000Y-118270000D02*
X166890000Y-112870000D01*
X168390000Y-118270000D02*
X166890000Y-118270000D01*
X168390000Y-112870000D02*
X168390000Y-118270000D01*
X168140000Y-116070000D02*
X167140000Y-116070000D01*
X167140000Y-115070000D02*
X167640000Y-115970000D01*
X168140000Y-115070000D02*
X167140000Y-115070000D01*
X167640000Y-115970000D02*
X168140000Y-115070000D01*
G04 #@! TO.C,D5*
X125730000Y-96920000D02*
X126230000Y-96020000D01*
X126230000Y-96020000D02*
X125230000Y-96020000D01*
X125230000Y-96020000D02*
X125730000Y-96920000D01*
X126230000Y-97020000D02*
X125230000Y-97020000D01*
X126480000Y-93820000D02*
X126480000Y-99220000D01*
X126480000Y-99220000D02*
X124980000Y-99220000D01*
X124980000Y-99220000D02*
X124980000Y-93820000D01*
X124980000Y-93820000D02*
X126480000Y-93820000D01*
G04 #@! TO.C,D4*
X125730000Y-115970000D02*
X126230000Y-115070000D01*
X126230000Y-115070000D02*
X125230000Y-115070000D01*
X125230000Y-115070000D02*
X125730000Y-115970000D01*
X126230000Y-116070000D02*
X125230000Y-116070000D01*
X126480000Y-112870000D02*
X126480000Y-118270000D01*
X126480000Y-118270000D02*
X124980000Y-118270000D01*
X124980000Y-118270000D02*
X124980000Y-112870000D01*
X124980000Y-112870000D02*
X126480000Y-112870000D01*
G04 #@! TO.C,D3*
X167640000Y-96920000D02*
X168140000Y-96020000D01*
X168140000Y-96020000D02*
X167140000Y-96020000D01*
X167140000Y-96020000D02*
X167640000Y-96920000D01*
X168140000Y-97020000D02*
X167140000Y-97020000D01*
X168390000Y-93820000D02*
X168390000Y-99220000D01*
X168390000Y-99220000D02*
X166890000Y-99220000D01*
X166890000Y-99220000D02*
X166890000Y-93820000D01*
X166890000Y-93820000D02*
X168390000Y-93820000D01*
G04 #@! TO.C,D2*
X109740000Y-112870000D02*
X111240000Y-112870000D01*
X109740000Y-118270000D02*
X109740000Y-112870000D01*
X111240000Y-118270000D02*
X109740000Y-118270000D01*
X111240000Y-112870000D02*
X111240000Y-118270000D01*
X110990000Y-116070000D02*
X109990000Y-116070000D01*
X109990000Y-115070000D02*
X110490000Y-115970000D01*
X110990000Y-115070000D02*
X109990000Y-115070000D01*
X110490000Y-115970000D02*
X110990000Y-115070000D01*
G04 #@! TO.C,D1*
X110490000Y-96920000D02*
X110990000Y-96020000D01*
X110990000Y-96020000D02*
X109990000Y-96020000D01*
X109990000Y-96020000D02*
X110490000Y-96920000D01*
X110990000Y-97020000D02*
X109990000Y-97020000D01*
X111240000Y-93820000D02*
X111240000Y-99220000D01*
X111240000Y-99220000D02*
X109740000Y-99220000D01*
X109740000Y-99220000D02*
X109740000Y-93820000D01*
X109740000Y-93820000D02*
X111240000Y-93820000D01*
D13*
G04 #@! TO.C,L8*
X176640000Y-120800000D02*
X178690000Y-120800000D01*
X176640000Y-122250000D02*
X176640000Y-120800000D01*
X178690000Y-122250000D02*
X176640000Y-122250000D01*
X178690000Y-120800000D02*
X178690000Y-122250000D01*
G04 #@! TO.C,L7*
X178690000Y-101750000D02*
X178690000Y-103200000D01*
X178690000Y-103200000D02*
X176640000Y-103200000D01*
X176640000Y-103200000D02*
X176640000Y-101750000D01*
X176640000Y-101750000D02*
X178690000Y-101750000D01*
G04 #@! TO.C,L6*
X157590000Y-120800000D02*
X159640000Y-120800000D01*
X157590000Y-122250000D02*
X157590000Y-120800000D01*
X159640000Y-122250000D02*
X157590000Y-122250000D01*
X159640000Y-120800000D02*
X159640000Y-122250000D01*
G04 #@! TO.C,L5*
X159640000Y-101750000D02*
X159640000Y-103200000D01*
X159640000Y-103200000D02*
X157590000Y-103200000D01*
X157590000Y-103200000D02*
X157590000Y-101750000D01*
X157590000Y-101750000D02*
X159640000Y-101750000D01*
G04 #@! TO.C,L4*
X138540000Y-120800000D02*
X140590000Y-120800000D01*
X138540000Y-122250000D02*
X138540000Y-120800000D01*
X140590000Y-122250000D02*
X138540000Y-122250000D01*
X140590000Y-120800000D02*
X140590000Y-122250000D01*
G04 #@! TO.C,L3*
X140590000Y-101750000D02*
X140590000Y-103200000D01*
X140590000Y-103200000D02*
X138540000Y-103200000D01*
X138540000Y-103200000D02*
X138540000Y-101750000D01*
X138540000Y-101750000D02*
X140590000Y-101750000D01*
G04 #@! TO.C,L2*
X119490000Y-120800000D02*
X121540000Y-120800000D01*
X119490000Y-122250000D02*
X119490000Y-120800000D01*
X121540000Y-122250000D02*
X119490000Y-122250000D01*
X121540000Y-120800000D02*
X121540000Y-122250000D01*
G04 #@! TO.C,L1*
X121540000Y-101750000D02*
X121540000Y-103200000D01*
X121540000Y-103200000D02*
X119490000Y-103200000D01*
X119490000Y-103200000D02*
X119490000Y-101750000D01*
X119490000Y-101750000D02*
X121540000Y-101750000D01*
D12*
G04 #@! TO.C,J1*
X177430000Y-74980000D02*
X171430000Y-74980000D01*
X171430000Y-74980000D02*
X171430000Y-86980000D01*
X171430000Y-86980000D02*
X177430000Y-86980000D01*
X177430000Y-86980000D02*
X177430000Y-74980000D01*
G04 #@! TO.C,U1*
X140521904Y-75722380D02*
X141093333Y-75722380D01*
X140807619Y-76722380D02*
X140807619Y-75722380D01*
X141331428Y-75722380D02*
X141998095Y-76722380D01*
X141998095Y-75722380D02*
X141331428Y-76722380D01*
X142569523Y-75722380D02*
X142664761Y-75722380D01*
X142760000Y-75770000D01*
X142807619Y-75817619D01*
X142855238Y-75912857D01*
X142902857Y-76103333D01*
X142902857Y-76341428D01*
X142855238Y-76531904D01*
X142807619Y-76627142D01*
X142760000Y-76674761D01*
X142664761Y-76722380D01*
X142569523Y-76722380D01*
X142474285Y-76674761D01*
X142426666Y-76627142D01*
X142379047Y-76531904D01*
X142331428Y-76341428D01*
X142331428Y-76103333D01*
X142379047Y-75912857D01*
X142426666Y-75817619D01*
X142474285Y-75770000D01*
X142569523Y-75722380D01*
X131769523Y-76722380D02*
X131436190Y-76246190D01*
X131198095Y-76722380D02*
X131198095Y-75722380D01*
X131579047Y-75722380D01*
X131674285Y-75770000D01*
X131721904Y-75817619D01*
X131769523Y-75912857D01*
X131769523Y-76055714D01*
X131721904Y-76150952D01*
X131674285Y-76198571D01*
X131579047Y-76246190D01*
X131198095Y-76246190D01*
X132150476Y-76436666D02*
X132626666Y-76436666D01*
X132055238Y-76722380D02*
X132388571Y-75722380D01*
X132721904Y-76722380D01*
X132960000Y-75722380D02*
X133198095Y-76722380D01*
X133388571Y-76008095D01*
X133579047Y-76722380D01*
X133817142Y-75722380D01*
G04 #@! TO.C,J1*
X171743595Y-80845880D02*
X172315023Y-80845880D01*
X172029309Y-81845880D02*
X172029309Y-80845880D01*
X173219785Y-81845880D02*
X172886452Y-81369690D01*
X172648357Y-81845880D02*
X172648357Y-80845880D01*
X173029309Y-80845880D01*
X173124547Y-80893500D01*
X173172166Y-80941119D01*
X173219785Y-81036357D01*
X173219785Y-81179214D01*
X173172166Y-81274452D01*
X173124547Y-81322071D01*
X173029309Y-81369690D01*
X172648357Y-81369690D01*
X174219785Y-81845880D02*
X173886452Y-81369690D01*
X173648357Y-81845880D02*
X173648357Y-80845880D01*
X174029309Y-80845880D01*
X174124547Y-80893500D01*
X174172166Y-80941119D01*
X174219785Y-81036357D01*
X174219785Y-81179214D01*
X174172166Y-81274452D01*
X174124547Y-81322071D01*
X174029309Y-81369690D01*
X173648357Y-81369690D01*
X174600738Y-81798261D02*
X174743595Y-81845880D01*
X174981690Y-81845880D01*
X175076928Y-81798261D01*
X175124547Y-81750642D01*
X175172166Y-81655404D01*
X175172166Y-81560166D01*
X175124547Y-81464928D01*
X175076928Y-81417309D01*
X174981690Y-81369690D01*
X174791214Y-81322071D01*
X174695976Y-81274452D01*
X174648357Y-81226833D01*
X174600738Y-81131595D01*
X174600738Y-81036357D01*
X174648357Y-80941119D01*
X174695976Y-80893500D01*
X174791214Y-80845880D01*
X175029309Y-80845880D01*
X175172166Y-80893500D01*
G04 #@! TD*
M02*
