G04 #@! TF.GenerationSoftware,KiCad,Pcbnew,(5.0.1-3-g963ef8bb5)*
G04 #@! TF.CreationDate,2019-01-31T04:05:24+09:00*
G04 #@! TF.ProjectId,mykeyboard,6D796B6579626F6172642E6B69636164,rev?*
G04 #@! TF.SameCoordinates,Original*
G04 #@! TF.FileFunction,Copper,L1,Top,Signal*
G04 #@! TF.FilePolarity,Positive*
%FSLAX46Y46*%
G04 Gerber Fmt 4.6, Leading zero omitted, Abs format (unit mm)*
G04 Created by KiCad (PCBNEW (5.0.1-3-g963ef8bb5)) date 2019 January 31, Thursday 04:05:24*
%MOMM*%
%LPD*%
G01*
G04 APERTURE LIST*
G04 #@! TA.AperFunction,WasherPad*
%ADD10C,5.000000*%
G04 #@! TD*
G04 #@! TA.AperFunction,SMDPad,CuDef*
%ADD11C,2.500000*%
G04 #@! TD*
G04 #@! TA.AperFunction,Conductor*
%ADD12C,2.500000*%
G04 #@! TD*
G04 #@! TA.AperFunction,ComponentPad*
%ADD13C,2.000000*%
G04 #@! TD*
G04 #@! TA.AperFunction,ComponentPad*
%ADD14C,1.752600*%
G04 #@! TD*
G04 #@! TA.AperFunction,ComponentPad*
%ADD15R,1.752600X1.752600*%
G04 #@! TD*
G04 #@! TA.AperFunction,ComponentPad*
%ADD16C,1.397000*%
G04 #@! TD*
G04 #@! TA.AperFunction,ComponentPad*
%ADD17R,1.397000X1.397000*%
G04 #@! TD*
G04 #@! TA.AperFunction,SMDPad,CuDef*
%ADD18R,0.950000X1.300000*%
G04 #@! TD*
G04 #@! TA.AperFunction,SMDPad,CuDef*
%ADD19R,1.600000X1.000000*%
G04 #@! TD*
G04 #@! TA.AperFunction,SMDPad,CuDef*
%ADD20R,1.524000X1.524000*%
G04 #@! TD*
G04 #@! TA.AperFunction,ComponentPad*
%ADD21O,1.700000X2.500000*%
G04 #@! TD*
G04 #@! TA.AperFunction,ComponentPad*
%ADD22C,2.100000*%
G04 #@! TD*
G04 #@! TA.AperFunction,ComponentPad*
%ADD23C,1.750000*%
G04 #@! TD*
G04 #@! TA.AperFunction,ViaPad*
%ADD24C,0.800000*%
G04 #@! TD*
G04 #@! TA.AperFunction,Conductor*
%ADD25C,0.250000*%
G04 #@! TD*
G04 #@! TA.AperFunction,Conductor*
%ADD26C,0.500000*%
G04 #@! TD*
G04 #@! TA.AperFunction,Conductor*
%ADD27C,0.254000*%
G04 #@! TD*
G04 APERTURE END LIST*
D10*
G04 #@! TO.P,Ref\002A\002A,*
G04 #@! TO.N,*
X187960000Y-80010000D03*
G04 #@! TD*
G04 #@! TO.P,Ref\002A\002A,*
G04 #@! TO.N,*
X187960000Y-124460000D03*
G04 #@! TD*
G04 #@! TO.P,Ref\002A\002A,*
G04 #@! TO.N,*
X111760000Y-124460000D03*
G04 #@! TD*
G04 #@! TO.P,Ref\002A\002A,*
G04 #@! TO.N,*
X111760000Y-80010000D03*
G04 #@! TD*
D11*
G04 #@! TO.P,SW4,2*
G04 #@! TO.N,Net-(D4-Pad1)*
X140315000Y-112300000D03*
D12*
G04 #@! TD*
G04 #@! TO.N,Net-(D4-Pad1)*
G04 #@! TO.C,SW4*
X140969995Y-113030004D02*
X139660005Y-111569996D01*
D11*
G04 #@! TO.P,SW4,1*
G04 #@! TO.N,col1*
X134640000Y-110780000D03*
D12*
G04 #@! TD*
G04 #@! TO.N,col1*
G04 #@! TO.C,SW4*
X134620001Y-110490000D02*
X134659999Y-111070000D01*
D11*
G04 #@! TO.P,SW4,1*
G04 #@! TO.N,col1*
X134005000Y-112300000D03*
D12*
G04 #@! TD*
G04 #@! TO.N,col1*
G04 #@! TO.C,SW4*
X133350005Y-113030004D02*
X134659995Y-111569996D01*
D13*
G04 #@! TO.P,SW4,1*
G04 #@! TO.N,col1*
X134620000Y-110490000D03*
X134660000Y-111070000D03*
G04 #@! TO.P,SW4,2*
G04 #@! TO.N,Net-(D4-Pad1)*
X140970000Y-113030000D03*
X139660000Y-111570000D03*
G04 #@! TO.P,SW4,1*
G04 #@! TO.N,col1*
X133350000Y-113030000D03*
X134660000Y-111570000D03*
G04 #@! TO.P,SW4,2*
G04 #@! TO.N,Net-(D4-Pad1)*
X139700000Y-110490000D03*
X139660000Y-111070000D03*
D11*
X139680000Y-110780000D03*
D12*
G04 #@! TD*
G04 #@! TO.N,Net-(D4-Pad1)*
G04 #@! TO.C,SW4*
X139699999Y-110490000D02*
X139660001Y-111070000D01*
D14*
G04 #@! TO.P,U1,24*
G04 #@! TO.N,Net-(U1-Pad24)*
X163830000Y-76200000D03*
G04 #@! TO.P,U1,12*
G04 #@! TO.N,Net-(U1-Pad12)*
X148590000Y-104140000D03*
G04 #@! TO.P,U1,23*
G04 #@! TO.N,GND*
X163830000Y-78740000D03*
G04 #@! TO.P,U1,22*
G04 #@! TO.N,reset*
X163830000Y-81280000D03*
G04 #@! TO.P,U1,21*
G04 #@! TO.N,VCC*
X163830000Y-83820000D03*
G04 #@! TO.P,U1,20*
G04 #@! TO.N,col0*
X163830000Y-86360000D03*
G04 #@! TO.P,U1,19*
G04 #@! TO.N,col1*
X163830000Y-88900000D03*
G04 #@! TO.P,U1,18*
G04 #@! TO.N,col2*
X163830000Y-91440000D03*
G04 #@! TO.P,U1,17*
G04 #@! TO.N,col3*
X163830000Y-93980000D03*
G04 #@! TO.P,U1,16*
G04 #@! TO.N,Net-(U1-Pad16)*
X163830000Y-96520000D03*
G04 #@! TO.P,U1,15*
G04 #@! TO.N,Net-(U1-Pad15)*
X163830000Y-99060000D03*
G04 #@! TO.P,U1,14*
G04 #@! TO.N,Net-(U1-Pad14)*
X163830000Y-101600000D03*
G04 #@! TO.P,U1,13*
G04 #@! TO.N,Net-(U1-Pad13)*
X163830000Y-104140000D03*
G04 #@! TO.P,U1,11*
G04 #@! TO.N,Net-(U1-Pad11)*
X148590000Y-101600000D03*
G04 #@! TO.P,U1,10*
G04 #@! TO.N,Net-(U1-Pad10)*
X148590000Y-99060000D03*
G04 #@! TO.P,U1,9*
G04 #@! TO.N,Net-(U1-Pad9)*
X148590000Y-96520000D03*
G04 #@! TO.P,U1,8*
G04 #@! TO.N,row1*
X148590000Y-93980000D03*
G04 #@! TO.P,U1,7*
G04 #@! TO.N,row0*
X148590000Y-91440000D03*
G04 #@! TO.P,U1,6*
G04 #@! TO.N,Net-(U1-Pad6)*
X148590000Y-88900000D03*
G04 #@! TO.P,U1,5*
G04 #@! TO.N,Net-(U1-Pad5)*
X148590000Y-86360000D03*
G04 #@! TO.P,U1,4*
G04 #@! TO.N,GND*
X148590000Y-83820000D03*
G04 #@! TO.P,U1,3*
X148590000Y-81280000D03*
G04 #@! TO.P,U1,2*
G04 #@! TO.N,data*
X148590000Y-78740000D03*
D15*
G04 #@! TO.P,U1,1*
G04 #@! TO.N,led*
X148590000Y-76200000D03*
G04 #@! TD*
G04 #@! TO.P,U1,1*
G04 #@! TO.N,led*
X144780000Y-76200000D03*
D14*
G04 #@! TO.P,U1,2*
G04 #@! TO.N,data*
X144780000Y-78740000D03*
G04 #@! TO.P,U1,3*
G04 #@! TO.N,GND*
X144780000Y-81280000D03*
G04 #@! TO.P,U1,4*
X144780000Y-83820000D03*
G04 #@! TO.P,U1,5*
G04 #@! TO.N,Net-(U1-Pad5)*
X144780000Y-86360000D03*
G04 #@! TO.P,U1,6*
G04 #@! TO.N,Net-(U1-Pad6)*
X144780000Y-88900000D03*
G04 #@! TO.P,U1,7*
G04 #@! TO.N,row0*
X144780000Y-91440000D03*
G04 #@! TO.P,U1,8*
G04 #@! TO.N,row1*
X144780000Y-93980000D03*
G04 #@! TO.P,U1,9*
G04 #@! TO.N,Net-(U1-Pad9)*
X144780000Y-96520000D03*
G04 #@! TO.P,U1,10*
G04 #@! TO.N,Net-(U1-Pad10)*
X144780000Y-99060000D03*
G04 #@! TO.P,U1,11*
G04 #@! TO.N,Net-(U1-Pad11)*
X144780000Y-101600000D03*
G04 #@! TO.P,U1,13*
G04 #@! TO.N,Net-(U1-Pad13)*
X129540000Y-104140000D03*
G04 #@! TO.P,U1,14*
G04 #@! TO.N,Net-(U1-Pad14)*
X129540000Y-101600000D03*
G04 #@! TO.P,U1,15*
G04 #@! TO.N,Net-(U1-Pad15)*
X129540000Y-99060000D03*
G04 #@! TO.P,U1,16*
G04 #@! TO.N,Net-(U1-Pad16)*
X129540000Y-96520000D03*
G04 #@! TO.P,U1,17*
G04 #@! TO.N,col3*
X129540000Y-93980000D03*
G04 #@! TO.P,U1,18*
G04 #@! TO.N,col2*
X129540000Y-91440000D03*
G04 #@! TO.P,U1,19*
G04 #@! TO.N,col1*
X129540000Y-88900000D03*
G04 #@! TO.P,U1,20*
G04 #@! TO.N,col0*
X129540000Y-86360000D03*
G04 #@! TO.P,U1,21*
G04 #@! TO.N,VCC*
X129540000Y-83820000D03*
G04 #@! TO.P,U1,22*
G04 #@! TO.N,reset*
X129540000Y-81280000D03*
G04 #@! TO.P,U1,23*
G04 #@! TO.N,GND*
X129540000Y-78740000D03*
G04 #@! TO.P,U1,12*
G04 #@! TO.N,Net-(U1-Pad12)*
X144780000Y-104140000D03*
G04 #@! TO.P,U1,24*
G04 #@! TO.N,Net-(U1-Pad24)*
X129540000Y-76200000D03*
G04 #@! TD*
D11*
G04 #@! TO.P,SW8,2*
G04 #@! TO.N,Net-(D8-Pad1)*
X178415000Y-112300000D03*
D12*
G04 #@! TD*
G04 #@! TO.N,Net-(D8-Pad1)*
G04 #@! TO.C,SW8*
X179069995Y-113030004D02*
X177760005Y-111569996D01*
D11*
G04 #@! TO.P,SW8,1*
G04 #@! TO.N,col3*
X172740000Y-110780000D03*
D12*
G04 #@! TD*
G04 #@! TO.N,col3*
G04 #@! TO.C,SW8*
X172720001Y-110490000D02*
X172759999Y-111070000D01*
D11*
G04 #@! TO.P,SW8,1*
G04 #@! TO.N,col3*
X172105000Y-112300000D03*
D12*
G04 #@! TD*
G04 #@! TO.N,col3*
G04 #@! TO.C,SW8*
X171450005Y-113030004D02*
X172759995Y-111569996D01*
D13*
G04 #@! TO.P,SW8,1*
G04 #@! TO.N,col3*
X172720000Y-110490000D03*
X172760000Y-111070000D03*
G04 #@! TO.P,SW8,2*
G04 #@! TO.N,Net-(D8-Pad1)*
X179070000Y-113030000D03*
X177760000Y-111570000D03*
G04 #@! TO.P,SW8,1*
G04 #@! TO.N,col3*
X171450000Y-113030000D03*
X172760000Y-111570000D03*
G04 #@! TO.P,SW8,2*
G04 #@! TO.N,Net-(D8-Pad1)*
X177800000Y-110490000D03*
X177760000Y-111070000D03*
D11*
X177780000Y-110780000D03*
D12*
G04 #@! TD*
G04 #@! TO.N,Net-(D8-Pad1)*
G04 #@! TO.C,SW8*
X177799999Y-110490000D02*
X177760001Y-111070000D01*
D11*
G04 #@! TO.P,SW7,2*
G04 #@! TO.N,Net-(D7-Pad1)*
X177780000Y-91730000D03*
D12*
G04 #@! TD*
G04 #@! TO.N,Net-(D7-Pad1)*
G04 #@! TO.C,SW7*
X177799999Y-91440000D02*
X177760001Y-92020000D01*
D13*
G04 #@! TO.P,SW7,2*
G04 #@! TO.N,Net-(D7-Pad1)*
X177760000Y-92020000D03*
X177800000Y-91440000D03*
G04 #@! TO.P,SW7,1*
G04 #@! TO.N,col3*
X172760000Y-92520000D03*
X171450000Y-93980000D03*
G04 #@! TO.P,SW7,2*
G04 #@! TO.N,Net-(D7-Pad1)*
X177760000Y-92520000D03*
X179070000Y-93980000D03*
G04 #@! TO.P,SW7,1*
G04 #@! TO.N,col3*
X172760000Y-92020000D03*
X172720000Y-91440000D03*
D11*
X172105000Y-93250000D03*
D12*
G04 #@! TD*
G04 #@! TO.N,col3*
G04 #@! TO.C,SW7*
X171450005Y-93980004D02*
X172759995Y-92519996D01*
D11*
G04 #@! TO.P,SW7,1*
G04 #@! TO.N,col3*
X172740000Y-91730000D03*
D12*
G04 #@! TD*
G04 #@! TO.N,col3*
G04 #@! TO.C,SW7*
X172720001Y-91440000D02*
X172759999Y-92020000D01*
D11*
G04 #@! TO.P,SW7,2*
G04 #@! TO.N,Net-(D7-Pad1)*
X178415000Y-93250000D03*
D12*
G04 #@! TD*
G04 #@! TO.N,Net-(D7-Pad1)*
G04 #@! TO.C,SW7*
X179069995Y-93980004D02*
X177760005Y-92519996D01*
D11*
G04 #@! TO.P,SW6,2*
G04 #@! TO.N,Net-(D6-Pad1)*
X159365000Y-112300000D03*
D12*
G04 #@! TD*
G04 #@! TO.N,Net-(D6-Pad1)*
G04 #@! TO.C,SW6*
X160019995Y-113030004D02*
X158710005Y-111569996D01*
D11*
G04 #@! TO.P,SW6,1*
G04 #@! TO.N,col2*
X153690000Y-110780000D03*
D12*
G04 #@! TD*
G04 #@! TO.N,col2*
G04 #@! TO.C,SW6*
X153670001Y-110490000D02*
X153709999Y-111070000D01*
D11*
G04 #@! TO.P,SW6,1*
G04 #@! TO.N,col2*
X153055000Y-112300000D03*
D12*
G04 #@! TD*
G04 #@! TO.N,col2*
G04 #@! TO.C,SW6*
X152400005Y-113030004D02*
X153709995Y-111569996D01*
D13*
G04 #@! TO.P,SW6,1*
G04 #@! TO.N,col2*
X153670000Y-110490000D03*
X153710000Y-111070000D03*
G04 #@! TO.P,SW6,2*
G04 #@! TO.N,Net-(D6-Pad1)*
X160020000Y-113030000D03*
X158710000Y-111570000D03*
G04 #@! TO.P,SW6,1*
G04 #@! TO.N,col2*
X152400000Y-113030000D03*
X153710000Y-111570000D03*
G04 #@! TO.P,SW6,2*
G04 #@! TO.N,Net-(D6-Pad1)*
X158750000Y-110490000D03*
X158710000Y-111070000D03*
D11*
X158730000Y-110780000D03*
D12*
G04 #@! TD*
G04 #@! TO.N,Net-(D6-Pad1)*
G04 #@! TO.C,SW6*
X158749999Y-110490000D02*
X158710001Y-111070000D01*
D11*
G04 #@! TO.P,SW5,2*
G04 #@! TO.N,Net-(D5-Pad1)*
X158730000Y-91730000D03*
D12*
G04 #@! TD*
G04 #@! TO.N,Net-(D5-Pad1)*
G04 #@! TO.C,SW5*
X158749999Y-91440000D02*
X158710001Y-92020000D01*
D13*
G04 #@! TO.P,SW5,2*
G04 #@! TO.N,Net-(D5-Pad1)*
X158710000Y-92020000D03*
X158750000Y-91440000D03*
G04 #@! TO.P,SW5,1*
G04 #@! TO.N,col2*
X153710000Y-92520000D03*
X152400000Y-93980000D03*
G04 #@! TO.P,SW5,2*
G04 #@! TO.N,Net-(D5-Pad1)*
X158710000Y-92520000D03*
X160020000Y-93980000D03*
G04 #@! TO.P,SW5,1*
G04 #@! TO.N,col2*
X153710000Y-92020000D03*
X153670000Y-91440000D03*
D11*
X153055000Y-93250000D03*
D12*
G04 #@! TD*
G04 #@! TO.N,col2*
G04 #@! TO.C,SW5*
X152400005Y-93980004D02*
X153709995Y-92519996D01*
D11*
G04 #@! TO.P,SW5,1*
G04 #@! TO.N,col2*
X153690000Y-91730000D03*
D12*
G04 #@! TD*
G04 #@! TO.N,col2*
G04 #@! TO.C,SW5*
X153670001Y-91440000D02*
X153709999Y-92020000D01*
D11*
G04 #@! TO.P,SW5,2*
G04 #@! TO.N,Net-(D5-Pad1)*
X159365000Y-93250000D03*
D12*
G04 #@! TD*
G04 #@! TO.N,Net-(D5-Pad1)*
G04 #@! TO.C,SW5*
X160019995Y-93980004D02*
X158710005Y-92519996D01*
D11*
G04 #@! TO.P,SW3,2*
G04 #@! TO.N,Net-(D3-Pad1)*
X139680000Y-91730000D03*
D12*
G04 #@! TD*
G04 #@! TO.N,Net-(D3-Pad1)*
G04 #@! TO.C,SW3*
X139699999Y-91440000D02*
X139660001Y-92020000D01*
D13*
G04 #@! TO.P,SW3,2*
G04 #@! TO.N,Net-(D3-Pad1)*
X139660000Y-92020000D03*
X139700000Y-91440000D03*
G04 #@! TO.P,SW3,1*
G04 #@! TO.N,col1*
X134660000Y-92520000D03*
X133350000Y-93980000D03*
G04 #@! TO.P,SW3,2*
G04 #@! TO.N,Net-(D3-Pad1)*
X139660000Y-92520000D03*
X140970000Y-93980000D03*
G04 #@! TO.P,SW3,1*
G04 #@! TO.N,col1*
X134660000Y-92020000D03*
X134620000Y-91440000D03*
D11*
X134005000Y-93250000D03*
D12*
G04 #@! TD*
G04 #@! TO.N,col1*
G04 #@! TO.C,SW3*
X133350005Y-93980004D02*
X134659995Y-92519996D01*
D11*
G04 #@! TO.P,SW3,1*
G04 #@! TO.N,col1*
X134640000Y-91730000D03*
D12*
G04 #@! TD*
G04 #@! TO.N,col1*
G04 #@! TO.C,SW3*
X134620001Y-91440000D02*
X134659999Y-92020000D01*
D11*
G04 #@! TO.P,SW3,2*
G04 #@! TO.N,Net-(D3-Pad1)*
X140315000Y-93250000D03*
D12*
G04 #@! TD*
G04 #@! TO.N,Net-(D3-Pad1)*
G04 #@! TO.C,SW3*
X140969995Y-93980004D02*
X139660005Y-92519996D01*
D11*
G04 #@! TO.P,SW2,2*
G04 #@! TO.N,Net-(D2-Pad1)*
X121265000Y-112300000D03*
D12*
G04 #@! TD*
G04 #@! TO.N,Net-(D2-Pad1)*
G04 #@! TO.C,SW2*
X121919995Y-113030004D02*
X120610005Y-111569996D01*
D11*
G04 #@! TO.P,SW2,1*
G04 #@! TO.N,col0*
X115590000Y-110780000D03*
D12*
G04 #@! TD*
G04 #@! TO.N,col0*
G04 #@! TO.C,SW2*
X115570001Y-110490000D02*
X115609999Y-111070000D01*
D11*
G04 #@! TO.P,SW2,1*
G04 #@! TO.N,col0*
X114955000Y-112300000D03*
D12*
G04 #@! TD*
G04 #@! TO.N,col0*
G04 #@! TO.C,SW2*
X114300005Y-113030004D02*
X115609995Y-111569996D01*
D13*
G04 #@! TO.P,SW2,1*
G04 #@! TO.N,col0*
X115570000Y-110490000D03*
X115610000Y-111070000D03*
G04 #@! TO.P,SW2,2*
G04 #@! TO.N,Net-(D2-Pad1)*
X121920000Y-113030000D03*
X120610000Y-111570000D03*
G04 #@! TO.P,SW2,1*
G04 #@! TO.N,col0*
X114300000Y-113030000D03*
X115610000Y-111570000D03*
G04 #@! TO.P,SW2,2*
G04 #@! TO.N,Net-(D2-Pad1)*
X120650000Y-110490000D03*
X120610000Y-111070000D03*
D11*
X120630000Y-110780000D03*
D12*
G04 #@! TD*
G04 #@! TO.N,Net-(D2-Pad1)*
G04 #@! TO.C,SW2*
X120649999Y-110490000D02*
X120610001Y-111070000D01*
D11*
G04 #@! TO.P,SW1,2*
G04 #@! TO.N,Net-(D1-Pad1)*
X120630000Y-91730000D03*
D12*
G04 #@! TD*
G04 #@! TO.N,Net-(D1-Pad1)*
G04 #@! TO.C,SW1*
X120649999Y-91440000D02*
X120610001Y-92020000D01*
D13*
G04 #@! TO.P,SW1,2*
G04 #@! TO.N,Net-(D1-Pad1)*
X120610000Y-92020000D03*
X120650000Y-91440000D03*
G04 #@! TO.P,SW1,1*
G04 #@! TO.N,col0*
X115610000Y-92520000D03*
X114300000Y-93980000D03*
G04 #@! TO.P,SW1,2*
G04 #@! TO.N,Net-(D1-Pad1)*
X120610000Y-92520000D03*
X121920000Y-93980000D03*
G04 #@! TO.P,SW1,1*
G04 #@! TO.N,col0*
X115610000Y-92020000D03*
X115570000Y-91440000D03*
D11*
X114955000Y-93250000D03*
D12*
G04 #@! TD*
G04 #@! TO.N,col0*
G04 #@! TO.C,SW1*
X114300005Y-93980004D02*
X115609995Y-92519996D01*
D11*
G04 #@! TO.P,SW1,1*
G04 #@! TO.N,col0*
X115590000Y-91730000D03*
D12*
G04 #@! TD*
G04 #@! TO.N,col0*
G04 #@! TO.C,SW1*
X115570001Y-91440000D02*
X115609999Y-92020000D01*
D11*
G04 #@! TO.P,SW1,2*
G04 #@! TO.N,Net-(D1-Pad1)*
X121265000Y-93250000D03*
D12*
G04 #@! TD*
G04 #@! TO.N,Net-(D1-Pad1)*
G04 #@! TO.C,SW1*
X121919995Y-93980004D02*
X120610005Y-92519996D01*
D16*
G04 #@! TO.P,D8,2*
G04 #@! TO.N,row1*
X182880000Y-111760000D03*
D17*
G04 #@! TO.P,D8,1*
G04 #@! TO.N,Net-(D8-Pad1)*
X182880000Y-119380000D03*
D18*
X182880000Y-117345000D03*
G04 #@! TO.P,D8,2*
G04 #@! TO.N,row1*
X182880000Y-113795000D03*
G04 #@! TD*
G04 #@! TO.P,D7,2*
G04 #@! TO.N,row0*
X182880000Y-94745000D03*
G04 #@! TO.P,D7,1*
G04 #@! TO.N,Net-(D7-Pad1)*
X182880000Y-98295000D03*
D17*
X182880000Y-100330000D03*
D16*
G04 #@! TO.P,D7,2*
G04 #@! TO.N,row0*
X182880000Y-92710000D03*
G04 #@! TD*
G04 #@! TO.P,D6,2*
G04 #@! TO.N,row1*
X167640000Y-111760000D03*
D17*
G04 #@! TO.P,D6,1*
G04 #@! TO.N,Net-(D6-Pad1)*
X167640000Y-119380000D03*
D18*
X167640000Y-117345000D03*
G04 #@! TO.P,D6,2*
G04 #@! TO.N,row1*
X167640000Y-113795000D03*
G04 #@! TD*
G04 #@! TO.P,D5,2*
G04 #@! TO.N,row0*
X125730000Y-94745000D03*
G04 #@! TO.P,D5,1*
G04 #@! TO.N,Net-(D5-Pad1)*
X125730000Y-98295000D03*
D17*
X125730000Y-100330000D03*
D16*
G04 #@! TO.P,D5,2*
G04 #@! TO.N,row0*
X125730000Y-92710000D03*
G04 #@! TD*
D18*
G04 #@! TO.P,D4,2*
G04 #@! TO.N,row1*
X125730000Y-113795000D03*
G04 #@! TO.P,D4,1*
G04 #@! TO.N,Net-(D4-Pad1)*
X125730000Y-117345000D03*
D17*
X125730000Y-119380000D03*
D16*
G04 #@! TO.P,D4,2*
G04 #@! TO.N,row1*
X125730000Y-111760000D03*
G04 #@! TD*
D18*
G04 #@! TO.P,D3,2*
G04 #@! TO.N,row0*
X167640000Y-94745000D03*
G04 #@! TO.P,D3,1*
G04 #@! TO.N,Net-(D3-Pad1)*
X167640000Y-98295000D03*
D17*
X167640000Y-100330000D03*
D16*
G04 #@! TO.P,D3,2*
G04 #@! TO.N,row0*
X167640000Y-92710000D03*
G04 #@! TD*
G04 #@! TO.P,D2,2*
G04 #@! TO.N,row1*
X110490000Y-111760000D03*
D17*
G04 #@! TO.P,D2,1*
G04 #@! TO.N,Net-(D2-Pad1)*
X110490000Y-119380000D03*
D18*
X110490000Y-117345000D03*
G04 #@! TO.P,D2,2*
G04 #@! TO.N,row1*
X110490000Y-113795000D03*
G04 #@! TD*
G04 #@! TO.P,D1,2*
G04 #@! TO.N,row0*
X110490000Y-94745000D03*
G04 #@! TO.P,D1,1*
G04 #@! TO.N,Net-(D1-Pad1)*
X110490000Y-98295000D03*
D17*
X110490000Y-100330000D03*
D16*
G04 #@! TO.P,D1,2*
G04 #@! TO.N,row0*
X110490000Y-92710000D03*
G04 #@! TD*
D19*
G04 #@! TO.P,L8,2*
G04 #@! TO.N,GND*
X172860000Y-119775000D03*
G04 #@! TO.P,L8,1*
G04 #@! TO.N,Net-(L8-Pad1)*
X172860000Y-121525000D03*
G04 #@! TO.P,L8,3*
G04 #@! TO.N,Net-(L6-Pad1)*
X177660000Y-119775000D03*
G04 #@! TO.P,L8,4*
G04 #@! TO.N,VCC*
X177660000Y-121525000D03*
G04 #@! TD*
G04 #@! TO.P,L7,4*
G04 #@! TO.N,VCC*
X177660000Y-102475000D03*
G04 #@! TO.P,L7,3*
G04 #@! TO.N,led*
X177660000Y-100725000D03*
G04 #@! TO.P,L7,1*
G04 #@! TO.N,Net-(L5-Pad3)*
X172860000Y-102475000D03*
G04 #@! TO.P,L7,2*
G04 #@! TO.N,GND*
X172860000Y-100725000D03*
G04 #@! TD*
G04 #@! TO.P,L6,2*
G04 #@! TO.N,GND*
X153810000Y-119775000D03*
G04 #@! TO.P,L6,1*
G04 #@! TO.N,Net-(L6-Pad1)*
X153810000Y-121525000D03*
G04 #@! TO.P,L6,3*
G04 #@! TO.N,Net-(L4-Pad1)*
X158610000Y-119775000D03*
G04 #@! TO.P,L6,4*
G04 #@! TO.N,VCC*
X158610000Y-121525000D03*
G04 #@! TD*
G04 #@! TO.P,L5,4*
G04 #@! TO.N,VCC*
X158610000Y-102475000D03*
G04 #@! TO.P,L5,3*
G04 #@! TO.N,Net-(L5-Pad3)*
X158610000Y-100725000D03*
G04 #@! TO.P,L5,1*
G04 #@! TO.N,Net-(L3-Pad3)*
X153810000Y-102475000D03*
G04 #@! TO.P,L5,2*
G04 #@! TO.N,GND*
X153810000Y-100725000D03*
G04 #@! TD*
G04 #@! TO.P,L4,2*
G04 #@! TO.N,GND*
X134760000Y-119775000D03*
G04 #@! TO.P,L4,1*
G04 #@! TO.N,Net-(L4-Pad1)*
X134760000Y-121525000D03*
G04 #@! TO.P,L4,3*
G04 #@! TO.N,Net-(L2-Pad1)*
X139560000Y-119775000D03*
G04 #@! TO.P,L4,4*
G04 #@! TO.N,VCC*
X139560000Y-121525000D03*
G04 #@! TD*
G04 #@! TO.P,L3,4*
G04 #@! TO.N,VCC*
X139560000Y-102475000D03*
G04 #@! TO.P,L3,3*
G04 #@! TO.N,Net-(L3-Pad3)*
X139560000Y-100725000D03*
G04 #@! TO.P,L3,1*
G04 #@! TO.N,Net-(L1-Pad3)*
X134760000Y-102475000D03*
G04 #@! TO.P,L3,2*
G04 #@! TO.N,GND*
X134760000Y-100725000D03*
G04 #@! TD*
G04 #@! TO.P,L2,2*
G04 #@! TO.N,GND*
X115710000Y-119775000D03*
G04 #@! TO.P,L2,1*
G04 #@! TO.N,Net-(L2-Pad1)*
X115710000Y-121525000D03*
G04 #@! TO.P,L2,3*
G04 #@! TO.N,Net-(L1-Pad1)*
X120510000Y-119775000D03*
G04 #@! TO.P,L2,4*
G04 #@! TO.N,VCC*
X120510000Y-121525000D03*
G04 #@! TD*
G04 #@! TO.P,L1,4*
G04 #@! TO.N,VCC*
X120510000Y-102475000D03*
G04 #@! TO.P,L1,3*
G04 #@! TO.N,Net-(L1-Pad3)*
X120510000Y-100725000D03*
G04 #@! TO.P,L1,1*
G04 #@! TO.N,Net-(L1-Pad1)*
X115710000Y-102475000D03*
G04 #@! TO.P,L1,2*
G04 #@! TO.N,GND*
X115710000Y-100725000D03*
G04 #@! TD*
D20*
G04 #@! TO.P,J2,3*
G04 #@! TO.N,GND*
X147320000Y-119380000D03*
G04 #@! TO.P,J2,2*
G04 #@! TO.N,led*
X147320000Y-116840000D03*
G04 #@! TO.P,J2,1*
G04 #@! TO.N,VCC*
X147320000Y-114300000D03*
G04 #@! TD*
D21*
G04 #@! TO.P,J1,A*
G04 #@! TO.N,Net-(J1-PadA)*
X174780000Y-86780000D03*
G04 #@! TO.P,J1,D*
G04 #@! TO.N,VCC*
X170580000Y-85280000D03*
G04 #@! TO.P,J1,C*
G04 #@! TO.N,GND*
X170580000Y-81280000D03*
G04 #@! TO.P,J1,B*
G04 #@! TO.N,data*
X170580000Y-78280000D03*
G04 #@! TO.P,J1,C*
G04 #@! TO.N,GND*
X176530000Y-81280000D03*
G04 #@! TO.P,J1,B*
G04 #@! TO.N,data*
X176530000Y-78280000D03*
G04 #@! TO.P,J1,A*
G04 #@! TO.N,Net-(J1-PadA)*
X172330000Y-86780000D03*
G04 #@! TO.P,J1,D*
G04 #@! TO.N,VCC*
X176530000Y-85280000D03*
G04 #@! TD*
D22*
G04 #@! TO.P,SW9,*
G04 #@! TO.N,*
X118450000Y-82500000D03*
D23*
G04 #@! TO.P,SW9,2*
G04 #@! TO.N,GND*
X119460000Y-80010000D03*
G04 #@! TO.P,SW9,1*
G04 #@! TO.N,reset*
X124460000Y-80010000D03*
D22*
G04 #@! TO.P,SW9,*
G04 #@! TO.N,*
X125460000Y-82500000D03*
G04 #@! TD*
D24*
G04 #@! TO.N,row0*
X151130000Y-88900000D03*
X158750000Y-87630000D03*
G04 #@! TO.N,row1*
X161290000Y-109220000D03*
X152400000Y-106066301D03*
X146050000Y-111760000D03*
X148590000Y-111760000D03*
G04 #@! TO.N,Net-(D3-Pad1)*
X151130000Y-85746301D03*
G04 #@! TO.N,VCC*
X180340000Y-99345000D03*
X162560000Y-106680000D03*
X161290000Y-100330000D03*
X175260000Y-106680000D03*
X180340000Y-118110000D03*
X163830000Y-115855000D03*
X144780000Y-116840000D03*
X142240000Y-120650000D03*
X118110000Y-119380000D03*
X118110000Y-88900000D03*
X142620246Y-100875000D03*
X118110000Y-104575000D03*
G04 #@! TO.N,GND*
X185420000Y-100330000D03*
X185420000Y-90170000D03*
X168910000Y-107950000D03*
X170415000Y-119380000D03*
X153670000Y-104140000D03*
X157480000Y-104140000D03*
X157480000Y-104140000D03*
X160020000Y-106680000D03*
X162560000Y-109220000D03*
X151130000Y-104140000D03*
X148590000Y-106680000D03*
X149860000Y-116840000D03*
X151635000Y-120650000D03*
X132080000Y-120650000D03*
X113030000Y-101600000D03*
X132211616Y-101731616D03*
X173990000Y-105829999D03*
X113265000Y-119380000D03*
X174159233Y-101642180D03*
G04 #@! TO.N,col0*
X115570000Y-106680000D03*
G04 #@! TO.N,col1*
X128270000Y-107950000D03*
G04 #@! TO.N,col2*
X153670000Y-87630000D03*
X149860000Y-107950000D03*
X156210000Y-100330000D03*
X133350000Y-87630000D03*
X160564999Y-86904999D03*
G04 #@! TO.N,col3*
X172720000Y-106680000D03*
G04 #@! TO.N,reset*
X152400000Y-82550000D03*
G04 #@! TO.N,Net-(U1-Pad15)*
X133350000Y-99060000D03*
X153973437Y-97833815D03*
X150980846Y-99209154D03*
G04 #@! TO.N,Net-(U1-Pad14)*
X136976459Y-105593541D03*
X139700000Y-104140000D03*
G04 #@! TO.N,Net-(U1-Pad13)*
X142240000Y-106680000D03*
X134620000Y-106680000D03*
G04 #@! TO.N,led*
X175260000Y-101600000D03*
X166370000Y-76200000D03*
X166370000Y-104140000D03*
G04 #@! TO.N,Net-(L1-Pad3)*
X122717348Y-102072652D03*
X131899999Y-100330000D03*
X137160000Y-100361625D03*
G04 #@! TO.N,Net-(L1-Pad1)*
X123190000Y-120650000D03*
X116840000Y-99060000D03*
G04 #@! TO.N,Net-(L2-Pad1)*
X127000000Y-124460000D03*
X119380000Y-124460000D03*
X134620000Y-124460000D03*
X137160000Y-120650000D03*
G04 #@! TO.N,Net-(L3-Pad3)*
X137160000Y-101600000D03*
X151130000Y-101600000D03*
G04 #@! TO.N,Net-(L4-Pad1)*
X133350000Y-123190000D03*
X155318026Y-118110000D03*
G04 #@! TO.N,Net-(L5-Pad3)*
X168228735Y-103306571D03*
X162560000Y-102870000D03*
G04 #@! TO.N,Net-(L6-Pad1)*
X175260000Y-120650000D03*
X168910000Y-124460000D03*
X158750000Y-124460000D03*
X153670000Y-118110000D03*
G04 #@! TO.N,Net-(L8-Pad1)*
X172720000Y-118110000D03*
G04 #@! TD*
D25*
G04 #@! TO.N,row0*
X182880000Y-94745000D02*
X182880000Y-92710000D01*
X167640000Y-94745000D02*
X167640000Y-92710000D01*
X125730000Y-94745000D02*
X125730000Y-92710000D01*
X182181501Y-92011501D02*
X182880000Y-92710000D01*
X179070000Y-88900000D02*
X182181501Y-92011501D01*
X171450000Y-88900000D02*
X179070000Y-88900000D01*
X167640000Y-92710000D02*
X171450000Y-88900000D01*
X133350000Y-88900000D02*
X142240000Y-88900000D01*
X131122899Y-92710000D02*
X131122899Y-91127101D01*
X142240000Y-88900000D02*
X144780000Y-91440000D01*
X131122899Y-91127101D02*
X133350000Y-88900000D01*
X125730000Y-92710000D02*
X131122899Y-92710000D01*
X163322074Y-92710000D02*
X167640000Y-92710000D01*
X148590000Y-91440000D02*
X151130000Y-88900000D01*
X158750000Y-88195685D02*
X158750000Y-87630000D01*
X163264315Y-92710000D02*
X158750000Y-88195685D01*
X163322074Y-92710000D02*
X163264315Y-92710000D01*
G04 #@! TO.N,Net-(D2-Pad1)*
X110490000Y-119380000D02*
X110490000Y-117345000D01*
X121265000Y-114189487D02*
X121265000Y-112300000D01*
X121265000Y-115846974D02*
X121265000Y-114189487D01*
X119223073Y-117888901D02*
X121265000Y-115846974D01*
X113611903Y-117888901D02*
X119223073Y-117888901D01*
X113068002Y-117345000D02*
X113611903Y-117888901D01*
X110490000Y-117345000D02*
X113068002Y-117345000D01*
G04 #@! TO.N,row1*
X144780000Y-93980000D02*
X148590000Y-93980000D01*
X182880000Y-113795000D02*
X182880000Y-111760000D01*
X182880000Y-111760000D02*
X180037952Y-108917952D01*
X167640000Y-111760000D02*
X167640000Y-113795000D01*
X163830000Y-111760000D02*
X161290000Y-109220000D01*
X167640000Y-111760000D02*
X163830000Y-111760000D01*
X149791301Y-95181301D02*
X149466299Y-94856299D01*
X149466299Y-94856299D02*
X148590000Y-93980000D01*
X149791301Y-96994303D02*
X149791301Y-95181301D01*
X152400000Y-99603002D02*
X149791301Y-96994303D01*
X152400000Y-106066301D02*
X152400000Y-99603002D01*
X125730000Y-113795000D02*
X125730000Y-111760000D01*
X110490000Y-111760000D02*
X110490000Y-113795000D01*
X146050000Y-111760000D02*
X148590000Y-111760000D01*
X167640000Y-111760000D02*
X171450000Y-107950000D01*
X171450000Y-107950000D02*
X179070000Y-107950000D01*
X179070000Y-107950000D02*
X180037952Y-108917952D01*
X111188499Y-111061501D02*
X110490000Y-111760000D01*
X114300000Y-107950000D02*
X111188499Y-111061501D01*
X121920000Y-107950000D02*
X114300000Y-107950000D01*
X125730000Y-111760000D02*
X121920000Y-107950000D01*
G04 #@! TO.N,Net-(D3-Pad1)*
X167640000Y-100330000D02*
X167640000Y-98295000D01*
X150730001Y-86146300D02*
X151130000Y-85746301D01*
X149315000Y-87561301D02*
X150730001Y-86146300D01*
X147388699Y-88323375D02*
X148150773Y-87561301D01*
X147388699Y-90609227D02*
X147388699Y-88323375D01*
X145356625Y-92641301D02*
X147388699Y-90609227D01*
X141195514Y-92641301D02*
X145356625Y-92641301D01*
X141074213Y-92520000D02*
X141195514Y-92641301D01*
X148150773Y-87561301D02*
X149315000Y-87561301D01*
X139660000Y-92520000D02*
X141074213Y-92520000D01*
G04 #@! TO.N,Net-(D4-Pad1)*
X125730000Y-119380000D02*
X125730000Y-117345000D01*
X138550940Y-112300000D02*
X140315000Y-112300000D01*
X136807032Y-112300000D02*
X138550940Y-112300000D01*
X134620000Y-114843002D02*
X134620000Y-114487032D01*
X130083002Y-119380000D02*
X134620000Y-114843002D01*
X134620000Y-114487032D02*
X136807032Y-112300000D01*
X125730000Y-119380000D02*
X130083002Y-119380000D01*
G04 #@! TO.N,Net-(D5-Pad1)*
X124706499Y-96371499D02*
X125730000Y-97395000D01*
X124706499Y-91955575D02*
X124706499Y-96371499D01*
X128963375Y-87698699D02*
X124706499Y-91955575D01*
X129979227Y-87698699D02*
X128963375Y-87698699D01*
X132656625Y-85021301D02*
X129979227Y-87698699D01*
X125730000Y-97395000D02*
X125730000Y-98295000D01*
X152770713Y-85021301D02*
X132656625Y-85021301D01*
X158710000Y-90960588D02*
X152770713Y-85021301D01*
X158710000Y-92520000D02*
X158710000Y-90960588D01*
X125730000Y-100330000D02*
X125730000Y-98295000D01*
G04 #@! TO.N,Net-(D6-Pad1)*
X167640000Y-117345000D02*
X167640000Y-119380000D01*
X161434213Y-113030000D02*
X160020000Y-113030000D01*
X163500000Y-113030000D02*
X161434213Y-113030000D01*
X167640000Y-117170000D02*
X163500000Y-113030000D01*
X167640000Y-117345000D02*
X167640000Y-117170000D01*
G04 #@! TO.N,Net-(D7-Pad1)*
X180069999Y-94979999D02*
X179070000Y-93980000D01*
X182880000Y-99060000D02*
X182880000Y-98295000D01*
X181029999Y-94979999D02*
X180069999Y-94979999D01*
X182880000Y-96830000D02*
X181029999Y-94979999D01*
X182880000Y-99060000D02*
X182880000Y-96830000D01*
X182880000Y-100330000D02*
X182880000Y-99060000D01*
G04 #@! TO.N,Net-(D8-Pad1)*
X182880000Y-117345000D02*
X182880000Y-119380000D01*
X180057969Y-113942969D02*
X178415000Y-112300000D01*
X182880000Y-116296998D02*
X180525971Y-113942969D01*
X180525971Y-113942969D02*
X180057969Y-113942969D01*
X182880000Y-117345000D02*
X182880000Y-116296998D01*
D26*
G04 #@! TO.N,VCC*
X170780010Y-85079990D02*
X170580000Y-85280000D01*
X176329990Y-85079990D02*
X170780010Y-85079990D01*
X176530000Y-85280000D02*
X176329990Y-85079990D01*
X169120000Y-83820000D02*
X170580000Y-85280000D01*
X163830000Y-83820000D02*
X169120000Y-83820000D01*
X180340000Y-100095000D02*
X180340000Y-99345000D01*
X177660000Y-102475000D02*
X177960000Y-102475000D01*
X177960000Y-102475000D02*
X180340000Y-100095000D01*
X158610000Y-102475000D02*
X159145000Y-102475000D01*
X177660000Y-103475000D02*
X175260000Y-105875000D01*
X177660000Y-102475000D02*
X177660000Y-103475000D01*
X175260000Y-105875000D02*
X175260000Y-106680000D01*
X178960000Y-121525000D02*
X177660000Y-121525000D01*
X180340000Y-120145000D02*
X178960000Y-121525000D01*
X180340000Y-118110000D02*
X180340000Y-120145000D01*
X161290000Y-105410000D02*
X162560000Y-106680000D01*
X161290000Y-100330000D02*
X161290000Y-105410000D01*
X158610000Y-102730000D02*
X158610000Y-102475000D01*
X162560000Y-106680000D02*
X158610000Y-102730000D01*
X163830000Y-116605000D02*
X163830000Y-115855000D01*
X158910000Y-121525000D02*
X163830000Y-116605000D01*
X158610000Y-121525000D02*
X158910000Y-121525000D01*
X147320000Y-114300000D02*
X144780000Y-116840000D01*
X141365000Y-121525000D02*
X139560000Y-121525000D01*
X142240000Y-120650000D02*
X141365000Y-121525000D01*
X120210000Y-102475000D02*
X120510000Y-102475000D01*
X118110000Y-104575000D02*
X118110000Y-104575000D01*
X120255000Y-121525000D02*
X120510000Y-121525000D01*
X118110000Y-119380000D02*
X120255000Y-121525000D01*
X118110000Y-92903026D02*
X118110000Y-88900000D01*
X120553901Y-95346927D02*
X118110000Y-92903026D01*
X119210000Y-99036974D02*
X120553901Y-97693073D01*
X120553901Y-97693073D02*
X120553901Y-95346927D01*
X119210000Y-101475000D02*
X119210000Y-99036974D01*
X120210000Y-102475000D02*
X119210000Y-101475000D01*
X135268699Y-105466301D02*
X138260000Y-102475000D01*
X124801301Y-105466301D02*
X135268699Y-105466301D01*
X121810000Y-102475000D02*
X124801301Y-105466301D01*
X138260000Y-102475000D02*
X139560000Y-102475000D01*
X120510000Y-102475000D02*
X121810000Y-102475000D01*
X144780000Y-116274315D02*
X144780000Y-116840000D01*
X144780000Y-107395000D02*
X144780000Y-116274315D01*
X139860000Y-102475000D02*
X144780000Y-107395000D01*
X139560000Y-102475000D02*
X139860000Y-102475000D01*
X141020246Y-102475000D02*
X142620246Y-100875000D01*
X139560000Y-102475000D02*
X141020246Y-102475000D01*
X118110000Y-104575000D02*
X120210000Y-102475000D01*
D25*
G04 #@! TO.N,Net-(J1-PadA)*
X172330000Y-86780000D02*
X174780000Y-86780000D01*
G04 #@! TO.N,data*
X148590000Y-78740000D02*
X144780000Y-78740000D01*
X175430000Y-78280000D02*
X170580000Y-78280000D01*
X176530000Y-78280000D02*
X175430000Y-78280000D01*
X170580000Y-78280000D02*
X169480000Y-78280000D01*
D26*
G04 #@! TO.N,GND*
X144780000Y-81280000D02*
X148590000Y-81280000D01*
X144780000Y-81280000D02*
X144780000Y-83820000D01*
X148590000Y-81280000D02*
X148590000Y-83820000D01*
X161290000Y-81280000D02*
X163830000Y-78740000D01*
X148590000Y-81280000D02*
X161290000Y-81280000D01*
X132080000Y-81280000D02*
X129540000Y-78740000D01*
X144780000Y-81280000D02*
X132080000Y-81280000D01*
X168440000Y-78740000D02*
X170580000Y-80880000D01*
X170580000Y-80880000D02*
X170580000Y-81280000D01*
X163830000Y-78740000D02*
X168440000Y-78740000D01*
X170580000Y-81280000D02*
X176530000Y-81280000D01*
X173160000Y-100725000D02*
X174110001Y-101675001D01*
X172860000Y-100725000D02*
X173160000Y-100725000D01*
X185420000Y-100330000D02*
X185420000Y-90170000D01*
X172860000Y-119775000D02*
X170810000Y-119775000D01*
X170810000Y-119775000D02*
X170415000Y-119380000D01*
X154255002Y-104140000D02*
X153670000Y-104140000D01*
X155110000Y-103285002D02*
X154255002Y-104140000D01*
X155110000Y-101725000D02*
X155110000Y-103285002D01*
X154110000Y-100725000D02*
X155110000Y-101725000D01*
X153810000Y-100725000D02*
X154110000Y-100725000D01*
X157480000Y-104140000D02*
X160020000Y-106680000D01*
X163830000Y-107950000D02*
X168910000Y-107950000D01*
X162560000Y-109220000D02*
X163830000Y-107950000D01*
X151130000Y-104140000D02*
X148590000Y-106680000D01*
X149860000Y-116840000D02*
X147320000Y-119380000D01*
X152510000Y-119775000D02*
X151635000Y-120650000D01*
X153810000Y-119775000D02*
X152510000Y-119775000D01*
X136060000Y-119775000D02*
X134760000Y-119775000D01*
X137010001Y-118824999D02*
X136060000Y-119775000D01*
X145502999Y-118824999D02*
X137010001Y-118824999D01*
X146058000Y-119380000D02*
X145502999Y-118824999D01*
X147320000Y-119380000D02*
X146058000Y-119380000D01*
X132955000Y-119775000D02*
X132080000Y-120650000D01*
X134760000Y-119775000D02*
X132955000Y-119775000D01*
X113905000Y-100725000D02*
X113030000Y-101600000D01*
X115710000Y-100725000D02*
X113905000Y-100725000D01*
X133218232Y-100725000D02*
X132211616Y-101731616D01*
X134760000Y-100725000D02*
X133218232Y-100725000D01*
X174110001Y-105709998D02*
X173990000Y-105829999D01*
X115175000Y-119775000D02*
X115710000Y-119775000D01*
X131680001Y-121049999D02*
X132080000Y-120650000D01*
X116010000Y-119775000D02*
X118710001Y-122475001D01*
X130254999Y-122475001D02*
X131680001Y-121049999D01*
X118710001Y-122475001D02*
X130254999Y-122475001D01*
X115710000Y-119775000D02*
X116010000Y-119775000D01*
X115710000Y-119775000D02*
X113660000Y-119775000D01*
X113660000Y-119775000D02*
X113265000Y-119380000D01*
X128549999Y-77749999D02*
X128663701Y-77863701D01*
X120482565Y-77749999D02*
X128549999Y-77749999D01*
X119460000Y-78772564D02*
X120482565Y-77749999D01*
X128663701Y-77863701D02*
X129540000Y-78740000D01*
X119460000Y-80010000D02*
X119460000Y-78772564D01*
X174159233Y-101642180D02*
X174110001Y-105709998D01*
X174110001Y-101675001D02*
X174159233Y-101642180D01*
D25*
G04 #@! TO.N,col0*
X128300725Y-86360000D02*
X129540000Y-86360000D01*
X119576998Y-86360000D02*
X128300725Y-86360000D01*
X116664728Y-89272270D02*
X119576998Y-86360000D01*
X116664728Y-90655272D02*
X116664728Y-89272270D01*
X115590000Y-91730000D02*
X116664728Y-90655272D01*
X114300000Y-95394213D02*
X114300000Y-93980000D01*
X114300000Y-97063002D02*
X114300000Y-95394213D01*
X112304999Y-99058003D02*
X114300000Y-97063002D01*
X112304999Y-103414999D02*
X112304999Y-99058003D01*
X115570000Y-106680000D02*
X112304999Y-103414999D01*
G04 #@! TO.N,col1*
X130810000Y-110490000D02*
X128270000Y-107950000D01*
X134620000Y-110490000D02*
X130810000Y-110490000D01*
G04 #@! TO.N,col2*
X153670000Y-87630000D02*
X153670000Y-91440000D01*
X154870001Y-99899999D02*
X153055000Y-98084998D01*
X155779999Y-99899999D02*
X154870001Y-99899999D01*
X156210000Y-100330000D02*
X155779999Y-99899999D01*
X153055000Y-98084998D02*
X153055000Y-93250000D01*
X149860000Y-107950000D02*
X152400000Y-107950000D01*
X156210000Y-104140000D02*
X156210000Y-100330000D01*
X152400000Y-107950000D02*
X156210000Y-104140000D01*
X133350000Y-87630000D02*
X129540000Y-91440000D01*
X160564999Y-88174999D02*
X163830000Y-91440000D01*
X160564999Y-86904999D02*
X160564999Y-88174999D01*
G04 #@! TO.N,col3*
X168295786Y-95720001D02*
X169122818Y-94892969D01*
X165570001Y-95720001D02*
X168295786Y-95720001D01*
X170462031Y-94892969D02*
X172105000Y-93250000D01*
X169122818Y-94892969D02*
X170462031Y-94892969D01*
X163830000Y-93980000D02*
X165570001Y-95720001D01*
X168663501Y-102623501D02*
X172720000Y-106680000D01*
X168663501Y-96087716D02*
X168663501Y-102623501D01*
X168295786Y-95720001D02*
X168663501Y-96087716D01*
G04 #@! TO.N,reset*
X129540000Y-81280000D02*
X128270000Y-80010000D01*
X162560000Y-82550000D02*
X163830000Y-81280000D01*
X152400000Y-82550000D02*
X162560000Y-82550000D01*
X124460000Y-80010000D02*
X128270000Y-80010000D01*
G04 #@! TO.N,Net-(U1-Pad15)*
X162590725Y-99060000D02*
X163830000Y-99060000D01*
X155318026Y-99060000D02*
X162590725Y-99060000D01*
X143002074Y-99060000D02*
X144272074Y-97790000D01*
X133350000Y-99060000D02*
X143002074Y-99060000D01*
X144272074Y-97790000D02*
X149097926Y-97790000D01*
X153973437Y-97833815D02*
X155318026Y-99060000D01*
X154048026Y-97790000D02*
X153973437Y-97833815D01*
X149561692Y-97790000D02*
X150980846Y-99209154D01*
X149097926Y-97790000D02*
X149561692Y-97790000D01*
G04 #@! TO.N,Net-(U1-Pad14)*
X138430000Y-104140000D02*
X139700000Y-104140000D01*
X136976459Y-105593541D02*
X138430000Y-104140000D01*
G04 #@! TO.N,Net-(U1-Pad13)*
X142240000Y-106680000D02*
X134620000Y-106680000D01*
G04 #@! TO.N,Net-(U1-Pad12)*
X144780000Y-104140000D02*
X148590000Y-104140000D01*
G04 #@! TO.N,Net-(U1-Pad11)*
X148590000Y-101600000D02*
X144780000Y-101600000D01*
G04 #@! TO.N,Net-(U1-Pad10)*
X144780000Y-99060000D02*
X148590000Y-99060000D01*
G04 #@! TO.N,Net-(U1-Pad9)*
X148590000Y-96520000D02*
X144780000Y-96520000D01*
G04 #@! TO.N,led*
X144780000Y-76200000D02*
X148590000Y-76200000D01*
X176135000Y-100725000D02*
X175260000Y-101600000D01*
X177660000Y-100725000D02*
X176135000Y-100725000D01*
X165168699Y-77401301D02*
X166370000Y-76200000D01*
X150917601Y-77401301D02*
X165168699Y-77401301D01*
X149716300Y-76200000D02*
X150917601Y-77401301D01*
X148590000Y-76200000D02*
X149716300Y-76200000D01*
X163104999Y-107405001D02*
X154214999Y-107405001D01*
X166370000Y-104140000D02*
X163104999Y-107405001D01*
X154214999Y-107405001D02*
X149860000Y-111760000D01*
X149860000Y-111760000D02*
X149860000Y-114300000D01*
X149860000Y-114300000D02*
X147320000Y-116840000D01*
G04 #@! TO.N,Net-(L1-Pad3)*
X121369696Y-100725000D02*
X120510000Y-100725000D01*
X122717348Y-102072652D02*
X121369696Y-100725000D01*
X130116625Y-102801301D02*
X131899999Y-101017927D01*
X123445997Y-102801301D02*
X130116625Y-102801301D01*
X131899999Y-101017927D02*
X131899999Y-100330000D01*
X122717348Y-102072652D02*
X123445997Y-102801301D01*
X137160000Y-100375000D02*
X137160000Y-100361625D01*
X135060000Y-102475000D02*
X137160000Y-100375000D01*
X134760000Y-102475000D02*
X135060000Y-102475000D01*
G04 #@! TO.N,Net-(L1-Pad1)*
X122315000Y-119775000D02*
X123190000Y-120650000D01*
X120510000Y-119775000D02*
X122315000Y-119775000D01*
X116010000Y-102475000D02*
X115710000Y-102475000D01*
X116840000Y-101645000D02*
X116010000Y-102475000D01*
X116840000Y-99060000D02*
X116840000Y-101645000D01*
G04 #@! TO.N,Net-(L2-Pad1)*
X117895000Y-124460000D02*
X115710000Y-122275000D01*
X115710000Y-122275000D02*
X115710000Y-121525000D01*
X119380000Y-124460000D02*
X117895000Y-124460000D01*
X127000000Y-124460000D02*
X134620000Y-124460000D01*
X138035000Y-119775000D02*
X137160000Y-120650000D01*
X139560000Y-119775000D02*
X138035000Y-119775000D01*
G04 #@! TO.N,Net-(L3-Pad3)*
X138035000Y-100725000D02*
X139560000Y-100725000D01*
X137160000Y-101600000D02*
X138035000Y-100725000D01*
X149928699Y-100398699D02*
X151130000Y-101600000D01*
X139560000Y-100725000D02*
X139860000Y-100725000D01*
X143216947Y-100398699D02*
X149928699Y-100398699D01*
X142793248Y-99975000D02*
X143216947Y-100398699D01*
X140610000Y-99975000D02*
X142793248Y-99975000D01*
X139860000Y-100725000D02*
X140610000Y-99975000D01*
X151529999Y-101999999D02*
X151130000Y-101600000D01*
X151949990Y-102419990D02*
X151529999Y-101999999D01*
X151949990Y-105443309D02*
X151949990Y-102419990D01*
X151674999Y-105718300D02*
X151949990Y-105443309D01*
X151674999Y-106414302D02*
X151674999Y-105718300D01*
X152051999Y-106791302D02*
X151674999Y-106414302D01*
X152748001Y-106791302D02*
X152051999Y-106791302D01*
X153125001Y-106414302D02*
X152748001Y-106791302D01*
X153125001Y-105718300D02*
X153125001Y-106414302D01*
X152850010Y-105443309D02*
X153125001Y-105718300D01*
X152850010Y-103434990D02*
X152850010Y-105443309D01*
X153810000Y-102475000D02*
X152850010Y-103434990D01*
G04 #@! TO.N,Net-(L4-Pad1)*
X153321999Y-117384999D02*
X154593025Y-117384999D01*
X147516998Y-123190000D02*
X153321999Y-117384999D01*
X156983026Y-119775000D02*
X158610000Y-119775000D01*
X133350000Y-123190000D02*
X147516998Y-123190000D01*
X155318026Y-118110000D02*
X156983026Y-119775000D01*
X154593025Y-117384999D02*
X155318026Y-118110000D01*
X134760000Y-121780000D02*
X133350000Y-123190000D01*
X134760000Y-121525000D02*
X134760000Y-121780000D01*
G04 #@! TO.N,Net-(L5-Pad3)*
X158610000Y-100725000D02*
X158310000Y-100725000D01*
X163253375Y-100398699D02*
X165320863Y-100398699D01*
X162459675Y-99604999D02*
X163253375Y-100398699D01*
X160780001Y-99604999D02*
X162459675Y-99604999D01*
X159660000Y-100725000D02*
X160780001Y-99604999D01*
X158610000Y-100725000D02*
X159660000Y-100725000D01*
X164947836Y-102870000D02*
X162560000Y-102870000D01*
X166370000Y-101447836D02*
X164947836Y-102870000D01*
X165320863Y-100398699D02*
X166370000Y-101447836D01*
X166370000Y-101447836D02*
X168228735Y-103306571D01*
X168628734Y-103706570D02*
X168228735Y-103306571D01*
X172327165Y-107405001D02*
X168628734Y-103706570D01*
X173068001Y-107405001D02*
X172327165Y-107405001D01*
X173445001Y-107028001D02*
X173068001Y-107405001D01*
X173445001Y-106331999D02*
X173445001Y-107028001D01*
X171415000Y-102870000D02*
X171415000Y-104301998D01*
X171810000Y-102475000D02*
X171415000Y-102870000D01*
X171415000Y-104301998D02*
X173445001Y-106331999D01*
X172860000Y-102475000D02*
X171810000Y-102475000D01*
G04 #@! TO.N,Net-(L6-Pad1)*
X176135000Y-119775000D02*
X175260000Y-120650000D01*
X177660000Y-119775000D02*
X176135000Y-119775000D01*
X172015685Y-124460000D02*
X168910000Y-124460000D01*
X175260000Y-121215685D02*
X172015685Y-124460000D01*
X175260000Y-120650000D02*
X175260000Y-121215685D01*
X155995000Y-124460000D02*
X153810000Y-122275000D01*
X153810000Y-122275000D02*
X153810000Y-121525000D01*
X158750000Y-124460000D02*
X155995000Y-124460000D01*
X154935001Y-120699999D02*
X154935001Y-119014999D01*
X154030002Y-118110000D02*
X153670000Y-118110000D01*
X154935001Y-119014999D02*
X154030002Y-118110000D01*
X154110000Y-121525000D02*
X154935001Y-120699999D01*
X153810000Y-121525000D02*
X154110000Y-121525000D01*
G04 #@! TO.N,Net-(L8-Pad1)*
X173985001Y-119014999D02*
X173080002Y-118110000D01*
X173985001Y-120699999D02*
X173985001Y-119014999D01*
X173160000Y-121525000D02*
X173985001Y-120699999D01*
X173080002Y-118110000D02*
X172720000Y-118110000D01*
X172860000Y-121525000D02*
X173160000Y-121525000D01*
G04 #@! TD*
D27*
G04 #@! TO.N,GND*
G36*
X128028700Y-75899384D02*
X128028700Y-76500616D01*
X128258782Y-77056083D01*
X128683917Y-77481218D01*
X128716520Y-77494722D01*
X128656604Y-77676999D01*
X129540000Y-78560395D01*
X130423396Y-77676999D01*
X130363480Y-77494722D01*
X130396083Y-77481218D01*
X130821218Y-77056083D01*
X131051300Y-76500616D01*
X131051300Y-75899384D01*
X130943860Y-75640000D01*
X143256260Y-75640000D01*
X143256260Y-77076300D01*
X143305543Y-77324065D01*
X143445891Y-77534109D01*
X143655935Y-77674457D01*
X143699564Y-77683135D01*
X143498782Y-77883917D01*
X143268700Y-78439384D01*
X143268700Y-79040616D01*
X143498782Y-79596083D01*
X143923917Y-80021218D01*
X143956520Y-80034722D01*
X143896604Y-80216999D01*
X144780000Y-81100395D01*
X145663396Y-80216999D01*
X145603480Y-80034722D01*
X145636083Y-80021218D01*
X146061218Y-79596083D01*
X146101017Y-79500000D01*
X147268983Y-79500000D01*
X147308782Y-79596083D01*
X147733917Y-80021218D01*
X147766520Y-80034722D01*
X147706604Y-80216999D01*
X148590000Y-81100395D01*
X149473396Y-80216999D01*
X149413480Y-80034722D01*
X149446083Y-80021218D01*
X149871218Y-79596083D01*
X150101300Y-79040616D01*
X150101300Y-78439384D01*
X149871218Y-77883917D01*
X149670436Y-77683135D01*
X149714065Y-77674457D01*
X149924109Y-77534109D01*
X149944736Y-77503238D01*
X150327272Y-77885774D01*
X150369672Y-77949230D01*
X150621064Y-78117205D01*
X150842749Y-78161301D01*
X150842753Y-78161301D01*
X150917600Y-78176189D01*
X150992447Y-78161301D01*
X162432366Y-78161301D01*
X162307118Y-78504997D01*
X162333109Y-79105668D01*
X162512973Y-79539896D01*
X162766999Y-79623396D01*
X163650395Y-78740000D01*
X163636253Y-78725858D01*
X163815858Y-78546253D01*
X163830000Y-78560395D01*
X163844143Y-78546253D01*
X164023748Y-78725858D01*
X164009605Y-78740000D01*
X164893001Y-79623396D01*
X165147027Y-79539896D01*
X165352882Y-78975003D01*
X165326891Y-78374332D01*
X165239023Y-78162201D01*
X165243546Y-78161301D01*
X165243551Y-78161301D01*
X165465236Y-78117205D01*
X165716628Y-77949230D01*
X165759030Y-77885771D01*
X166409802Y-77235000D01*
X166575874Y-77235000D01*
X166956280Y-77077431D01*
X167247431Y-76786280D01*
X167405000Y-76405874D01*
X167405000Y-75994126D01*
X167258317Y-75640000D01*
X171773447Y-75640000D01*
X171633018Y-75780429D01*
X171445000Y-76234343D01*
X171445000Y-76671981D01*
X171159418Y-76481161D01*
X170580000Y-76365908D01*
X170000583Y-76481161D01*
X169509375Y-76809375D01*
X169181161Y-77300582D01*
X169120358Y-77606262D01*
X168932071Y-77732071D01*
X168764096Y-77983463D01*
X168705111Y-78280000D01*
X168764096Y-78576537D01*
X168932071Y-78827929D01*
X169120358Y-78953739D01*
X169181161Y-79259417D01*
X169509375Y-79750625D01*
X169575859Y-79795048D01*
X169256640Y-80194382D01*
X169095000Y-80753000D01*
X169095000Y-81153000D01*
X170453000Y-81153000D01*
X170453000Y-81133000D01*
X170707000Y-81133000D01*
X170707000Y-81153000D01*
X172065000Y-81153000D01*
X172065000Y-80753000D01*
X171903360Y-80194382D01*
X171584141Y-79795048D01*
X171650625Y-79750625D01*
X171978839Y-79259418D01*
X172022484Y-79040000D01*
X175087516Y-79040000D01*
X175131161Y-79259417D01*
X175459375Y-79750625D01*
X175525859Y-79795048D01*
X175206640Y-80194382D01*
X175045000Y-80753000D01*
X175045000Y-81153000D01*
X176403000Y-81153000D01*
X176403000Y-81133000D01*
X176657000Y-81133000D01*
X176657000Y-81153000D01*
X178015000Y-81153000D01*
X178015000Y-80753000D01*
X177853360Y-80194382D01*
X177534141Y-79795048D01*
X177600625Y-79750625D01*
X177843985Y-79386410D01*
X184825000Y-79386410D01*
X184825000Y-80633590D01*
X185302276Y-81785835D01*
X186184165Y-82667724D01*
X187336410Y-83145000D01*
X188583590Y-83145000D01*
X189735835Y-82667724D01*
X190617724Y-81785835D01*
X191095000Y-80633590D01*
X191095000Y-79386410D01*
X190617724Y-78234165D01*
X189735835Y-77352276D01*
X188583590Y-76875000D01*
X187336410Y-76875000D01*
X186184165Y-77352276D01*
X185302276Y-78234165D01*
X184825000Y-79386410D01*
X177843985Y-79386410D01*
X177928839Y-79259418D01*
X178015000Y-78826256D01*
X178015000Y-77733745D01*
X177928839Y-77300582D01*
X177600625Y-76809375D01*
X177109418Y-76481161D01*
X176530000Y-76365908D01*
X175950583Y-76481161D01*
X175665000Y-76671981D01*
X175665000Y-76234343D01*
X175476982Y-75780429D01*
X175336553Y-75640000D01*
X188434036Y-75640000D01*
X189092604Y-75706895D01*
X189689782Y-75894039D01*
X190237124Y-76197436D01*
X190712289Y-76604701D01*
X191095852Y-77099188D01*
X191372150Y-77660700D01*
X191532104Y-78274774D01*
X191570000Y-78767270D01*
X191570001Y-125064026D01*
X191503105Y-125722604D01*
X191315961Y-126319782D01*
X191012563Y-126867125D01*
X190605299Y-127342289D01*
X190110812Y-127725852D01*
X189549304Y-128002148D01*
X188935227Y-128162104D01*
X188442730Y-128200000D01*
X110525964Y-128200000D01*
X109867396Y-128133105D01*
X109270218Y-127945961D01*
X108722875Y-127642563D01*
X108247711Y-127235299D01*
X107864148Y-126740812D01*
X107587852Y-126179304D01*
X107427896Y-125565227D01*
X107390000Y-125072730D01*
X107390000Y-123836410D01*
X108625000Y-123836410D01*
X108625000Y-125083590D01*
X109102276Y-126235835D01*
X109984165Y-127117724D01*
X111136410Y-127595000D01*
X112383590Y-127595000D01*
X113535835Y-127117724D01*
X114417724Y-126235835D01*
X114895000Y-125083590D01*
X114895000Y-123836410D01*
X114417724Y-122684165D01*
X113535835Y-121802276D01*
X112383590Y-121325000D01*
X111136410Y-121325000D01*
X109984165Y-121802276D01*
X109102276Y-122684165D01*
X108625000Y-123836410D01*
X107390000Y-123836410D01*
X107390000Y-121025000D01*
X114262560Y-121025000D01*
X114262560Y-122025000D01*
X114311843Y-122272765D01*
X114452191Y-122482809D01*
X114662235Y-122623157D01*
X114910000Y-122672440D01*
X115061518Y-122672440D01*
X115162071Y-122822929D01*
X115225530Y-122865331D01*
X117304671Y-124944473D01*
X117347071Y-125007929D01*
X117598463Y-125175904D01*
X117820148Y-125220000D01*
X117820152Y-125220000D01*
X117895000Y-125234888D01*
X117969848Y-125220000D01*
X118676289Y-125220000D01*
X118793720Y-125337431D01*
X119174126Y-125495000D01*
X119585874Y-125495000D01*
X119966280Y-125337431D01*
X120257431Y-125046280D01*
X120415000Y-124665874D01*
X120415000Y-124254126D01*
X120257431Y-123873720D01*
X119966280Y-123582569D01*
X119585874Y-123425000D01*
X119174126Y-123425000D01*
X118793720Y-123582569D01*
X118676289Y-123700000D01*
X118209802Y-123700000D01*
X116977743Y-122467942D01*
X117108157Y-122272765D01*
X117157440Y-122025000D01*
X117157440Y-121025000D01*
X117108157Y-120777235D01*
X117027100Y-120655926D01*
X117048327Y-120634699D01*
X117145000Y-120401310D01*
X117145000Y-120060750D01*
X116986250Y-119902000D01*
X115837000Y-119902000D01*
X115837000Y-119922000D01*
X115583000Y-119922000D01*
X115583000Y-119902000D01*
X114433750Y-119902000D01*
X114275000Y-120060750D01*
X114275000Y-120401310D01*
X114371673Y-120634699D01*
X114392900Y-120655926D01*
X114311843Y-120777235D01*
X114262560Y-121025000D01*
X107390000Y-121025000D01*
X107390000Y-99631500D01*
X109144060Y-99631500D01*
X109144060Y-101028500D01*
X109193343Y-101276265D01*
X109333691Y-101486309D01*
X109543735Y-101626657D01*
X109791500Y-101675940D01*
X111188500Y-101675940D01*
X111436265Y-101626657D01*
X111544999Y-101554002D01*
X111544999Y-103340152D01*
X111530111Y-103414999D01*
X111544999Y-103489846D01*
X111544999Y-103489850D01*
X111589095Y-103711535D01*
X111757070Y-103962928D01*
X111820529Y-104005330D01*
X114535000Y-106719802D01*
X114535000Y-106885874D01*
X114660973Y-107190000D01*
X114374847Y-107190000D01*
X114300000Y-107175112D01*
X114225153Y-107190000D01*
X114225148Y-107190000D01*
X114003463Y-107234096D01*
X113752071Y-107402071D01*
X113709671Y-107465527D01*
X110748699Y-110426500D01*
X110224750Y-110426500D01*
X109734633Y-110629513D01*
X109359513Y-111004633D01*
X109156500Y-111494750D01*
X109156500Y-112025250D01*
X109359513Y-112515367D01*
X109546835Y-112702689D01*
X109416843Y-112897235D01*
X109367560Y-113145000D01*
X109367560Y-114445000D01*
X109416843Y-114692765D01*
X109557191Y-114902809D01*
X109767235Y-115043157D01*
X110015000Y-115092440D01*
X110965000Y-115092440D01*
X111212765Y-115043157D01*
X111422809Y-114902809D01*
X111563157Y-114692765D01*
X111612440Y-114445000D01*
X111612440Y-113145000D01*
X111563157Y-112897235D01*
X111433165Y-112702689D01*
X111620487Y-112515367D01*
X111823500Y-112025250D01*
X111823500Y-111501301D01*
X114614802Y-108710000D01*
X114931976Y-108710000D01*
X114714093Y-108769177D01*
X114120715Y-109227710D01*
X113747977Y-109878414D01*
X113676695Y-110434471D01*
X113706644Y-110868752D01*
X112772992Y-111909325D01*
X112487199Y-112391614D01*
X112380889Y-113133939D01*
X112566748Y-113860442D01*
X112703991Y-114043565D01*
X112160493Y-114268690D01*
X111728690Y-114700493D01*
X111495000Y-115264670D01*
X111495000Y-115875330D01*
X111728690Y-116439507D01*
X111874183Y-116585000D01*
X111590560Y-116585000D01*
X111563157Y-116447235D01*
X111422809Y-116237191D01*
X111212765Y-116096843D01*
X110965000Y-116047560D01*
X110015000Y-116047560D01*
X109767235Y-116096843D01*
X109557191Y-116237191D01*
X109416843Y-116447235D01*
X109367560Y-116695000D01*
X109367560Y-117995000D01*
X109403739Y-118176886D01*
X109333691Y-118223691D01*
X109193343Y-118433735D01*
X109144060Y-118681500D01*
X109144060Y-120078500D01*
X109193343Y-120326265D01*
X109333691Y-120536309D01*
X109543735Y-120676657D01*
X109791500Y-120725940D01*
X111188500Y-120725940D01*
X111436265Y-120676657D01*
X111646309Y-120536309D01*
X111786657Y-120326265D01*
X111835940Y-120078500D01*
X111835940Y-118681500D01*
X111786657Y-118433735D01*
X111646309Y-118223691D01*
X111576261Y-118176886D01*
X111590560Y-118105000D01*
X112753201Y-118105000D01*
X113021574Y-118373373D01*
X113063974Y-118436830D01*
X113315366Y-118604805D01*
X113537051Y-118648901D01*
X113537055Y-118648901D01*
X113611902Y-118663789D01*
X113686749Y-118648901D01*
X114762202Y-118648901D01*
X114550302Y-118736673D01*
X114371673Y-118915301D01*
X114275000Y-119148690D01*
X114275000Y-119489250D01*
X114433750Y-119648000D01*
X115583000Y-119648000D01*
X115583000Y-119628000D01*
X115837000Y-119628000D01*
X115837000Y-119648000D01*
X116986250Y-119648000D01*
X117075000Y-119559250D01*
X117075000Y-119585874D01*
X117232569Y-119966280D01*
X117523720Y-120257431D01*
X117885853Y-120407431D01*
X119062560Y-121584139D01*
X119062560Y-122025000D01*
X119111843Y-122272765D01*
X119252191Y-122482809D01*
X119462235Y-122623157D01*
X119710000Y-122672440D01*
X121310000Y-122672440D01*
X121557765Y-122623157D01*
X121767809Y-122482809D01*
X121908157Y-122272765D01*
X121957440Y-122025000D01*
X121957440Y-121025000D01*
X121908157Y-120777235D01*
X121823141Y-120650000D01*
X121899982Y-120535000D01*
X122000199Y-120535000D01*
X122155000Y-120689801D01*
X122155000Y-120855874D01*
X122312569Y-121236280D01*
X122603720Y-121527431D01*
X122984126Y-121685000D01*
X123395874Y-121685000D01*
X123776280Y-121527431D01*
X124067431Y-121236280D01*
X124225000Y-120855874D01*
X124225000Y-120444126D01*
X124067431Y-120063720D01*
X123776280Y-119772569D01*
X123395874Y-119615000D01*
X123229801Y-119615000D01*
X122905331Y-119290530D01*
X122862929Y-119227071D01*
X122611537Y-119059096D01*
X122389852Y-119015000D01*
X122389847Y-119015000D01*
X122315000Y-119000112D01*
X122240153Y-119015000D01*
X121899982Y-119015000D01*
X121767809Y-118817191D01*
X121564735Y-118681500D01*
X124384060Y-118681500D01*
X124384060Y-120078500D01*
X124433343Y-120326265D01*
X124573691Y-120536309D01*
X124783735Y-120676657D01*
X125031500Y-120725940D01*
X126428500Y-120725940D01*
X126676265Y-120676657D01*
X126886309Y-120536309D01*
X127026657Y-120326265D01*
X127063707Y-120140000D01*
X130008155Y-120140000D01*
X130083002Y-120154888D01*
X130157849Y-120140000D01*
X130157854Y-120140000D01*
X130379539Y-120095904D01*
X130630931Y-119927929D01*
X130673333Y-119864470D01*
X131389113Y-119148690D01*
X133325000Y-119148690D01*
X133325000Y-119489250D01*
X133483750Y-119648000D01*
X134633000Y-119648000D01*
X134633000Y-118798750D01*
X134887000Y-118798750D01*
X134887000Y-119648000D01*
X136036250Y-119648000D01*
X136195000Y-119489250D01*
X136195000Y-119148690D01*
X136098327Y-118915301D01*
X135919698Y-118736673D01*
X135686309Y-118640000D01*
X135045750Y-118640000D01*
X134887000Y-118798750D01*
X134633000Y-118798750D01*
X134474250Y-118640000D01*
X133833691Y-118640000D01*
X133600302Y-118736673D01*
X133421673Y-118915301D01*
X133325000Y-119148690D01*
X131389113Y-119148690D01*
X134531100Y-116006704D01*
X134531100Y-116092921D01*
X134931326Y-117059152D01*
X135670848Y-117798674D01*
X136637079Y-118198900D01*
X137682921Y-118198900D01*
X138649152Y-117798674D01*
X139388674Y-117059152D01*
X139788900Y-116092921D01*
X139788900Y-115047079D01*
X139395836Y-114098138D01*
X139690954Y-114427053D01*
X140139556Y-114763261D01*
X140838614Y-114942099D01*
X140705000Y-115264670D01*
X140705000Y-115875330D01*
X140938690Y-116439507D01*
X141370493Y-116871310D01*
X141934670Y-117105000D01*
X142545330Y-117105000D01*
X143109507Y-116871310D01*
X143541310Y-116439507D01*
X143775000Y-115875330D01*
X143775000Y-115264670D01*
X143541310Y-114700493D01*
X143109507Y-114268690D01*
X142566009Y-114043565D01*
X142703252Y-113860442D01*
X142889111Y-113133939D01*
X142782802Y-112391613D01*
X142497008Y-111909325D01*
X141563356Y-110868753D01*
X141593305Y-110434470D01*
X141522023Y-109878414D01*
X141149285Y-109227709D01*
X140555907Y-108769177D01*
X139832225Y-108572625D01*
X139088413Y-108667976D01*
X138437709Y-109040713D01*
X137979177Y-109634092D01*
X137832239Y-110175099D01*
X137766695Y-111125529D01*
X137787162Y-111285186D01*
X137740889Y-111466061D01*
X137751478Y-111540000D01*
X136881878Y-111540000D01*
X136807031Y-111525112D01*
X136732184Y-111540000D01*
X136732180Y-111540000D01*
X136563723Y-111573508D01*
X136579111Y-111466061D01*
X136532838Y-111285186D01*
X136553305Y-111125530D01*
X136487761Y-110175100D01*
X136340824Y-109634092D01*
X135882291Y-109040714D01*
X135231587Y-108667976D01*
X134487775Y-108572625D01*
X133764093Y-108769177D01*
X133170715Y-109227710D01*
X132882992Y-109730000D01*
X131124803Y-109730000D01*
X129305000Y-107910199D01*
X129305000Y-107744126D01*
X129147431Y-107363720D01*
X128856280Y-107072569D01*
X128475874Y-106915000D01*
X128064126Y-106915000D01*
X127683720Y-107072569D01*
X127392569Y-107363720D01*
X127235000Y-107744126D01*
X127235000Y-108155874D01*
X127392569Y-108536280D01*
X127683720Y-108827431D01*
X128064126Y-108985000D01*
X128230199Y-108985000D01*
X130219673Y-110974476D01*
X130262071Y-111037929D01*
X130325524Y-111080327D01*
X130325526Y-111080329D01*
X130393173Y-111125529D01*
X130513463Y-111205904D01*
X130735148Y-111250000D01*
X130735152Y-111250000D01*
X130809999Y-111264888D01*
X130884846Y-111250000D01*
X132414570Y-111250000D01*
X131822992Y-111909325D01*
X131537199Y-112391614D01*
X131430889Y-113133939D01*
X131616748Y-113860442D01*
X131753991Y-114043565D01*
X131210493Y-114268690D01*
X130778690Y-114700493D01*
X130545000Y-115264670D01*
X130545000Y-115875330D01*
X130778690Y-116439507D01*
X131210493Y-116871310D01*
X131427149Y-116961052D01*
X129768201Y-118620000D01*
X127063707Y-118620000D01*
X127026657Y-118433735D01*
X126886309Y-118223691D01*
X126816261Y-118176886D01*
X126852440Y-117995000D01*
X126852440Y-116695000D01*
X126803157Y-116447235D01*
X126662809Y-116237191D01*
X126452765Y-116096843D01*
X126205000Y-116047560D01*
X125255000Y-116047560D01*
X125007235Y-116096843D01*
X124797191Y-116237191D01*
X124656843Y-116447235D01*
X124607560Y-116695000D01*
X124607560Y-117995000D01*
X124643739Y-118176886D01*
X124573691Y-118223691D01*
X124433343Y-118433735D01*
X124384060Y-118681500D01*
X121564735Y-118681500D01*
X121557765Y-118676843D01*
X121310000Y-118627560D01*
X119710000Y-118627560D01*
X119462235Y-118676843D01*
X119252191Y-118817191D01*
X119111843Y-119027235D01*
X119102861Y-119072393D01*
X118987431Y-118793720D01*
X118842612Y-118648901D01*
X119148226Y-118648901D01*
X119223073Y-118663789D01*
X119297920Y-118648901D01*
X119297925Y-118648901D01*
X119519610Y-118604805D01*
X119771002Y-118436830D01*
X119813404Y-118373371D01*
X121749473Y-116437303D01*
X121812929Y-116394903D01*
X121848292Y-116341978D01*
X121888690Y-116439507D01*
X122320493Y-116871310D01*
X122884670Y-117105000D01*
X123495330Y-117105000D01*
X124059507Y-116871310D01*
X124491310Y-116439507D01*
X124725000Y-115875330D01*
X124725000Y-115264670D01*
X124491310Y-114700493D01*
X124059507Y-114268690D01*
X123516009Y-114043565D01*
X123653252Y-113860442D01*
X123839111Y-113133939D01*
X123732802Y-112391613D01*
X123447008Y-111909325D01*
X122513356Y-110868753D01*
X122543305Y-110434470D01*
X122472023Y-109878414D01*
X122099285Y-109227709D01*
X121505907Y-108769177D01*
X121288024Y-108710000D01*
X121605199Y-108710000D01*
X124396500Y-111501302D01*
X124396500Y-112025250D01*
X124599513Y-112515367D01*
X124786835Y-112702689D01*
X124656843Y-112897235D01*
X124607560Y-113145000D01*
X124607560Y-114445000D01*
X124656843Y-114692765D01*
X124797191Y-114902809D01*
X125007235Y-115043157D01*
X125255000Y-115092440D01*
X126205000Y-115092440D01*
X126452765Y-115043157D01*
X126662809Y-114902809D01*
X126803157Y-114692765D01*
X126852440Y-114445000D01*
X126852440Y-113145000D01*
X126803157Y-112897235D01*
X126673165Y-112702689D01*
X126860487Y-112515367D01*
X127063500Y-112025250D01*
X127063500Y-111494750D01*
X126860487Y-111004633D01*
X126485367Y-110629513D01*
X125995250Y-110426500D01*
X125471302Y-110426500D01*
X122510331Y-107465530D01*
X122467929Y-107402071D01*
X122216537Y-107234096D01*
X121994852Y-107190000D01*
X121994847Y-107190000D01*
X121920000Y-107175112D01*
X121845153Y-107190000D01*
X116479027Y-107190000D01*
X116605000Y-106885874D01*
X116605000Y-106474126D01*
X116447431Y-106093720D01*
X116156280Y-105802569D01*
X115775874Y-105645000D01*
X115609802Y-105645000D01*
X113064999Y-103100198D01*
X113064999Y-100098690D01*
X114275000Y-100098690D01*
X114275000Y-100439250D01*
X114433750Y-100598000D01*
X115583000Y-100598000D01*
X115583000Y-99748750D01*
X115424250Y-99590000D01*
X114783691Y-99590000D01*
X114550302Y-99686673D01*
X114371673Y-99865301D01*
X114275000Y-100098690D01*
X113064999Y-100098690D01*
X113064999Y-99372804D01*
X114784476Y-97653329D01*
X114847929Y-97610931D01*
X114890327Y-97547478D01*
X114890329Y-97547476D01*
X115003616Y-97377929D01*
X115015904Y-97359539D01*
X115060000Y-97137854D01*
X115060000Y-97137850D01*
X115074888Y-97063003D01*
X115060000Y-96988156D01*
X115060000Y-95731282D01*
X115130443Y-95713261D01*
X115579045Y-95377053D01*
X115874165Y-95048137D01*
X115481100Y-95997079D01*
X115481100Y-97042921D01*
X115881326Y-98009152D01*
X116154232Y-98282058D01*
X115962569Y-98473720D01*
X115805000Y-98854126D01*
X115805000Y-99265874D01*
X115955803Y-99629947D01*
X115837000Y-99748750D01*
X115837000Y-100598000D01*
X115857000Y-100598000D01*
X115857000Y-100852000D01*
X115837000Y-100852000D01*
X115837000Y-100872000D01*
X115583000Y-100872000D01*
X115583000Y-100852000D01*
X114433750Y-100852000D01*
X114275000Y-101010750D01*
X114275000Y-101351310D01*
X114371673Y-101584699D01*
X114392900Y-101605926D01*
X114311843Y-101727235D01*
X114262560Y-101975000D01*
X114262560Y-102975000D01*
X114311843Y-103222765D01*
X114452191Y-103432809D01*
X114662235Y-103573157D01*
X114910000Y-103622440D01*
X116510000Y-103622440D01*
X116757765Y-103573157D01*
X116967809Y-103432809D01*
X117108157Y-103222765D01*
X117157440Y-102975000D01*
X117157440Y-102402362D01*
X117324473Y-102235329D01*
X117387929Y-102192929D01*
X117555904Y-101941537D01*
X117600000Y-101719852D01*
X117600000Y-101719848D01*
X117614888Y-101645001D01*
X117600000Y-101570154D01*
X117600000Y-99763711D01*
X117717431Y-99646280D01*
X117875000Y-99265874D01*
X117875000Y-99148900D01*
X118325001Y-99148900D01*
X118325000Y-101387839D01*
X118307663Y-101475000D01*
X118325000Y-101562161D01*
X118325000Y-101562164D01*
X118376348Y-101820309D01*
X118571951Y-102113049D01*
X118645847Y-102162425D01*
X118958421Y-102475000D01*
X117885853Y-103547569D01*
X117523720Y-103697569D01*
X117232569Y-103988720D01*
X117075000Y-104369126D01*
X117075000Y-104780874D01*
X117232569Y-105161280D01*
X117523720Y-105452431D01*
X117904126Y-105610000D01*
X118315874Y-105610000D01*
X118696280Y-105452431D01*
X118987431Y-105161280D01*
X119137431Y-104799147D01*
X120314139Y-103622440D01*
X121310000Y-103622440D01*
X121557765Y-103573157D01*
X121616999Y-103533578D01*
X124113878Y-106030457D01*
X124163252Y-106104350D01*
X124237145Y-106153724D01*
X124237146Y-106153725D01*
X124282261Y-106183870D01*
X124455991Y-106299953D01*
X124714136Y-106351301D01*
X124714140Y-106351301D01*
X124801300Y-106368638D01*
X124888460Y-106351301D01*
X133635876Y-106351301D01*
X133585000Y-106474126D01*
X133585000Y-106885874D01*
X133742569Y-107266280D01*
X134033720Y-107557431D01*
X134414126Y-107715000D01*
X134825874Y-107715000D01*
X135206280Y-107557431D01*
X135323711Y-107440000D01*
X141536289Y-107440000D01*
X141653720Y-107557431D01*
X142034126Y-107715000D01*
X142445874Y-107715000D01*
X142826280Y-107557431D01*
X143117431Y-107266280D01*
X143200106Y-107066685D01*
X143895000Y-107761579D01*
X143895001Y-116187146D01*
X143895000Y-116187151D01*
X143895000Y-116271993D01*
X143745000Y-116634126D01*
X143745000Y-117045874D01*
X143902569Y-117426280D01*
X144193720Y-117717431D01*
X144574126Y-117875000D01*
X144985874Y-117875000D01*
X145366280Y-117717431D01*
X145657431Y-117426280D01*
X145807431Y-117064147D01*
X145910560Y-116961018D01*
X145910560Y-117602000D01*
X145959843Y-117849765D01*
X146100191Y-118059809D01*
X146170912Y-118107063D01*
X146019673Y-118258301D01*
X145923000Y-118491690D01*
X145923000Y-119094250D01*
X146081750Y-119253000D01*
X147193000Y-119253000D01*
X147193000Y-119233000D01*
X147447000Y-119233000D01*
X147447000Y-119253000D01*
X148558250Y-119253000D01*
X148717000Y-119094250D01*
X148717000Y-118491690D01*
X148620327Y-118258301D01*
X148469088Y-118107063D01*
X148539809Y-118059809D01*
X148680157Y-117849765D01*
X148729440Y-117602000D01*
X148729440Y-116505362D01*
X149595000Y-115639802D01*
X149595000Y-115875330D01*
X149828690Y-116439507D01*
X150260493Y-116871310D01*
X150824670Y-117105000D01*
X151435330Y-117105000D01*
X151999507Y-116871310D01*
X152431310Y-116439507D01*
X152665000Y-115875330D01*
X152665000Y-115264670D01*
X152531386Y-114942098D01*
X153230443Y-114763261D01*
X153679045Y-114427053D01*
X153974165Y-114098137D01*
X153581100Y-115047079D01*
X153581100Y-116092921D01*
X153801494Y-116624999D01*
X153396845Y-116624999D01*
X153321998Y-116610111D01*
X153247151Y-116624999D01*
X153247147Y-116624999D01*
X153025462Y-116669095D01*
X152774070Y-116837070D01*
X152731670Y-116900526D01*
X147202197Y-122430000D01*
X140853095Y-122430000D01*
X140866459Y-122410000D01*
X141277839Y-122410000D01*
X141365000Y-122427337D01*
X141452161Y-122410000D01*
X141452165Y-122410000D01*
X141710310Y-122358652D01*
X142003049Y-122163049D01*
X142052425Y-122089153D01*
X142464148Y-121677431D01*
X142826280Y-121527431D01*
X143117431Y-121236280D01*
X143275000Y-120855874D01*
X143275000Y-120444126D01*
X143117431Y-120063720D01*
X142826280Y-119772569D01*
X142568396Y-119665750D01*
X145923000Y-119665750D01*
X145923000Y-120268310D01*
X146019673Y-120501699D01*
X146198302Y-120680327D01*
X146431691Y-120777000D01*
X147034250Y-120777000D01*
X147193000Y-120618250D01*
X147193000Y-119507000D01*
X147447000Y-119507000D01*
X147447000Y-120618250D01*
X147605750Y-120777000D01*
X148208309Y-120777000D01*
X148441698Y-120680327D01*
X148620327Y-120501699D01*
X148717000Y-120268310D01*
X148717000Y-119665750D01*
X148558250Y-119507000D01*
X147447000Y-119507000D01*
X147193000Y-119507000D01*
X146081750Y-119507000D01*
X145923000Y-119665750D01*
X142568396Y-119665750D01*
X142445874Y-119615000D01*
X142034126Y-119615000D01*
X141653720Y-119772569D01*
X141362569Y-120063720D01*
X141212569Y-120425852D01*
X140998422Y-120640000D01*
X140879822Y-120640000D01*
X140958157Y-120522765D01*
X141007440Y-120275000D01*
X141007440Y-119275000D01*
X140958157Y-119027235D01*
X140817809Y-118817191D01*
X140607765Y-118676843D01*
X140360000Y-118627560D01*
X138760000Y-118627560D01*
X138512235Y-118676843D01*
X138302191Y-118817191D01*
X138170018Y-119015000D01*
X138109847Y-119015000D01*
X138035000Y-119000112D01*
X137960153Y-119015000D01*
X137960148Y-119015000D01*
X137738463Y-119059096D01*
X137487071Y-119227071D01*
X137444671Y-119290527D01*
X137120198Y-119615000D01*
X136954126Y-119615000D01*
X136573720Y-119772569D01*
X136282569Y-120063720D01*
X136195000Y-120275131D01*
X136195000Y-120060750D01*
X136036250Y-119902000D01*
X134887000Y-119902000D01*
X134887000Y-119922000D01*
X134633000Y-119922000D01*
X134633000Y-119902000D01*
X133483750Y-119902000D01*
X133325000Y-120060750D01*
X133325000Y-120401310D01*
X133421673Y-120634699D01*
X133442900Y-120655926D01*
X133361843Y-120777235D01*
X133312560Y-121025000D01*
X133312560Y-122025000D01*
X133333736Y-122131462D01*
X133310199Y-122155000D01*
X133144126Y-122155000D01*
X132763720Y-122312569D01*
X132472569Y-122603720D01*
X132315000Y-122984126D01*
X132315000Y-123395874D01*
X132440973Y-123700000D01*
X127703711Y-123700000D01*
X127586280Y-123582569D01*
X127205874Y-123425000D01*
X126794126Y-123425000D01*
X126413720Y-123582569D01*
X126122569Y-123873720D01*
X125965000Y-124254126D01*
X125965000Y-124665874D01*
X126122569Y-125046280D01*
X126413720Y-125337431D01*
X126794126Y-125495000D01*
X127205874Y-125495000D01*
X127586280Y-125337431D01*
X127703711Y-125220000D01*
X133916289Y-125220000D01*
X134033720Y-125337431D01*
X134414126Y-125495000D01*
X134825874Y-125495000D01*
X135206280Y-125337431D01*
X135497431Y-125046280D01*
X135655000Y-124665874D01*
X135655000Y-124254126D01*
X135529027Y-123950000D01*
X147442151Y-123950000D01*
X147516998Y-123964888D01*
X147591845Y-123950000D01*
X147591850Y-123950000D01*
X147813535Y-123905904D01*
X148064927Y-123737929D01*
X148107329Y-123674470D01*
X152375000Y-119406800D01*
X152375000Y-119489250D01*
X152533750Y-119648000D01*
X153683000Y-119648000D01*
X153683000Y-119628000D01*
X153937000Y-119628000D01*
X153937000Y-119648000D01*
X153957000Y-119648000D01*
X153957000Y-119902000D01*
X153937000Y-119902000D01*
X153937000Y-119922000D01*
X153683000Y-119922000D01*
X153683000Y-119902000D01*
X152533750Y-119902000D01*
X152375000Y-120060750D01*
X152375000Y-120401310D01*
X152471673Y-120634699D01*
X152492900Y-120655926D01*
X152411843Y-120777235D01*
X152362560Y-121025000D01*
X152362560Y-122025000D01*
X152411843Y-122272765D01*
X152552191Y-122482809D01*
X152762235Y-122623157D01*
X153010000Y-122672440D01*
X153161518Y-122672440D01*
X153262071Y-122822929D01*
X153325530Y-122865331D01*
X155404671Y-124944473D01*
X155447071Y-125007929D01*
X155698463Y-125175904D01*
X155920148Y-125220000D01*
X155920152Y-125220000D01*
X155995000Y-125234888D01*
X156069848Y-125220000D01*
X158046289Y-125220000D01*
X158163720Y-125337431D01*
X158544126Y-125495000D01*
X158955874Y-125495000D01*
X159336280Y-125337431D01*
X159627431Y-125046280D01*
X159785000Y-124665874D01*
X159785000Y-124254126D01*
X159627431Y-123873720D01*
X159336280Y-123582569D01*
X158955874Y-123425000D01*
X158544126Y-123425000D01*
X158163720Y-123582569D01*
X158046289Y-123700000D01*
X156309802Y-123700000D01*
X155077743Y-122467942D01*
X155208157Y-122272765D01*
X155257440Y-122025000D01*
X155257440Y-121452362D01*
X155419474Y-121290328D01*
X155482930Y-121247928D01*
X155650905Y-120996536D01*
X155695001Y-120774851D01*
X155695001Y-120774847D01*
X155709889Y-120699999D01*
X155695001Y-120625151D01*
X155695001Y-119561777D01*
X156392696Y-120259472D01*
X156435097Y-120322929D01*
X156686489Y-120490904D01*
X156908174Y-120535000D01*
X156908178Y-120535000D01*
X156983026Y-120549888D01*
X157057874Y-120535000D01*
X157220018Y-120535000D01*
X157296859Y-120650000D01*
X157211843Y-120777235D01*
X157162560Y-121025000D01*
X157162560Y-122025000D01*
X157211843Y-122272765D01*
X157352191Y-122482809D01*
X157562235Y-122623157D01*
X157810000Y-122672440D01*
X159410000Y-122672440D01*
X159657765Y-122623157D01*
X159867809Y-122482809D01*
X160008157Y-122272765D01*
X160057440Y-122025000D01*
X160057440Y-121629138D01*
X164394156Y-117292423D01*
X164468049Y-117243049D01*
X164539219Y-117136537D01*
X164663652Y-116950310D01*
X164676180Y-116887327D01*
X164715000Y-116692165D01*
X164715000Y-116692161D01*
X164732337Y-116605000D01*
X164715000Y-116517839D01*
X164715000Y-116423007D01*
X164865000Y-116060874D01*
X164865000Y-115649126D01*
X164738199Y-115343000D01*
X166517560Y-117122362D01*
X166517560Y-117995000D01*
X166553739Y-118176886D01*
X166483691Y-118223691D01*
X166343343Y-118433735D01*
X166294060Y-118681500D01*
X166294060Y-120078500D01*
X166343343Y-120326265D01*
X166483691Y-120536309D01*
X166693735Y-120676657D01*
X166941500Y-120725940D01*
X168338500Y-120725940D01*
X168586265Y-120676657D01*
X168796309Y-120536309D01*
X168936657Y-120326265D01*
X168985940Y-120078500D01*
X168985940Y-118681500D01*
X168936657Y-118433735D01*
X168796309Y-118223691D01*
X168726261Y-118176886D01*
X168762440Y-117995000D01*
X168762440Y-116695000D01*
X168713157Y-116447235D01*
X168572809Y-116237191D01*
X168362765Y-116096843D01*
X168115000Y-116047560D01*
X167592362Y-116047560D01*
X164090331Y-112545530D01*
X164073272Y-112520000D01*
X166514146Y-112520000D01*
X166696835Y-112702689D01*
X166566843Y-112897235D01*
X166517560Y-113145000D01*
X166517560Y-114445000D01*
X166566843Y-114692765D01*
X166707191Y-114902809D01*
X166917235Y-115043157D01*
X167165000Y-115092440D01*
X168115000Y-115092440D01*
X168362765Y-115043157D01*
X168572809Y-114902809D01*
X168713157Y-114692765D01*
X168762440Y-114445000D01*
X168762440Y-113145000D01*
X168713157Y-112897235D01*
X168583165Y-112702689D01*
X168770487Y-112515367D01*
X168973500Y-112025250D01*
X168973500Y-111501301D01*
X171764802Y-108710000D01*
X172081976Y-108710000D01*
X171864093Y-108769177D01*
X171270715Y-109227710D01*
X170897977Y-109878414D01*
X170826695Y-110434471D01*
X170856644Y-110868752D01*
X169922992Y-111909325D01*
X169637199Y-112391614D01*
X169530889Y-113133939D01*
X169716748Y-113860442D01*
X169853991Y-114043565D01*
X169310493Y-114268690D01*
X168878690Y-114700493D01*
X168645000Y-115264670D01*
X168645000Y-115875330D01*
X168878690Y-116439507D01*
X169310493Y-116871310D01*
X169874670Y-117105000D01*
X170485330Y-117105000D01*
X171049507Y-116871310D01*
X171481310Y-116439507D01*
X171715000Y-115875330D01*
X171715000Y-115264670D01*
X171581386Y-114942098D01*
X172280443Y-114763261D01*
X172729045Y-114427053D01*
X173024165Y-114098137D01*
X172631100Y-115047079D01*
X172631100Y-116092921D01*
X173031326Y-117059152D01*
X173132946Y-117160772D01*
X172925874Y-117075000D01*
X172514126Y-117075000D01*
X172133720Y-117232569D01*
X171842569Y-117523720D01*
X171685000Y-117904126D01*
X171685000Y-118315874D01*
X171836016Y-118680459D01*
X171700302Y-118736673D01*
X171521673Y-118915301D01*
X171425000Y-119148690D01*
X171425000Y-119489250D01*
X171583750Y-119648000D01*
X172733000Y-119648000D01*
X172733000Y-119628000D01*
X172987000Y-119628000D01*
X172987000Y-119648000D01*
X173007000Y-119648000D01*
X173007000Y-119902000D01*
X172987000Y-119902000D01*
X172987000Y-119922000D01*
X172733000Y-119922000D01*
X172733000Y-119902000D01*
X171583750Y-119902000D01*
X171425000Y-120060750D01*
X171425000Y-120401310D01*
X171521673Y-120634699D01*
X171542900Y-120655926D01*
X171461843Y-120777235D01*
X171412560Y-121025000D01*
X171412560Y-122025000D01*
X171461843Y-122272765D01*
X171602191Y-122482809D01*
X171812235Y-122623157D01*
X172060000Y-122672440D01*
X172728444Y-122672440D01*
X171700884Y-123700000D01*
X169613711Y-123700000D01*
X169496280Y-123582569D01*
X169115874Y-123425000D01*
X168704126Y-123425000D01*
X168323720Y-123582569D01*
X168032569Y-123873720D01*
X167875000Y-124254126D01*
X167875000Y-124665874D01*
X168032569Y-125046280D01*
X168323720Y-125337431D01*
X168704126Y-125495000D01*
X169115874Y-125495000D01*
X169496280Y-125337431D01*
X169613711Y-125220000D01*
X171940838Y-125220000D01*
X172015685Y-125234888D01*
X172090532Y-125220000D01*
X172090537Y-125220000D01*
X172312222Y-125175904D01*
X172563614Y-125007929D01*
X172606016Y-124944470D01*
X173714076Y-123836410D01*
X184825000Y-123836410D01*
X184825000Y-125083590D01*
X185302276Y-126235835D01*
X186184165Y-127117724D01*
X187336410Y-127595000D01*
X188583590Y-127595000D01*
X189735835Y-127117724D01*
X190617724Y-126235835D01*
X191095000Y-125083590D01*
X191095000Y-123836410D01*
X190617724Y-122684165D01*
X189735835Y-121802276D01*
X188583590Y-121325000D01*
X187336410Y-121325000D01*
X186184165Y-121802276D01*
X185302276Y-122684165D01*
X184825000Y-123836410D01*
X173714076Y-123836410D01*
X175744473Y-121806014D01*
X175807929Y-121763614D01*
X175975904Y-121512222D01*
X176004314Y-121369397D01*
X176137431Y-121236280D01*
X176212560Y-121054902D01*
X176212560Y-122025000D01*
X176261843Y-122272765D01*
X176402191Y-122482809D01*
X176612235Y-122623157D01*
X176860000Y-122672440D01*
X178460000Y-122672440D01*
X178707765Y-122623157D01*
X178917809Y-122482809D01*
X178955476Y-122426437D01*
X178960000Y-122427337D01*
X179047161Y-122410000D01*
X179047165Y-122410000D01*
X179305310Y-122358652D01*
X179598049Y-122163049D01*
X179647425Y-122089153D01*
X180904156Y-120832423D01*
X180978049Y-120783049D01*
X181049139Y-120676657D01*
X181173652Y-120490310D01*
X181225000Y-120232165D01*
X181225000Y-120232161D01*
X181242337Y-120145000D01*
X181225000Y-120057839D01*
X181225000Y-118678007D01*
X181375000Y-118315874D01*
X181375000Y-117904126D01*
X181217431Y-117523720D01*
X180926280Y-117232569D01*
X180618301Y-117105000D01*
X180645330Y-117105000D01*
X181209507Y-116871310D01*
X181641310Y-116439507D01*
X181731052Y-116222851D01*
X181866361Y-116358161D01*
X181806843Y-116447235D01*
X181757560Y-116695000D01*
X181757560Y-117995000D01*
X181793739Y-118176886D01*
X181723691Y-118223691D01*
X181583343Y-118433735D01*
X181534060Y-118681500D01*
X181534060Y-120078500D01*
X181583343Y-120326265D01*
X181723691Y-120536309D01*
X181933735Y-120676657D01*
X182181500Y-120725940D01*
X183578500Y-120725940D01*
X183826265Y-120676657D01*
X184036309Y-120536309D01*
X184176657Y-120326265D01*
X184225940Y-120078500D01*
X184225940Y-118681500D01*
X184176657Y-118433735D01*
X184036309Y-118223691D01*
X183966261Y-118176886D01*
X184002440Y-117995000D01*
X184002440Y-116695000D01*
X183953157Y-116447235D01*
X183812809Y-116237191D01*
X183616963Y-116106330D01*
X183595904Y-116000461D01*
X183595904Y-116000460D01*
X183470329Y-115812525D01*
X183427929Y-115749069D01*
X183364473Y-115706669D01*
X182750244Y-115092440D01*
X183355000Y-115092440D01*
X183602765Y-115043157D01*
X183812809Y-114902809D01*
X183953157Y-114692765D01*
X184002440Y-114445000D01*
X184002440Y-113145000D01*
X183953157Y-112897235D01*
X183823165Y-112702689D01*
X184010487Y-112515367D01*
X184213500Y-112025250D01*
X184213500Y-111494750D01*
X184010487Y-111004633D01*
X183635367Y-110629513D01*
X183145250Y-110426500D01*
X182621302Y-110426500D01*
X180628283Y-108433482D01*
X180628281Y-108433479D01*
X179660331Y-107465530D01*
X179617929Y-107402071D01*
X179366537Y-107234096D01*
X179144852Y-107190000D01*
X179144847Y-107190000D01*
X179070000Y-107175112D01*
X178995153Y-107190000D01*
X176169027Y-107190000D01*
X176295000Y-106885874D01*
X176295000Y-106474126D01*
X176182954Y-106203624D01*
X178224156Y-104162423D01*
X178298049Y-104113049D01*
X178366340Y-104010846D01*
X178493652Y-103820310D01*
X178536018Y-103607319D01*
X178707765Y-103573157D01*
X178917809Y-103432809D01*
X179058157Y-103222765D01*
X179107440Y-102975000D01*
X179107440Y-102579138D01*
X180904156Y-100782423D01*
X180978049Y-100733049D01*
X181049219Y-100626537D01*
X181153815Y-100469998D01*
X181173652Y-100440310D01*
X181225000Y-100182165D01*
X181225000Y-100182161D01*
X181242337Y-100095001D01*
X181225000Y-100007841D01*
X181225000Y-99913007D01*
X181375000Y-99550874D01*
X181375000Y-99139126D01*
X181217431Y-98758720D01*
X180926280Y-98467569D01*
X180545874Y-98310000D01*
X180134126Y-98310000D01*
X179753720Y-98467569D01*
X179462569Y-98758720D01*
X179305000Y-99139126D01*
X179305000Y-99550874D01*
X179400936Y-99782485D01*
X179082716Y-100100705D01*
X179058157Y-99977235D01*
X178917809Y-99767191D01*
X178707765Y-99626843D01*
X178460000Y-99577560D01*
X176860000Y-99577560D01*
X176612235Y-99626843D01*
X176402191Y-99767191D01*
X176270018Y-99965000D01*
X176209847Y-99965000D01*
X176135000Y-99950112D01*
X176060153Y-99965000D01*
X176060148Y-99965000D01*
X175838463Y-100009096D01*
X175587071Y-100177071D01*
X175544671Y-100240527D01*
X175220198Y-100565000D01*
X175054126Y-100565000D01*
X174673720Y-100722569D01*
X174382569Y-101013720D01*
X174295000Y-101225131D01*
X174295000Y-101010750D01*
X174136250Y-100852000D01*
X172987000Y-100852000D01*
X172987000Y-100872000D01*
X172733000Y-100872000D01*
X172733000Y-100852000D01*
X171583750Y-100852000D01*
X171425000Y-101010750D01*
X171425000Y-101351310D01*
X171521673Y-101584699D01*
X171542900Y-101605926D01*
X171461843Y-101727235D01*
X171446622Y-101803758D01*
X171262071Y-101927071D01*
X171219671Y-101990528D01*
X170930529Y-102279669D01*
X170867071Y-102322071D01*
X170699096Y-102573464D01*
X170655000Y-102795149D01*
X170655000Y-102795153D01*
X170640112Y-102870000D01*
X170655000Y-102944847D01*
X170655000Y-103540199D01*
X169423501Y-102308700D01*
X169423501Y-100098690D01*
X171425000Y-100098690D01*
X171425000Y-100439250D01*
X171583750Y-100598000D01*
X172733000Y-100598000D01*
X172733000Y-99748750D01*
X172987000Y-99748750D01*
X172987000Y-100598000D01*
X174136250Y-100598000D01*
X174295000Y-100439250D01*
X174295000Y-100098690D01*
X174198327Y-99865301D01*
X174019698Y-99686673D01*
X173786309Y-99590000D01*
X173145750Y-99590000D01*
X172987000Y-99748750D01*
X172733000Y-99748750D01*
X172574250Y-99590000D01*
X171933691Y-99590000D01*
X171700302Y-99686673D01*
X171521673Y-99865301D01*
X171425000Y-100098690D01*
X169423501Y-100098690D01*
X169423501Y-97868119D01*
X169874670Y-98055000D01*
X170485330Y-98055000D01*
X171049507Y-97821310D01*
X171481310Y-97389507D01*
X171715000Y-96825330D01*
X171715000Y-96214670D01*
X171581386Y-95892098D01*
X172280443Y-95713261D01*
X172729045Y-95377053D01*
X173024165Y-95048137D01*
X172631100Y-95997079D01*
X172631100Y-97042921D01*
X173031326Y-98009152D01*
X173770848Y-98748674D01*
X174737079Y-99148900D01*
X175782921Y-99148900D01*
X176749152Y-98748674D01*
X177488674Y-98009152D01*
X177888900Y-97042921D01*
X177888900Y-95997079D01*
X177495836Y-95048138D01*
X177790954Y-95377053D01*
X178239556Y-95713261D01*
X178938614Y-95892099D01*
X178805000Y-96214670D01*
X178805000Y-96825330D01*
X179038690Y-97389507D01*
X179470493Y-97821310D01*
X180034670Y-98055000D01*
X180645330Y-98055000D01*
X181209507Y-97821310D01*
X181641310Y-97389507D01*
X181853188Y-96877989D01*
X182076192Y-97100994D01*
X181947191Y-97187191D01*
X181806843Y-97397235D01*
X181757560Y-97645000D01*
X181757560Y-98945000D01*
X181793739Y-99126886D01*
X181723691Y-99173691D01*
X181583343Y-99383735D01*
X181534060Y-99631500D01*
X181534060Y-101028500D01*
X181583343Y-101276265D01*
X181723691Y-101486309D01*
X181933735Y-101626657D01*
X182181500Y-101675940D01*
X183578500Y-101675940D01*
X183826265Y-101626657D01*
X184036309Y-101486309D01*
X184176657Y-101276265D01*
X184225940Y-101028500D01*
X184225940Y-99631500D01*
X184176657Y-99383735D01*
X184036309Y-99173691D01*
X183966261Y-99126886D01*
X184002440Y-98945000D01*
X184002440Y-97645000D01*
X183953157Y-97397235D01*
X183812809Y-97187191D01*
X183640000Y-97071723D01*
X183640000Y-96904848D01*
X183654888Y-96830000D01*
X183640000Y-96755152D01*
X183640000Y-96755148D01*
X183595904Y-96533463D01*
X183427929Y-96282071D01*
X183364473Y-96239671D01*
X183167242Y-96042440D01*
X183355000Y-96042440D01*
X183602765Y-95993157D01*
X183812809Y-95852809D01*
X183953157Y-95642765D01*
X184002440Y-95395000D01*
X184002440Y-94095000D01*
X183953157Y-93847235D01*
X183823165Y-93652689D01*
X184010487Y-93465367D01*
X184213500Y-92975250D01*
X184213500Y-92444750D01*
X184010487Y-91954633D01*
X183635367Y-91579513D01*
X183145250Y-91376500D01*
X182621302Y-91376500D01*
X179660331Y-88415530D01*
X179617929Y-88352071D01*
X179366537Y-88184096D01*
X179144852Y-88140000D01*
X179144847Y-88140000D01*
X179070000Y-88125112D01*
X178995153Y-88140000D01*
X175924542Y-88140000D01*
X176178839Y-87759418D01*
X176265000Y-87326256D01*
X176265000Y-87141380D01*
X176530000Y-87194092D01*
X177109417Y-87078839D01*
X177600625Y-86750625D01*
X177928839Y-86259418D01*
X178015000Y-85826256D01*
X178015000Y-84733745D01*
X177928839Y-84300582D01*
X177600625Y-83809375D01*
X177109418Y-83481161D01*
X176530000Y-83365908D01*
X175950583Y-83481161D01*
X175665000Y-83671981D01*
X175665000Y-83234343D01*
X175476982Y-82780429D01*
X175129571Y-82433018D01*
X174675657Y-82245000D01*
X174184343Y-82245000D01*
X173730429Y-82433018D01*
X173555000Y-82608447D01*
X173379571Y-82433018D01*
X172925657Y-82245000D01*
X172434343Y-82245000D01*
X171980429Y-82433018D01*
X171633018Y-82780429D01*
X171445000Y-83234343D01*
X171445000Y-83671981D01*
X171159418Y-83481161D01*
X170580000Y-83365908D01*
X170027404Y-83475826D01*
X169807425Y-83255847D01*
X169758049Y-83181951D01*
X169465310Y-82986348D01*
X169207165Y-82935000D01*
X169207161Y-82935000D01*
X169120000Y-82917663D01*
X169032839Y-82935000D01*
X165082301Y-82935000D01*
X164697301Y-82550000D01*
X165111218Y-82136083D01*
X165341300Y-81580616D01*
X165341300Y-81407000D01*
X169095000Y-81407000D01*
X169095000Y-81807000D01*
X169256640Y-82365618D01*
X169619749Y-82819856D01*
X170129048Y-83100562D01*
X170223110Y-83121476D01*
X170453000Y-83000155D01*
X170453000Y-81407000D01*
X170707000Y-81407000D01*
X170707000Y-83000155D01*
X170936890Y-83121476D01*
X171030952Y-83100562D01*
X171540251Y-82819856D01*
X171903360Y-82365618D01*
X172065000Y-81807000D01*
X172065000Y-81407000D01*
X175045000Y-81407000D01*
X175045000Y-81807000D01*
X175206640Y-82365618D01*
X175569749Y-82819856D01*
X176079048Y-83100562D01*
X176173110Y-83121476D01*
X176403000Y-83000155D01*
X176403000Y-81407000D01*
X176657000Y-81407000D01*
X176657000Y-83000155D01*
X176886890Y-83121476D01*
X176980952Y-83100562D01*
X177490251Y-82819856D01*
X177853360Y-82365618D01*
X178015000Y-81807000D01*
X178015000Y-81407000D01*
X176657000Y-81407000D01*
X176403000Y-81407000D01*
X175045000Y-81407000D01*
X172065000Y-81407000D01*
X170707000Y-81407000D01*
X170453000Y-81407000D01*
X169095000Y-81407000D01*
X165341300Y-81407000D01*
X165341300Y-80979384D01*
X165111218Y-80423917D01*
X164686083Y-79998782D01*
X164653480Y-79985278D01*
X164713396Y-79803001D01*
X163830000Y-78919605D01*
X162946604Y-79803001D01*
X163006520Y-79985278D01*
X162973917Y-79998782D01*
X162548782Y-80423917D01*
X162318700Y-80979384D01*
X162318700Y-81580616D01*
X162358499Y-81676700D01*
X162245199Y-81790000D01*
X153103711Y-81790000D01*
X152986280Y-81672569D01*
X152605874Y-81515000D01*
X152194126Y-81515000D01*
X151813720Y-81672569D01*
X151522569Y-81963720D01*
X151365000Y-82344126D01*
X151365000Y-82755874D01*
X151522569Y-83136280D01*
X151813720Y-83427431D01*
X152194126Y-83585000D01*
X152605874Y-83585000D01*
X152986280Y-83427431D01*
X153103711Y-83310000D01*
X162405430Y-83310000D01*
X162318700Y-83519384D01*
X162318700Y-84120616D01*
X162548782Y-84676083D01*
X162962699Y-85090000D01*
X162548782Y-85503917D01*
X162318700Y-86059384D01*
X162318700Y-86660616D01*
X162548782Y-87216083D01*
X162962699Y-87630000D01*
X162548782Y-88043917D01*
X162318700Y-88599384D01*
X162318700Y-88853899D01*
X161324999Y-87860198D01*
X161324999Y-87608710D01*
X161442430Y-87491279D01*
X161599999Y-87110873D01*
X161599999Y-86699125D01*
X161442430Y-86318719D01*
X161151279Y-86027568D01*
X160770873Y-85869999D01*
X160359125Y-85869999D01*
X159978719Y-86027568D01*
X159687568Y-86318719D01*
X159529999Y-86699125D01*
X159529999Y-86946288D01*
X159336280Y-86752569D01*
X158955874Y-86595000D01*
X158544126Y-86595000D01*
X158163720Y-86752569D01*
X157872569Y-87043720D01*
X157715000Y-87424126D01*
X157715000Y-87835874D01*
X157872569Y-88216280D01*
X158005687Y-88349398D01*
X158034096Y-88492221D01*
X158202071Y-88743614D01*
X158265530Y-88786016D01*
X159046851Y-89567337D01*
X158882225Y-89522625D01*
X158407673Y-89583459D01*
X153361044Y-84536831D01*
X153318642Y-84473372D01*
X153067250Y-84305397D01*
X152845565Y-84261301D01*
X152845560Y-84261301D01*
X152770713Y-84246413D01*
X152695866Y-84261301D01*
X150037704Y-84261301D01*
X150112882Y-84055003D01*
X150086891Y-83454332D01*
X149907027Y-83020104D01*
X149653001Y-82936604D01*
X148769605Y-83820000D01*
X148783748Y-83834143D01*
X148604143Y-84013748D01*
X148590000Y-83999605D01*
X148575858Y-84013748D01*
X148396253Y-83834143D01*
X148410395Y-83820000D01*
X147526999Y-82936604D01*
X147272973Y-83020104D01*
X147067118Y-83584997D01*
X147093109Y-84185668D01*
X147124437Y-84261301D01*
X146227704Y-84261301D01*
X146302882Y-84055003D01*
X146276891Y-83454332D01*
X146097027Y-83020104D01*
X145843001Y-82936604D01*
X144959605Y-83820000D01*
X144973748Y-83834143D01*
X144794143Y-84013748D01*
X144780000Y-83999605D01*
X144765858Y-84013748D01*
X144586253Y-83834143D01*
X144600395Y-83820000D01*
X143716999Y-82936604D01*
X143462973Y-83020104D01*
X143257118Y-83584997D01*
X143283109Y-84185668D01*
X143314437Y-84261301D01*
X132731473Y-84261301D01*
X132656625Y-84246413D01*
X132581777Y-84261301D01*
X132581773Y-84261301D01*
X132360088Y-84305397D01*
X132108696Y-84473372D01*
X132066296Y-84536828D01*
X130902639Y-85700485D01*
X130821218Y-85503917D01*
X130407301Y-85090000D01*
X130821218Y-84676083D01*
X131051300Y-84120616D01*
X131051300Y-83519384D01*
X130821218Y-82963917D01*
X130407301Y-82550000D01*
X130614300Y-82343001D01*
X143896604Y-82343001D01*
X143964646Y-82550000D01*
X143896604Y-82756999D01*
X144780000Y-83640395D01*
X145663396Y-82756999D01*
X145595354Y-82550000D01*
X145663396Y-82343001D01*
X147706604Y-82343001D01*
X147774646Y-82550000D01*
X147706604Y-82756999D01*
X148590000Y-83640395D01*
X149473396Y-82756999D01*
X149405354Y-82550000D01*
X149473396Y-82343001D01*
X148590000Y-81459605D01*
X147706604Y-82343001D01*
X145663396Y-82343001D01*
X144780000Y-81459605D01*
X143896604Y-82343001D01*
X130614300Y-82343001D01*
X130821218Y-82136083D01*
X131051300Y-81580616D01*
X131051300Y-81044997D01*
X143257118Y-81044997D01*
X143283109Y-81645668D01*
X143462973Y-82079896D01*
X143716999Y-82163396D01*
X144600395Y-81280000D01*
X144959605Y-81280000D01*
X145843001Y-82163396D01*
X146097027Y-82079896D01*
X146302882Y-81515003D01*
X146282545Y-81044997D01*
X147067118Y-81044997D01*
X147093109Y-81645668D01*
X147272973Y-82079896D01*
X147526999Y-82163396D01*
X148410395Y-81280000D01*
X148769605Y-81280000D01*
X149653001Y-82163396D01*
X149907027Y-82079896D01*
X150112882Y-81515003D01*
X150086891Y-80914332D01*
X149907027Y-80480104D01*
X149653001Y-80396604D01*
X148769605Y-81280000D01*
X148410395Y-81280000D01*
X147526999Y-80396604D01*
X147272973Y-80480104D01*
X147067118Y-81044997D01*
X146282545Y-81044997D01*
X146276891Y-80914332D01*
X146097027Y-80480104D01*
X145843001Y-80396604D01*
X144959605Y-81280000D01*
X144600395Y-81280000D01*
X143716999Y-80396604D01*
X143462973Y-80480104D01*
X143257118Y-81044997D01*
X131051300Y-81044997D01*
X131051300Y-80979384D01*
X130821218Y-80423917D01*
X130396083Y-79998782D01*
X130363480Y-79985278D01*
X130423396Y-79803001D01*
X129540000Y-78919605D01*
X129525858Y-78933748D01*
X129346253Y-78754143D01*
X129360395Y-78740000D01*
X129719605Y-78740000D01*
X130603001Y-79623396D01*
X130857027Y-79539896D01*
X131062882Y-78975003D01*
X131036891Y-78374332D01*
X130857027Y-77940104D01*
X130603001Y-77856604D01*
X129719605Y-78740000D01*
X129360395Y-78740000D01*
X128476999Y-77856604D01*
X128222973Y-77940104D01*
X128017118Y-78504997D01*
X128043109Y-79105668D01*
X128102894Y-79250000D01*
X125779610Y-79250000D01*
X125740116Y-79154654D01*
X125315346Y-78729884D01*
X124760358Y-78500000D01*
X124159642Y-78500000D01*
X123604654Y-78729884D01*
X123179884Y-79154654D01*
X122950000Y-79709642D01*
X122950000Y-80310358D01*
X123179884Y-80865346D01*
X123604654Y-81290116D01*
X124087099Y-81489951D01*
X124031526Y-81545524D01*
X123775000Y-82164833D01*
X123775000Y-82835167D01*
X124031526Y-83454476D01*
X124505524Y-83928474D01*
X125124833Y-84185000D01*
X125795167Y-84185000D01*
X126414476Y-83928474D01*
X126888474Y-83454476D01*
X127145000Y-82835167D01*
X127145000Y-82164833D01*
X126888474Y-81545524D01*
X126414476Y-81071526D01*
X125795167Y-80815000D01*
X125760970Y-80815000D01*
X125779610Y-80770000D01*
X127955199Y-80770000D01*
X128068499Y-80883300D01*
X128028700Y-80979384D01*
X128028700Y-81580616D01*
X128258782Y-82136083D01*
X128672699Y-82550000D01*
X128258782Y-82963917D01*
X128028700Y-83519384D01*
X128028700Y-84120616D01*
X128258782Y-84676083D01*
X128672699Y-85090000D01*
X128258782Y-85503917D01*
X128218983Y-85600000D01*
X119651846Y-85600000D01*
X119576998Y-85585112D01*
X119502150Y-85600000D01*
X119502146Y-85600000D01*
X119328603Y-85634520D01*
X119280460Y-85644096D01*
X119127499Y-85746302D01*
X119029069Y-85812071D01*
X118986669Y-85875527D01*
X116180256Y-88681941D01*
X116116800Y-88724341D01*
X116074400Y-88787797D01*
X116074399Y-88787798D01*
X115948825Y-88975733D01*
X115889840Y-89272270D01*
X115904729Y-89347121D01*
X115904729Y-89582485D01*
X115437775Y-89522625D01*
X114714093Y-89719177D01*
X114120715Y-90177710D01*
X113747977Y-90828414D01*
X113676695Y-91384471D01*
X113706644Y-91818752D01*
X112772992Y-92859325D01*
X112487199Y-93341614D01*
X112380889Y-94083939D01*
X112566748Y-94810442D01*
X112703991Y-94993565D01*
X112160493Y-95218690D01*
X111728690Y-95650493D01*
X111495000Y-96214670D01*
X111495000Y-96825330D01*
X111728690Y-97389507D01*
X112160493Y-97821310D01*
X112377149Y-97911052D01*
X111820527Y-98467674D01*
X111757071Y-98510074D01*
X111714671Y-98573530D01*
X111714670Y-98573531D01*
X111612440Y-98726529D01*
X111612440Y-97645000D01*
X111563157Y-97397235D01*
X111422809Y-97187191D01*
X111212765Y-97046843D01*
X110965000Y-96997560D01*
X110015000Y-96997560D01*
X109767235Y-97046843D01*
X109557191Y-97187191D01*
X109416843Y-97397235D01*
X109367560Y-97645000D01*
X109367560Y-98945000D01*
X109403739Y-99126886D01*
X109333691Y-99173691D01*
X109193343Y-99383735D01*
X109144060Y-99631500D01*
X107390000Y-99631500D01*
X107390000Y-92444750D01*
X109156500Y-92444750D01*
X109156500Y-92975250D01*
X109359513Y-93465367D01*
X109546835Y-93652689D01*
X109416843Y-93847235D01*
X109367560Y-94095000D01*
X109367560Y-95395000D01*
X109416843Y-95642765D01*
X109557191Y-95852809D01*
X109767235Y-95993157D01*
X110015000Y-96042440D01*
X110965000Y-96042440D01*
X111212765Y-95993157D01*
X111422809Y-95852809D01*
X111563157Y-95642765D01*
X111612440Y-95395000D01*
X111612440Y-94095000D01*
X111563157Y-93847235D01*
X111433165Y-93652689D01*
X111620487Y-93465367D01*
X111823500Y-92975250D01*
X111823500Y-92444750D01*
X111620487Y-91954633D01*
X111245367Y-91579513D01*
X110755250Y-91376500D01*
X110224750Y-91376500D01*
X109734633Y-91579513D01*
X109359513Y-91954633D01*
X109156500Y-92444750D01*
X107390000Y-92444750D01*
X107390000Y-79386410D01*
X108625000Y-79386410D01*
X108625000Y-80633590D01*
X109102276Y-81785835D01*
X109984165Y-82667724D01*
X111136410Y-83145000D01*
X112383590Y-83145000D01*
X113535835Y-82667724D01*
X114038726Y-82164833D01*
X116765000Y-82164833D01*
X116765000Y-82835167D01*
X117021526Y-83454476D01*
X117495524Y-83928474D01*
X118114833Y-84185000D01*
X118785167Y-84185000D01*
X119404476Y-83928474D01*
X119878474Y-83454476D01*
X120135000Y-82835167D01*
X120135000Y-82164833D01*
X119878474Y-81545524D01*
X119834701Y-81501751D01*
X120259116Y-81325953D01*
X120342455Y-81072060D01*
X119460000Y-80189605D01*
X119445858Y-80203748D01*
X119266253Y-80024143D01*
X119280395Y-80010000D01*
X119639605Y-80010000D01*
X120522060Y-80892455D01*
X120775953Y-80809116D01*
X120981590Y-80244694D01*
X120955579Y-79644542D01*
X120775953Y-79210884D01*
X120522060Y-79127545D01*
X119639605Y-80010000D01*
X119280395Y-80010000D01*
X118397940Y-79127545D01*
X118144047Y-79210884D01*
X117938410Y-79775306D01*
X117964421Y-80375458D01*
X118144047Y-80809116D01*
X118161973Y-80815000D01*
X118114833Y-80815000D01*
X117495524Y-81071526D01*
X117021526Y-81545524D01*
X116765000Y-82164833D01*
X114038726Y-82164833D01*
X114417724Y-81785835D01*
X114895000Y-80633590D01*
X114895000Y-79386410D01*
X114713380Y-78947940D01*
X118577545Y-78947940D01*
X119460000Y-79830395D01*
X120342455Y-78947940D01*
X120259116Y-78694047D01*
X119875664Y-78554343D01*
X120725000Y-78554343D01*
X120725000Y-79045657D01*
X120913018Y-79499571D01*
X121260429Y-79846982D01*
X121714343Y-80035000D01*
X122205657Y-80035000D01*
X122659571Y-79846982D01*
X123006982Y-79499571D01*
X123195000Y-79045657D01*
X123195000Y-78554343D01*
X123006982Y-78100429D01*
X122659571Y-77753018D01*
X122205657Y-77565000D01*
X121714343Y-77565000D01*
X121260429Y-77753018D01*
X120913018Y-78100429D01*
X120725000Y-78554343D01*
X119875664Y-78554343D01*
X119694694Y-78488410D01*
X119094542Y-78514421D01*
X118660884Y-78694047D01*
X118577545Y-78947940D01*
X114713380Y-78947940D01*
X114417724Y-78234165D01*
X113535835Y-77352276D01*
X112383590Y-76875000D01*
X111136410Y-76875000D01*
X109984165Y-77352276D01*
X109102276Y-78234165D01*
X108625000Y-79386410D01*
X107390000Y-79386410D01*
X107390000Y-78775964D01*
X107456895Y-78117396D01*
X107644039Y-77520218D01*
X107947436Y-76972876D01*
X108354701Y-76497711D01*
X108849188Y-76114148D01*
X109410700Y-75837850D01*
X110024774Y-75677896D01*
X110517270Y-75640000D01*
X128136140Y-75640000D01*
X128028700Y-75899384D01*
X128028700Y-75899384D01*
G37*
X128028700Y-75899384D02*
X128028700Y-76500616D01*
X128258782Y-77056083D01*
X128683917Y-77481218D01*
X128716520Y-77494722D01*
X128656604Y-77676999D01*
X129540000Y-78560395D01*
X130423396Y-77676999D01*
X130363480Y-77494722D01*
X130396083Y-77481218D01*
X130821218Y-77056083D01*
X131051300Y-76500616D01*
X131051300Y-75899384D01*
X130943860Y-75640000D01*
X143256260Y-75640000D01*
X143256260Y-77076300D01*
X143305543Y-77324065D01*
X143445891Y-77534109D01*
X143655935Y-77674457D01*
X143699564Y-77683135D01*
X143498782Y-77883917D01*
X143268700Y-78439384D01*
X143268700Y-79040616D01*
X143498782Y-79596083D01*
X143923917Y-80021218D01*
X143956520Y-80034722D01*
X143896604Y-80216999D01*
X144780000Y-81100395D01*
X145663396Y-80216999D01*
X145603480Y-80034722D01*
X145636083Y-80021218D01*
X146061218Y-79596083D01*
X146101017Y-79500000D01*
X147268983Y-79500000D01*
X147308782Y-79596083D01*
X147733917Y-80021218D01*
X147766520Y-80034722D01*
X147706604Y-80216999D01*
X148590000Y-81100395D01*
X149473396Y-80216999D01*
X149413480Y-80034722D01*
X149446083Y-80021218D01*
X149871218Y-79596083D01*
X150101300Y-79040616D01*
X150101300Y-78439384D01*
X149871218Y-77883917D01*
X149670436Y-77683135D01*
X149714065Y-77674457D01*
X149924109Y-77534109D01*
X149944736Y-77503238D01*
X150327272Y-77885774D01*
X150369672Y-77949230D01*
X150621064Y-78117205D01*
X150842749Y-78161301D01*
X150842753Y-78161301D01*
X150917600Y-78176189D01*
X150992447Y-78161301D01*
X162432366Y-78161301D01*
X162307118Y-78504997D01*
X162333109Y-79105668D01*
X162512973Y-79539896D01*
X162766999Y-79623396D01*
X163650395Y-78740000D01*
X163636253Y-78725858D01*
X163815858Y-78546253D01*
X163830000Y-78560395D01*
X163844143Y-78546253D01*
X164023748Y-78725858D01*
X164009605Y-78740000D01*
X164893001Y-79623396D01*
X165147027Y-79539896D01*
X165352882Y-78975003D01*
X165326891Y-78374332D01*
X165239023Y-78162201D01*
X165243546Y-78161301D01*
X165243551Y-78161301D01*
X165465236Y-78117205D01*
X165716628Y-77949230D01*
X165759030Y-77885771D01*
X166409802Y-77235000D01*
X166575874Y-77235000D01*
X166956280Y-77077431D01*
X167247431Y-76786280D01*
X167405000Y-76405874D01*
X167405000Y-75994126D01*
X167258317Y-75640000D01*
X171773447Y-75640000D01*
X171633018Y-75780429D01*
X171445000Y-76234343D01*
X171445000Y-76671981D01*
X171159418Y-76481161D01*
X170580000Y-76365908D01*
X170000583Y-76481161D01*
X169509375Y-76809375D01*
X169181161Y-77300582D01*
X169120358Y-77606262D01*
X168932071Y-77732071D01*
X168764096Y-77983463D01*
X168705111Y-78280000D01*
X168764096Y-78576537D01*
X168932071Y-78827929D01*
X169120358Y-78953739D01*
X169181161Y-79259417D01*
X169509375Y-79750625D01*
X169575859Y-79795048D01*
X169256640Y-80194382D01*
X169095000Y-80753000D01*
X169095000Y-81153000D01*
X170453000Y-81153000D01*
X170453000Y-81133000D01*
X170707000Y-81133000D01*
X170707000Y-81153000D01*
X172065000Y-81153000D01*
X172065000Y-80753000D01*
X171903360Y-80194382D01*
X171584141Y-79795048D01*
X171650625Y-79750625D01*
X171978839Y-79259418D01*
X172022484Y-79040000D01*
X175087516Y-79040000D01*
X175131161Y-79259417D01*
X175459375Y-79750625D01*
X175525859Y-79795048D01*
X175206640Y-80194382D01*
X175045000Y-80753000D01*
X175045000Y-81153000D01*
X176403000Y-81153000D01*
X176403000Y-81133000D01*
X176657000Y-81133000D01*
X176657000Y-81153000D01*
X178015000Y-81153000D01*
X178015000Y-80753000D01*
X177853360Y-80194382D01*
X177534141Y-79795048D01*
X177600625Y-79750625D01*
X177843985Y-79386410D01*
X184825000Y-79386410D01*
X184825000Y-80633590D01*
X185302276Y-81785835D01*
X186184165Y-82667724D01*
X187336410Y-83145000D01*
X188583590Y-83145000D01*
X189735835Y-82667724D01*
X190617724Y-81785835D01*
X191095000Y-80633590D01*
X191095000Y-79386410D01*
X190617724Y-78234165D01*
X189735835Y-77352276D01*
X188583590Y-76875000D01*
X187336410Y-76875000D01*
X186184165Y-77352276D01*
X185302276Y-78234165D01*
X184825000Y-79386410D01*
X177843985Y-79386410D01*
X177928839Y-79259418D01*
X178015000Y-78826256D01*
X178015000Y-77733745D01*
X177928839Y-77300582D01*
X177600625Y-76809375D01*
X177109418Y-76481161D01*
X176530000Y-76365908D01*
X175950583Y-76481161D01*
X175665000Y-76671981D01*
X175665000Y-76234343D01*
X175476982Y-75780429D01*
X175336553Y-75640000D01*
X188434036Y-75640000D01*
X189092604Y-75706895D01*
X189689782Y-75894039D01*
X190237124Y-76197436D01*
X190712289Y-76604701D01*
X191095852Y-77099188D01*
X191372150Y-77660700D01*
X191532104Y-78274774D01*
X191570000Y-78767270D01*
X191570001Y-125064026D01*
X191503105Y-125722604D01*
X191315961Y-126319782D01*
X191012563Y-126867125D01*
X190605299Y-127342289D01*
X190110812Y-127725852D01*
X189549304Y-128002148D01*
X188935227Y-128162104D01*
X188442730Y-128200000D01*
X110525964Y-128200000D01*
X109867396Y-128133105D01*
X109270218Y-127945961D01*
X108722875Y-127642563D01*
X108247711Y-127235299D01*
X107864148Y-126740812D01*
X107587852Y-126179304D01*
X107427896Y-125565227D01*
X107390000Y-125072730D01*
X107390000Y-123836410D01*
X108625000Y-123836410D01*
X108625000Y-125083590D01*
X109102276Y-126235835D01*
X109984165Y-127117724D01*
X111136410Y-127595000D01*
X112383590Y-127595000D01*
X113535835Y-127117724D01*
X114417724Y-126235835D01*
X114895000Y-125083590D01*
X114895000Y-123836410D01*
X114417724Y-122684165D01*
X113535835Y-121802276D01*
X112383590Y-121325000D01*
X111136410Y-121325000D01*
X109984165Y-121802276D01*
X109102276Y-122684165D01*
X108625000Y-123836410D01*
X107390000Y-123836410D01*
X107390000Y-121025000D01*
X114262560Y-121025000D01*
X114262560Y-122025000D01*
X114311843Y-122272765D01*
X114452191Y-122482809D01*
X114662235Y-122623157D01*
X114910000Y-122672440D01*
X115061518Y-122672440D01*
X115162071Y-122822929D01*
X115225530Y-122865331D01*
X117304671Y-124944473D01*
X117347071Y-125007929D01*
X117598463Y-125175904D01*
X117820148Y-125220000D01*
X117820152Y-125220000D01*
X117895000Y-125234888D01*
X117969848Y-125220000D01*
X118676289Y-125220000D01*
X118793720Y-125337431D01*
X119174126Y-125495000D01*
X119585874Y-125495000D01*
X119966280Y-125337431D01*
X120257431Y-125046280D01*
X120415000Y-124665874D01*
X120415000Y-124254126D01*
X120257431Y-123873720D01*
X119966280Y-123582569D01*
X119585874Y-123425000D01*
X119174126Y-123425000D01*
X118793720Y-123582569D01*
X118676289Y-123700000D01*
X118209802Y-123700000D01*
X116977743Y-122467942D01*
X117108157Y-122272765D01*
X117157440Y-122025000D01*
X117157440Y-121025000D01*
X117108157Y-120777235D01*
X117027100Y-120655926D01*
X117048327Y-120634699D01*
X117145000Y-120401310D01*
X117145000Y-120060750D01*
X116986250Y-119902000D01*
X115837000Y-119902000D01*
X115837000Y-119922000D01*
X115583000Y-119922000D01*
X115583000Y-119902000D01*
X114433750Y-119902000D01*
X114275000Y-120060750D01*
X114275000Y-120401310D01*
X114371673Y-120634699D01*
X114392900Y-120655926D01*
X114311843Y-120777235D01*
X114262560Y-121025000D01*
X107390000Y-121025000D01*
X107390000Y-99631500D01*
X109144060Y-99631500D01*
X109144060Y-101028500D01*
X109193343Y-101276265D01*
X109333691Y-101486309D01*
X109543735Y-101626657D01*
X109791500Y-101675940D01*
X111188500Y-101675940D01*
X111436265Y-101626657D01*
X111544999Y-101554002D01*
X111544999Y-103340152D01*
X111530111Y-103414999D01*
X111544999Y-103489846D01*
X111544999Y-103489850D01*
X111589095Y-103711535D01*
X111757070Y-103962928D01*
X111820529Y-104005330D01*
X114535000Y-106719802D01*
X114535000Y-106885874D01*
X114660973Y-107190000D01*
X114374847Y-107190000D01*
X114300000Y-107175112D01*
X114225153Y-107190000D01*
X114225148Y-107190000D01*
X114003463Y-107234096D01*
X113752071Y-107402071D01*
X113709671Y-107465527D01*
X110748699Y-110426500D01*
X110224750Y-110426500D01*
X109734633Y-110629513D01*
X109359513Y-111004633D01*
X109156500Y-111494750D01*
X109156500Y-112025250D01*
X109359513Y-112515367D01*
X109546835Y-112702689D01*
X109416843Y-112897235D01*
X109367560Y-113145000D01*
X109367560Y-114445000D01*
X109416843Y-114692765D01*
X109557191Y-114902809D01*
X109767235Y-115043157D01*
X110015000Y-115092440D01*
X110965000Y-115092440D01*
X111212765Y-115043157D01*
X111422809Y-114902809D01*
X111563157Y-114692765D01*
X111612440Y-114445000D01*
X111612440Y-113145000D01*
X111563157Y-112897235D01*
X111433165Y-112702689D01*
X111620487Y-112515367D01*
X111823500Y-112025250D01*
X111823500Y-111501301D01*
X114614802Y-108710000D01*
X114931976Y-108710000D01*
X114714093Y-108769177D01*
X114120715Y-109227710D01*
X113747977Y-109878414D01*
X113676695Y-110434471D01*
X113706644Y-110868752D01*
X112772992Y-111909325D01*
X112487199Y-112391614D01*
X112380889Y-113133939D01*
X112566748Y-113860442D01*
X112703991Y-114043565D01*
X112160493Y-114268690D01*
X111728690Y-114700493D01*
X111495000Y-115264670D01*
X111495000Y-115875330D01*
X111728690Y-116439507D01*
X111874183Y-116585000D01*
X111590560Y-116585000D01*
X111563157Y-116447235D01*
X111422809Y-116237191D01*
X111212765Y-116096843D01*
X110965000Y-116047560D01*
X110015000Y-116047560D01*
X109767235Y-116096843D01*
X109557191Y-116237191D01*
X109416843Y-116447235D01*
X109367560Y-116695000D01*
X109367560Y-117995000D01*
X109403739Y-118176886D01*
X109333691Y-118223691D01*
X109193343Y-118433735D01*
X109144060Y-118681500D01*
X109144060Y-120078500D01*
X109193343Y-120326265D01*
X109333691Y-120536309D01*
X109543735Y-120676657D01*
X109791500Y-120725940D01*
X111188500Y-120725940D01*
X111436265Y-120676657D01*
X111646309Y-120536309D01*
X111786657Y-120326265D01*
X111835940Y-120078500D01*
X111835940Y-118681500D01*
X111786657Y-118433735D01*
X111646309Y-118223691D01*
X111576261Y-118176886D01*
X111590560Y-118105000D01*
X112753201Y-118105000D01*
X113021574Y-118373373D01*
X113063974Y-118436830D01*
X113315366Y-118604805D01*
X113537051Y-118648901D01*
X113537055Y-118648901D01*
X113611902Y-118663789D01*
X113686749Y-118648901D01*
X114762202Y-118648901D01*
X114550302Y-118736673D01*
X114371673Y-118915301D01*
X114275000Y-119148690D01*
X114275000Y-119489250D01*
X114433750Y-119648000D01*
X115583000Y-119648000D01*
X115583000Y-119628000D01*
X115837000Y-119628000D01*
X115837000Y-119648000D01*
X116986250Y-119648000D01*
X117075000Y-119559250D01*
X117075000Y-119585874D01*
X117232569Y-119966280D01*
X117523720Y-120257431D01*
X117885853Y-120407431D01*
X119062560Y-121584139D01*
X119062560Y-122025000D01*
X119111843Y-122272765D01*
X119252191Y-122482809D01*
X119462235Y-122623157D01*
X119710000Y-122672440D01*
X121310000Y-122672440D01*
X121557765Y-122623157D01*
X121767809Y-122482809D01*
X121908157Y-122272765D01*
X121957440Y-122025000D01*
X121957440Y-121025000D01*
X121908157Y-120777235D01*
X121823141Y-120650000D01*
X121899982Y-120535000D01*
X122000199Y-120535000D01*
X122155000Y-120689801D01*
X122155000Y-120855874D01*
X122312569Y-121236280D01*
X122603720Y-121527431D01*
X122984126Y-121685000D01*
X123395874Y-121685000D01*
X123776280Y-121527431D01*
X124067431Y-121236280D01*
X124225000Y-120855874D01*
X124225000Y-120444126D01*
X124067431Y-120063720D01*
X123776280Y-119772569D01*
X123395874Y-119615000D01*
X123229801Y-119615000D01*
X122905331Y-119290530D01*
X122862929Y-119227071D01*
X122611537Y-119059096D01*
X122389852Y-119015000D01*
X122389847Y-119015000D01*
X122315000Y-119000112D01*
X122240153Y-119015000D01*
X121899982Y-119015000D01*
X121767809Y-118817191D01*
X121564735Y-118681500D01*
X124384060Y-118681500D01*
X124384060Y-120078500D01*
X124433343Y-120326265D01*
X124573691Y-120536309D01*
X124783735Y-120676657D01*
X125031500Y-120725940D01*
X126428500Y-120725940D01*
X126676265Y-120676657D01*
X126886309Y-120536309D01*
X127026657Y-120326265D01*
X127063707Y-120140000D01*
X130008155Y-120140000D01*
X130083002Y-120154888D01*
X130157849Y-120140000D01*
X130157854Y-120140000D01*
X130379539Y-120095904D01*
X130630931Y-119927929D01*
X130673333Y-119864470D01*
X131389113Y-119148690D01*
X133325000Y-119148690D01*
X133325000Y-119489250D01*
X133483750Y-119648000D01*
X134633000Y-119648000D01*
X134633000Y-118798750D01*
X134887000Y-118798750D01*
X134887000Y-119648000D01*
X136036250Y-119648000D01*
X136195000Y-119489250D01*
X136195000Y-119148690D01*
X136098327Y-118915301D01*
X135919698Y-118736673D01*
X135686309Y-118640000D01*
X135045750Y-118640000D01*
X134887000Y-118798750D01*
X134633000Y-118798750D01*
X134474250Y-118640000D01*
X133833691Y-118640000D01*
X133600302Y-118736673D01*
X133421673Y-118915301D01*
X133325000Y-119148690D01*
X131389113Y-119148690D01*
X134531100Y-116006704D01*
X134531100Y-116092921D01*
X134931326Y-117059152D01*
X135670848Y-117798674D01*
X136637079Y-118198900D01*
X137682921Y-118198900D01*
X138649152Y-117798674D01*
X139388674Y-117059152D01*
X139788900Y-116092921D01*
X139788900Y-115047079D01*
X139395836Y-114098138D01*
X139690954Y-114427053D01*
X140139556Y-114763261D01*
X140838614Y-114942099D01*
X140705000Y-115264670D01*
X140705000Y-115875330D01*
X140938690Y-116439507D01*
X141370493Y-116871310D01*
X141934670Y-117105000D01*
X142545330Y-117105000D01*
X143109507Y-116871310D01*
X143541310Y-116439507D01*
X143775000Y-115875330D01*
X143775000Y-115264670D01*
X143541310Y-114700493D01*
X143109507Y-114268690D01*
X142566009Y-114043565D01*
X142703252Y-113860442D01*
X142889111Y-113133939D01*
X142782802Y-112391613D01*
X142497008Y-111909325D01*
X141563356Y-110868753D01*
X141593305Y-110434470D01*
X141522023Y-109878414D01*
X141149285Y-109227709D01*
X140555907Y-108769177D01*
X139832225Y-108572625D01*
X139088413Y-108667976D01*
X138437709Y-109040713D01*
X137979177Y-109634092D01*
X137832239Y-110175099D01*
X137766695Y-111125529D01*
X137787162Y-111285186D01*
X137740889Y-111466061D01*
X137751478Y-111540000D01*
X136881878Y-111540000D01*
X136807031Y-111525112D01*
X136732184Y-111540000D01*
X136732180Y-111540000D01*
X136563723Y-111573508D01*
X136579111Y-111466061D01*
X136532838Y-111285186D01*
X136553305Y-111125530D01*
X136487761Y-110175100D01*
X136340824Y-109634092D01*
X135882291Y-109040714D01*
X135231587Y-108667976D01*
X134487775Y-108572625D01*
X133764093Y-108769177D01*
X133170715Y-109227710D01*
X132882992Y-109730000D01*
X131124803Y-109730000D01*
X129305000Y-107910199D01*
X129305000Y-107744126D01*
X129147431Y-107363720D01*
X128856280Y-107072569D01*
X128475874Y-106915000D01*
X128064126Y-106915000D01*
X127683720Y-107072569D01*
X127392569Y-107363720D01*
X127235000Y-107744126D01*
X127235000Y-108155874D01*
X127392569Y-108536280D01*
X127683720Y-108827431D01*
X128064126Y-108985000D01*
X128230199Y-108985000D01*
X130219673Y-110974476D01*
X130262071Y-111037929D01*
X130325524Y-111080327D01*
X130325526Y-111080329D01*
X130393173Y-111125529D01*
X130513463Y-111205904D01*
X130735148Y-111250000D01*
X130735152Y-111250000D01*
X130809999Y-111264888D01*
X130884846Y-111250000D01*
X132414570Y-111250000D01*
X131822992Y-111909325D01*
X131537199Y-112391614D01*
X131430889Y-113133939D01*
X131616748Y-113860442D01*
X131753991Y-114043565D01*
X131210493Y-114268690D01*
X130778690Y-114700493D01*
X130545000Y-115264670D01*
X130545000Y-115875330D01*
X130778690Y-116439507D01*
X131210493Y-116871310D01*
X131427149Y-116961052D01*
X129768201Y-118620000D01*
X127063707Y-118620000D01*
X127026657Y-118433735D01*
X126886309Y-118223691D01*
X126816261Y-118176886D01*
X126852440Y-117995000D01*
X126852440Y-116695000D01*
X126803157Y-116447235D01*
X126662809Y-116237191D01*
X126452765Y-116096843D01*
X126205000Y-116047560D01*
X125255000Y-116047560D01*
X125007235Y-116096843D01*
X124797191Y-116237191D01*
X124656843Y-116447235D01*
X124607560Y-116695000D01*
X124607560Y-117995000D01*
X124643739Y-118176886D01*
X124573691Y-118223691D01*
X124433343Y-118433735D01*
X124384060Y-118681500D01*
X121564735Y-118681500D01*
X121557765Y-118676843D01*
X121310000Y-118627560D01*
X119710000Y-118627560D01*
X119462235Y-118676843D01*
X119252191Y-118817191D01*
X119111843Y-119027235D01*
X119102861Y-119072393D01*
X118987431Y-118793720D01*
X118842612Y-118648901D01*
X119148226Y-118648901D01*
X119223073Y-118663789D01*
X119297920Y-118648901D01*
X119297925Y-118648901D01*
X119519610Y-118604805D01*
X119771002Y-118436830D01*
X119813404Y-118373371D01*
X121749473Y-116437303D01*
X121812929Y-116394903D01*
X121848292Y-116341978D01*
X121888690Y-116439507D01*
X122320493Y-116871310D01*
X122884670Y-117105000D01*
X123495330Y-117105000D01*
X124059507Y-116871310D01*
X124491310Y-116439507D01*
X124725000Y-115875330D01*
X124725000Y-115264670D01*
X124491310Y-114700493D01*
X124059507Y-114268690D01*
X123516009Y-114043565D01*
X123653252Y-113860442D01*
X123839111Y-113133939D01*
X123732802Y-112391613D01*
X123447008Y-111909325D01*
X122513356Y-110868753D01*
X122543305Y-110434470D01*
X122472023Y-109878414D01*
X122099285Y-109227709D01*
X121505907Y-108769177D01*
X121288024Y-108710000D01*
X121605199Y-108710000D01*
X124396500Y-111501302D01*
X124396500Y-112025250D01*
X124599513Y-112515367D01*
X124786835Y-112702689D01*
X124656843Y-112897235D01*
X124607560Y-113145000D01*
X124607560Y-114445000D01*
X124656843Y-114692765D01*
X124797191Y-114902809D01*
X125007235Y-115043157D01*
X125255000Y-115092440D01*
X126205000Y-115092440D01*
X126452765Y-115043157D01*
X126662809Y-114902809D01*
X126803157Y-114692765D01*
X126852440Y-114445000D01*
X126852440Y-113145000D01*
X126803157Y-112897235D01*
X126673165Y-112702689D01*
X126860487Y-112515367D01*
X127063500Y-112025250D01*
X127063500Y-111494750D01*
X126860487Y-111004633D01*
X126485367Y-110629513D01*
X125995250Y-110426500D01*
X125471302Y-110426500D01*
X122510331Y-107465530D01*
X122467929Y-107402071D01*
X122216537Y-107234096D01*
X121994852Y-107190000D01*
X121994847Y-107190000D01*
X121920000Y-107175112D01*
X121845153Y-107190000D01*
X116479027Y-107190000D01*
X116605000Y-106885874D01*
X116605000Y-106474126D01*
X116447431Y-106093720D01*
X116156280Y-105802569D01*
X115775874Y-105645000D01*
X115609802Y-105645000D01*
X113064999Y-103100198D01*
X113064999Y-100098690D01*
X114275000Y-100098690D01*
X114275000Y-100439250D01*
X114433750Y-100598000D01*
X115583000Y-100598000D01*
X115583000Y-99748750D01*
X115424250Y-99590000D01*
X114783691Y-99590000D01*
X114550302Y-99686673D01*
X114371673Y-99865301D01*
X114275000Y-100098690D01*
X113064999Y-100098690D01*
X113064999Y-99372804D01*
X114784476Y-97653329D01*
X114847929Y-97610931D01*
X114890327Y-97547478D01*
X114890329Y-97547476D01*
X115003616Y-97377929D01*
X115015904Y-97359539D01*
X115060000Y-97137854D01*
X115060000Y-97137850D01*
X115074888Y-97063003D01*
X115060000Y-96988156D01*
X115060000Y-95731282D01*
X115130443Y-95713261D01*
X115579045Y-95377053D01*
X115874165Y-95048137D01*
X115481100Y-95997079D01*
X115481100Y-97042921D01*
X115881326Y-98009152D01*
X116154232Y-98282058D01*
X115962569Y-98473720D01*
X115805000Y-98854126D01*
X115805000Y-99265874D01*
X115955803Y-99629947D01*
X115837000Y-99748750D01*
X115837000Y-100598000D01*
X115857000Y-100598000D01*
X115857000Y-100852000D01*
X115837000Y-100852000D01*
X115837000Y-100872000D01*
X115583000Y-100872000D01*
X115583000Y-100852000D01*
X114433750Y-100852000D01*
X114275000Y-101010750D01*
X114275000Y-101351310D01*
X114371673Y-101584699D01*
X114392900Y-101605926D01*
X114311843Y-101727235D01*
X114262560Y-101975000D01*
X114262560Y-102975000D01*
X114311843Y-103222765D01*
X114452191Y-103432809D01*
X114662235Y-103573157D01*
X114910000Y-103622440D01*
X116510000Y-103622440D01*
X116757765Y-103573157D01*
X116967809Y-103432809D01*
X117108157Y-103222765D01*
X117157440Y-102975000D01*
X117157440Y-102402362D01*
X117324473Y-102235329D01*
X117387929Y-102192929D01*
X117555904Y-101941537D01*
X117600000Y-101719852D01*
X117600000Y-101719848D01*
X117614888Y-101645001D01*
X117600000Y-101570154D01*
X117600000Y-99763711D01*
X117717431Y-99646280D01*
X117875000Y-99265874D01*
X117875000Y-99148900D01*
X118325001Y-99148900D01*
X118325000Y-101387839D01*
X118307663Y-101475000D01*
X118325000Y-101562161D01*
X118325000Y-101562164D01*
X118376348Y-101820309D01*
X118571951Y-102113049D01*
X118645847Y-102162425D01*
X118958421Y-102475000D01*
X117885853Y-103547569D01*
X117523720Y-103697569D01*
X117232569Y-103988720D01*
X117075000Y-104369126D01*
X117075000Y-104780874D01*
X117232569Y-105161280D01*
X117523720Y-105452431D01*
X117904126Y-105610000D01*
X118315874Y-105610000D01*
X118696280Y-105452431D01*
X118987431Y-105161280D01*
X119137431Y-104799147D01*
X120314139Y-103622440D01*
X121310000Y-103622440D01*
X121557765Y-103573157D01*
X121616999Y-103533578D01*
X124113878Y-106030457D01*
X124163252Y-106104350D01*
X124237145Y-106153724D01*
X124237146Y-106153725D01*
X124282261Y-106183870D01*
X124455991Y-106299953D01*
X124714136Y-106351301D01*
X124714140Y-106351301D01*
X124801300Y-106368638D01*
X124888460Y-106351301D01*
X133635876Y-106351301D01*
X133585000Y-106474126D01*
X133585000Y-106885874D01*
X133742569Y-107266280D01*
X134033720Y-107557431D01*
X134414126Y-107715000D01*
X134825874Y-107715000D01*
X135206280Y-107557431D01*
X135323711Y-107440000D01*
X141536289Y-107440000D01*
X141653720Y-107557431D01*
X142034126Y-107715000D01*
X142445874Y-107715000D01*
X142826280Y-107557431D01*
X143117431Y-107266280D01*
X143200106Y-107066685D01*
X143895000Y-107761579D01*
X143895001Y-116187146D01*
X143895000Y-116187151D01*
X143895000Y-116271993D01*
X143745000Y-116634126D01*
X143745000Y-117045874D01*
X143902569Y-117426280D01*
X144193720Y-117717431D01*
X144574126Y-117875000D01*
X144985874Y-117875000D01*
X145366280Y-117717431D01*
X145657431Y-117426280D01*
X145807431Y-117064147D01*
X145910560Y-116961018D01*
X145910560Y-117602000D01*
X145959843Y-117849765D01*
X146100191Y-118059809D01*
X146170912Y-118107063D01*
X146019673Y-118258301D01*
X145923000Y-118491690D01*
X145923000Y-119094250D01*
X146081750Y-119253000D01*
X147193000Y-119253000D01*
X147193000Y-119233000D01*
X147447000Y-119233000D01*
X147447000Y-119253000D01*
X148558250Y-119253000D01*
X148717000Y-119094250D01*
X148717000Y-118491690D01*
X148620327Y-118258301D01*
X148469088Y-118107063D01*
X148539809Y-118059809D01*
X148680157Y-117849765D01*
X148729440Y-117602000D01*
X148729440Y-116505362D01*
X149595000Y-115639802D01*
X149595000Y-115875330D01*
X149828690Y-116439507D01*
X150260493Y-116871310D01*
X150824670Y-117105000D01*
X151435330Y-117105000D01*
X151999507Y-116871310D01*
X152431310Y-116439507D01*
X152665000Y-115875330D01*
X152665000Y-115264670D01*
X152531386Y-114942098D01*
X153230443Y-114763261D01*
X153679045Y-114427053D01*
X153974165Y-114098137D01*
X153581100Y-115047079D01*
X153581100Y-116092921D01*
X153801494Y-116624999D01*
X153396845Y-116624999D01*
X153321998Y-116610111D01*
X153247151Y-116624999D01*
X153247147Y-116624999D01*
X153025462Y-116669095D01*
X152774070Y-116837070D01*
X152731670Y-116900526D01*
X147202197Y-122430000D01*
X140853095Y-122430000D01*
X140866459Y-122410000D01*
X141277839Y-122410000D01*
X141365000Y-122427337D01*
X141452161Y-122410000D01*
X141452165Y-122410000D01*
X141710310Y-122358652D01*
X142003049Y-122163049D01*
X142052425Y-122089153D01*
X142464148Y-121677431D01*
X142826280Y-121527431D01*
X143117431Y-121236280D01*
X143275000Y-120855874D01*
X143275000Y-120444126D01*
X143117431Y-120063720D01*
X142826280Y-119772569D01*
X142568396Y-119665750D01*
X145923000Y-119665750D01*
X145923000Y-120268310D01*
X146019673Y-120501699D01*
X146198302Y-120680327D01*
X146431691Y-120777000D01*
X147034250Y-120777000D01*
X147193000Y-120618250D01*
X147193000Y-119507000D01*
X147447000Y-119507000D01*
X147447000Y-120618250D01*
X147605750Y-120777000D01*
X148208309Y-120777000D01*
X148441698Y-120680327D01*
X148620327Y-120501699D01*
X148717000Y-120268310D01*
X148717000Y-119665750D01*
X148558250Y-119507000D01*
X147447000Y-119507000D01*
X147193000Y-119507000D01*
X146081750Y-119507000D01*
X145923000Y-119665750D01*
X142568396Y-119665750D01*
X142445874Y-119615000D01*
X142034126Y-119615000D01*
X141653720Y-119772569D01*
X141362569Y-120063720D01*
X141212569Y-120425852D01*
X140998422Y-120640000D01*
X140879822Y-120640000D01*
X140958157Y-120522765D01*
X141007440Y-120275000D01*
X141007440Y-119275000D01*
X140958157Y-119027235D01*
X140817809Y-118817191D01*
X140607765Y-118676843D01*
X140360000Y-118627560D01*
X138760000Y-118627560D01*
X138512235Y-118676843D01*
X138302191Y-118817191D01*
X138170018Y-119015000D01*
X138109847Y-119015000D01*
X138035000Y-119000112D01*
X137960153Y-119015000D01*
X137960148Y-119015000D01*
X137738463Y-119059096D01*
X137487071Y-119227071D01*
X137444671Y-119290527D01*
X137120198Y-119615000D01*
X136954126Y-119615000D01*
X136573720Y-119772569D01*
X136282569Y-120063720D01*
X136195000Y-120275131D01*
X136195000Y-120060750D01*
X136036250Y-119902000D01*
X134887000Y-119902000D01*
X134887000Y-119922000D01*
X134633000Y-119922000D01*
X134633000Y-119902000D01*
X133483750Y-119902000D01*
X133325000Y-120060750D01*
X133325000Y-120401310D01*
X133421673Y-120634699D01*
X133442900Y-120655926D01*
X133361843Y-120777235D01*
X133312560Y-121025000D01*
X133312560Y-122025000D01*
X133333736Y-122131462D01*
X133310199Y-122155000D01*
X133144126Y-122155000D01*
X132763720Y-122312569D01*
X132472569Y-122603720D01*
X132315000Y-122984126D01*
X132315000Y-123395874D01*
X132440973Y-123700000D01*
X127703711Y-123700000D01*
X127586280Y-123582569D01*
X127205874Y-123425000D01*
X126794126Y-123425000D01*
X126413720Y-123582569D01*
X126122569Y-123873720D01*
X125965000Y-124254126D01*
X125965000Y-124665874D01*
X126122569Y-125046280D01*
X126413720Y-125337431D01*
X126794126Y-125495000D01*
X127205874Y-125495000D01*
X127586280Y-125337431D01*
X127703711Y-125220000D01*
X133916289Y-125220000D01*
X134033720Y-125337431D01*
X134414126Y-125495000D01*
X134825874Y-125495000D01*
X135206280Y-125337431D01*
X135497431Y-125046280D01*
X135655000Y-124665874D01*
X135655000Y-124254126D01*
X135529027Y-123950000D01*
X147442151Y-123950000D01*
X147516998Y-123964888D01*
X147591845Y-123950000D01*
X147591850Y-123950000D01*
X147813535Y-123905904D01*
X148064927Y-123737929D01*
X148107329Y-123674470D01*
X152375000Y-119406800D01*
X152375000Y-119489250D01*
X152533750Y-119648000D01*
X153683000Y-119648000D01*
X153683000Y-119628000D01*
X153937000Y-119628000D01*
X153937000Y-119648000D01*
X153957000Y-119648000D01*
X153957000Y-119902000D01*
X153937000Y-119902000D01*
X153937000Y-119922000D01*
X153683000Y-119922000D01*
X153683000Y-119902000D01*
X152533750Y-119902000D01*
X152375000Y-120060750D01*
X152375000Y-120401310D01*
X152471673Y-120634699D01*
X152492900Y-120655926D01*
X152411843Y-120777235D01*
X152362560Y-121025000D01*
X152362560Y-122025000D01*
X152411843Y-122272765D01*
X152552191Y-122482809D01*
X152762235Y-122623157D01*
X153010000Y-122672440D01*
X153161518Y-122672440D01*
X153262071Y-122822929D01*
X153325530Y-122865331D01*
X155404671Y-124944473D01*
X155447071Y-125007929D01*
X155698463Y-125175904D01*
X155920148Y-125220000D01*
X155920152Y-125220000D01*
X155995000Y-125234888D01*
X156069848Y-125220000D01*
X158046289Y-125220000D01*
X158163720Y-125337431D01*
X158544126Y-125495000D01*
X158955874Y-125495000D01*
X159336280Y-125337431D01*
X159627431Y-125046280D01*
X159785000Y-124665874D01*
X159785000Y-124254126D01*
X159627431Y-123873720D01*
X159336280Y-123582569D01*
X158955874Y-123425000D01*
X158544126Y-123425000D01*
X158163720Y-123582569D01*
X158046289Y-123700000D01*
X156309802Y-123700000D01*
X155077743Y-122467942D01*
X155208157Y-122272765D01*
X155257440Y-122025000D01*
X155257440Y-121452362D01*
X155419474Y-121290328D01*
X155482930Y-121247928D01*
X155650905Y-120996536D01*
X155695001Y-120774851D01*
X155695001Y-120774847D01*
X155709889Y-120699999D01*
X155695001Y-120625151D01*
X155695001Y-119561777D01*
X156392696Y-120259472D01*
X156435097Y-120322929D01*
X156686489Y-120490904D01*
X156908174Y-120535000D01*
X156908178Y-120535000D01*
X156983026Y-120549888D01*
X157057874Y-120535000D01*
X157220018Y-120535000D01*
X157296859Y-120650000D01*
X157211843Y-120777235D01*
X157162560Y-121025000D01*
X157162560Y-122025000D01*
X157211843Y-122272765D01*
X157352191Y-122482809D01*
X157562235Y-122623157D01*
X157810000Y-122672440D01*
X159410000Y-122672440D01*
X159657765Y-122623157D01*
X159867809Y-122482809D01*
X160008157Y-122272765D01*
X160057440Y-122025000D01*
X160057440Y-121629138D01*
X164394156Y-117292423D01*
X164468049Y-117243049D01*
X164539219Y-117136537D01*
X164663652Y-116950310D01*
X164676180Y-116887327D01*
X164715000Y-116692165D01*
X164715000Y-116692161D01*
X164732337Y-116605000D01*
X164715000Y-116517839D01*
X164715000Y-116423007D01*
X164865000Y-116060874D01*
X164865000Y-115649126D01*
X164738199Y-115343000D01*
X166517560Y-117122362D01*
X166517560Y-117995000D01*
X166553739Y-118176886D01*
X166483691Y-118223691D01*
X166343343Y-118433735D01*
X166294060Y-118681500D01*
X166294060Y-120078500D01*
X166343343Y-120326265D01*
X166483691Y-120536309D01*
X166693735Y-120676657D01*
X166941500Y-120725940D01*
X168338500Y-120725940D01*
X168586265Y-120676657D01*
X168796309Y-120536309D01*
X168936657Y-120326265D01*
X168985940Y-120078500D01*
X168985940Y-118681500D01*
X168936657Y-118433735D01*
X168796309Y-118223691D01*
X168726261Y-118176886D01*
X168762440Y-117995000D01*
X168762440Y-116695000D01*
X168713157Y-116447235D01*
X168572809Y-116237191D01*
X168362765Y-116096843D01*
X168115000Y-116047560D01*
X167592362Y-116047560D01*
X164090331Y-112545530D01*
X164073272Y-112520000D01*
X166514146Y-112520000D01*
X166696835Y-112702689D01*
X166566843Y-112897235D01*
X166517560Y-113145000D01*
X166517560Y-114445000D01*
X166566843Y-114692765D01*
X166707191Y-114902809D01*
X166917235Y-115043157D01*
X167165000Y-115092440D01*
X168115000Y-115092440D01*
X168362765Y-115043157D01*
X168572809Y-114902809D01*
X168713157Y-114692765D01*
X168762440Y-114445000D01*
X168762440Y-113145000D01*
X168713157Y-112897235D01*
X168583165Y-112702689D01*
X168770487Y-112515367D01*
X168973500Y-112025250D01*
X168973500Y-111501301D01*
X171764802Y-108710000D01*
X172081976Y-108710000D01*
X171864093Y-108769177D01*
X171270715Y-109227710D01*
X170897977Y-109878414D01*
X170826695Y-110434471D01*
X170856644Y-110868752D01*
X169922992Y-111909325D01*
X169637199Y-112391614D01*
X169530889Y-113133939D01*
X169716748Y-113860442D01*
X169853991Y-114043565D01*
X169310493Y-114268690D01*
X168878690Y-114700493D01*
X168645000Y-115264670D01*
X168645000Y-115875330D01*
X168878690Y-116439507D01*
X169310493Y-116871310D01*
X169874670Y-117105000D01*
X170485330Y-117105000D01*
X171049507Y-116871310D01*
X171481310Y-116439507D01*
X171715000Y-115875330D01*
X171715000Y-115264670D01*
X171581386Y-114942098D01*
X172280443Y-114763261D01*
X172729045Y-114427053D01*
X173024165Y-114098137D01*
X172631100Y-115047079D01*
X172631100Y-116092921D01*
X173031326Y-117059152D01*
X173132946Y-117160772D01*
X172925874Y-117075000D01*
X172514126Y-117075000D01*
X172133720Y-117232569D01*
X171842569Y-117523720D01*
X171685000Y-117904126D01*
X171685000Y-118315874D01*
X171836016Y-118680459D01*
X171700302Y-118736673D01*
X171521673Y-118915301D01*
X171425000Y-119148690D01*
X171425000Y-119489250D01*
X171583750Y-119648000D01*
X172733000Y-119648000D01*
X172733000Y-119628000D01*
X172987000Y-119628000D01*
X172987000Y-119648000D01*
X173007000Y-119648000D01*
X173007000Y-119902000D01*
X172987000Y-119902000D01*
X172987000Y-119922000D01*
X172733000Y-119922000D01*
X172733000Y-119902000D01*
X171583750Y-119902000D01*
X171425000Y-120060750D01*
X171425000Y-120401310D01*
X171521673Y-120634699D01*
X171542900Y-120655926D01*
X171461843Y-120777235D01*
X171412560Y-121025000D01*
X171412560Y-122025000D01*
X171461843Y-122272765D01*
X171602191Y-122482809D01*
X171812235Y-122623157D01*
X172060000Y-122672440D01*
X172728444Y-122672440D01*
X171700884Y-123700000D01*
X169613711Y-123700000D01*
X169496280Y-123582569D01*
X169115874Y-123425000D01*
X168704126Y-123425000D01*
X168323720Y-123582569D01*
X168032569Y-123873720D01*
X167875000Y-124254126D01*
X167875000Y-124665874D01*
X168032569Y-125046280D01*
X168323720Y-125337431D01*
X168704126Y-125495000D01*
X169115874Y-125495000D01*
X169496280Y-125337431D01*
X169613711Y-125220000D01*
X171940838Y-125220000D01*
X172015685Y-125234888D01*
X172090532Y-125220000D01*
X172090537Y-125220000D01*
X172312222Y-125175904D01*
X172563614Y-125007929D01*
X172606016Y-124944470D01*
X173714076Y-123836410D01*
X184825000Y-123836410D01*
X184825000Y-125083590D01*
X185302276Y-126235835D01*
X186184165Y-127117724D01*
X187336410Y-127595000D01*
X188583590Y-127595000D01*
X189735835Y-127117724D01*
X190617724Y-126235835D01*
X191095000Y-125083590D01*
X191095000Y-123836410D01*
X190617724Y-122684165D01*
X189735835Y-121802276D01*
X188583590Y-121325000D01*
X187336410Y-121325000D01*
X186184165Y-121802276D01*
X185302276Y-122684165D01*
X184825000Y-123836410D01*
X173714076Y-123836410D01*
X175744473Y-121806014D01*
X175807929Y-121763614D01*
X175975904Y-121512222D01*
X176004314Y-121369397D01*
X176137431Y-121236280D01*
X176212560Y-121054902D01*
X176212560Y-122025000D01*
X176261843Y-122272765D01*
X176402191Y-122482809D01*
X176612235Y-122623157D01*
X176860000Y-122672440D01*
X178460000Y-122672440D01*
X178707765Y-122623157D01*
X178917809Y-122482809D01*
X178955476Y-122426437D01*
X178960000Y-122427337D01*
X179047161Y-122410000D01*
X179047165Y-122410000D01*
X179305310Y-122358652D01*
X179598049Y-122163049D01*
X179647425Y-122089153D01*
X180904156Y-120832423D01*
X180978049Y-120783049D01*
X181049139Y-120676657D01*
X181173652Y-120490310D01*
X181225000Y-120232165D01*
X181225000Y-120232161D01*
X181242337Y-120145000D01*
X181225000Y-120057839D01*
X181225000Y-118678007D01*
X181375000Y-118315874D01*
X181375000Y-117904126D01*
X181217431Y-117523720D01*
X180926280Y-117232569D01*
X180618301Y-117105000D01*
X180645330Y-117105000D01*
X181209507Y-116871310D01*
X181641310Y-116439507D01*
X181731052Y-116222851D01*
X181866361Y-116358161D01*
X181806843Y-116447235D01*
X181757560Y-116695000D01*
X181757560Y-117995000D01*
X181793739Y-118176886D01*
X181723691Y-118223691D01*
X181583343Y-118433735D01*
X181534060Y-118681500D01*
X181534060Y-120078500D01*
X181583343Y-120326265D01*
X181723691Y-120536309D01*
X181933735Y-120676657D01*
X182181500Y-120725940D01*
X183578500Y-120725940D01*
X183826265Y-120676657D01*
X184036309Y-120536309D01*
X184176657Y-120326265D01*
X184225940Y-120078500D01*
X184225940Y-118681500D01*
X184176657Y-118433735D01*
X184036309Y-118223691D01*
X183966261Y-118176886D01*
X184002440Y-117995000D01*
X184002440Y-116695000D01*
X183953157Y-116447235D01*
X183812809Y-116237191D01*
X183616963Y-116106330D01*
X183595904Y-116000461D01*
X183595904Y-116000460D01*
X183470329Y-115812525D01*
X183427929Y-115749069D01*
X183364473Y-115706669D01*
X182750244Y-115092440D01*
X183355000Y-115092440D01*
X183602765Y-115043157D01*
X183812809Y-114902809D01*
X183953157Y-114692765D01*
X184002440Y-114445000D01*
X184002440Y-113145000D01*
X183953157Y-112897235D01*
X183823165Y-112702689D01*
X184010487Y-112515367D01*
X184213500Y-112025250D01*
X184213500Y-111494750D01*
X184010487Y-111004633D01*
X183635367Y-110629513D01*
X183145250Y-110426500D01*
X182621302Y-110426500D01*
X180628283Y-108433482D01*
X180628281Y-108433479D01*
X179660331Y-107465530D01*
X179617929Y-107402071D01*
X179366537Y-107234096D01*
X179144852Y-107190000D01*
X179144847Y-107190000D01*
X179070000Y-107175112D01*
X178995153Y-107190000D01*
X176169027Y-107190000D01*
X176295000Y-106885874D01*
X176295000Y-106474126D01*
X176182954Y-106203624D01*
X178224156Y-104162423D01*
X178298049Y-104113049D01*
X178366340Y-104010846D01*
X178493652Y-103820310D01*
X178536018Y-103607319D01*
X178707765Y-103573157D01*
X178917809Y-103432809D01*
X179058157Y-103222765D01*
X179107440Y-102975000D01*
X179107440Y-102579138D01*
X180904156Y-100782423D01*
X180978049Y-100733049D01*
X181049219Y-100626537D01*
X181153815Y-100469998D01*
X181173652Y-100440310D01*
X181225000Y-100182165D01*
X181225000Y-100182161D01*
X181242337Y-100095001D01*
X181225000Y-100007841D01*
X181225000Y-99913007D01*
X181375000Y-99550874D01*
X181375000Y-99139126D01*
X181217431Y-98758720D01*
X180926280Y-98467569D01*
X180545874Y-98310000D01*
X180134126Y-98310000D01*
X179753720Y-98467569D01*
X179462569Y-98758720D01*
X179305000Y-99139126D01*
X179305000Y-99550874D01*
X179400936Y-99782485D01*
X179082716Y-100100705D01*
X179058157Y-99977235D01*
X178917809Y-99767191D01*
X178707765Y-99626843D01*
X178460000Y-99577560D01*
X176860000Y-99577560D01*
X176612235Y-99626843D01*
X176402191Y-99767191D01*
X176270018Y-99965000D01*
X176209847Y-99965000D01*
X176135000Y-99950112D01*
X176060153Y-99965000D01*
X176060148Y-99965000D01*
X175838463Y-100009096D01*
X175587071Y-100177071D01*
X175544671Y-100240527D01*
X175220198Y-100565000D01*
X175054126Y-100565000D01*
X174673720Y-100722569D01*
X174382569Y-101013720D01*
X174295000Y-101225131D01*
X174295000Y-101010750D01*
X174136250Y-100852000D01*
X172987000Y-100852000D01*
X172987000Y-100872000D01*
X172733000Y-100872000D01*
X172733000Y-100852000D01*
X171583750Y-100852000D01*
X171425000Y-101010750D01*
X171425000Y-101351310D01*
X171521673Y-101584699D01*
X171542900Y-101605926D01*
X171461843Y-101727235D01*
X171446622Y-101803758D01*
X171262071Y-101927071D01*
X171219671Y-101990528D01*
X170930529Y-102279669D01*
X170867071Y-102322071D01*
X170699096Y-102573464D01*
X170655000Y-102795149D01*
X170655000Y-102795153D01*
X170640112Y-102870000D01*
X170655000Y-102944847D01*
X170655000Y-103540199D01*
X169423501Y-102308700D01*
X169423501Y-100098690D01*
X171425000Y-100098690D01*
X171425000Y-100439250D01*
X171583750Y-100598000D01*
X172733000Y-100598000D01*
X172733000Y-99748750D01*
X172987000Y-99748750D01*
X172987000Y-100598000D01*
X174136250Y-100598000D01*
X174295000Y-100439250D01*
X174295000Y-100098690D01*
X174198327Y-99865301D01*
X174019698Y-99686673D01*
X173786309Y-99590000D01*
X173145750Y-99590000D01*
X172987000Y-99748750D01*
X172733000Y-99748750D01*
X172574250Y-99590000D01*
X171933691Y-99590000D01*
X171700302Y-99686673D01*
X171521673Y-99865301D01*
X171425000Y-100098690D01*
X169423501Y-100098690D01*
X169423501Y-97868119D01*
X169874670Y-98055000D01*
X170485330Y-98055000D01*
X171049507Y-97821310D01*
X171481310Y-97389507D01*
X171715000Y-96825330D01*
X171715000Y-96214670D01*
X171581386Y-95892098D01*
X172280443Y-95713261D01*
X172729045Y-95377053D01*
X173024165Y-95048137D01*
X172631100Y-95997079D01*
X172631100Y-97042921D01*
X173031326Y-98009152D01*
X173770848Y-98748674D01*
X174737079Y-99148900D01*
X175782921Y-99148900D01*
X176749152Y-98748674D01*
X177488674Y-98009152D01*
X177888900Y-97042921D01*
X177888900Y-95997079D01*
X177495836Y-95048138D01*
X177790954Y-95377053D01*
X178239556Y-95713261D01*
X178938614Y-95892099D01*
X178805000Y-96214670D01*
X178805000Y-96825330D01*
X179038690Y-97389507D01*
X179470493Y-97821310D01*
X180034670Y-98055000D01*
X180645330Y-98055000D01*
X181209507Y-97821310D01*
X181641310Y-97389507D01*
X181853188Y-96877989D01*
X182076192Y-97100994D01*
X181947191Y-97187191D01*
X181806843Y-97397235D01*
X181757560Y-97645000D01*
X181757560Y-98945000D01*
X181793739Y-99126886D01*
X181723691Y-99173691D01*
X181583343Y-99383735D01*
X181534060Y-99631500D01*
X181534060Y-101028500D01*
X181583343Y-101276265D01*
X181723691Y-101486309D01*
X181933735Y-101626657D01*
X182181500Y-101675940D01*
X183578500Y-101675940D01*
X183826265Y-101626657D01*
X184036309Y-101486309D01*
X184176657Y-101276265D01*
X184225940Y-101028500D01*
X184225940Y-99631500D01*
X184176657Y-99383735D01*
X184036309Y-99173691D01*
X183966261Y-99126886D01*
X184002440Y-98945000D01*
X184002440Y-97645000D01*
X183953157Y-97397235D01*
X183812809Y-97187191D01*
X183640000Y-97071723D01*
X183640000Y-96904848D01*
X183654888Y-96830000D01*
X183640000Y-96755152D01*
X183640000Y-96755148D01*
X183595904Y-96533463D01*
X183427929Y-96282071D01*
X183364473Y-96239671D01*
X183167242Y-96042440D01*
X183355000Y-96042440D01*
X183602765Y-95993157D01*
X183812809Y-95852809D01*
X183953157Y-95642765D01*
X184002440Y-95395000D01*
X184002440Y-94095000D01*
X183953157Y-93847235D01*
X183823165Y-93652689D01*
X184010487Y-93465367D01*
X184213500Y-92975250D01*
X184213500Y-92444750D01*
X184010487Y-91954633D01*
X183635367Y-91579513D01*
X183145250Y-91376500D01*
X182621302Y-91376500D01*
X179660331Y-88415530D01*
X179617929Y-88352071D01*
X179366537Y-88184096D01*
X179144852Y-88140000D01*
X179144847Y-88140000D01*
X179070000Y-88125112D01*
X178995153Y-88140000D01*
X175924542Y-88140000D01*
X176178839Y-87759418D01*
X176265000Y-87326256D01*
X176265000Y-87141380D01*
X176530000Y-87194092D01*
X177109417Y-87078839D01*
X177600625Y-86750625D01*
X177928839Y-86259418D01*
X178015000Y-85826256D01*
X178015000Y-84733745D01*
X177928839Y-84300582D01*
X177600625Y-83809375D01*
X177109418Y-83481161D01*
X176530000Y-83365908D01*
X175950583Y-83481161D01*
X175665000Y-83671981D01*
X175665000Y-83234343D01*
X175476982Y-82780429D01*
X175129571Y-82433018D01*
X174675657Y-82245000D01*
X174184343Y-82245000D01*
X173730429Y-82433018D01*
X173555000Y-82608447D01*
X173379571Y-82433018D01*
X172925657Y-82245000D01*
X172434343Y-82245000D01*
X171980429Y-82433018D01*
X171633018Y-82780429D01*
X171445000Y-83234343D01*
X171445000Y-83671981D01*
X171159418Y-83481161D01*
X170580000Y-83365908D01*
X170027404Y-83475826D01*
X169807425Y-83255847D01*
X169758049Y-83181951D01*
X169465310Y-82986348D01*
X169207165Y-82935000D01*
X169207161Y-82935000D01*
X169120000Y-82917663D01*
X169032839Y-82935000D01*
X165082301Y-82935000D01*
X164697301Y-82550000D01*
X165111218Y-82136083D01*
X165341300Y-81580616D01*
X165341300Y-81407000D01*
X169095000Y-81407000D01*
X169095000Y-81807000D01*
X169256640Y-82365618D01*
X169619749Y-82819856D01*
X170129048Y-83100562D01*
X170223110Y-83121476D01*
X170453000Y-83000155D01*
X170453000Y-81407000D01*
X170707000Y-81407000D01*
X170707000Y-83000155D01*
X170936890Y-83121476D01*
X171030952Y-83100562D01*
X171540251Y-82819856D01*
X171903360Y-82365618D01*
X172065000Y-81807000D01*
X172065000Y-81407000D01*
X175045000Y-81407000D01*
X175045000Y-81807000D01*
X175206640Y-82365618D01*
X175569749Y-82819856D01*
X176079048Y-83100562D01*
X176173110Y-83121476D01*
X176403000Y-83000155D01*
X176403000Y-81407000D01*
X176657000Y-81407000D01*
X176657000Y-83000155D01*
X176886890Y-83121476D01*
X176980952Y-83100562D01*
X177490251Y-82819856D01*
X177853360Y-82365618D01*
X178015000Y-81807000D01*
X178015000Y-81407000D01*
X176657000Y-81407000D01*
X176403000Y-81407000D01*
X175045000Y-81407000D01*
X172065000Y-81407000D01*
X170707000Y-81407000D01*
X170453000Y-81407000D01*
X169095000Y-81407000D01*
X165341300Y-81407000D01*
X165341300Y-80979384D01*
X165111218Y-80423917D01*
X164686083Y-79998782D01*
X164653480Y-79985278D01*
X164713396Y-79803001D01*
X163830000Y-78919605D01*
X162946604Y-79803001D01*
X163006520Y-79985278D01*
X162973917Y-79998782D01*
X162548782Y-80423917D01*
X162318700Y-80979384D01*
X162318700Y-81580616D01*
X162358499Y-81676700D01*
X162245199Y-81790000D01*
X153103711Y-81790000D01*
X152986280Y-81672569D01*
X152605874Y-81515000D01*
X152194126Y-81515000D01*
X151813720Y-81672569D01*
X151522569Y-81963720D01*
X151365000Y-82344126D01*
X151365000Y-82755874D01*
X151522569Y-83136280D01*
X151813720Y-83427431D01*
X152194126Y-83585000D01*
X152605874Y-83585000D01*
X152986280Y-83427431D01*
X153103711Y-83310000D01*
X162405430Y-83310000D01*
X162318700Y-83519384D01*
X162318700Y-84120616D01*
X162548782Y-84676083D01*
X162962699Y-85090000D01*
X162548782Y-85503917D01*
X162318700Y-86059384D01*
X162318700Y-86660616D01*
X162548782Y-87216083D01*
X162962699Y-87630000D01*
X162548782Y-88043917D01*
X162318700Y-88599384D01*
X162318700Y-88853899D01*
X161324999Y-87860198D01*
X161324999Y-87608710D01*
X161442430Y-87491279D01*
X161599999Y-87110873D01*
X161599999Y-86699125D01*
X161442430Y-86318719D01*
X161151279Y-86027568D01*
X160770873Y-85869999D01*
X160359125Y-85869999D01*
X159978719Y-86027568D01*
X159687568Y-86318719D01*
X159529999Y-86699125D01*
X159529999Y-86946288D01*
X159336280Y-86752569D01*
X158955874Y-86595000D01*
X158544126Y-86595000D01*
X158163720Y-86752569D01*
X157872569Y-87043720D01*
X157715000Y-87424126D01*
X157715000Y-87835874D01*
X157872569Y-88216280D01*
X158005687Y-88349398D01*
X158034096Y-88492221D01*
X158202071Y-88743614D01*
X158265530Y-88786016D01*
X159046851Y-89567337D01*
X158882225Y-89522625D01*
X158407673Y-89583459D01*
X153361044Y-84536831D01*
X153318642Y-84473372D01*
X153067250Y-84305397D01*
X152845565Y-84261301D01*
X152845560Y-84261301D01*
X152770713Y-84246413D01*
X152695866Y-84261301D01*
X150037704Y-84261301D01*
X150112882Y-84055003D01*
X150086891Y-83454332D01*
X149907027Y-83020104D01*
X149653001Y-82936604D01*
X148769605Y-83820000D01*
X148783748Y-83834143D01*
X148604143Y-84013748D01*
X148590000Y-83999605D01*
X148575858Y-84013748D01*
X148396253Y-83834143D01*
X148410395Y-83820000D01*
X147526999Y-82936604D01*
X147272973Y-83020104D01*
X147067118Y-83584997D01*
X147093109Y-84185668D01*
X147124437Y-84261301D01*
X146227704Y-84261301D01*
X146302882Y-84055003D01*
X146276891Y-83454332D01*
X146097027Y-83020104D01*
X145843001Y-82936604D01*
X144959605Y-83820000D01*
X144973748Y-83834143D01*
X144794143Y-84013748D01*
X144780000Y-83999605D01*
X144765858Y-84013748D01*
X144586253Y-83834143D01*
X144600395Y-83820000D01*
X143716999Y-82936604D01*
X143462973Y-83020104D01*
X143257118Y-83584997D01*
X143283109Y-84185668D01*
X143314437Y-84261301D01*
X132731473Y-84261301D01*
X132656625Y-84246413D01*
X132581777Y-84261301D01*
X132581773Y-84261301D01*
X132360088Y-84305397D01*
X132108696Y-84473372D01*
X132066296Y-84536828D01*
X130902639Y-85700485D01*
X130821218Y-85503917D01*
X130407301Y-85090000D01*
X130821218Y-84676083D01*
X131051300Y-84120616D01*
X131051300Y-83519384D01*
X130821218Y-82963917D01*
X130407301Y-82550000D01*
X130614300Y-82343001D01*
X143896604Y-82343001D01*
X143964646Y-82550000D01*
X143896604Y-82756999D01*
X144780000Y-83640395D01*
X145663396Y-82756999D01*
X145595354Y-82550000D01*
X145663396Y-82343001D01*
X147706604Y-82343001D01*
X147774646Y-82550000D01*
X147706604Y-82756999D01*
X148590000Y-83640395D01*
X149473396Y-82756999D01*
X149405354Y-82550000D01*
X149473396Y-82343001D01*
X148590000Y-81459605D01*
X147706604Y-82343001D01*
X145663396Y-82343001D01*
X144780000Y-81459605D01*
X143896604Y-82343001D01*
X130614300Y-82343001D01*
X130821218Y-82136083D01*
X131051300Y-81580616D01*
X131051300Y-81044997D01*
X143257118Y-81044997D01*
X143283109Y-81645668D01*
X143462973Y-82079896D01*
X143716999Y-82163396D01*
X144600395Y-81280000D01*
X144959605Y-81280000D01*
X145843001Y-82163396D01*
X146097027Y-82079896D01*
X146302882Y-81515003D01*
X146282545Y-81044997D01*
X147067118Y-81044997D01*
X147093109Y-81645668D01*
X147272973Y-82079896D01*
X147526999Y-82163396D01*
X148410395Y-81280000D01*
X148769605Y-81280000D01*
X149653001Y-82163396D01*
X149907027Y-82079896D01*
X150112882Y-81515003D01*
X150086891Y-80914332D01*
X149907027Y-80480104D01*
X149653001Y-80396604D01*
X148769605Y-81280000D01*
X148410395Y-81280000D01*
X147526999Y-80396604D01*
X147272973Y-80480104D01*
X147067118Y-81044997D01*
X146282545Y-81044997D01*
X146276891Y-80914332D01*
X146097027Y-80480104D01*
X145843001Y-80396604D01*
X144959605Y-81280000D01*
X144600395Y-81280000D01*
X143716999Y-80396604D01*
X143462973Y-80480104D01*
X143257118Y-81044997D01*
X131051300Y-81044997D01*
X131051300Y-80979384D01*
X130821218Y-80423917D01*
X130396083Y-79998782D01*
X130363480Y-79985278D01*
X130423396Y-79803001D01*
X129540000Y-78919605D01*
X129525858Y-78933748D01*
X129346253Y-78754143D01*
X129360395Y-78740000D01*
X129719605Y-78740000D01*
X130603001Y-79623396D01*
X130857027Y-79539896D01*
X131062882Y-78975003D01*
X131036891Y-78374332D01*
X130857027Y-77940104D01*
X130603001Y-77856604D01*
X129719605Y-78740000D01*
X129360395Y-78740000D01*
X128476999Y-77856604D01*
X128222973Y-77940104D01*
X128017118Y-78504997D01*
X128043109Y-79105668D01*
X128102894Y-79250000D01*
X125779610Y-79250000D01*
X125740116Y-79154654D01*
X125315346Y-78729884D01*
X124760358Y-78500000D01*
X124159642Y-78500000D01*
X123604654Y-78729884D01*
X123179884Y-79154654D01*
X122950000Y-79709642D01*
X122950000Y-80310358D01*
X123179884Y-80865346D01*
X123604654Y-81290116D01*
X124087099Y-81489951D01*
X124031526Y-81545524D01*
X123775000Y-82164833D01*
X123775000Y-82835167D01*
X124031526Y-83454476D01*
X124505524Y-83928474D01*
X125124833Y-84185000D01*
X125795167Y-84185000D01*
X126414476Y-83928474D01*
X126888474Y-83454476D01*
X127145000Y-82835167D01*
X127145000Y-82164833D01*
X126888474Y-81545524D01*
X126414476Y-81071526D01*
X125795167Y-80815000D01*
X125760970Y-80815000D01*
X125779610Y-80770000D01*
X127955199Y-80770000D01*
X128068499Y-80883300D01*
X128028700Y-80979384D01*
X128028700Y-81580616D01*
X128258782Y-82136083D01*
X128672699Y-82550000D01*
X128258782Y-82963917D01*
X128028700Y-83519384D01*
X128028700Y-84120616D01*
X128258782Y-84676083D01*
X128672699Y-85090000D01*
X128258782Y-85503917D01*
X128218983Y-85600000D01*
X119651846Y-85600000D01*
X119576998Y-85585112D01*
X119502150Y-85600000D01*
X119502146Y-85600000D01*
X119328603Y-85634520D01*
X119280460Y-85644096D01*
X119127499Y-85746302D01*
X119029069Y-85812071D01*
X118986669Y-85875527D01*
X116180256Y-88681941D01*
X116116800Y-88724341D01*
X116074400Y-88787797D01*
X116074399Y-88787798D01*
X115948825Y-88975733D01*
X115889840Y-89272270D01*
X115904729Y-89347121D01*
X115904729Y-89582485D01*
X115437775Y-89522625D01*
X114714093Y-89719177D01*
X114120715Y-90177710D01*
X113747977Y-90828414D01*
X113676695Y-91384471D01*
X113706644Y-91818752D01*
X112772992Y-92859325D01*
X112487199Y-93341614D01*
X112380889Y-94083939D01*
X112566748Y-94810442D01*
X112703991Y-94993565D01*
X112160493Y-95218690D01*
X111728690Y-95650493D01*
X111495000Y-96214670D01*
X111495000Y-96825330D01*
X111728690Y-97389507D01*
X112160493Y-97821310D01*
X112377149Y-97911052D01*
X111820527Y-98467674D01*
X111757071Y-98510074D01*
X111714671Y-98573530D01*
X111714670Y-98573531D01*
X111612440Y-98726529D01*
X111612440Y-97645000D01*
X111563157Y-97397235D01*
X111422809Y-97187191D01*
X111212765Y-97046843D01*
X110965000Y-96997560D01*
X110015000Y-96997560D01*
X109767235Y-97046843D01*
X109557191Y-97187191D01*
X109416843Y-97397235D01*
X109367560Y-97645000D01*
X109367560Y-98945000D01*
X109403739Y-99126886D01*
X109333691Y-99173691D01*
X109193343Y-99383735D01*
X109144060Y-99631500D01*
X107390000Y-99631500D01*
X107390000Y-92444750D01*
X109156500Y-92444750D01*
X109156500Y-92975250D01*
X109359513Y-93465367D01*
X109546835Y-93652689D01*
X109416843Y-93847235D01*
X109367560Y-94095000D01*
X109367560Y-95395000D01*
X109416843Y-95642765D01*
X109557191Y-95852809D01*
X109767235Y-95993157D01*
X110015000Y-96042440D01*
X110965000Y-96042440D01*
X111212765Y-95993157D01*
X111422809Y-95852809D01*
X111563157Y-95642765D01*
X111612440Y-95395000D01*
X111612440Y-94095000D01*
X111563157Y-93847235D01*
X111433165Y-93652689D01*
X111620487Y-93465367D01*
X111823500Y-92975250D01*
X111823500Y-92444750D01*
X111620487Y-91954633D01*
X111245367Y-91579513D01*
X110755250Y-91376500D01*
X110224750Y-91376500D01*
X109734633Y-91579513D01*
X109359513Y-91954633D01*
X109156500Y-92444750D01*
X107390000Y-92444750D01*
X107390000Y-79386410D01*
X108625000Y-79386410D01*
X108625000Y-80633590D01*
X109102276Y-81785835D01*
X109984165Y-82667724D01*
X111136410Y-83145000D01*
X112383590Y-83145000D01*
X113535835Y-82667724D01*
X114038726Y-82164833D01*
X116765000Y-82164833D01*
X116765000Y-82835167D01*
X117021526Y-83454476D01*
X117495524Y-83928474D01*
X118114833Y-84185000D01*
X118785167Y-84185000D01*
X119404476Y-83928474D01*
X119878474Y-83454476D01*
X120135000Y-82835167D01*
X120135000Y-82164833D01*
X119878474Y-81545524D01*
X119834701Y-81501751D01*
X120259116Y-81325953D01*
X120342455Y-81072060D01*
X119460000Y-80189605D01*
X119445858Y-80203748D01*
X119266253Y-80024143D01*
X119280395Y-80010000D01*
X119639605Y-80010000D01*
X120522060Y-80892455D01*
X120775953Y-80809116D01*
X120981590Y-80244694D01*
X120955579Y-79644542D01*
X120775953Y-79210884D01*
X120522060Y-79127545D01*
X119639605Y-80010000D01*
X119280395Y-80010000D01*
X118397940Y-79127545D01*
X118144047Y-79210884D01*
X117938410Y-79775306D01*
X117964421Y-80375458D01*
X118144047Y-80809116D01*
X118161973Y-80815000D01*
X118114833Y-80815000D01*
X117495524Y-81071526D01*
X117021526Y-81545524D01*
X116765000Y-82164833D01*
X114038726Y-82164833D01*
X114417724Y-81785835D01*
X114895000Y-80633590D01*
X114895000Y-79386410D01*
X114713380Y-78947940D01*
X118577545Y-78947940D01*
X119460000Y-79830395D01*
X120342455Y-78947940D01*
X120259116Y-78694047D01*
X119875664Y-78554343D01*
X120725000Y-78554343D01*
X120725000Y-79045657D01*
X120913018Y-79499571D01*
X121260429Y-79846982D01*
X121714343Y-80035000D01*
X122205657Y-80035000D01*
X122659571Y-79846982D01*
X123006982Y-79499571D01*
X123195000Y-79045657D01*
X123195000Y-78554343D01*
X123006982Y-78100429D01*
X122659571Y-77753018D01*
X122205657Y-77565000D01*
X121714343Y-77565000D01*
X121260429Y-77753018D01*
X120913018Y-78100429D01*
X120725000Y-78554343D01*
X119875664Y-78554343D01*
X119694694Y-78488410D01*
X119094542Y-78514421D01*
X118660884Y-78694047D01*
X118577545Y-78947940D01*
X114713380Y-78947940D01*
X114417724Y-78234165D01*
X113535835Y-77352276D01*
X112383590Y-76875000D01*
X111136410Y-76875000D01*
X109984165Y-77352276D01*
X109102276Y-78234165D01*
X108625000Y-79386410D01*
X107390000Y-79386410D01*
X107390000Y-78775964D01*
X107456895Y-78117396D01*
X107644039Y-77520218D01*
X107947436Y-76972876D01*
X108354701Y-76497711D01*
X108849188Y-76114148D01*
X109410700Y-75837850D01*
X110024774Y-75677896D01*
X110517270Y-75640000D01*
X128136140Y-75640000D01*
X128028700Y-75899384D01*
G36*
X167642455Y-104184002D02*
X168022861Y-104341571D01*
X168188934Y-104341571D01*
X171110299Y-107262937D01*
X170966418Y-107359076D01*
X170902071Y-107402071D01*
X170859671Y-107465527D01*
X167898699Y-110426500D01*
X167374750Y-110426500D01*
X166884633Y-110629513D01*
X166514146Y-111000000D01*
X164144803Y-111000000D01*
X162325000Y-109180199D01*
X162325000Y-109014126D01*
X162167431Y-108633720D01*
X161876280Y-108342569D01*
X161495874Y-108185000D01*
X161084126Y-108185000D01*
X160703720Y-108342569D01*
X160412569Y-108633720D01*
X160255000Y-109014126D01*
X160255000Y-109324973D01*
X160199285Y-109227709D01*
X159605907Y-108769177D01*
X158882225Y-108572625D01*
X158138413Y-108667976D01*
X157487709Y-109040713D01*
X157029177Y-109634092D01*
X156882239Y-110175099D01*
X156816695Y-111125529D01*
X156837162Y-111285186D01*
X156790889Y-111466061D01*
X156897199Y-112208386D01*
X157182992Y-112690675D01*
X158357393Y-113999567D01*
X157699152Y-113341326D01*
X156732921Y-112941100D01*
X155687079Y-112941100D01*
X154720848Y-113341326D01*
X154062600Y-113999574D01*
X155237008Y-112690675D01*
X155522802Y-112208387D01*
X155629111Y-111466061D01*
X155582838Y-111285186D01*
X155603305Y-111125530D01*
X155537761Y-110175100D01*
X155390824Y-109634092D01*
X154932291Y-109040714D01*
X154281587Y-108667976D01*
X154055773Y-108639028D01*
X154529801Y-108165001D01*
X163030152Y-108165001D01*
X163104999Y-108179889D01*
X163179846Y-108165001D01*
X163179851Y-108165001D01*
X163401536Y-108120905D01*
X163652928Y-107952930D01*
X163695330Y-107889471D01*
X166409802Y-105175000D01*
X166575874Y-105175000D01*
X166956280Y-105017431D01*
X167247431Y-104726280D01*
X167405000Y-104345874D01*
X167405000Y-103946547D01*
X167642455Y-104184002D01*
X167642455Y-104184002D01*
G37*
X167642455Y-104184002D02*
X168022861Y-104341571D01*
X168188934Y-104341571D01*
X171110299Y-107262937D01*
X170966418Y-107359076D01*
X170902071Y-107402071D01*
X170859671Y-107465527D01*
X167898699Y-110426500D01*
X167374750Y-110426500D01*
X166884633Y-110629513D01*
X166514146Y-111000000D01*
X164144803Y-111000000D01*
X162325000Y-109180199D01*
X162325000Y-109014126D01*
X162167431Y-108633720D01*
X161876280Y-108342569D01*
X161495874Y-108185000D01*
X161084126Y-108185000D01*
X160703720Y-108342569D01*
X160412569Y-108633720D01*
X160255000Y-109014126D01*
X160255000Y-109324973D01*
X160199285Y-109227709D01*
X159605907Y-108769177D01*
X158882225Y-108572625D01*
X158138413Y-108667976D01*
X157487709Y-109040713D01*
X157029177Y-109634092D01*
X156882239Y-110175099D01*
X156816695Y-111125529D01*
X156837162Y-111285186D01*
X156790889Y-111466061D01*
X156897199Y-112208386D01*
X157182992Y-112690675D01*
X158357393Y-113999567D01*
X157699152Y-113341326D01*
X156732921Y-112941100D01*
X155687079Y-112941100D01*
X154720848Y-113341326D01*
X154062600Y-113999574D01*
X155237008Y-112690675D01*
X155522802Y-112208387D01*
X155629111Y-111466061D01*
X155582838Y-111285186D01*
X155603305Y-111125530D01*
X155537761Y-110175100D01*
X155390824Y-109634092D01*
X154932291Y-109040714D01*
X154281587Y-108667976D01*
X154055773Y-108639028D01*
X154529801Y-108165001D01*
X163030152Y-108165001D01*
X163104999Y-108179889D01*
X163179846Y-108165001D01*
X163179851Y-108165001D01*
X163401536Y-108120905D01*
X163652928Y-107952930D01*
X163695330Y-107889471D01*
X166409802Y-105175000D01*
X166575874Y-105175000D01*
X166956280Y-105017431D01*
X167247431Y-104726280D01*
X167405000Y-104345874D01*
X167405000Y-103946547D01*
X167642455Y-104184002D01*
G36*
X150252569Y-102186280D02*
X150543720Y-102477431D01*
X150924126Y-102635000D01*
X151090199Y-102635000D01*
X151189991Y-102734792D01*
X151189990Y-105128330D01*
X151127071Y-105170371D01*
X151084671Y-105233827D01*
X151084670Y-105233828D01*
X150966956Y-105410000D01*
X150959096Y-105421763D01*
X150914999Y-105643448D01*
X150914999Y-105643453D01*
X150900111Y-105718300D01*
X150914999Y-105793147D01*
X150914999Y-106339455D01*
X150900111Y-106414302D01*
X150914999Y-106489149D01*
X150914999Y-106489153D01*
X150959095Y-106710838D01*
X151127070Y-106962231D01*
X151190529Y-107004633D01*
X151375896Y-107190000D01*
X150563711Y-107190000D01*
X150446280Y-107072569D01*
X150065874Y-106915000D01*
X149654126Y-106915000D01*
X149273720Y-107072569D01*
X148982569Y-107363720D01*
X148825000Y-107744126D01*
X148825000Y-108155874D01*
X148982569Y-108536280D01*
X149273720Y-108827431D01*
X149654126Y-108985000D01*
X150065874Y-108985000D01*
X150446280Y-108827431D01*
X150563711Y-108710000D01*
X151835198Y-108710000D01*
X149419455Y-111125744D01*
X149176280Y-110882569D01*
X148795874Y-110725000D01*
X148384126Y-110725000D01*
X148003720Y-110882569D01*
X147886289Y-111000000D01*
X146753711Y-111000000D01*
X146636280Y-110882569D01*
X146255874Y-110725000D01*
X145844126Y-110725000D01*
X145665000Y-110799196D01*
X145665000Y-107482161D01*
X145682337Y-107395000D01*
X145665000Y-107307839D01*
X145665000Y-107307835D01*
X145613652Y-107049690D01*
X145597361Y-107025309D01*
X145467424Y-106830845D01*
X145467423Y-106830844D01*
X145418049Y-106756951D01*
X145344156Y-106707577D01*
X144152464Y-105515885D01*
X144479384Y-105651300D01*
X145080616Y-105651300D01*
X145636083Y-105421218D01*
X146061218Y-104996083D01*
X146101017Y-104900000D01*
X147268983Y-104900000D01*
X147308782Y-104996083D01*
X147733917Y-105421218D01*
X148289384Y-105651300D01*
X148890616Y-105651300D01*
X149446083Y-105421218D01*
X149871218Y-104996083D01*
X150101300Y-104440616D01*
X150101300Y-103839384D01*
X149871218Y-103283917D01*
X149457301Y-102870000D01*
X149871218Y-102456083D01*
X150101300Y-101900616D01*
X150101300Y-101821084D01*
X150252569Y-102186280D01*
X150252569Y-102186280D01*
G37*
X150252569Y-102186280D02*
X150543720Y-102477431D01*
X150924126Y-102635000D01*
X151090199Y-102635000D01*
X151189991Y-102734792D01*
X151189990Y-105128330D01*
X151127071Y-105170371D01*
X151084671Y-105233827D01*
X151084670Y-105233828D01*
X150966956Y-105410000D01*
X150959096Y-105421763D01*
X150914999Y-105643448D01*
X150914999Y-105643453D01*
X150900111Y-105718300D01*
X150914999Y-105793147D01*
X150914999Y-106339455D01*
X150900111Y-106414302D01*
X150914999Y-106489149D01*
X150914999Y-106489153D01*
X150959095Y-106710838D01*
X151127070Y-106962231D01*
X151190529Y-107004633D01*
X151375896Y-107190000D01*
X150563711Y-107190000D01*
X150446280Y-107072569D01*
X150065874Y-106915000D01*
X149654126Y-106915000D01*
X149273720Y-107072569D01*
X148982569Y-107363720D01*
X148825000Y-107744126D01*
X148825000Y-108155874D01*
X148982569Y-108536280D01*
X149273720Y-108827431D01*
X149654126Y-108985000D01*
X150065874Y-108985000D01*
X150446280Y-108827431D01*
X150563711Y-108710000D01*
X151835198Y-108710000D01*
X149419455Y-111125744D01*
X149176280Y-110882569D01*
X148795874Y-110725000D01*
X148384126Y-110725000D01*
X148003720Y-110882569D01*
X147886289Y-111000000D01*
X146753711Y-111000000D01*
X146636280Y-110882569D01*
X146255874Y-110725000D01*
X145844126Y-110725000D01*
X145665000Y-110799196D01*
X145665000Y-107482161D01*
X145682337Y-107395000D01*
X145665000Y-107307839D01*
X145665000Y-107307835D01*
X145613652Y-107049690D01*
X145597361Y-107025309D01*
X145467424Y-106830845D01*
X145467423Y-106830844D01*
X145418049Y-106756951D01*
X145344156Y-106707577D01*
X144152464Y-105515885D01*
X144479384Y-105651300D01*
X145080616Y-105651300D01*
X145636083Y-105421218D01*
X146061218Y-104996083D01*
X146101017Y-104900000D01*
X147268983Y-104900000D01*
X147308782Y-104996083D01*
X147733917Y-105421218D01*
X148289384Y-105651300D01*
X148890616Y-105651300D01*
X149446083Y-105421218D01*
X149871218Y-104996083D01*
X150101300Y-104440616D01*
X150101300Y-103839384D01*
X149871218Y-103283917D01*
X149457301Y-102870000D01*
X149871218Y-102456083D01*
X150101300Y-101900616D01*
X150101300Y-101821084D01*
X150252569Y-102186280D01*
G36*
X176212560Y-102975000D02*
X176261843Y-103222765D01*
X176402191Y-103432809D01*
X176431217Y-103452204D01*
X174695847Y-105187575D01*
X174621951Y-105236951D01*
X174426348Y-105529691D01*
X174375000Y-105787836D01*
X174375000Y-105787839D01*
X174357663Y-105875000D01*
X174375000Y-105962161D01*
X174375000Y-106111993D01*
X174225000Y-106474126D01*
X174225000Y-106885874D01*
X174350973Y-107190000D01*
X174187666Y-107190000D01*
X174205001Y-107102853D01*
X174205001Y-107102849D01*
X174219889Y-107028001D01*
X174205001Y-106953153D01*
X174205001Y-106406846D01*
X174219889Y-106331999D01*
X174205001Y-106257152D01*
X174205001Y-106257147D01*
X174160905Y-106035462D01*
X173992930Y-105784070D01*
X173929474Y-105741670D01*
X172175000Y-103987197D01*
X172175000Y-103622440D01*
X173660000Y-103622440D01*
X173907765Y-103573157D01*
X174117809Y-103432809D01*
X174258157Y-103222765D01*
X174307440Y-102975000D01*
X174307440Y-102004902D01*
X174382569Y-102186280D01*
X174673720Y-102477431D01*
X175054126Y-102635000D01*
X175465874Y-102635000D01*
X175846280Y-102477431D01*
X176137431Y-102186280D01*
X176212560Y-102004902D01*
X176212560Y-102975000D01*
X176212560Y-102975000D01*
G37*
X176212560Y-102975000D02*
X176261843Y-103222765D01*
X176402191Y-103432809D01*
X176431217Y-103452204D01*
X174695847Y-105187575D01*
X174621951Y-105236951D01*
X174426348Y-105529691D01*
X174375000Y-105787836D01*
X174375000Y-105787839D01*
X174357663Y-105875000D01*
X174375000Y-105962161D01*
X174375000Y-106111993D01*
X174225000Y-106474126D01*
X174225000Y-106885874D01*
X174350973Y-107190000D01*
X174187666Y-107190000D01*
X174205001Y-107102853D01*
X174205001Y-107102849D01*
X174219889Y-107028001D01*
X174205001Y-106953153D01*
X174205001Y-106406846D01*
X174219889Y-106331999D01*
X174205001Y-106257152D01*
X174205001Y-106257147D01*
X174160905Y-106035462D01*
X173992930Y-105784070D01*
X173929474Y-105741670D01*
X172175000Y-103987197D01*
X172175000Y-103622440D01*
X173660000Y-103622440D01*
X173907765Y-103573157D01*
X174117809Y-103432809D01*
X174258157Y-103222765D01*
X174307440Y-102975000D01*
X174307440Y-102004902D01*
X174382569Y-102186280D01*
X174673720Y-102477431D01*
X175054126Y-102635000D01*
X175465874Y-102635000D01*
X175846280Y-102477431D01*
X176137431Y-102186280D01*
X176212560Y-102004902D01*
X176212560Y-102975000D01*
G36*
X157162560Y-101225000D02*
X157211843Y-101472765D01*
X157296859Y-101600000D01*
X157211843Y-101727235D01*
X157162560Y-101975000D01*
X157162560Y-102975000D01*
X157211843Y-103222765D01*
X157352191Y-103432809D01*
X157562235Y-103573157D01*
X157810000Y-103622440D01*
X158250862Y-103622440D01*
X160602579Y-105974158D01*
X160651952Y-106048049D01*
X160725843Y-106097422D01*
X161273422Y-106645001D01*
X154779800Y-106645001D01*
X156694473Y-104730329D01*
X156757929Y-104687929D01*
X156833386Y-104575000D01*
X156925904Y-104436538D01*
X156937679Y-104377338D01*
X156970000Y-104214852D01*
X156970000Y-104214848D01*
X156984888Y-104140000D01*
X156970000Y-104065152D01*
X156970000Y-101033711D01*
X157087431Y-100916280D01*
X157162560Y-100734902D01*
X157162560Y-101225000D01*
X157162560Y-101225000D01*
G37*
X157162560Y-101225000D02*
X157211843Y-101472765D01*
X157296859Y-101600000D01*
X157211843Y-101727235D01*
X157162560Y-101975000D01*
X157162560Y-102975000D01*
X157211843Y-103222765D01*
X157352191Y-103432809D01*
X157562235Y-103573157D01*
X157810000Y-103622440D01*
X158250862Y-103622440D01*
X160602579Y-105974158D01*
X160651952Y-106048049D01*
X160725843Y-106097422D01*
X161273422Y-106645001D01*
X154779800Y-106645001D01*
X156694473Y-104730329D01*
X156757929Y-104687929D01*
X156833386Y-104575000D01*
X156925904Y-104436538D01*
X156937679Y-104377338D01*
X156970000Y-104214852D01*
X156970000Y-104214848D01*
X156984888Y-104140000D01*
X156970000Y-104065152D01*
X156970000Y-101033711D01*
X157087431Y-100916280D01*
X157162560Y-100734902D01*
X157162560Y-101225000D01*
G36*
X153937000Y-100598000D02*
X154546670Y-100598000D01*
X154573464Y-100615903D01*
X154795149Y-100659999D01*
X154795153Y-100659999D01*
X154870000Y-100674887D01*
X154944847Y-100659999D01*
X155226414Y-100659999D01*
X155332569Y-100916280D01*
X155450001Y-101033712D01*
X155450000Y-103825198D01*
X153842984Y-105432215D01*
X153840905Y-105421763D01*
X153672930Y-105170371D01*
X153610010Y-105128329D01*
X153610010Y-103749791D01*
X153737361Y-103622440D01*
X154610000Y-103622440D01*
X154857765Y-103573157D01*
X155067809Y-103432809D01*
X155208157Y-103222765D01*
X155257440Y-102975000D01*
X155257440Y-101975000D01*
X155208157Y-101727235D01*
X155127100Y-101605926D01*
X155148327Y-101584699D01*
X155245000Y-101351310D01*
X155245000Y-101010750D01*
X155086250Y-100852000D01*
X153937000Y-100852000D01*
X153937000Y-100872000D01*
X153683000Y-100872000D01*
X153683000Y-100852000D01*
X153663000Y-100852000D01*
X153663000Y-100598000D01*
X153683000Y-100598000D01*
X153683000Y-100578000D01*
X153937000Y-100578000D01*
X153937000Y-100598000D01*
X153937000Y-100598000D01*
G37*
X153937000Y-100598000D02*
X154546670Y-100598000D01*
X154573464Y-100615903D01*
X154795149Y-100659999D01*
X154795153Y-100659999D01*
X154870000Y-100674887D01*
X154944847Y-100659999D01*
X155226414Y-100659999D01*
X155332569Y-100916280D01*
X155450001Y-101033712D01*
X155450000Y-103825198D01*
X153842984Y-105432215D01*
X153840905Y-105421763D01*
X153672930Y-105170371D01*
X153610010Y-105128329D01*
X153610010Y-103749791D01*
X153737361Y-103622440D01*
X154610000Y-103622440D01*
X154857765Y-103573157D01*
X155067809Y-103432809D01*
X155208157Y-103222765D01*
X155257440Y-102975000D01*
X155257440Y-101975000D01*
X155208157Y-101727235D01*
X155127100Y-101605926D01*
X155148327Y-101584699D01*
X155245000Y-101351310D01*
X155245000Y-101010750D01*
X155086250Y-100852000D01*
X153937000Y-100852000D01*
X153937000Y-100872000D01*
X153683000Y-100872000D01*
X153683000Y-100852000D01*
X153663000Y-100852000D01*
X153663000Y-100598000D01*
X153683000Y-100598000D01*
X153683000Y-100578000D01*
X153937000Y-100578000D01*
X153937000Y-100598000D01*
G36*
X133144126Y-100095000D02*
X133326528Y-100095000D01*
X133325000Y-100098690D01*
X133325000Y-100439250D01*
X133483750Y-100598000D01*
X134633000Y-100598000D01*
X134633000Y-100578000D01*
X134887000Y-100578000D01*
X134887000Y-100598000D01*
X134907000Y-100598000D01*
X134907000Y-100852000D01*
X134887000Y-100852000D01*
X134887000Y-100872000D01*
X134633000Y-100872000D01*
X134633000Y-100852000D01*
X133483750Y-100852000D01*
X133325000Y-101010750D01*
X133325000Y-101351310D01*
X133421673Y-101584699D01*
X133442900Y-101605926D01*
X133361843Y-101727235D01*
X133312560Y-101975000D01*
X133312560Y-102975000D01*
X133361843Y-103222765D01*
X133502191Y-103432809D01*
X133712235Y-103573157D01*
X133960000Y-103622440D01*
X135560000Y-103622440D01*
X135807765Y-103573157D01*
X136017809Y-103432809D01*
X136158157Y-103222765D01*
X136207440Y-102975000D01*
X136207440Y-102402362D01*
X136353045Y-102256756D01*
X136573720Y-102477431D01*
X136879381Y-102604040D01*
X134902121Y-104581301D01*
X130993026Y-104581301D01*
X131051300Y-104440616D01*
X131051300Y-103839384D01*
X130821218Y-103283917D01*
X130765014Y-103227713D01*
X132384472Y-101608256D01*
X132447928Y-101565856D01*
X132517804Y-101461280D01*
X132615903Y-101314465D01*
X132633676Y-101225111D01*
X132659999Y-101092779D01*
X132659999Y-101092775D01*
X132674665Y-101019045D01*
X132777430Y-100916280D01*
X132934999Y-100535874D01*
X132934999Y-100124126D01*
X132877125Y-99984405D01*
X133144126Y-100095000D01*
X133144126Y-100095000D01*
G37*
X133144126Y-100095000D02*
X133326528Y-100095000D01*
X133325000Y-100098690D01*
X133325000Y-100439250D01*
X133483750Y-100598000D01*
X134633000Y-100598000D01*
X134633000Y-100578000D01*
X134887000Y-100578000D01*
X134887000Y-100598000D01*
X134907000Y-100598000D01*
X134907000Y-100852000D01*
X134887000Y-100852000D01*
X134887000Y-100872000D01*
X134633000Y-100872000D01*
X134633000Y-100852000D01*
X133483750Y-100852000D01*
X133325000Y-101010750D01*
X133325000Y-101351310D01*
X133421673Y-101584699D01*
X133442900Y-101605926D01*
X133361843Y-101727235D01*
X133312560Y-101975000D01*
X133312560Y-102975000D01*
X133361843Y-103222765D01*
X133502191Y-103432809D01*
X133712235Y-103573157D01*
X133960000Y-103622440D01*
X135560000Y-103622440D01*
X135807765Y-103573157D01*
X136017809Y-103432809D01*
X136158157Y-103222765D01*
X136207440Y-102975000D01*
X136207440Y-102402362D01*
X136353045Y-102256756D01*
X136573720Y-102477431D01*
X136879381Y-102604040D01*
X134902121Y-104581301D01*
X130993026Y-104581301D01*
X131051300Y-104440616D01*
X131051300Y-103839384D01*
X130821218Y-103283917D01*
X130765014Y-103227713D01*
X132384472Y-101608256D01*
X132447928Y-101565856D01*
X132517804Y-101461280D01*
X132615903Y-101314465D01*
X132633676Y-101225111D01*
X132659999Y-101092779D01*
X132659999Y-101092775D01*
X132674665Y-101019045D01*
X132777430Y-100916280D01*
X132934999Y-100535874D01*
X132934999Y-100124126D01*
X132877125Y-99984405D01*
X133144126Y-100095000D01*
G36*
X174225000Y-101677612D02*
X174177100Y-101605926D01*
X174198327Y-101584699D01*
X174225000Y-101520305D01*
X174225000Y-101677612D01*
X174225000Y-101677612D01*
G37*
X174225000Y-101677612D02*
X174177100Y-101605926D01*
X174198327Y-101584699D01*
X174225000Y-101520305D01*
X174225000Y-101677612D01*
G04 #@! TD*
M02*
