M48
;DRILL file {KiCad (5.0.1-3-g963ef8bb5)} date 2019 January 31, Thursday 02:17:36
;FORMAT={-:-/ absolute / metric / decimal}
FMAT,2
METRIC,TZ
T1C0.400
T2C0.813
T3C0.990
T4C1.000
T5C1.092
T6C1.300
T7C1.500
%
G90
G05
M71
T1
X113.03Y-101.6
X113.265Y-119.38
X115.57Y-106.68
X116.84Y-99.06
X118.11Y-88.9
X118.11Y-104.575
X118.11Y-119.38
X119.38Y-124.46
X122.717Y-102.073
X123.19Y-120.65
X127.Y-124.46
X128.27Y-107.95
X131.9Y-100.33
X132.08Y-120.65
X132.212Y-101.732
X133.35Y-87.63
X133.35Y-99.06
X133.35Y-123.19
X134.62Y-106.68
X134.62Y-124.46
X136.976Y-105.594
X137.16Y-100.362
X137.16Y-101.6
X137.16Y-120.65
X139.7Y-104.14
X142.24Y-106.68
X142.24Y-120.65
X142.62Y-100.875
X144.78Y-116.84
X146.05Y-111.76
X148.59Y-106.68
X148.59Y-111.76
X149.86Y-107.95
X149.86Y-116.84
X150.981Y-99.209
X151.13Y-85.746
X151.13Y-88.9
X151.13Y-101.6
X151.13Y-104.14
X151.635Y-120.65
X152.4Y-82.55
X152.4Y-106.066
X153.67Y-87.63
X153.67Y-104.14
X153.67Y-118.11
X153.973Y-97.834
X155.318Y-118.11
X156.21Y-100.33
X157.48Y-104.14
X157.48Y-104.14
X158.75Y-87.63
X158.75Y-124.46
X160.02Y-106.68
X160.565Y-86.905
X161.29Y-100.33
X161.29Y-109.22
X162.56Y-102.87
X162.56Y-106.68
X162.56Y-109.22
X163.83Y-115.855
X166.37Y-76.2
X166.37Y-104.14
X168.229Y-103.307
X168.91Y-107.95
X168.91Y-124.46
X170.415Y-119.38
X172.72Y-106.68
X172.72Y-118.11
X173.99Y-105.83
X175.26Y-101.6
X175.26Y-106.68
X175.26Y-120.65
X180.34Y-99.345
X180.34Y-118.11
X185.42Y-90.17
X185.42Y-100.33
T2
X182.88Y-92.71
X182.88Y-100.33
X110.49Y-111.76
X110.49Y-119.38
X125.73Y-92.71
X125.73Y-100.33
X167.64Y-92.71
X167.64Y-100.33
X182.88Y-111.76
X182.88Y-119.38
X167.64Y-111.76
X167.64Y-119.38
X110.49Y-92.71
X110.49Y-100.33
X125.73Y-111.76
X125.73Y-119.38
T3
X119.46Y-80.01
X124.46Y-80.01
T5
X129.54Y-76.2
X129.54Y-78.74
X129.54Y-81.28
X129.54Y-83.82
X129.54Y-86.36
X129.54Y-88.9
X129.54Y-91.44
X129.54Y-93.98
X129.54Y-96.52
X129.54Y-99.06
X129.54Y-101.6
X129.54Y-104.14
X144.78Y-76.2
X144.78Y-78.74
X144.78Y-81.28
X144.78Y-83.82
X144.78Y-86.36
X144.78Y-88.9
X144.78Y-91.44
X144.78Y-93.98
X144.78Y-96.52
X144.78Y-99.06
X144.78Y-101.6
X144.78Y-104.14
X148.59Y-76.2
X148.59Y-78.74
X148.59Y-81.28
X148.59Y-83.82
X148.59Y-86.36
X148.59Y-88.9
X148.59Y-91.44
X148.59Y-93.98
X148.59Y-96.52
X148.59Y-99.06
X148.59Y-101.6
X148.59Y-104.14
X163.83Y-76.2
X163.83Y-78.74
X163.83Y-81.28
X163.83Y-83.82
X163.83Y-86.36
X163.83Y-88.9
X163.83Y-91.44
X163.83Y-93.98
X163.83Y-96.52
X163.83Y-99.06
X163.83Y-101.6
X163.83Y-104.14
T6
X118.45Y-82.5
X125.46Y-82.5
T7
X152.4Y-93.98
X153.67Y-91.44
X153.71Y-92.02
X153.71Y-92.52
X158.71Y-92.02
X158.71Y-92.52
X158.75Y-91.44
X160.02Y-93.98
X152.4Y-113.03
X153.67Y-110.49
X153.71Y-111.07
X153.71Y-111.57
X158.71Y-111.07
X158.71Y-111.57
X158.75Y-110.49
X160.02Y-113.03
X114.3Y-113.03
X115.57Y-110.49
X115.61Y-111.07
X115.61Y-111.57
X120.61Y-111.07
X120.61Y-111.57
X120.65Y-110.49
X121.92Y-113.03
X171.45Y-93.98
X172.72Y-91.44
X172.76Y-92.02
X172.76Y-92.52
X177.76Y-92.02
X177.76Y-92.52
X177.8Y-91.44
X179.07Y-93.98
X133.35Y-93.98
X134.62Y-91.44
X134.66Y-92.02
X134.66Y-92.52
X139.66Y-92.02
X139.66Y-92.52
X139.7Y-91.44
X140.97Y-93.98
X114.3Y-93.98
X115.57Y-91.44
X115.61Y-92.02
X115.61Y-92.52
X120.61Y-92.02
X120.61Y-92.52
X120.65Y-91.44
X121.92Y-93.98
X171.45Y-113.03
X172.72Y-110.49
X172.76Y-111.07
X172.76Y-111.57
X177.76Y-111.07
X177.76Y-111.57
X177.8Y-110.49
X179.07Y-113.03
X133.35Y-113.03
X134.62Y-110.49
X134.66Y-111.07
X134.66Y-111.57
X139.66Y-111.07
X139.66Y-111.57
X139.7Y-110.49
X140.97Y-113.03
T4
X170.58Y-78.53G85X170.58Y-78.03
G05
X170.58Y-81.53G85X170.58Y-81.03
G05
X170.58Y-85.53G85X170.58Y-85.03
G05
X172.33Y-87.03G85X172.33Y-86.53
G05
X174.78Y-87.03G85X174.78Y-86.53
G05
X176.53Y-78.53G85X176.53Y-78.03
G05
X176.53Y-81.53G85X176.53Y-81.03
G05
X176.53Y-85.53G85X176.53Y-85.03
G05
T0
M30
