G04 #@! TF.GenerationSoftware,KiCad,Pcbnew,(5.0.1-3-g963ef8bb5)*
G04 #@! TF.CreationDate,2019-01-31T02:17:08+09:00*
G04 #@! TF.ProjectId,mykeyboard,6D796B6579626F6172642E6B69636164,rev?*
G04 #@! TF.SameCoordinates,Original*
G04 #@! TF.FileFunction,Soldermask,Top*
G04 #@! TF.FilePolarity,Negative*
%FSLAX46Y46*%
G04 Gerber Fmt 4.6, Leading zero omitted, Abs format (unit mm)*
G04 Created by KiCad (PCBNEW (5.0.1-3-g963ef8bb5)) date 2019 January 31, Thursday 02:17:08*
%MOMM*%
%LPD*%
G01*
G04 APERTURE LIST*
%ADD10C,0.100000*%
G04 APERTURE END LIST*
D10*
G36*
X188704096Y-122007033D02*
X188704098Y-122007034D01*
X188704099Y-122007034D01*
X189168352Y-122199333D01*
X189584284Y-122477250D01*
X189586171Y-122478511D01*
X189941489Y-122833829D01*
X189941491Y-122833832D01*
X190220667Y-123251648D01*
X190412966Y-123715901D01*
X190511000Y-124208748D01*
X190511000Y-124711252D01*
X190412966Y-125204099D01*
X190220667Y-125668352D01*
X189942750Y-126084284D01*
X189941489Y-126086171D01*
X189586171Y-126441489D01*
X189586168Y-126441491D01*
X189168352Y-126720667D01*
X188704099Y-126912966D01*
X188704098Y-126912966D01*
X188704096Y-126912967D01*
X188211253Y-127011000D01*
X187708747Y-127011000D01*
X187215904Y-126912967D01*
X187215902Y-126912966D01*
X187215901Y-126912966D01*
X186751648Y-126720667D01*
X186333832Y-126441491D01*
X186333829Y-126441489D01*
X185978511Y-126086171D01*
X185977250Y-126084284D01*
X185699333Y-125668352D01*
X185507034Y-125204099D01*
X185409000Y-124711252D01*
X185409000Y-124208748D01*
X185507034Y-123715901D01*
X185699333Y-123251648D01*
X185978509Y-122833832D01*
X185978511Y-122833829D01*
X186333829Y-122478511D01*
X186335716Y-122477250D01*
X186751648Y-122199333D01*
X187215901Y-122007034D01*
X187215902Y-122007034D01*
X187215904Y-122007033D01*
X187708747Y-121909000D01*
X188211253Y-121909000D01*
X188704096Y-122007033D01*
X188704096Y-122007033D01*
G37*
G36*
X112504096Y-122007033D02*
X112504098Y-122007034D01*
X112504099Y-122007034D01*
X112968352Y-122199333D01*
X113384284Y-122477250D01*
X113386171Y-122478511D01*
X113741489Y-122833829D01*
X113741491Y-122833832D01*
X114020667Y-123251648D01*
X114212966Y-123715901D01*
X114311000Y-124208748D01*
X114311000Y-124711252D01*
X114212966Y-125204099D01*
X114020667Y-125668352D01*
X113742750Y-126084284D01*
X113741489Y-126086171D01*
X113386171Y-126441489D01*
X113386168Y-126441491D01*
X112968352Y-126720667D01*
X112504099Y-126912966D01*
X112504098Y-126912966D01*
X112504096Y-126912967D01*
X112011253Y-127011000D01*
X111508747Y-127011000D01*
X111015904Y-126912967D01*
X111015902Y-126912966D01*
X111015901Y-126912966D01*
X110551648Y-126720667D01*
X110133832Y-126441491D01*
X110133829Y-126441489D01*
X109778511Y-126086171D01*
X109777250Y-126084284D01*
X109499333Y-125668352D01*
X109307034Y-125204099D01*
X109209000Y-124711252D01*
X109209000Y-124208748D01*
X109307034Y-123715901D01*
X109499333Y-123251648D01*
X109778509Y-122833832D01*
X109778511Y-122833829D01*
X110133829Y-122478511D01*
X110135716Y-122477250D01*
X110551648Y-122199333D01*
X111015901Y-122007034D01*
X111015902Y-122007034D01*
X111015904Y-122007033D01*
X111508747Y-121909000D01*
X112011253Y-121909000D01*
X112504096Y-122007033D01*
X112504096Y-122007033D01*
G37*
G36*
X178511000Y-122076000D02*
X176809000Y-122076000D01*
X176809000Y-120974000D01*
X178511000Y-120974000D01*
X178511000Y-122076000D01*
X178511000Y-122076000D01*
G37*
G36*
X173711000Y-122076000D02*
X172009000Y-122076000D01*
X172009000Y-120974000D01*
X173711000Y-120974000D01*
X173711000Y-122076000D01*
X173711000Y-122076000D01*
G37*
G36*
X159461000Y-122076000D02*
X157759000Y-122076000D01*
X157759000Y-120974000D01*
X159461000Y-120974000D01*
X159461000Y-122076000D01*
X159461000Y-122076000D01*
G37*
G36*
X154661000Y-122076000D02*
X152959000Y-122076000D01*
X152959000Y-120974000D01*
X154661000Y-120974000D01*
X154661000Y-122076000D01*
X154661000Y-122076000D01*
G37*
G36*
X140411000Y-122076000D02*
X138709000Y-122076000D01*
X138709000Y-120974000D01*
X140411000Y-120974000D01*
X140411000Y-122076000D01*
X140411000Y-122076000D01*
G37*
G36*
X135611000Y-122076000D02*
X133909000Y-122076000D01*
X133909000Y-120974000D01*
X135611000Y-120974000D01*
X135611000Y-122076000D01*
X135611000Y-122076000D01*
G37*
G36*
X121361000Y-122076000D02*
X119659000Y-122076000D01*
X119659000Y-120974000D01*
X121361000Y-120974000D01*
X121361000Y-122076000D01*
X121361000Y-122076000D01*
G37*
G36*
X116561000Y-122076000D02*
X114859000Y-122076000D01*
X114859000Y-120974000D01*
X116561000Y-120974000D01*
X116561000Y-122076000D01*
X116561000Y-122076000D01*
G37*
G36*
X159461000Y-120326000D02*
X157759000Y-120326000D01*
X157759000Y-119224000D01*
X159461000Y-119224000D01*
X159461000Y-120326000D01*
X159461000Y-120326000D01*
G37*
G36*
X173711000Y-120326000D02*
X172009000Y-120326000D01*
X172009000Y-119224000D01*
X173711000Y-119224000D01*
X173711000Y-120326000D01*
X173711000Y-120326000D01*
G37*
G36*
X178511000Y-120326000D02*
X176809000Y-120326000D01*
X176809000Y-119224000D01*
X178511000Y-119224000D01*
X178511000Y-120326000D01*
X178511000Y-120326000D01*
G37*
G36*
X154661000Y-120326000D02*
X152959000Y-120326000D01*
X152959000Y-119224000D01*
X154661000Y-119224000D01*
X154661000Y-120326000D01*
X154661000Y-120326000D01*
G37*
G36*
X140411000Y-120326000D02*
X138709000Y-120326000D01*
X138709000Y-119224000D01*
X140411000Y-119224000D01*
X140411000Y-120326000D01*
X140411000Y-120326000D01*
G37*
G36*
X135611000Y-120326000D02*
X133909000Y-120326000D01*
X133909000Y-119224000D01*
X135611000Y-119224000D01*
X135611000Y-120326000D01*
X135611000Y-120326000D01*
G37*
G36*
X121361000Y-120326000D02*
X119659000Y-120326000D01*
X119659000Y-119224000D01*
X121361000Y-119224000D01*
X121361000Y-120326000D01*
X121361000Y-120326000D01*
G37*
G36*
X116561000Y-120326000D02*
X114859000Y-120326000D01*
X114859000Y-119224000D01*
X116561000Y-119224000D01*
X116561000Y-120326000D01*
X116561000Y-120326000D01*
G37*
G36*
X148133000Y-120193000D02*
X146507000Y-120193000D01*
X146507000Y-118567000D01*
X148133000Y-118567000D01*
X148133000Y-120193000D01*
X148133000Y-120193000D01*
G37*
G36*
X126479500Y-120129500D02*
X124980500Y-120129500D01*
X124980500Y-118630500D01*
X126479500Y-118630500D01*
X126479500Y-120129500D01*
X126479500Y-120129500D01*
G37*
G36*
X168389500Y-120129500D02*
X166890500Y-120129500D01*
X166890500Y-118630500D01*
X168389500Y-118630500D01*
X168389500Y-120129500D01*
X168389500Y-120129500D01*
G37*
G36*
X183629500Y-120129500D02*
X182130500Y-120129500D01*
X182130500Y-118630500D01*
X183629500Y-118630500D01*
X183629500Y-120129500D01*
X183629500Y-120129500D01*
G37*
G36*
X111239500Y-120129500D02*
X109740500Y-120129500D01*
X109740500Y-118630500D01*
X111239500Y-118630500D01*
X111239500Y-120129500D01*
X111239500Y-120129500D01*
G37*
G36*
X111016000Y-118046000D02*
X109964000Y-118046000D01*
X109964000Y-116644000D01*
X111016000Y-116644000D01*
X111016000Y-118046000D01*
X111016000Y-118046000D01*
G37*
G36*
X126256000Y-118046000D02*
X125204000Y-118046000D01*
X125204000Y-116644000D01*
X126256000Y-116644000D01*
X126256000Y-118046000D01*
X126256000Y-118046000D01*
G37*
G36*
X168166000Y-118046000D02*
X167114000Y-118046000D01*
X167114000Y-116644000D01*
X168166000Y-116644000D01*
X168166000Y-118046000D01*
X168166000Y-118046000D01*
G37*
G36*
X183406000Y-118046000D02*
X182354000Y-118046000D01*
X182354000Y-116644000D01*
X183406000Y-116644000D01*
X183406000Y-118046000D01*
X183406000Y-118046000D01*
G37*
G36*
X148133000Y-117653000D02*
X146507000Y-117653000D01*
X146507000Y-116027000D01*
X148133000Y-116027000D01*
X148133000Y-117653000D01*
X148133000Y-117653000D01*
G37*
G36*
X148133000Y-115113000D02*
X146507000Y-115113000D01*
X146507000Y-113487000D01*
X148133000Y-113487000D01*
X148133000Y-115113000D01*
X148133000Y-115113000D01*
G37*
G36*
X111016000Y-114496000D02*
X109964000Y-114496000D01*
X109964000Y-113094000D01*
X111016000Y-113094000D01*
X111016000Y-114496000D01*
X111016000Y-114496000D01*
G37*
G36*
X126256000Y-114496000D02*
X125204000Y-114496000D01*
X125204000Y-113094000D01*
X126256000Y-113094000D01*
X126256000Y-114496000D01*
X126256000Y-114496000D01*
G37*
G36*
X168166000Y-114496000D02*
X167114000Y-114496000D01*
X167114000Y-113094000D01*
X168166000Y-113094000D01*
X168166000Y-114496000D01*
X168166000Y-114496000D01*
G37*
G36*
X183406000Y-114496000D02*
X182354000Y-114496000D01*
X182354000Y-113094000D01*
X183406000Y-113094000D01*
X183406000Y-114496000D01*
X183406000Y-114496000D01*
G37*
G36*
X172886227Y-109193317D02*
X173135998Y-109250660D01*
X173252896Y-109303147D01*
X173369791Y-109355633D01*
X173369792Y-109355634D01*
X173369794Y-109355635D01*
X173578608Y-109504195D01*
X173754434Y-109690647D01*
X173835499Y-109820027D01*
X173890502Y-109907812D01*
X173981591Y-110147353D01*
X173981591Y-110147355D01*
X174013521Y-110336735D01*
X174062313Y-111044251D01*
X174058521Y-111173514D01*
X174056682Y-111236224D01*
X174050435Y-111263435D01*
X174043044Y-111295627D01*
X174039929Y-111319932D01*
X174041321Y-111342557D01*
X174065376Y-111499300D01*
X174054085Y-111755325D01*
X173993064Y-112004230D01*
X173884657Y-112236444D01*
X173881679Y-112240502D01*
X173771022Y-112391281D01*
X172465449Y-113846365D01*
X172375676Y-113946419D01*
X172234017Y-114076112D01*
X172014868Y-114208965D01*
X171774010Y-114296511D01*
X171520705Y-114335385D01*
X171264676Y-114324094D01*
X171015772Y-114263073D01*
X170783558Y-114154666D01*
X170576955Y-114003040D01*
X170576952Y-114003038D01*
X170403898Y-113814017D01*
X170403897Y-113814015D01*
X170403895Y-113814013D01*
X170271044Y-113594867D01*
X170183498Y-113354009D01*
X170144624Y-113100704D01*
X170155915Y-112844675D01*
X170216936Y-112595771D01*
X170325344Y-112363554D01*
X170438974Y-112208724D01*
X171420949Y-111114294D01*
X171435447Y-111094539D01*
X171445813Y-111072335D01*
X171451648Y-111048536D01*
X171452614Y-111022215D01*
X171417687Y-110515748D01*
X171423318Y-110323775D01*
X171480661Y-110074003D01*
X171555282Y-109907810D01*
X171585634Y-109840210D01*
X171599993Y-109820027D01*
X171734196Y-109631393D01*
X171920648Y-109455567D01*
X172137811Y-109319500D01*
X172137812Y-109319500D01*
X172137813Y-109319499D01*
X172377354Y-109228410D01*
X172630061Y-109185804D01*
X172886227Y-109193317D01*
X172886227Y-109193317D01*
G37*
G36*
X115736227Y-109193317D02*
X115985998Y-109250660D01*
X116102896Y-109303147D01*
X116219791Y-109355633D01*
X116219792Y-109355634D01*
X116219794Y-109355635D01*
X116428608Y-109504195D01*
X116604434Y-109690647D01*
X116685499Y-109820027D01*
X116740502Y-109907812D01*
X116831591Y-110147353D01*
X116831591Y-110147355D01*
X116863521Y-110336735D01*
X116912313Y-111044251D01*
X116908521Y-111173514D01*
X116906682Y-111236224D01*
X116900435Y-111263435D01*
X116893044Y-111295627D01*
X116889929Y-111319932D01*
X116891321Y-111342557D01*
X116915376Y-111499300D01*
X116904085Y-111755325D01*
X116843064Y-112004230D01*
X116734657Y-112236444D01*
X116731679Y-112240502D01*
X116621022Y-112391281D01*
X115315449Y-113846365D01*
X115225676Y-113946419D01*
X115084017Y-114076112D01*
X114864868Y-114208965D01*
X114624010Y-114296511D01*
X114370705Y-114335385D01*
X114114676Y-114324094D01*
X113865772Y-114263073D01*
X113633558Y-114154666D01*
X113426955Y-114003040D01*
X113426952Y-114003038D01*
X113253898Y-113814017D01*
X113253897Y-113814015D01*
X113253895Y-113814013D01*
X113121044Y-113594867D01*
X113033498Y-113354009D01*
X112994624Y-113100704D01*
X113005915Y-112844675D01*
X113066936Y-112595771D01*
X113175344Y-112363554D01*
X113288974Y-112208724D01*
X114270949Y-111114294D01*
X114285447Y-111094539D01*
X114295813Y-111072335D01*
X114301648Y-111048536D01*
X114302614Y-111022215D01*
X114267687Y-110515748D01*
X114273318Y-110323775D01*
X114330661Y-110074003D01*
X114405282Y-109907810D01*
X114435634Y-109840210D01*
X114449993Y-109820027D01*
X114584196Y-109631393D01*
X114770648Y-109455567D01*
X114987811Y-109319500D01*
X114987812Y-109319500D01*
X114987813Y-109319499D01*
X115227354Y-109228410D01*
X115480061Y-109185804D01*
X115736227Y-109193317D01*
X115736227Y-109193317D01*
G37*
G36*
X178078921Y-109217665D02*
X178142646Y-109228409D01*
X178382187Y-109319498D01*
X178599354Y-109455569D01*
X178785804Y-109631392D01*
X178934367Y-109840209D01*
X179039338Y-110074001D01*
X179096682Y-110323775D01*
X179102313Y-110515749D01*
X179067386Y-111022216D01*
X179068105Y-111046710D01*
X179073588Y-111070593D01*
X179083625Y-111092947D01*
X179099050Y-111114294D01*
X180081022Y-112208719D01*
X180154866Y-112309338D01*
X180194657Y-112363556D01*
X180303064Y-112595770D01*
X180364085Y-112844675D01*
X180375376Y-113100704D01*
X180336502Y-113354009D01*
X180248956Y-113594867D01*
X180116105Y-113814013D01*
X180116103Y-113814015D01*
X180116102Y-113814017D01*
X179943048Y-114003038D01*
X179736444Y-114154665D01*
X179736442Y-114154666D01*
X179504229Y-114263073D01*
X179381392Y-114293187D01*
X179255323Y-114324095D01*
X179117793Y-114330159D01*
X178999294Y-114335385D01*
X178745989Y-114296511D01*
X178505132Y-114208965D01*
X178285983Y-114076112D01*
X178285981Y-114076111D01*
X178144323Y-113946419D01*
X177229190Y-112926486D01*
X176748974Y-112391276D01*
X176635344Y-112236446D01*
X176526936Y-112004229D01*
X176465915Y-111755325D01*
X176454624Y-111499300D01*
X176478679Y-111342557D01*
X176480004Y-111318089D01*
X176476956Y-111295627D01*
X176463318Y-111236222D01*
X176457687Y-111044252D01*
X176506479Y-110336734D01*
X176532326Y-110183435D01*
X176538409Y-110147352D01*
X176629498Y-109907812D01*
X176684501Y-109820027D01*
X176765566Y-109690647D01*
X176941392Y-109504194D01*
X177150206Y-109355634D01*
X177150208Y-109355633D01*
X177150209Y-109355632D01*
X177248638Y-109311438D01*
X177383997Y-109250661D01*
X177508888Y-109221989D01*
X177633776Y-109193317D01*
X177647971Y-109192901D01*
X177889939Y-109185803D01*
X178078921Y-109217665D01*
X178078921Y-109217665D01*
G37*
G36*
X153836227Y-109193317D02*
X154085998Y-109250660D01*
X154202896Y-109303147D01*
X154319791Y-109355633D01*
X154319792Y-109355634D01*
X154319794Y-109355635D01*
X154528608Y-109504195D01*
X154704434Y-109690647D01*
X154785499Y-109820027D01*
X154840502Y-109907812D01*
X154931591Y-110147353D01*
X154931591Y-110147355D01*
X154963521Y-110336735D01*
X155012313Y-111044251D01*
X155008521Y-111173514D01*
X155006682Y-111236224D01*
X155000435Y-111263435D01*
X154993044Y-111295627D01*
X154989929Y-111319932D01*
X154991321Y-111342557D01*
X155015376Y-111499300D01*
X155004085Y-111755325D01*
X154943064Y-112004230D01*
X154834657Y-112236444D01*
X154831679Y-112240502D01*
X154721022Y-112391281D01*
X153415449Y-113846365D01*
X153325676Y-113946419D01*
X153184017Y-114076112D01*
X152964868Y-114208965D01*
X152724010Y-114296511D01*
X152470705Y-114335385D01*
X152214676Y-114324094D01*
X151965772Y-114263073D01*
X151733558Y-114154666D01*
X151526955Y-114003040D01*
X151526952Y-114003038D01*
X151353898Y-113814017D01*
X151353897Y-113814015D01*
X151353895Y-113814013D01*
X151221044Y-113594867D01*
X151133498Y-113354009D01*
X151094624Y-113100704D01*
X151105915Y-112844675D01*
X151166936Y-112595771D01*
X151275344Y-112363554D01*
X151388974Y-112208724D01*
X152370949Y-111114294D01*
X152385447Y-111094539D01*
X152395813Y-111072335D01*
X152401648Y-111048536D01*
X152402614Y-111022215D01*
X152367687Y-110515748D01*
X152373318Y-110323775D01*
X152430661Y-110074003D01*
X152505282Y-109907810D01*
X152535634Y-109840210D01*
X152549993Y-109820027D01*
X152684196Y-109631393D01*
X152870648Y-109455567D01*
X153087811Y-109319500D01*
X153087812Y-109319500D01*
X153087813Y-109319499D01*
X153327354Y-109228410D01*
X153580061Y-109185804D01*
X153836227Y-109193317D01*
X153836227Y-109193317D01*
G37*
G36*
X159028921Y-109217665D02*
X159092646Y-109228409D01*
X159332187Y-109319498D01*
X159549354Y-109455569D01*
X159735804Y-109631392D01*
X159884367Y-109840209D01*
X159989338Y-110074001D01*
X160046682Y-110323775D01*
X160052313Y-110515749D01*
X160017386Y-111022216D01*
X160018105Y-111046710D01*
X160023588Y-111070593D01*
X160033625Y-111092947D01*
X160049050Y-111114294D01*
X161031022Y-112208719D01*
X161104866Y-112309338D01*
X161144657Y-112363556D01*
X161253064Y-112595770D01*
X161314085Y-112844675D01*
X161325376Y-113100704D01*
X161286502Y-113354009D01*
X161198956Y-113594867D01*
X161066105Y-113814013D01*
X161066103Y-113814015D01*
X161066102Y-113814017D01*
X160893048Y-114003038D01*
X160686444Y-114154665D01*
X160686442Y-114154666D01*
X160454229Y-114263073D01*
X160331392Y-114293187D01*
X160205323Y-114324095D01*
X160067793Y-114330159D01*
X159949294Y-114335385D01*
X159695989Y-114296511D01*
X159455132Y-114208965D01*
X159235983Y-114076112D01*
X159235981Y-114076111D01*
X159094323Y-113946419D01*
X158179190Y-112926486D01*
X157698974Y-112391276D01*
X157585344Y-112236446D01*
X157476936Y-112004229D01*
X157415915Y-111755325D01*
X157404624Y-111499300D01*
X157428679Y-111342557D01*
X157430004Y-111318089D01*
X157426956Y-111295627D01*
X157413318Y-111236222D01*
X157407687Y-111044252D01*
X157456479Y-110336734D01*
X157482326Y-110183435D01*
X157488409Y-110147352D01*
X157579498Y-109907812D01*
X157634501Y-109820027D01*
X157715566Y-109690647D01*
X157891392Y-109504194D01*
X158100206Y-109355634D01*
X158100208Y-109355633D01*
X158100209Y-109355632D01*
X158198638Y-109311438D01*
X158333997Y-109250661D01*
X158458888Y-109221989D01*
X158583776Y-109193317D01*
X158597971Y-109192901D01*
X158839939Y-109185803D01*
X159028921Y-109217665D01*
X159028921Y-109217665D01*
G37*
G36*
X120928921Y-109217665D02*
X120992646Y-109228409D01*
X121232187Y-109319498D01*
X121449354Y-109455569D01*
X121635804Y-109631392D01*
X121784367Y-109840209D01*
X121889338Y-110074001D01*
X121946682Y-110323775D01*
X121952313Y-110515749D01*
X121917386Y-111022216D01*
X121918105Y-111046710D01*
X121923588Y-111070593D01*
X121933625Y-111092947D01*
X121949050Y-111114294D01*
X122931022Y-112208719D01*
X123004866Y-112309338D01*
X123044657Y-112363556D01*
X123153064Y-112595770D01*
X123214085Y-112844675D01*
X123225376Y-113100704D01*
X123186502Y-113354009D01*
X123098956Y-113594867D01*
X122966105Y-113814013D01*
X122966103Y-113814015D01*
X122966102Y-113814017D01*
X122793048Y-114003038D01*
X122586444Y-114154665D01*
X122586442Y-114154666D01*
X122354229Y-114263073D01*
X122231392Y-114293187D01*
X122105323Y-114324095D01*
X121967793Y-114330159D01*
X121849294Y-114335385D01*
X121595989Y-114296511D01*
X121355132Y-114208965D01*
X121135983Y-114076112D01*
X121135981Y-114076111D01*
X120994323Y-113946419D01*
X120079190Y-112926486D01*
X119598974Y-112391276D01*
X119485344Y-112236446D01*
X119376936Y-112004229D01*
X119315915Y-111755325D01*
X119304624Y-111499300D01*
X119328679Y-111342557D01*
X119330004Y-111318089D01*
X119326956Y-111295627D01*
X119313318Y-111236222D01*
X119307687Y-111044252D01*
X119356479Y-110336734D01*
X119382326Y-110183435D01*
X119388409Y-110147352D01*
X119479498Y-109907812D01*
X119534501Y-109820027D01*
X119615566Y-109690647D01*
X119791392Y-109504194D01*
X120000206Y-109355634D01*
X120000208Y-109355633D01*
X120000209Y-109355632D01*
X120098638Y-109311438D01*
X120233997Y-109250661D01*
X120358888Y-109221989D01*
X120483776Y-109193317D01*
X120497971Y-109192901D01*
X120739939Y-109185803D01*
X120928921Y-109217665D01*
X120928921Y-109217665D01*
G37*
G36*
X134786227Y-109193317D02*
X135035998Y-109250660D01*
X135152896Y-109303147D01*
X135269791Y-109355633D01*
X135269792Y-109355634D01*
X135269794Y-109355635D01*
X135478608Y-109504195D01*
X135654434Y-109690647D01*
X135735499Y-109820027D01*
X135790502Y-109907812D01*
X135881591Y-110147353D01*
X135881591Y-110147355D01*
X135913521Y-110336735D01*
X135962313Y-111044251D01*
X135958521Y-111173514D01*
X135956682Y-111236224D01*
X135950435Y-111263435D01*
X135943044Y-111295627D01*
X135939929Y-111319932D01*
X135941321Y-111342557D01*
X135965376Y-111499300D01*
X135954085Y-111755325D01*
X135893064Y-112004230D01*
X135784657Y-112236444D01*
X135781679Y-112240502D01*
X135671022Y-112391281D01*
X134365449Y-113846365D01*
X134275676Y-113946419D01*
X134134017Y-114076112D01*
X133914868Y-114208965D01*
X133674010Y-114296511D01*
X133420705Y-114335385D01*
X133164676Y-114324094D01*
X132915772Y-114263073D01*
X132683558Y-114154666D01*
X132476955Y-114003040D01*
X132476952Y-114003038D01*
X132303898Y-113814017D01*
X132303897Y-113814015D01*
X132303895Y-113814013D01*
X132171044Y-113594867D01*
X132083498Y-113354009D01*
X132044624Y-113100704D01*
X132055915Y-112844675D01*
X132116936Y-112595771D01*
X132225344Y-112363554D01*
X132338974Y-112208724D01*
X133320949Y-111114294D01*
X133335447Y-111094539D01*
X133345813Y-111072335D01*
X133351648Y-111048536D01*
X133352614Y-111022215D01*
X133317687Y-110515748D01*
X133323318Y-110323775D01*
X133380661Y-110074003D01*
X133455282Y-109907810D01*
X133485634Y-109840210D01*
X133499993Y-109820027D01*
X133634196Y-109631393D01*
X133820648Y-109455567D01*
X134037811Y-109319500D01*
X134037812Y-109319500D01*
X134037813Y-109319499D01*
X134277354Y-109228410D01*
X134530061Y-109185804D01*
X134786227Y-109193317D01*
X134786227Y-109193317D01*
G37*
G36*
X139978921Y-109217665D02*
X140042646Y-109228409D01*
X140282187Y-109319498D01*
X140499354Y-109455569D01*
X140685804Y-109631392D01*
X140834367Y-109840209D01*
X140939338Y-110074001D01*
X140996682Y-110323775D01*
X141002313Y-110515749D01*
X140967386Y-111022216D01*
X140968105Y-111046710D01*
X140973588Y-111070593D01*
X140983625Y-111092947D01*
X140999050Y-111114294D01*
X141981022Y-112208719D01*
X142054866Y-112309338D01*
X142094657Y-112363556D01*
X142203064Y-112595770D01*
X142264085Y-112844675D01*
X142275376Y-113100704D01*
X142236502Y-113354009D01*
X142148956Y-113594867D01*
X142016105Y-113814013D01*
X142016103Y-113814015D01*
X142016102Y-113814017D01*
X141843048Y-114003038D01*
X141636444Y-114154665D01*
X141636442Y-114154666D01*
X141404229Y-114263073D01*
X141281392Y-114293187D01*
X141155323Y-114324095D01*
X141017793Y-114330159D01*
X140899294Y-114335385D01*
X140645989Y-114296511D01*
X140405132Y-114208965D01*
X140185983Y-114076112D01*
X140185981Y-114076111D01*
X140044323Y-113946419D01*
X139129190Y-112926486D01*
X138648974Y-112391276D01*
X138535344Y-112236446D01*
X138426936Y-112004229D01*
X138365915Y-111755325D01*
X138354624Y-111499300D01*
X138378679Y-111342557D01*
X138380004Y-111318089D01*
X138376956Y-111295627D01*
X138363318Y-111236222D01*
X138357687Y-111044252D01*
X138406479Y-110336734D01*
X138432326Y-110183435D01*
X138438409Y-110147352D01*
X138529498Y-109907812D01*
X138584501Y-109820027D01*
X138665566Y-109690647D01*
X138841392Y-109504194D01*
X139050206Y-109355634D01*
X139050208Y-109355633D01*
X139050209Y-109355632D01*
X139148638Y-109311438D01*
X139283997Y-109250661D01*
X139408888Y-109221989D01*
X139533776Y-109193317D01*
X139547971Y-109192901D01*
X139789939Y-109185803D01*
X139978921Y-109217665D01*
X139978921Y-109217665D01*
G37*
G36*
X167858621Y-111039302D02*
X167995022Y-111095801D01*
X168117779Y-111177825D01*
X168222175Y-111282221D01*
X168304199Y-111404978D01*
X168360698Y-111541379D01*
X168389500Y-111686181D01*
X168389500Y-111833819D01*
X168360698Y-111978621D01*
X168304199Y-112115022D01*
X168222175Y-112237779D01*
X168117779Y-112342175D01*
X167995022Y-112424199D01*
X167858621Y-112480698D01*
X167713819Y-112509500D01*
X167566181Y-112509500D01*
X167421379Y-112480698D01*
X167284978Y-112424199D01*
X167162221Y-112342175D01*
X167057825Y-112237779D01*
X166975801Y-112115022D01*
X166919302Y-111978621D01*
X166890500Y-111833819D01*
X166890500Y-111686181D01*
X166919302Y-111541379D01*
X166975801Y-111404978D01*
X167057825Y-111282221D01*
X167162221Y-111177825D01*
X167284978Y-111095801D01*
X167421379Y-111039302D01*
X167566181Y-111010500D01*
X167713819Y-111010500D01*
X167858621Y-111039302D01*
X167858621Y-111039302D01*
G37*
G36*
X183098621Y-111039302D02*
X183235022Y-111095801D01*
X183357779Y-111177825D01*
X183462175Y-111282221D01*
X183544199Y-111404978D01*
X183600698Y-111541379D01*
X183629500Y-111686181D01*
X183629500Y-111833819D01*
X183600698Y-111978621D01*
X183544199Y-112115022D01*
X183462175Y-112237779D01*
X183357779Y-112342175D01*
X183235022Y-112424199D01*
X183098621Y-112480698D01*
X182953819Y-112509500D01*
X182806181Y-112509500D01*
X182661379Y-112480698D01*
X182524978Y-112424199D01*
X182402221Y-112342175D01*
X182297825Y-112237779D01*
X182215801Y-112115022D01*
X182159302Y-111978621D01*
X182130500Y-111833819D01*
X182130500Y-111686181D01*
X182159302Y-111541379D01*
X182215801Y-111404978D01*
X182297825Y-111282221D01*
X182402221Y-111177825D01*
X182524978Y-111095801D01*
X182661379Y-111039302D01*
X182806181Y-111010500D01*
X182953819Y-111010500D01*
X183098621Y-111039302D01*
X183098621Y-111039302D01*
G37*
G36*
X110708621Y-111039302D02*
X110845022Y-111095801D01*
X110967779Y-111177825D01*
X111072175Y-111282221D01*
X111154199Y-111404978D01*
X111210698Y-111541379D01*
X111239500Y-111686181D01*
X111239500Y-111833819D01*
X111210698Y-111978621D01*
X111154199Y-112115022D01*
X111072175Y-112237779D01*
X110967779Y-112342175D01*
X110845022Y-112424199D01*
X110708621Y-112480698D01*
X110563819Y-112509500D01*
X110416181Y-112509500D01*
X110271379Y-112480698D01*
X110134978Y-112424199D01*
X110012221Y-112342175D01*
X109907825Y-112237779D01*
X109825801Y-112115022D01*
X109769302Y-111978621D01*
X109740500Y-111833819D01*
X109740500Y-111686181D01*
X109769302Y-111541379D01*
X109825801Y-111404978D01*
X109907825Y-111282221D01*
X110012221Y-111177825D01*
X110134978Y-111095801D01*
X110271379Y-111039302D01*
X110416181Y-111010500D01*
X110563819Y-111010500D01*
X110708621Y-111039302D01*
X110708621Y-111039302D01*
G37*
G36*
X125948621Y-111039302D02*
X126085022Y-111095801D01*
X126207779Y-111177825D01*
X126312175Y-111282221D01*
X126394199Y-111404978D01*
X126450698Y-111541379D01*
X126479500Y-111686181D01*
X126479500Y-111833819D01*
X126450698Y-111978621D01*
X126394199Y-112115022D01*
X126312175Y-112237779D01*
X126207779Y-112342175D01*
X126085022Y-112424199D01*
X125948621Y-112480698D01*
X125803819Y-112509500D01*
X125656181Y-112509500D01*
X125511379Y-112480698D01*
X125374978Y-112424199D01*
X125252221Y-112342175D01*
X125147825Y-112237779D01*
X125065801Y-112115022D01*
X125009302Y-111978621D01*
X124980500Y-111833819D01*
X124980500Y-111686181D01*
X125009302Y-111541379D01*
X125065801Y-111404978D01*
X125147825Y-111282221D01*
X125252221Y-111177825D01*
X125374978Y-111095801D01*
X125511379Y-111039302D01*
X125656181Y-111010500D01*
X125803819Y-111010500D01*
X125948621Y-111039302D01*
X125948621Y-111039302D01*
G37*
G36*
X148770907Y-103230517D02*
X148860483Y-103248335D01*
X149029241Y-103318237D01*
X149029242Y-103318238D01*
X149181122Y-103419721D01*
X149310279Y-103548878D01*
X149310281Y-103548881D01*
X149411763Y-103700759D01*
X149481665Y-103869517D01*
X149517300Y-104048669D01*
X149517300Y-104231331D01*
X149481665Y-104410483D01*
X149411763Y-104579241D01*
X149411762Y-104579242D01*
X149310279Y-104731122D01*
X149181122Y-104860279D01*
X149181119Y-104860281D01*
X149029241Y-104961763D01*
X148860483Y-105031665D01*
X148770907Y-105049483D01*
X148681333Y-105067300D01*
X148498667Y-105067300D01*
X148409093Y-105049483D01*
X148319517Y-105031665D01*
X148150759Y-104961763D01*
X147998881Y-104860281D01*
X147998878Y-104860279D01*
X147869721Y-104731122D01*
X147768238Y-104579242D01*
X147768237Y-104579241D01*
X147698335Y-104410483D01*
X147662700Y-104231331D01*
X147662700Y-104048669D01*
X147698335Y-103869517D01*
X147768237Y-103700759D01*
X147869719Y-103548881D01*
X147869721Y-103548878D01*
X147998878Y-103419721D01*
X148150758Y-103318238D01*
X148150759Y-103318237D01*
X148319517Y-103248335D01*
X148409093Y-103230518D01*
X148498667Y-103212700D01*
X148681333Y-103212700D01*
X148770907Y-103230517D01*
X148770907Y-103230517D01*
G37*
G36*
X144960907Y-103230517D02*
X145050483Y-103248335D01*
X145219241Y-103318237D01*
X145219242Y-103318238D01*
X145371122Y-103419721D01*
X145500279Y-103548878D01*
X145500281Y-103548881D01*
X145601763Y-103700759D01*
X145671665Y-103869517D01*
X145707300Y-104048669D01*
X145707300Y-104231331D01*
X145671665Y-104410483D01*
X145601763Y-104579241D01*
X145601762Y-104579242D01*
X145500279Y-104731122D01*
X145371122Y-104860279D01*
X145371119Y-104860281D01*
X145219241Y-104961763D01*
X145050483Y-105031665D01*
X144960907Y-105049483D01*
X144871333Y-105067300D01*
X144688667Y-105067300D01*
X144599093Y-105049483D01*
X144509517Y-105031665D01*
X144340759Y-104961763D01*
X144188881Y-104860281D01*
X144188878Y-104860279D01*
X144059721Y-104731122D01*
X143958238Y-104579242D01*
X143958237Y-104579241D01*
X143888335Y-104410483D01*
X143852700Y-104231331D01*
X143852700Y-104048669D01*
X143888335Y-103869517D01*
X143958237Y-103700759D01*
X144059719Y-103548881D01*
X144059721Y-103548878D01*
X144188878Y-103419721D01*
X144340758Y-103318238D01*
X144340759Y-103318237D01*
X144509517Y-103248335D01*
X144599093Y-103230518D01*
X144688667Y-103212700D01*
X144871333Y-103212700D01*
X144960907Y-103230517D01*
X144960907Y-103230517D01*
G37*
G36*
X129720907Y-103230517D02*
X129810483Y-103248335D01*
X129979241Y-103318237D01*
X129979242Y-103318238D01*
X130131122Y-103419721D01*
X130260279Y-103548878D01*
X130260281Y-103548881D01*
X130361763Y-103700759D01*
X130431665Y-103869517D01*
X130467300Y-104048669D01*
X130467300Y-104231331D01*
X130431665Y-104410483D01*
X130361763Y-104579241D01*
X130361762Y-104579242D01*
X130260279Y-104731122D01*
X130131122Y-104860279D01*
X130131119Y-104860281D01*
X129979241Y-104961763D01*
X129810483Y-105031665D01*
X129720907Y-105049483D01*
X129631333Y-105067300D01*
X129448667Y-105067300D01*
X129359093Y-105049483D01*
X129269517Y-105031665D01*
X129100759Y-104961763D01*
X128948881Y-104860281D01*
X128948878Y-104860279D01*
X128819721Y-104731122D01*
X128718238Y-104579242D01*
X128718237Y-104579241D01*
X128648335Y-104410483D01*
X128612700Y-104231331D01*
X128612700Y-104048669D01*
X128648335Y-103869517D01*
X128718237Y-103700759D01*
X128819719Y-103548881D01*
X128819721Y-103548878D01*
X128948878Y-103419721D01*
X129100758Y-103318238D01*
X129100759Y-103318237D01*
X129269517Y-103248335D01*
X129359093Y-103230518D01*
X129448667Y-103212700D01*
X129631333Y-103212700D01*
X129720907Y-103230517D01*
X129720907Y-103230517D01*
G37*
G36*
X164010907Y-103230517D02*
X164100483Y-103248335D01*
X164269241Y-103318237D01*
X164269242Y-103318238D01*
X164421122Y-103419721D01*
X164550279Y-103548878D01*
X164550281Y-103548881D01*
X164651763Y-103700759D01*
X164721665Y-103869517D01*
X164757300Y-104048669D01*
X164757300Y-104231331D01*
X164721665Y-104410483D01*
X164651763Y-104579241D01*
X164651762Y-104579242D01*
X164550279Y-104731122D01*
X164421122Y-104860279D01*
X164421119Y-104860281D01*
X164269241Y-104961763D01*
X164100483Y-105031665D01*
X164010907Y-105049483D01*
X163921333Y-105067300D01*
X163738667Y-105067300D01*
X163649093Y-105049483D01*
X163559517Y-105031665D01*
X163390759Y-104961763D01*
X163238881Y-104860281D01*
X163238878Y-104860279D01*
X163109721Y-104731122D01*
X163008238Y-104579242D01*
X163008237Y-104579241D01*
X162938335Y-104410483D01*
X162902700Y-104231331D01*
X162902700Y-104048669D01*
X162938335Y-103869517D01*
X163008237Y-103700759D01*
X163109719Y-103548881D01*
X163109721Y-103548878D01*
X163238878Y-103419721D01*
X163390758Y-103318238D01*
X163390759Y-103318237D01*
X163559517Y-103248335D01*
X163649093Y-103230518D01*
X163738667Y-103212700D01*
X163921333Y-103212700D01*
X164010907Y-103230517D01*
X164010907Y-103230517D01*
G37*
G36*
X121361000Y-103026000D02*
X119659000Y-103026000D01*
X119659000Y-101924000D01*
X121361000Y-101924000D01*
X121361000Y-103026000D01*
X121361000Y-103026000D01*
G37*
G36*
X173711000Y-103026000D02*
X172009000Y-103026000D01*
X172009000Y-101924000D01*
X173711000Y-101924000D01*
X173711000Y-103026000D01*
X173711000Y-103026000D01*
G37*
G36*
X154661000Y-103026000D02*
X152959000Y-103026000D01*
X152959000Y-101924000D01*
X154661000Y-101924000D01*
X154661000Y-103026000D01*
X154661000Y-103026000D01*
G37*
G36*
X178511000Y-103026000D02*
X176809000Y-103026000D01*
X176809000Y-101924000D01*
X178511000Y-101924000D01*
X178511000Y-103026000D01*
X178511000Y-103026000D01*
G37*
G36*
X159461000Y-103026000D02*
X157759000Y-103026000D01*
X157759000Y-101924000D01*
X159461000Y-101924000D01*
X159461000Y-103026000D01*
X159461000Y-103026000D01*
G37*
G36*
X140411000Y-103026000D02*
X138709000Y-103026000D01*
X138709000Y-101924000D01*
X140411000Y-101924000D01*
X140411000Y-103026000D01*
X140411000Y-103026000D01*
G37*
G36*
X135611000Y-103026000D02*
X133909000Y-103026000D01*
X133909000Y-101924000D01*
X135611000Y-101924000D01*
X135611000Y-103026000D01*
X135611000Y-103026000D01*
G37*
G36*
X116561000Y-103026000D02*
X114859000Y-103026000D01*
X114859000Y-101924000D01*
X116561000Y-101924000D01*
X116561000Y-103026000D01*
X116561000Y-103026000D01*
G37*
G36*
X148770907Y-100690517D02*
X148860483Y-100708335D01*
X149029241Y-100778237D01*
X149029242Y-100778238D01*
X149181122Y-100879721D01*
X149310279Y-101008878D01*
X149310281Y-101008881D01*
X149411763Y-101160759D01*
X149481665Y-101329517D01*
X149517300Y-101508669D01*
X149517300Y-101691331D01*
X149481665Y-101870483D01*
X149411763Y-102039241D01*
X149411762Y-102039242D01*
X149310279Y-102191122D01*
X149181122Y-102320279D01*
X149181119Y-102320281D01*
X149029241Y-102421763D01*
X148860483Y-102491665D01*
X148770907Y-102509483D01*
X148681333Y-102527300D01*
X148498667Y-102527300D01*
X148409093Y-102509483D01*
X148319517Y-102491665D01*
X148150759Y-102421763D01*
X147998881Y-102320281D01*
X147998878Y-102320279D01*
X147869721Y-102191122D01*
X147768238Y-102039242D01*
X147768237Y-102039241D01*
X147698335Y-101870483D01*
X147662700Y-101691331D01*
X147662700Y-101508669D01*
X147698335Y-101329517D01*
X147768237Y-101160759D01*
X147869719Y-101008881D01*
X147869721Y-101008878D01*
X147998878Y-100879721D01*
X148150758Y-100778238D01*
X148150759Y-100778237D01*
X148319517Y-100708335D01*
X148409093Y-100690517D01*
X148498667Y-100672700D01*
X148681333Y-100672700D01*
X148770907Y-100690517D01*
X148770907Y-100690517D01*
G37*
G36*
X164010907Y-100690517D02*
X164100483Y-100708335D01*
X164269241Y-100778237D01*
X164269242Y-100778238D01*
X164421122Y-100879721D01*
X164550279Y-101008878D01*
X164550281Y-101008881D01*
X164651763Y-101160759D01*
X164721665Y-101329517D01*
X164757300Y-101508669D01*
X164757300Y-101691331D01*
X164721665Y-101870483D01*
X164651763Y-102039241D01*
X164651762Y-102039242D01*
X164550279Y-102191122D01*
X164421122Y-102320279D01*
X164421119Y-102320281D01*
X164269241Y-102421763D01*
X164100483Y-102491665D01*
X164010907Y-102509483D01*
X163921333Y-102527300D01*
X163738667Y-102527300D01*
X163649093Y-102509483D01*
X163559517Y-102491665D01*
X163390759Y-102421763D01*
X163238881Y-102320281D01*
X163238878Y-102320279D01*
X163109721Y-102191122D01*
X163008238Y-102039242D01*
X163008237Y-102039241D01*
X162938335Y-101870483D01*
X162902700Y-101691331D01*
X162902700Y-101508669D01*
X162938335Y-101329517D01*
X163008237Y-101160759D01*
X163109719Y-101008881D01*
X163109721Y-101008878D01*
X163238878Y-100879721D01*
X163390758Y-100778238D01*
X163390759Y-100778237D01*
X163559517Y-100708335D01*
X163649093Y-100690517D01*
X163738667Y-100672700D01*
X163921333Y-100672700D01*
X164010907Y-100690517D01*
X164010907Y-100690517D01*
G37*
G36*
X144960907Y-100690517D02*
X145050483Y-100708335D01*
X145219241Y-100778237D01*
X145219242Y-100778238D01*
X145371122Y-100879721D01*
X145500279Y-101008878D01*
X145500281Y-101008881D01*
X145601763Y-101160759D01*
X145671665Y-101329517D01*
X145707300Y-101508669D01*
X145707300Y-101691331D01*
X145671665Y-101870483D01*
X145601763Y-102039241D01*
X145601762Y-102039242D01*
X145500279Y-102191122D01*
X145371122Y-102320279D01*
X145371119Y-102320281D01*
X145219241Y-102421763D01*
X145050483Y-102491665D01*
X144960907Y-102509483D01*
X144871333Y-102527300D01*
X144688667Y-102527300D01*
X144599093Y-102509483D01*
X144509517Y-102491665D01*
X144340759Y-102421763D01*
X144188881Y-102320281D01*
X144188878Y-102320279D01*
X144059721Y-102191122D01*
X143958238Y-102039242D01*
X143958237Y-102039241D01*
X143888335Y-101870483D01*
X143852700Y-101691331D01*
X143852700Y-101508669D01*
X143888335Y-101329517D01*
X143958237Y-101160759D01*
X144059719Y-101008881D01*
X144059721Y-101008878D01*
X144188878Y-100879721D01*
X144340758Y-100778238D01*
X144340759Y-100778237D01*
X144509517Y-100708335D01*
X144599093Y-100690517D01*
X144688667Y-100672700D01*
X144871333Y-100672700D01*
X144960907Y-100690517D01*
X144960907Y-100690517D01*
G37*
G36*
X129720907Y-100690517D02*
X129810483Y-100708335D01*
X129979241Y-100778237D01*
X129979242Y-100778238D01*
X130131122Y-100879721D01*
X130260279Y-101008878D01*
X130260281Y-101008881D01*
X130361763Y-101160759D01*
X130431665Y-101329517D01*
X130467300Y-101508669D01*
X130467300Y-101691331D01*
X130431665Y-101870483D01*
X130361763Y-102039241D01*
X130361762Y-102039242D01*
X130260279Y-102191122D01*
X130131122Y-102320279D01*
X130131119Y-102320281D01*
X129979241Y-102421763D01*
X129810483Y-102491665D01*
X129720907Y-102509483D01*
X129631333Y-102527300D01*
X129448667Y-102527300D01*
X129359093Y-102509483D01*
X129269517Y-102491665D01*
X129100759Y-102421763D01*
X128948881Y-102320281D01*
X128948878Y-102320279D01*
X128819721Y-102191122D01*
X128718238Y-102039242D01*
X128718237Y-102039241D01*
X128648335Y-101870483D01*
X128612700Y-101691331D01*
X128612700Y-101508669D01*
X128648335Y-101329517D01*
X128718237Y-101160759D01*
X128819719Y-101008881D01*
X128819721Y-101008878D01*
X128948878Y-100879721D01*
X129100758Y-100778238D01*
X129100759Y-100778237D01*
X129269517Y-100708335D01*
X129359093Y-100690517D01*
X129448667Y-100672700D01*
X129631333Y-100672700D01*
X129720907Y-100690517D01*
X129720907Y-100690517D01*
G37*
G36*
X173711000Y-101276000D02*
X172009000Y-101276000D01*
X172009000Y-100174000D01*
X173711000Y-100174000D01*
X173711000Y-101276000D01*
X173711000Y-101276000D01*
G37*
G36*
X178511000Y-101276000D02*
X176809000Y-101276000D01*
X176809000Y-100174000D01*
X178511000Y-100174000D01*
X178511000Y-101276000D01*
X178511000Y-101276000D01*
G37*
G36*
X159461000Y-101276000D02*
X157759000Y-101276000D01*
X157759000Y-100174000D01*
X159461000Y-100174000D01*
X159461000Y-101276000D01*
X159461000Y-101276000D01*
G37*
G36*
X154661000Y-101276000D02*
X152959000Y-101276000D01*
X152959000Y-100174000D01*
X154661000Y-100174000D01*
X154661000Y-101276000D01*
X154661000Y-101276000D01*
G37*
G36*
X140411000Y-101276000D02*
X138709000Y-101276000D01*
X138709000Y-100174000D01*
X140411000Y-100174000D01*
X140411000Y-101276000D01*
X140411000Y-101276000D01*
G37*
G36*
X135611000Y-101276000D02*
X133909000Y-101276000D01*
X133909000Y-100174000D01*
X135611000Y-100174000D01*
X135611000Y-101276000D01*
X135611000Y-101276000D01*
G37*
G36*
X121361000Y-101276000D02*
X119659000Y-101276000D01*
X119659000Y-100174000D01*
X121361000Y-100174000D01*
X121361000Y-101276000D01*
X121361000Y-101276000D01*
G37*
G36*
X116561000Y-101276000D02*
X114859000Y-101276000D01*
X114859000Y-100174000D01*
X116561000Y-100174000D01*
X116561000Y-101276000D01*
X116561000Y-101276000D01*
G37*
G36*
X126479500Y-101079500D02*
X124980500Y-101079500D01*
X124980500Y-99580500D01*
X126479500Y-99580500D01*
X126479500Y-101079500D01*
X126479500Y-101079500D01*
G37*
G36*
X168389500Y-101079500D02*
X166890500Y-101079500D01*
X166890500Y-99580500D01*
X168389500Y-99580500D01*
X168389500Y-101079500D01*
X168389500Y-101079500D01*
G37*
G36*
X111239500Y-101079500D02*
X109740500Y-101079500D01*
X109740500Y-99580500D01*
X111239500Y-99580500D01*
X111239500Y-101079500D01*
X111239500Y-101079500D01*
G37*
G36*
X183629500Y-101079500D02*
X182130500Y-101079500D01*
X182130500Y-99580500D01*
X183629500Y-99580500D01*
X183629500Y-101079500D01*
X183629500Y-101079500D01*
G37*
G36*
X164010907Y-98150518D02*
X164100483Y-98168335D01*
X164269241Y-98238237D01*
X164269242Y-98238238D01*
X164421122Y-98339721D01*
X164550279Y-98468878D01*
X164550281Y-98468881D01*
X164651763Y-98620759D01*
X164721665Y-98789517D01*
X164757300Y-98968669D01*
X164757300Y-99151331D01*
X164721665Y-99330483D01*
X164651763Y-99499241D01*
X164651762Y-99499242D01*
X164550279Y-99651122D01*
X164421122Y-99780279D01*
X164421119Y-99780281D01*
X164269241Y-99881763D01*
X164100483Y-99951665D01*
X164010907Y-99969483D01*
X163921333Y-99987300D01*
X163738667Y-99987300D01*
X163649093Y-99969483D01*
X163559517Y-99951665D01*
X163390759Y-99881763D01*
X163238881Y-99780281D01*
X163238878Y-99780279D01*
X163109721Y-99651122D01*
X163008238Y-99499242D01*
X163008237Y-99499241D01*
X162938335Y-99330483D01*
X162902700Y-99151331D01*
X162902700Y-98968669D01*
X162938335Y-98789517D01*
X163008237Y-98620759D01*
X163109719Y-98468881D01*
X163109721Y-98468878D01*
X163238878Y-98339721D01*
X163390758Y-98238238D01*
X163390759Y-98238237D01*
X163559517Y-98168335D01*
X163649093Y-98150518D01*
X163738667Y-98132700D01*
X163921333Y-98132700D01*
X164010907Y-98150518D01*
X164010907Y-98150518D01*
G37*
G36*
X148770907Y-98150518D02*
X148860483Y-98168335D01*
X149029241Y-98238237D01*
X149029242Y-98238238D01*
X149181122Y-98339721D01*
X149310279Y-98468878D01*
X149310281Y-98468881D01*
X149411763Y-98620759D01*
X149481665Y-98789517D01*
X149517300Y-98968669D01*
X149517300Y-99151331D01*
X149481665Y-99330483D01*
X149411763Y-99499241D01*
X149411762Y-99499242D01*
X149310279Y-99651122D01*
X149181122Y-99780279D01*
X149181119Y-99780281D01*
X149029241Y-99881763D01*
X148860483Y-99951665D01*
X148770907Y-99969483D01*
X148681333Y-99987300D01*
X148498667Y-99987300D01*
X148409093Y-99969483D01*
X148319517Y-99951665D01*
X148150759Y-99881763D01*
X147998881Y-99780281D01*
X147998878Y-99780279D01*
X147869721Y-99651122D01*
X147768238Y-99499242D01*
X147768237Y-99499241D01*
X147698335Y-99330483D01*
X147662700Y-99151331D01*
X147662700Y-98968669D01*
X147698335Y-98789517D01*
X147768237Y-98620759D01*
X147869719Y-98468881D01*
X147869721Y-98468878D01*
X147998878Y-98339721D01*
X148150758Y-98238238D01*
X148150759Y-98238237D01*
X148319517Y-98168335D01*
X148409093Y-98150518D01*
X148498667Y-98132700D01*
X148681333Y-98132700D01*
X148770907Y-98150518D01*
X148770907Y-98150518D01*
G37*
G36*
X144960907Y-98150518D02*
X145050483Y-98168335D01*
X145219241Y-98238237D01*
X145219242Y-98238238D01*
X145371122Y-98339721D01*
X145500279Y-98468878D01*
X145500281Y-98468881D01*
X145601763Y-98620759D01*
X145671665Y-98789517D01*
X145707300Y-98968669D01*
X145707300Y-99151331D01*
X145671665Y-99330483D01*
X145601763Y-99499241D01*
X145601762Y-99499242D01*
X145500279Y-99651122D01*
X145371122Y-99780279D01*
X145371119Y-99780281D01*
X145219241Y-99881763D01*
X145050483Y-99951665D01*
X144960907Y-99969483D01*
X144871333Y-99987300D01*
X144688667Y-99987300D01*
X144599093Y-99969483D01*
X144509517Y-99951665D01*
X144340759Y-99881763D01*
X144188881Y-99780281D01*
X144188878Y-99780279D01*
X144059721Y-99651122D01*
X143958238Y-99499242D01*
X143958237Y-99499241D01*
X143888335Y-99330483D01*
X143852700Y-99151331D01*
X143852700Y-98968669D01*
X143888335Y-98789517D01*
X143958237Y-98620759D01*
X144059719Y-98468881D01*
X144059721Y-98468878D01*
X144188878Y-98339721D01*
X144340758Y-98238238D01*
X144340759Y-98238237D01*
X144509517Y-98168335D01*
X144599093Y-98150518D01*
X144688667Y-98132700D01*
X144871333Y-98132700D01*
X144960907Y-98150518D01*
X144960907Y-98150518D01*
G37*
G36*
X129720907Y-98150518D02*
X129810483Y-98168335D01*
X129979241Y-98238237D01*
X129979242Y-98238238D01*
X130131122Y-98339721D01*
X130260279Y-98468878D01*
X130260281Y-98468881D01*
X130361763Y-98620759D01*
X130431665Y-98789517D01*
X130467300Y-98968669D01*
X130467300Y-99151331D01*
X130431665Y-99330483D01*
X130361763Y-99499241D01*
X130361762Y-99499242D01*
X130260279Y-99651122D01*
X130131122Y-99780279D01*
X130131119Y-99780281D01*
X129979241Y-99881763D01*
X129810483Y-99951665D01*
X129720907Y-99969483D01*
X129631333Y-99987300D01*
X129448667Y-99987300D01*
X129359093Y-99969483D01*
X129269517Y-99951665D01*
X129100759Y-99881763D01*
X128948881Y-99780281D01*
X128948878Y-99780279D01*
X128819721Y-99651122D01*
X128718238Y-99499242D01*
X128718237Y-99499241D01*
X128648335Y-99330483D01*
X128612700Y-99151331D01*
X128612700Y-98968669D01*
X128648335Y-98789517D01*
X128718237Y-98620759D01*
X128819719Y-98468881D01*
X128819721Y-98468878D01*
X128948878Y-98339721D01*
X129100758Y-98238238D01*
X129100759Y-98238237D01*
X129269517Y-98168335D01*
X129359093Y-98150518D01*
X129448667Y-98132700D01*
X129631333Y-98132700D01*
X129720907Y-98150518D01*
X129720907Y-98150518D01*
G37*
G36*
X168166000Y-98996000D02*
X167114000Y-98996000D01*
X167114000Y-97594000D01*
X168166000Y-97594000D01*
X168166000Y-98996000D01*
X168166000Y-98996000D01*
G37*
G36*
X183406000Y-98996000D02*
X182354000Y-98996000D01*
X182354000Y-97594000D01*
X183406000Y-97594000D01*
X183406000Y-98996000D01*
X183406000Y-98996000D01*
G37*
G36*
X126256000Y-98996000D02*
X125204000Y-98996000D01*
X125204000Y-97594000D01*
X126256000Y-97594000D01*
X126256000Y-98996000D01*
X126256000Y-98996000D01*
G37*
G36*
X111016000Y-98996000D02*
X109964000Y-98996000D01*
X109964000Y-97594000D01*
X111016000Y-97594000D01*
X111016000Y-98996000D01*
X111016000Y-98996000D01*
G37*
G36*
X164010907Y-95610518D02*
X164100483Y-95628335D01*
X164269241Y-95698237D01*
X164269242Y-95698238D01*
X164421122Y-95799721D01*
X164550279Y-95928878D01*
X164550281Y-95928881D01*
X164651763Y-96080759D01*
X164721665Y-96249517D01*
X164757300Y-96428669D01*
X164757300Y-96611331D01*
X164721665Y-96790483D01*
X164651763Y-96959241D01*
X164651762Y-96959242D01*
X164550279Y-97111122D01*
X164421122Y-97240279D01*
X164421119Y-97240281D01*
X164269241Y-97341763D01*
X164100483Y-97411665D01*
X164010907Y-97429483D01*
X163921333Y-97447300D01*
X163738667Y-97447300D01*
X163649093Y-97429483D01*
X163559517Y-97411665D01*
X163390759Y-97341763D01*
X163238881Y-97240281D01*
X163238878Y-97240279D01*
X163109721Y-97111122D01*
X163008238Y-96959242D01*
X163008237Y-96959241D01*
X162938335Y-96790483D01*
X162902700Y-96611331D01*
X162902700Y-96428669D01*
X162938335Y-96249517D01*
X163008237Y-96080759D01*
X163109719Y-95928881D01*
X163109721Y-95928878D01*
X163238878Y-95799721D01*
X163390758Y-95698238D01*
X163390759Y-95698237D01*
X163559517Y-95628335D01*
X163649093Y-95610518D01*
X163738667Y-95592700D01*
X163921333Y-95592700D01*
X164010907Y-95610518D01*
X164010907Y-95610518D01*
G37*
G36*
X148770907Y-95610518D02*
X148860483Y-95628335D01*
X149029241Y-95698237D01*
X149029242Y-95698238D01*
X149181122Y-95799721D01*
X149310279Y-95928878D01*
X149310281Y-95928881D01*
X149411763Y-96080759D01*
X149481665Y-96249517D01*
X149517300Y-96428669D01*
X149517300Y-96611331D01*
X149481665Y-96790483D01*
X149411763Y-96959241D01*
X149411762Y-96959242D01*
X149310279Y-97111122D01*
X149181122Y-97240279D01*
X149181119Y-97240281D01*
X149029241Y-97341763D01*
X148860483Y-97411665D01*
X148770907Y-97429483D01*
X148681333Y-97447300D01*
X148498667Y-97447300D01*
X148409093Y-97429483D01*
X148319517Y-97411665D01*
X148150759Y-97341763D01*
X147998881Y-97240281D01*
X147998878Y-97240279D01*
X147869721Y-97111122D01*
X147768238Y-96959242D01*
X147768237Y-96959241D01*
X147698335Y-96790483D01*
X147662700Y-96611331D01*
X147662700Y-96428669D01*
X147698335Y-96249517D01*
X147768237Y-96080759D01*
X147869719Y-95928881D01*
X147869721Y-95928878D01*
X147998878Y-95799721D01*
X148150758Y-95698238D01*
X148150759Y-95698237D01*
X148319517Y-95628335D01*
X148409093Y-95610518D01*
X148498667Y-95592700D01*
X148681333Y-95592700D01*
X148770907Y-95610518D01*
X148770907Y-95610518D01*
G37*
G36*
X144960907Y-95610518D02*
X145050483Y-95628335D01*
X145219241Y-95698237D01*
X145219242Y-95698238D01*
X145371122Y-95799721D01*
X145500279Y-95928878D01*
X145500281Y-95928881D01*
X145601763Y-96080759D01*
X145671665Y-96249517D01*
X145707300Y-96428669D01*
X145707300Y-96611331D01*
X145671665Y-96790483D01*
X145601763Y-96959241D01*
X145601762Y-96959242D01*
X145500279Y-97111122D01*
X145371122Y-97240279D01*
X145371119Y-97240281D01*
X145219241Y-97341763D01*
X145050483Y-97411665D01*
X144960907Y-97429483D01*
X144871333Y-97447300D01*
X144688667Y-97447300D01*
X144599093Y-97429483D01*
X144509517Y-97411665D01*
X144340759Y-97341763D01*
X144188881Y-97240281D01*
X144188878Y-97240279D01*
X144059721Y-97111122D01*
X143958238Y-96959242D01*
X143958237Y-96959241D01*
X143888335Y-96790483D01*
X143852700Y-96611331D01*
X143852700Y-96428669D01*
X143888335Y-96249517D01*
X143958237Y-96080759D01*
X144059719Y-95928881D01*
X144059721Y-95928878D01*
X144188878Y-95799721D01*
X144340758Y-95698238D01*
X144340759Y-95698237D01*
X144509517Y-95628335D01*
X144599093Y-95610518D01*
X144688667Y-95592700D01*
X144871333Y-95592700D01*
X144960907Y-95610518D01*
X144960907Y-95610518D01*
G37*
G36*
X129720907Y-95610518D02*
X129810483Y-95628335D01*
X129979241Y-95698237D01*
X129979242Y-95698238D01*
X130131122Y-95799721D01*
X130260279Y-95928878D01*
X130260281Y-95928881D01*
X130361763Y-96080759D01*
X130431665Y-96249517D01*
X130467300Y-96428669D01*
X130467300Y-96611331D01*
X130431665Y-96790483D01*
X130361763Y-96959241D01*
X130361762Y-96959242D01*
X130260279Y-97111122D01*
X130131122Y-97240279D01*
X130131119Y-97240281D01*
X129979241Y-97341763D01*
X129810483Y-97411665D01*
X129720907Y-97429483D01*
X129631333Y-97447300D01*
X129448667Y-97447300D01*
X129359093Y-97429483D01*
X129269517Y-97411665D01*
X129100759Y-97341763D01*
X128948881Y-97240281D01*
X128948878Y-97240279D01*
X128819721Y-97111122D01*
X128718238Y-96959242D01*
X128718237Y-96959241D01*
X128648335Y-96790483D01*
X128612700Y-96611331D01*
X128612700Y-96428669D01*
X128648335Y-96249517D01*
X128718237Y-96080759D01*
X128819719Y-95928881D01*
X128819721Y-95928878D01*
X128948878Y-95799721D01*
X129100758Y-95698238D01*
X129100759Y-95698237D01*
X129269517Y-95628335D01*
X129359093Y-95610518D01*
X129448667Y-95592700D01*
X129631333Y-95592700D01*
X129720907Y-95610518D01*
X129720907Y-95610518D01*
G37*
G36*
X183406000Y-95446000D02*
X182354000Y-95446000D01*
X182354000Y-94044000D01*
X183406000Y-94044000D01*
X183406000Y-95446000D01*
X183406000Y-95446000D01*
G37*
G36*
X126256000Y-95446000D02*
X125204000Y-95446000D01*
X125204000Y-94044000D01*
X126256000Y-94044000D01*
X126256000Y-95446000D01*
X126256000Y-95446000D01*
G37*
G36*
X168166000Y-95446000D02*
X167114000Y-95446000D01*
X167114000Y-94044000D01*
X168166000Y-94044000D01*
X168166000Y-95446000D01*
X168166000Y-95446000D01*
G37*
G36*
X111016000Y-95446000D02*
X109964000Y-95446000D01*
X109964000Y-94044000D01*
X111016000Y-94044000D01*
X111016000Y-95446000D01*
X111016000Y-95446000D01*
G37*
G36*
X178078921Y-90167665D02*
X178142646Y-90178409D01*
X178382187Y-90269498D01*
X178599354Y-90405569D01*
X178785804Y-90581392D01*
X178934367Y-90790209D01*
X179039338Y-91024001D01*
X179096682Y-91273775D01*
X179102313Y-91465749D01*
X179067386Y-91972216D01*
X179068105Y-91996710D01*
X179073588Y-92020593D01*
X179083625Y-92042947D01*
X179099050Y-92064294D01*
X180081022Y-93158719D01*
X180154866Y-93259338D01*
X180194657Y-93313556D01*
X180303064Y-93545770D01*
X180364085Y-93794675D01*
X180375376Y-94050704D01*
X180336502Y-94304009D01*
X180248956Y-94544867D01*
X180116105Y-94764013D01*
X180116103Y-94764015D01*
X180116102Y-94764017D01*
X179943048Y-94953038D01*
X179736444Y-95104665D01*
X179736442Y-95104666D01*
X179504229Y-95213073D01*
X179381392Y-95243187D01*
X179255323Y-95274095D01*
X179117793Y-95280159D01*
X178999294Y-95285385D01*
X178745989Y-95246511D01*
X178505132Y-95158965D01*
X178285983Y-95026112D01*
X178285981Y-95026111D01*
X178144323Y-94896419D01*
X177564758Y-94250483D01*
X176748974Y-93341276D01*
X176635344Y-93186446D01*
X176526936Y-92954229D01*
X176465915Y-92705325D01*
X176454624Y-92449300D01*
X176478679Y-92292557D01*
X176480004Y-92268089D01*
X176476956Y-92245627D01*
X176463318Y-92186222D01*
X176457687Y-91994252D01*
X176506479Y-91286734D01*
X176532326Y-91133435D01*
X176538409Y-91097352D01*
X176629498Y-90857812D01*
X176635094Y-90848881D01*
X176765566Y-90640647D01*
X176941392Y-90454194D01*
X177150206Y-90305634D01*
X177150208Y-90305633D01*
X177150209Y-90305632D01*
X177248638Y-90261438D01*
X177383997Y-90200661D01*
X177508887Y-90171989D01*
X177633776Y-90143317D01*
X177647971Y-90142901D01*
X177889939Y-90135803D01*
X178078921Y-90167665D01*
X178078921Y-90167665D01*
G37*
G36*
X172886227Y-90143317D02*
X173135998Y-90200660D01*
X173252896Y-90253147D01*
X173369791Y-90305633D01*
X173369792Y-90305634D01*
X173369794Y-90305635D01*
X173578608Y-90454195D01*
X173754434Y-90640647D01*
X173884906Y-90848881D01*
X173890502Y-90857812D01*
X173981591Y-91097353D01*
X173981591Y-91097355D01*
X174013521Y-91286735D01*
X174062313Y-91994251D01*
X174058521Y-92123514D01*
X174056682Y-92186224D01*
X174050435Y-92213435D01*
X174043044Y-92245627D01*
X174039929Y-92269932D01*
X174041321Y-92292557D01*
X174065376Y-92449300D01*
X174054085Y-92705325D01*
X173993064Y-92954230D01*
X173884657Y-93186444D01*
X173881679Y-93190502D01*
X173771022Y-93341281D01*
X172375676Y-94896419D01*
X172234017Y-95026112D01*
X172014868Y-95158965D01*
X171774010Y-95246511D01*
X171520705Y-95285385D01*
X171264676Y-95274094D01*
X171015772Y-95213073D01*
X170783558Y-95104666D01*
X170576955Y-94953040D01*
X170576952Y-94953038D01*
X170403898Y-94764017D01*
X170403897Y-94764015D01*
X170403895Y-94764013D01*
X170271044Y-94544867D01*
X170183498Y-94304009D01*
X170144624Y-94050704D01*
X170155915Y-93794675D01*
X170216936Y-93545771D01*
X170325344Y-93313554D01*
X170438974Y-93158724D01*
X171420949Y-92064294D01*
X171435447Y-92044539D01*
X171445813Y-92022335D01*
X171451648Y-91998536D01*
X171452614Y-91972215D01*
X171417687Y-91465748D01*
X171423318Y-91273775D01*
X171480661Y-91024003D01*
X171559291Y-90848881D01*
X171585634Y-90790210D01*
X171599993Y-90770027D01*
X171734196Y-90581393D01*
X171920648Y-90405567D01*
X172137811Y-90269500D01*
X172137812Y-90269500D01*
X172137813Y-90269499D01*
X172377354Y-90178410D01*
X172630061Y-90135804D01*
X172886227Y-90143317D01*
X172886227Y-90143317D01*
G37*
G36*
X159028921Y-90167665D02*
X159092646Y-90178409D01*
X159332187Y-90269498D01*
X159549354Y-90405569D01*
X159735804Y-90581392D01*
X159884367Y-90790209D01*
X159989338Y-91024001D01*
X160046682Y-91273775D01*
X160052313Y-91465749D01*
X160017386Y-91972216D01*
X160018105Y-91996710D01*
X160023588Y-92020593D01*
X160033625Y-92042947D01*
X160049050Y-92064294D01*
X161031022Y-93158719D01*
X161104866Y-93259338D01*
X161144657Y-93313556D01*
X161253064Y-93545770D01*
X161314085Y-93794675D01*
X161325376Y-94050704D01*
X161286502Y-94304009D01*
X161198956Y-94544867D01*
X161066105Y-94764013D01*
X161066103Y-94764015D01*
X161066102Y-94764017D01*
X160893048Y-94953038D01*
X160686444Y-95104665D01*
X160686442Y-95104666D01*
X160454229Y-95213073D01*
X160331392Y-95243187D01*
X160205323Y-95274095D01*
X160067793Y-95280159D01*
X159949294Y-95285385D01*
X159695989Y-95246511D01*
X159455132Y-95158965D01*
X159235983Y-95026112D01*
X159235981Y-95026111D01*
X159094323Y-94896419D01*
X158514758Y-94250483D01*
X157698974Y-93341276D01*
X157585344Y-93186446D01*
X157476936Y-92954229D01*
X157415915Y-92705325D01*
X157404624Y-92449300D01*
X157428679Y-92292557D01*
X157430004Y-92268089D01*
X157426956Y-92245627D01*
X157413318Y-92186222D01*
X157407687Y-91994252D01*
X157456479Y-91286734D01*
X157482326Y-91133435D01*
X157488409Y-91097352D01*
X157579498Y-90857812D01*
X157585094Y-90848881D01*
X157715566Y-90640647D01*
X157891392Y-90454194D01*
X158100206Y-90305634D01*
X158100208Y-90305633D01*
X158100209Y-90305632D01*
X158198638Y-90261438D01*
X158333997Y-90200661D01*
X158458887Y-90171989D01*
X158583776Y-90143317D01*
X158597971Y-90142901D01*
X158839939Y-90135803D01*
X159028921Y-90167665D01*
X159028921Y-90167665D01*
G37*
G36*
X153836227Y-90143317D02*
X154085998Y-90200660D01*
X154202896Y-90253147D01*
X154319791Y-90305633D01*
X154319792Y-90305634D01*
X154319794Y-90305635D01*
X154528608Y-90454195D01*
X154704434Y-90640647D01*
X154834906Y-90848881D01*
X154840502Y-90857812D01*
X154931591Y-91097353D01*
X154931591Y-91097355D01*
X154963521Y-91286735D01*
X155012313Y-91994251D01*
X155008521Y-92123514D01*
X155006682Y-92186224D01*
X155000435Y-92213435D01*
X154993044Y-92245627D01*
X154989929Y-92269932D01*
X154991321Y-92292557D01*
X155015376Y-92449300D01*
X155004085Y-92705325D01*
X154943064Y-92954230D01*
X154834657Y-93186444D01*
X154831679Y-93190502D01*
X154721022Y-93341281D01*
X153325676Y-94896419D01*
X153184017Y-95026112D01*
X152964868Y-95158965D01*
X152724010Y-95246511D01*
X152470705Y-95285385D01*
X152214676Y-95274094D01*
X151965772Y-95213073D01*
X151733558Y-95104666D01*
X151526955Y-94953040D01*
X151526952Y-94953038D01*
X151353898Y-94764017D01*
X151353897Y-94764015D01*
X151353895Y-94764013D01*
X151221044Y-94544867D01*
X151133498Y-94304009D01*
X151094624Y-94050704D01*
X151105915Y-93794675D01*
X151166936Y-93545771D01*
X151275344Y-93313554D01*
X151388974Y-93158724D01*
X152370949Y-92064294D01*
X152385447Y-92044539D01*
X152395813Y-92022335D01*
X152401648Y-91998536D01*
X152402614Y-91972215D01*
X152367687Y-91465748D01*
X152373318Y-91273775D01*
X152430661Y-91024003D01*
X152509291Y-90848881D01*
X152535634Y-90790210D01*
X152549993Y-90770027D01*
X152684196Y-90581393D01*
X152870648Y-90405567D01*
X153087811Y-90269500D01*
X153087812Y-90269500D01*
X153087813Y-90269499D01*
X153327354Y-90178410D01*
X153580061Y-90135804D01*
X153836227Y-90143317D01*
X153836227Y-90143317D01*
G37*
G36*
X139978921Y-90167665D02*
X140042646Y-90178409D01*
X140282187Y-90269498D01*
X140499354Y-90405569D01*
X140685804Y-90581392D01*
X140834367Y-90790209D01*
X140939338Y-91024001D01*
X140996682Y-91273775D01*
X141002313Y-91465749D01*
X140967386Y-91972216D01*
X140968105Y-91996710D01*
X140973588Y-92020593D01*
X140983625Y-92042947D01*
X140999050Y-92064294D01*
X141981022Y-93158719D01*
X142054866Y-93259338D01*
X142094657Y-93313556D01*
X142203064Y-93545770D01*
X142264085Y-93794675D01*
X142275376Y-94050704D01*
X142236502Y-94304009D01*
X142148956Y-94544867D01*
X142016105Y-94764013D01*
X142016103Y-94764015D01*
X142016102Y-94764017D01*
X141843048Y-94953038D01*
X141636444Y-95104665D01*
X141636442Y-95104666D01*
X141404229Y-95213073D01*
X141281392Y-95243187D01*
X141155323Y-95274095D01*
X141017793Y-95280159D01*
X140899294Y-95285385D01*
X140645989Y-95246511D01*
X140405132Y-95158965D01*
X140185983Y-95026112D01*
X140185981Y-95026111D01*
X140044323Y-94896419D01*
X139464758Y-94250483D01*
X138648974Y-93341276D01*
X138535344Y-93186446D01*
X138426936Y-92954229D01*
X138365915Y-92705325D01*
X138354624Y-92449300D01*
X138378679Y-92292557D01*
X138380004Y-92268089D01*
X138376956Y-92245627D01*
X138363318Y-92186222D01*
X138357687Y-91994252D01*
X138406479Y-91286734D01*
X138432326Y-91133435D01*
X138438409Y-91097352D01*
X138529498Y-90857812D01*
X138535094Y-90848881D01*
X138665566Y-90640647D01*
X138841392Y-90454194D01*
X139050206Y-90305634D01*
X139050208Y-90305633D01*
X139050209Y-90305632D01*
X139148638Y-90261438D01*
X139283997Y-90200661D01*
X139408888Y-90171989D01*
X139533776Y-90143317D01*
X139547971Y-90142901D01*
X139789939Y-90135803D01*
X139978921Y-90167665D01*
X139978921Y-90167665D01*
G37*
G36*
X134786227Y-90143317D02*
X135035998Y-90200660D01*
X135152896Y-90253147D01*
X135269791Y-90305633D01*
X135269792Y-90305634D01*
X135269794Y-90305635D01*
X135478608Y-90454195D01*
X135654434Y-90640647D01*
X135784906Y-90848881D01*
X135790502Y-90857812D01*
X135881591Y-91097353D01*
X135881591Y-91097355D01*
X135913521Y-91286735D01*
X135962313Y-91994251D01*
X135958521Y-92123514D01*
X135956682Y-92186224D01*
X135950435Y-92213435D01*
X135943044Y-92245627D01*
X135939929Y-92269932D01*
X135941321Y-92292557D01*
X135965376Y-92449300D01*
X135954085Y-92705325D01*
X135893064Y-92954230D01*
X135784657Y-93186444D01*
X135781679Y-93190502D01*
X135671022Y-93341281D01*
X134275676Y-94896419D01*
X134134017Y-95026112D01*
X133914868Y-95158965D01*
X133674010Y-95246511D01*
X133420705Y-95285385D01*
X133164676Y-95274094D01*
X132915772Y-95213073D01*
X132683558Y-95104666D01*
X132476955Y-94953040D01*
X132476952Y-94953038D01*
X132303898Y-94764017D01*
X132303897Y-94764015D01*
X132303895Y-94764013D01*
X132171044Y-94544867D01*
X132083498Y-94304009D01*
X132044624Y-94050704D01*
X132055915Y-93794675D01*
X132116936Y-93545771D01*
X132225344Y-93313554D01*
X132338974Y-93158724D01*
X133320949Y-92064294D01*
X133335447Y-92044539D01*
X133345813Y-92022335D01*
X133351648Y-91998536D01*
X133352614Y-91972215D01*
X133317687Y-91465748D01*
X133323318Y-91273775D01*
X133380661Y-91024003D01*
X133459291Y-90848881D01*
X133485634Y-90790210D01*
X133499993Y-90770027D01*
X133634196Y-90581393D01*
X133820648Y-90405567D01*
X134037811Y-90269500D01*
X134037812Y-90269500D01*
X134037813Y-90269499D01*
X134277354Y-90178410D01*
X134530061Y-90135804D01*
X134786227Y-90143317D01*
X134786227Y-90143317D01*
G37*
G36*
X120928921Y-90167665D02*
X120992646Y-90178409D01*
X121232187Y-90269498D01*
X121449354Y-90405569D01*
X121635804Y-90581392D01*
X121784367Y-90790209D01*
X121889338Y-91024001D01*
X121946682Y-91273775D01*
X121952313Y-91465749D01*
X121917386Y-91972216D01*
X121918105Y-91996710D01*
X121923588Y-92020593D01*
X121933625Y-92042947D01*
X121949050Y-92064294D01*
X122931022Y-93158719D01*
X123004866Y-93259338D01*
X123044657Y-93313556D01*
X123153064Y-93545770D01*
X123214085Y-93794675D01*
X123225376Y-94050704D01*
X123186502Y-94304009D01*
X123098956Y-94544867D01*
X122966105Y-94764013D01*
X122966103Y-94764015D01*
X122966102Y-94764017D01*
X122793048Y-94953038D01*
X122586444Y-95104665D01*
X122586442Y-95104666D01*
X122354229Y-95213073D01*
X122231392Y-95243187D01*
X122105323Y-95274095D01*
X121967793Y-95280159D01*
X121849294Y-95285385D01*
X121595989Y-95246511D01*
X121355132Y-95158965D01*
X121135983Y-95026112D01*
X121135981Y-95026111D01*
X120994323Y-94896419D01*
X120414758Y-94250483D01*
X119598974Y-93341276D01*
X119485344Y-93186446D01*
X119376936Y-92954229D01*
X119315915Y-92705325D01*
X119304624Y-92449300D01*
X119328679Y-92292557D01*
X119330004Y-92268089D01*
X119326956Y-92245627D01*
X119313318Y-92186222D01*
X119307687Y-91994252D01*
X119356479Y-91286734D01*
X119382326Y-91133435D01*
X119388409Y-91097352D01*
X119479498Y-90857812D01*
X119485094Y-90848881D01*
X119615566Y-90640647D01*
X119791392Y-90454194D01*
X120000206Y-90305634D01*
X120000208Y-90305633D01*
X120000209Y-90305632D01*
X120098638Y-90261438D01*
X120233997Y-90200661D01*
X120358888Y-90171989D01*
X120483776Y-90143317D01*
X120497971Y-90142901D01*
X120739939Y-90135803D01*
X120928921Y-90167665D01*
X120928921Y-90167665D01*
G37*
G36*
X115736227Y-90143317D02*
X115985998Y-90200660D01*
X116102896Y-90253147D01*
X116219791Y-90305633D01*
X116219792Y-90305634D01*
X116219794Y-90305635D01*
X116428608Y-90454195D01*
X116604434Y-90640647D01*
X116734906Y-90848881D01*
X116740502Y-90857812D01*
X116831591Y-91097353D01*
X116831591Y-91097355D01*
X116863521Y-91286735D01*
X116912313Y-91994251D01*
X116908521Y-92123514D01*
X116906682Y-92186224D01*
X116900435Y-92213435D01*
X116893044Y-92245627D01*
X116889929Y-92269932D01*
X116891321Y-92292557D01*
X116915376Y-92449300D01*
X116904085Y-92705325D01*
X116843064Y-92954230D01*
X116734657Y-93186444D01*
X116731679Y-93190502D01*
X116621022Y-93341281D01*
X115225676Y-94896419D01*
X115084017Y-95026112D01*
X114864868Y-95158965D01*
X114624010Y-95246511D01*
X114370705Y-95285385D01*
X114114676Y-95274094D01*
X113865772Y-95213073D01*
X113633558Y-95104666D01*
X113426955Y-94953040D01*
X113426952Y-94953038D01*
X113253898Y-94764017D01*
X113253897Y-94764015D01*
X113253895Y-94764013D01*
X113121044Y-94544867D01*
X113033498Y-94304009D01*
X112994624Y-94050704D01*
X113005915Y-93794675D01*
X113066936Y-93545771D01*
X113175344Y-93313554D01*
X113288974Y-93158724D01*
X114270949Y-92064294D01*
X114285447Y-92044539D01*
X114295813Y-92022335D01*
X114301648Y-91998536D01*
X114302614Y-91972215D01*
X114267687Y-91465748D01*
X114273318Y-91273775D01*
X114330661Y-91024003D01*
X114409291Y-90848881D01*
X114435634Y-90790210D01*
X114449993Y-90770027D01*
X114584196Y-90581393D01*
X114770648Y-90405567D01*
X114987811Y-90269500D01*
X114987812Y-90269500D01*
X114987813Y-90269499D01*
X115227354Y-90178410D01*
X115480061Y-90135804D01*
X115736227Y-90143317D01*
X115736227Y-90143317D01*
G37*
G36*
X148743279Y-93065022D02*
X148860483Y-93088335D01*
X149029241Y-93158237D01*
X149179071Y-93258350D01*
X149181122Y-93259721D01*
X149310279Y-93388878D01*
X149310281Y-93388881D01*
X149411763Y-93540759D01*
X149481665Y-93709517D01*
X149517300Y-93888669D01*
X149517300Y-94071331D01*
X149481665Y-94250483D01*
X149411763Y-94419241D01*
X149327823Y-94544866D01*
X149310279Y-94571122D01*
X149181122Y-94700279D01*
X149181119Y-94700281D01*
X149029241Y-94801763D01*
X148860483Y-94871665D01*
X148770907Y-94889482D01*
X148681333Y-94907300D01*
X148498667Y-94907300D01*
X148409093Y-94889482D01*
X148319517Y-94871665D01*
X148150759Y-94801763D01*
X147998881Y-94700281D01*
X147998878Y-94700279D01*
X147869721Y-94571122D01*
X147852177Y-94544866D01*
X147768237Y-94419241D01*
X147698335Y-94250483D01*
X147662700Y-94071331D01*
X147662700Y-93888669D01*
X147698335Y-93709517D01*
X147768237Y-93540759D01*
X147869719Y-93388881D01*
X147869721Y-93388878D01*
X147998878Y-93259721D01*
X148000929Y-93258350D01*
X148150759Y-93158237D01*
X148319517Y-93088335D01*
X148436721Y-93065022D01*
X148498667Y-93052700D01*
X148681333Y-93052700D01*
X148743279Y-93065022D01*
X148743279Y-93065022D01*
G37*
G36*
X129693279Y-93065022D02*
X129810483Y-93088335D01*
X129979241Y-93158237D01*
X130129071Y-93258350D01*
X130131122Y-93259721D01*
X130260279Y-93388878D01*
X130260281Y-93388881D01*
X130361763Y-93540759D01*
X130431665Y-93709517D01*
X130467300Y-93888669D01*
X130467300Y-94071331D01*
X130431665Y-94250483D01*
X130361763Y-94419241D01*
X130277823Y-94544866D01*
X130260279Y-94571122D01*
X130131122Y-94700279D01*
X130131119Y-94700281D01*
X129979241Y-94801763D01*
X129810483Y-94871665D01*
X129720907Y-94889482D01*
X129631333Y-94907300D01*
X129448667Y-94907300D01*
X129359093Y-94889482D01*
X129269517Y-94871665D01*
X129100759Y-94801763D01*
X128948881Y-94700281D01*
X128948878Y-94700279D01*
X128819721Y-94571122D01*
X128802177Y-94544866D01*
X128718237Y-94419241D01*
X128648335Y-94250483D01*
X128612700Y-94071331D01*
X128612700Y-93888669D01*
X128648335Y-93709517D01*
X128718237Y-93540759D01*
X128819719Y-93388881D01*
X128819721Y-93388878D01*
X128948878Y-93259721D01*
X128950929Y-93258350D01*
X129100759Y-93158237D01*
X129269517Y-93088335D01*
X129386721Y-93065022D01*
X129448667Y-93052700D01*
X129631333Y-93052700D01*
X129693279Y-93065022D01*
X129693279Y-93065022D01*
G37*
G36*
X144933279Y-93065022D02*
X145050483Y-93088335D01*
X145219241Y-93158237D01*
X145369071Y-93258350D01*
X145371122Y-93259721D01*
X145500279Y-93388878D01*
X145500281Y-93388881D01*
X145601763Y-93540759D01*
X145671665Y-93709517D01*
X145707300Y-93888669D01*
X145707300Y-94071331D01*
X145671665Y-94250483D01*
X145601763Y-94419241D01*
X145517823Y-94544866D01*
X145500279Y-94571122D01*
X145371122Y-94700279D01*
X145371119Y-94700281D01*
X145219241Y-94801763D01*
X145050483Y-94871665D01*
X144960907Y-94889482D01*
X144871333Y-94907300D01*
X144688667Y-94907300D01*
X144599093Y-94889482D01*
X144509517Y-94871665D01*
X144340759Y-94801763D01*
X144188881Y-94700281D01*
X144188878Y-94700279D01*
X144059721Y-94571122D01*
X144042177Y-94544866D01*
X143958237Y-94419241D01*
X143888335Y-94250483D01*
X143852700Y-94071331D01*
X143852700Y-93888669D01*
X143888335Y-93709517D01*
X143958237Y-93540759D01*
X144059719Y-93388881D01*
X144059721Y-93388878D01*
X144188878Y-93259721D01*
X144190929Y-93258350D01*
X144340759Y-93158237D01*
X144509517Y-93088335D01*
X144626721Y-93065022D01*
X144688667Y-93052700D01*
X144871333Y-93052700D01*
X144933279Y-93065022D01*
X144933279Y-93065022D01*
G37*
G36*
X163983279Y-93065022D02*
X164100483Y-93088335D01*
X164269241Y-93158237D01*
X164419071Y-93258350D01*
X164421122Y-93259721D01*
X164550279Y-93388878D01*
X164550281Y-93388881D01*
X164651763Y-93540759D01*
X164721665Y-93709517D01*
X164757300Y-93888669D01*
X164757300Y-94071331D01*
X164721665Y-94250483D01*
X164651763Y-94419241D01*
X164567823Y-94544866D01*
X164550279Y-94571122D01*
X164421122Y-94700279D01*
X164421119Y-94700281D01*
X164269241Y-94801763D01*
X164100483Y-94871665D01*
X164010907Y-94889482D01*
X163921333Y-94907300D01*
X163738667Y-94907300D01*
X163649093Y-94889482D01*
X163559517Y-94871665D01*
X163390759Y-94801763D01*
X163238881Y-94700281D01*
X163238878Y-94700279D01*
X163109721Y-94571122D01*
X163092177Y-94544866D01*
X163008237Y-94419241D01*
X162938335Y-94250483D01*
X162902700Y-94071331D01*
X162902700Y-93888669D01*
X162938335Y-93709517D01*
X163008237Y-93540759D01*
X163109719Y-93388881D01*
X163109721Y-93388878D01*
X163238878Y-93259721D01*
X163240929Y-93258350D01*
X163390759Y-93158237D01*
X163559517Y-93088335D01*
X163676721Y-93065022D01*
X163738667Y-93052700D01*
X163921333Y-93052700D01*
X163983279Y-93065022D01*
X163983279Y-93065022D01*
G37*
G36*
X125948621Y-91989302D02*
X126085022Y-92045801D01*
X126207779Y-92127825D01*
X126312175Y-92232221D01*
X126394199Y-92354978D01*
X126450698Y-92491379D01*
X126479500Y-92636181D01*
X126479500Y-92783819D01*
X126450698Y-92928621D01*
X126394199Y-93065022D01*
X126312175Y-93187779D01*
X126207779Y-93292175D01*
X126085022Y-93374199D01*
X125948621Y-93430698D01*
X125803819Y-93459500D01*
X125656181Y-93459500D01*
X125511379Y-93430698D01*
X125374978Y-93374199D01*
X125252221Y-93292175D01*
X125147825Y-93187779D01*
X125065801Y-93065022D01*
X125009302Y-92928621D01*
X124980500Y-92783819D01*
X124980500Y-92636181D01*
X125009302Y-92491379D01*
X125065801Y-92354978D01*
X125147825Y-92232221D01*
X125252221Y-92127825D01*
X125374978Y-92045801D01*
X125511379Y-91989302D01*
X125656181Y-91960500D01*
X125803819Y-91960500D01*
X125948621Y-91989302D01*
X125948621Y-91989302D01*
G37*
G36*
X110708621Y-91989302D02*
X110845022Y-92045801D01*
X110967779Y-92127825D01*
X111072175Y-92232221D01*
X111154199Y-92354978D01*
X111210698Y-92491379D01*
X111239500Y-92636181D01*
X111239500Y-92783819D01*
X111210698Y-92928621D01*
X111154199Y-93065022D01*
X111072175Y-93187779D01*
X110967779Y-93292175D01*
X110845022Y-93374199D01*
X110708621Y-93430698D01*
X110563819Y-93459500D01*
X110416181Y-93459500D01*
X110271379Y-93430698D01*
X110134978Y-93374199D01*
X110012221Y-93292175D01*
X109907825Y-93187779D01*
X109825801Y-93065022D01*
X109769302Y-92928621D01*
X109740500Y-92783819D01*
X109740500Y-92636181D01*
X109769302Y-92491379D01*
X109825801Y-92354978D01*
X109907825Y-92232221D01*
X110012221Y-92127825D01*
X110134978Y-92045801D01*
X110271379Y-91989302D01*
X110416181Y-91960500D01*
X110563819Y-91960500D01*
X110708621Y-91989302D01*
X110708621Y-91989302D01*
G37*
G36*
X167858621Y-91989302D02*
X167995022Y-92045801D01*
X168117779Y-92127825D01*
X168222175Y-92232221D01*
X168304199Y-92354978D01*
X168360698Y-92491379D01*
X168389500Y-92636181D01*
X168389500Y-92783819D01*
X168360698Y-92928621D01*
X168304199Y-93065022D01*
X168222175Y-93187779D01*
X168117779Y-93292175D01*
X167995022Y-93374199D01*
X167858621Y-93430698D01*
X167713819Y-93459500D01*
X167566181Y-93459500D01*
X167421379Y-93430698D01*
X167284978Y-93374199D01*
X167162221Y-93292175D01*
X167057825Y-93187779D01*
X166975801Y-93065022D01*
X166919302Y-92928621D01*
X166890500Y-92783819D01*
X166890500Y-92636181D01*
X166919302Y-92491379D01*
X166975801Y-92354978D01*
X167057825Y-92232221D01*
X167162221Y-92127825D01*
X167284978Y-92045801D01*
X167421379Y-91989302D01*
X167566181Y-91960500D01*
X167713819Y-91960500D01*
X167858621Y-91989302D01*
X167858621Y-91989302D01*
G37*
G36*
X183098621Y-91989302D02*
X183235022Y-92045801D01*
X183357779Y-92127825D01*
X183462175Y-92232221D01*
X183544199Y-92354978D01*
X183600698Y-92491379D01*
X183629500Y-92636181D01*
X183629500Y-92783819D01*
X183600698Y-92928621D01*
X183544199Y-93065022D01*
X183462175Y-93187779D01*
X183357779Y-93292175D01*
X183235022Y-93374199D01*
X183098621Y-93430698D01*
X182953819Y-93459500D01*
X182806181Y-93459500D01*
X182661379Y-93430698D01*
X182524978Y-93374199D01*
X182402221Y-93292175D01*
X182297825Y-93187779D01*
X182215801Y-93065022D01*
X182159302Y-92928621D01*
X182130500Y-92783819D01*
X182130500Y-92636181D01*
X182159302Y-92491379D01*
X182215801Y-92354978D01*
X182297825Y-92232221D01*
X182402221Y-92127825D01*
X182524978Y-92045801D01*
X182661379Y-91989302D01*
X182806181Y-91960500D01*
X182953819Y-91960500D01*
X183098621Y-91989302D01*
X183098621Y-91989302D01*
G37*
G36*
X148770907Y-90530517D02*
X148860483Y-90548335D01*
X149029241Y-90618237D01*
X149179071Y-90718350D01*
X149181122Y-90719721D01*
X149310279Y-90848878D01*
X149310281Y-90848881D01*
X149411763Y-91000759D01*
X149481665Y-91169517D01*
X149492881Y-91225905D01*
X149517300Y-91348667D01*
X149517300Y-91531333D01*
X149502929Y-91603581D01*
X149481665Y-91710483D01*
X149411763Y-91879241D01*
X149349639Y-91972216D01*
X149310279Y-92031122D01*
X149181122Y-92160279D01*
X149181119Y-92160281D01*
X149029241Y-92261763D01*
X148860483Y-92331665D01*
X148770907Y-92349483D01*
X148681333Y-92367300D01*
X148498667Y-92367300D01*
X148409093Y-92349482D01*
X148319517Y-92331665D01*
X148150759Y-92261763D01*
X147998881Y-92160281D01*
X147998878Y-92160279D01*
X147869721Y-92031122D01*
X147830361Y-91972216D01*
X147768237Y-91879241D01*
X147698335Y-91710483D01*
X147677071Y-91603581D01*
X147662700Y-91531333D01*
X147662700Y-91348667D01*
X147687119Y-91225905D01*
X147698335Y-91169517D01*
X147768237Y-91000759D01*
X147869719Y-90848881D01*
X147869721Y-90848878D01*
X147998878Y-90719721D01*
X148000929Y-90718350D01*
X148150759Y-90618237D01*
X148319517Y-90548335D01*
X148409093Y-90530517D01*
X148498667Y-90512700D01*
X148681333Y-90512700D01*
X148770907Y-90530517D01*
X148770907Y-90530517D01*
G37*
G36*
X144960907Y-90530517D02*
X145050483Y-90548335D01*
X145219241Y-90618237D01*
X145369071Y-90718350D01*
X145371122Y-90719721D01*
X145500279Y-90848878D01*
X145500281Y-90848881D01*
X145601763Y-91000759D01*
X145671665Y-91169517D01*
X145682881Y-91225905D01*
X145707300Y-91348667D01*
X145707300Y-91531333D01*
X145692929Y-91603581D01*
X145671665Y-91710483D01*
X145601763Y-91879241D01*
X145539639Y-91972216D01*
X145500279Y-92031122D01*
X145371122Y-92160279D01*
X145371119Y-92160281D01*
X145219241Y-92261763D01*
X145050483Y-92331665D01*
X144960907Y-92349483D01*
X144871333Y-92367300D01*
X144688667Y-92367300D01*
X144599093Y-92349482D01*
X144509517Y-92331665D01*
X144340759Y-92261763D01*
X144188881Y-92160281D01*
X144188878Y-92160279D01*
X144059721Y-92031122D01*
X144020361Y-91972216D01*
X143958237Y-91879241D01*
X143888335Y-91710483D01*
X143867071Y-91603581D01*
X143852700Y-91531333D01*
X143852700Y-91348667D01*
X143877119Y-91225905D01*
X143888335Y-91169517D01*
X143958237Y-91000759D01*
X144059719Y-90848881D01*
X144059721Y-90848878D01*
X144188878Y-90719721D01*
X144190929Y-90718350D01*
X144340759Y-90618237D01*
X144509517Y-90548335D01*
X144599093Y-90530517D01*
X144688667Y-90512700D01*
X144871333Y-90512700D01*
X144960907Y-90530517D01*
X144960907Y-90530517D01*
G37*
G36*
X129720907Y-90530517D02*
X129810483Y-90548335D01*
X129979241Y-90618237D01*
X130129071Y-90718350D01*
X130131122Y-90719721D01*
X130260279Y-90848878D01*
X130260281Y-90848881D01*
X130361763Y-91000759D01*
X130431665Y-91169517D01*
X130442881Y-91225905D01*
X130467300Y-91348667D01*
X130467300Y-91531333D01*
X130452929Y-91603581D01*
X130431665Y-91710483D01*
X130361763Y-91879241D01*
X130299639Y-91972216D01*
X130260279Y-92031122D01*
X130131122Y-92160279D01*
X130131119Y-92160281D01*
X129979241Y-92261763D01*
X129810483Y-92331665D01*
X129720907Y-92349483D01*
X129631333Y-92367300D01*
X129448667Y-92367300D01*
X129359093Y-92349482D01*
X129269517Y-92331665D01*
X129100759Y-92261763D01*
X128948881Y-92160281D01*
X128948878Y-92160279D01*
X128819721Y-92031122D01*
X128780361Y-91972216D01*
X128718237Y-91879241D01*
X128648335Y-91710483D01*
X128627071Y-91603581D01*
X128612700Y-91531333D01*
X128612700Y-91348667D01*
X128637119Y-91225905D01*
X128648335Y-91169517D01*
X128718237Y-91000759D01*
X128819719Y-90848881D01*
X128819721Y-90848878D01*
X128948878Y-90719721D01*
X128950929Y-90718350D01*
X129100759Y-90618237D01*
X129269517Y-90548335D01*
X129359093Y-90530517D01*
X129448667Y-90512700D01*
X129631333Y-90512700D01*
X129720907Y-90530517D01*
X129720907Y-90530517D01*
G37*
G36*
X164010907Y-90530517D02*
X164100483Y-90548335D01*
X164269241Y-90618237D01*
X164419071Y-90718350D01*
X164421122Y-90719721D01*
X164550279Y-90848878D01*
X164550281Y-90848881D01*
X164651763Y-91000759D01*
X164721665Y-91169517D01*
X164732881Y-91225905D01*
X164757300Y-91348667D01*
X164757300Y-91531333D01*
X164742929Y-91603581D01*
X164721665Y-91710483D01*
X164651763Y-91879241D01*
X164589639Y-91972216D01*
X164550279Y-92031122D01*
X164421122Y-92160279D01*
X164421119Y-92160281D01*
X164269241Y-92261763D01*
X164100483Y-92331665D01*
X164010907Y-92349483D01*
X163921333Y-92367300D01*
X163738667Y-92367300D01*
X163649093Y-92349482D01*
X163559517Y-92331665D01*
X163390759Y-92261763D01*
X163238881Y-92160281D01*
X163238878Y-92160279D01*
X163109721Y-92031122D01*
X163070361Y-91972216D01*
X163008237Y-91879241D01*
X162938335Y-91710483D01*
X162917071Y-91603581D01*
X162902700Y-91531333D01*
X162902700Y-91348667D01*
X162927119Y-91225905D01*
X162938335Y-91169517D01*
X163008237Y-91000759D01*
X163109719Y-90848881D01*
X163109721Y-90848878D01*
X163238878Y-90719721D01*
X163240929Y-90718350D01*
X163390759Y-90618237D01*
X163559517Y-90548335D01*
X163649093Y-90530517D01*
X163738667Y-90512700D01*
X163921333Y-90512700D01*
X164010907Y-90530517D01*
X164010907Y-90530517D01*
G37*
G36*
X129720907Y-87990518D02*
X129810483Y-88008335D01*
X129979241Y-88078237D01*
X130129071Y-88178350D01*
X130131122Y-88179721D01*
X130260279Y-88308878D01*
X130260281Y-88308881D01*
X130361763Y-88460759D01*
X130431665Y-88629517D01*
X130467300Y-88808669D01*
X130467300Y-88991331D01*
X130431665Y-89170483D01*
X130361763Y-89339241D01*
X130361762Y-89339242D01*
X130260279Y-89491122D01*
X130131122Y-89620279D01*
X130131119Y-89620281D01*
X129979241Y-89721763D01*
X129810483Y-89791665D01*
X129720907Y-89809482D01*
X129631333Y-89827300D01*
X129448667Y-89827300D01*
X129359093Y-89809482D01*
X129269517Y-89791665D01*
X129100759Y-89721763D01*
X128948881Y-89620281D01*
X128948878Y-89620279D01*
X128819721Y-89491122D01*
X128718238Y-89339242D01*
X128718237Y-89339241D01*
X128648335Y-89170483D01*
X128612700Y-88991331D01*
X128612700Y-88808669D01*
X128648335Y-88629517D01*
X128718237Y-88460759D01*
X128819719Y-88308881D01*
X128819721Y-88308878D01*
X128948878Y-88179721D01*
X128950929Y-88178350D01*
X129100759Y-88078237D01*
X129269517Y-88008335D01*
X129359093Y-87990518D01*
X129448667Y-87972700D01*
X129631333Y-87972700D01*
X129720907Y-87990518D01*
X129720907Y-87990518D01*
G37*
G36*
X144960907Y-87990518D02*
X145050483Y-88008335D01*
X145219241Y-88078237D01*
X145369071Y-88178350D01*
X145371122Y-88179721D01*
X145500279Y-88308878D01*
X145500281Y-88308881D01*
X145601763Y-88460759D01*
X145671665Y-88629517D01*
X145707300Y-88808669D01*
X145707300Y-88991331D01*
X145671665Y-89170483D01*
X145601763Y-89339241D01*
X145601762Y-89339242D01*
X145500279Y-89491122D01*
X145371122Y-89620279D01*
X145371119Y-89620281D01*
X145219241Y-89721763D01*
X145050483Y-89791665D01*
X144960907Y-89809482D01*
X144871333Y-89827300D01*
X144688667Y-89827300D01*
X144599093Y-89809482D01*
X144509517Y-89791665D01*
X144340759Y-89721763D01*
X144188881Y-89620281D01*
X144188878Y-89620279D01*
X144059721Y-89491122D01*
X143958238Y-89339242D01*
X143958237Y-89339241D01*
X143888335Y-89170483D01*
X143852700Y-88991331D01*
X143852700Y-88808669D01*
X143888335Y-88629517D01*
X143958237Y-88460759D01*
X144059719Y-88308881D01*
X144059721Y-88308878D01*
X144188878Y-88179721D01*
X144190929Y-88178350D01*
X144340759Y-88078237D01*
X144509517Y-88008335D01*
X144599093Y-87990518D01*
X144688667Y-87972700D01*
X144871333Y-87972700D01*
X144960907Y-87990518D01*
X144960907Y-87990518D01*
G37*
G36*
X148770907Y-87990518D02*
X148860483Y-88008335D01*
X149029241Y-88078237D01*
X149179071Y-88178350D01*
X149181122Y-88179721D01*
X149310279Y-88308878D01*
X149310281Y-88308881D01*
X149411763Y-88460759D01*
X149481665Y-88629517D01*
X149517300Y-88808669D01*
X149517300Y-88991331D01*
X149481665Y-89170483D01*
X149411763Y-89339241D01*
X149411762Y-89339242D01*
X149310279Y-89491122D01*
X149181122Y-89620279D01*
X149181119Y-89620281D01*
X149029241Y-89721763D01*
X148860483Y-89791665D01*
X148770907Y-89809482D01*
X148681333Y-89827300D01*
X148498667Y-89827300D01*
X148409093Y-89809482D01*
X148319517Y-89791665D01*
X148150759Y-89721763D01*
X147998881Y-89620281D01*
X147998878Y-89620279D01*
X147869721Y-89491122D01*
X147768238Y-89339242D01*
X147768237Y-89339241D01*
X147698335Y-89170483D01*
X147662700Y-88991331D01*
X147662700Y-88808669D01*
X147698335Y-88629517D01*
X147768237Y-88460759D01*
X147869719Y-88308881D01*
X147869721Y-88308878D01*
X147998878Y-88179721D01*
X148000929Y-88178350D01*
X148150759Y-88078237D01*
X148319517Y-88008335D01*
X148409093Y-87990518D01*
X148498667Y-87972700D01*
X148681333Y-87972700D01*
X148770907Y-87990518D01*
X148770907Y-87990518D01*
G37*
G36*
X164010907Y-87990518D02*
X164100483Y-88008335D01*
X164269241Y-88078237D01*
X164419071Y-88178350D01*
X164421122Y-88179721D01*
X164550279Y-88308878D01*
X164550281Y-88308881D01*
X164651763Y-88460759D01*
X164721665Y-88629517D01*
X164757300Y-88808669D01*
X164757300Y-88991331D01*
X164721665Y-89170483D01*
X164651763Y-89339241D01*
X164651762Y-89339242D01*
X164550279Y-89491122D01*
X164421122Y-89620279D01*
X164421119Y-89620281D01*
X164269241Y-89721763D01*
X164100483Y-89791665D01*
X164010907Y-89809482D01*
X163921333Y-89827300D01*
X163738667Y-89827300D01*
X163649093Y-89809482D01*
X163559517Y-89791665D01*
X163390759Y-89721763D01*
X163238881Y-89620281D01*
X163238878Y-89620279D01*
X163109721Y-89491122D01*
X163008238Y-89339242D01*
X163008237Y-89339241D01*
X162938335Y-89170483D01*
X162902700Y-88991331D01*
X162902700Y-88808669D01*
X162938335Y-88629517D01*
X163008237Y-88460759D01*
X163109719Y-88308881D01*
X163109721Y-88308878D01*
X163238878Y-88179721D01*
X163240929Y-88178350D01*
X163390759Y-88078237D01*
X163559517Y-88008335D01*
X163649093Y-87990518D01*
X163738667Y-87972700D01*
X163921333Y-87972700D01*
X164010907Y-87990518D01*
X164010907Y-87990518D01*
G37*
G36*
X170756627Y-83992037D02*
X170869853Y-84026384D01*
X170926467Y-84043557D01*
X171014254Y-84090481D01*
X171082991Y-84127222D01*
X171087594Y-84131000D01*
X171220186Y-84239814D01*
X171303448Y-84341271D01*
X171332778Y-84377009D01*
X171332779Y-84377011D01*
X171416443Y-84533533D01*
X171416443Y-84533534D01*
X171467963Y-84703373D01*
X171472289Y-84747300D01*
X171481000Y-84835741D01*
X171481000Y-85646894D01*
X171483402Y-85671280D01*
X171490515Y-85694729D01*
X171502066Y-85716340D01*
X171517612Y-85735282D01*
X171536554Y-85750828D01*
X171558165Y-85762379D01*
X171581614Y-85769492D01*
X171606000Y-85771894D01*
X171630386Y-85769492D01*
X171653835Y-85762379D01*
X171685299Y-85743520D01*
X171827009Y-85627223D01*
X171827008Y-85627223D01*
X171827010Y-85627222D01*
X171899869Y-85588278D01*
X171983534Y-85543557D01*
X172040148Y-85526384D01*
X172153374Y-85492037D01*
X172330000Y-85474641D01*
X172506627Y-85492037D01*
X172619853Y-85526384D01*
X172676467Y-85543557D01*
X172815087Y-85617652D01*
X172832991Y-85627222D01*
X172848221Y-85639721D01*
X172970186Y-85739814D01*
X173053448Y-85841271D01*
X173082778Y-85877009D01*
X173082779Y-85877011D01*
X173166443Y-86033533D01*
X173166443Y-86033534D01*
X173217963Y-86203373D01*
X173231000Y-86335742D01*
X173231000Y-87224258D01*
X173217963Y-87356627D01*
X173183616Y-87469853D01*
X173166443Y-87526467D01*
X173092348Y-87665087D01*
X173082778Y-87682991D01*
X173053448Y-87718729D01*
X172970186Y-87820186D01*
X172832989Y-87932779D01*
X172676466Y-88016443D01*
X172619852Y-88033616D01*
X172506626Y-88067963D01*
X172330000Y-88085359D01*
X172153373Y-88067963D01*
X172040147Y-88033616D01*
X171983533Y-88016443D01*
X171827011Y-87932779D01*
X171827009Y-87932778D01*
X171791271Y-87903448D01*
X171689814Y-87820186D01*
X171577221Y-87682989D01*
X171493557Y-87526466D01*
X171476384Y-87469852D01*
X171442037Y-87356626D01*
X171429000Y-87224257D01*
X171429000Y-86413107D01*
X171426598Y-86388721D01*
X171419485Y-86365272D01*
X171407934Y-86343661D01*
X171392388Y-86324719D01*
X171373446Y-86309173D01*
X171351835Y-86297622D01*
X171328386Y-86290509D01*
X171304000Y-86288107D01*
X171279614Y-86290509D01*
X171256165Y-86297622D01*
X171224701Y-86316480D01*
X171082989Y-86432779D01*
X170926466Y-86516443D01*
X170869852Y-86533616D01*
X170756626Y-86567963D01*
X170580000Y-86585359D01*
X170403373Y-86567963D01*
X170290147Y-86533616D01*
X170233533Y-86516443D01*
X170077011Y-86432779D01*
X170077009Y-86432778D01*
X170041271Y-86403448D01*
X169939814Y-86320186D01*
X169827221Y-86182989D01*
X169743557Y-86026466D01*
X169726384Y-85969852D01*
X169692037Y-85856626D01*
X169680086Y-85735282D01*
X169679000Y-85724259D01*
X169679000Y-84835741D01*
X169692038Y-84703375D01*
X169692038Y-84703373D01*
X169743558Y-84533534D01*
X169743558Y-84533533D01*
X169827222Y-84377011D01*
X169827223Y-84377009D01*
X169856553Y-84341271D01*
X169939815Y-84239814D01*
X170072407Y-84131000D01*
X170077010Y-84127222D01*
X170145747Y-84090481D01*
X170233534Y-84043557D01*
X170290148Y-84026384D01*
X170403374Y-83992037D01*
X170580000Y-83974641D01*
X170756627Y-83992037D01*
X170756627Y-83992037D01*
G37*
G36*
X176706627Y-83992037D02*
X176819853Y-84026384D01*
X176876467Y-84043557D01*
X176964254Y-84090481D01*
X177032991Y-84127222D01*
X177037594Y-84131000D01*
X177170186Y-84239814D01*
X177253448Y-84341271D01*
X177282778Y-84377009D01*
X177282779Y-84377011D01*
X177366443Y-84533533D01*
X177366443Y-84533534D01*
X177417963Y-84703373D01*
X177422289Y-84747300D01*
X177431000Y-84835741D01*
X177431000Y-85724260D01*
X177426839Y-85766510D01*
X177417963Y-85856627D01*
X177398509Y-85920758D01*
X177366443Y-86026467D01*
X177292348Y-86165087D01*
X177282778Y-86182991D01*
X177266051Y-86203373D01*
X177170186Y-86320186D01*
X177032989Y-86432779D01*
X176876466Y-86516443D01*
X176819852Y-86533616D01*
X176706626Y-86567963D01*
X176530000Y-86585359D01*
X176353373Y-86567963D01*
X176240147Y-86533616D01*
X176183533Y-86516443D01*
X176027011Y-86432779D01*
X176027009Y-86432778D01*
X175931241Y-86354183D01*
X175885299Y-86316480D01*
X175864924Y-86302867D01*
X175842285Y-86293489D01*
X175818252Y-86288709D01*
X175793747Y-86288709D01*
X175769714Y-86293490D01*
X175747075Y-86302867D01*
X175726701Y-86316481D01*
X175709373Y-86333808D01*
X175695760Y-86354183D01*
X175686382Y-86376822D01*
X175681000Y-86413107D01*
X175681000Y-87224258D01*
X175667963Y-87356627D01*
X175633616Y-87469853D01*
X175616443Y-87526467D01*
X175542348Y-87665087D01*
X175532778Y-87682991D01*
X175503448Y-87718729D01*
X175420186Y-87820186D01*
X175282989Y-87932779D01*
X175126466Y-88016443D01*
X175069852Y-88033616D01*
X174956626Y-88067963D01*
X174780000Y-88085359D01*
X174603373Y-88067963D01*
X174490147Y-88033616D01*
X174433533Y-88016443D01*
X174277011Y-87932779D01*
X174277009Y-87932778D01*
X174241271Y-87903448D01*
X174139814Y-87820186D01*
X174027221Y-87682989D01*
X173943557Y-87526466D01*
X173926384Y-87469852D01*
X173892037Y-87356626D01*
X173879000Y-87224257D01*
X173879000Y-86335742D01*
X173892038Y-86203373D01*
X173943558Y-86033534D01*
X173943558Y-86033533D01*
X174027222Y-85877011D01*
X174027223Y-85877009D01*
X174056553Y-85841271D01*
X174139815Y-85739814D01*
X174261780Y-85639721D01*
X174277010Y-85627222D01*
X174294914Y-85617652D01*
X174433534Y-85543557D01*
X174490148Y-85526384D01*
X174603374Y-85492037D01*
X174780000Y-85474641D01*
X174956627Y-85492037D01*
X175069853Y-85526384D01*
X175126467Y-85543557D01*
X175265087Y-85617652D01*
X175282991Y-85627222D01*
X175306960Y-85646893D01*
X175424701Y-85743520D01*
X175445076Y-85757133D01*
X175467715Y-85766511D01*
X175491748Y-85771291D01*
X175516253Y-85771291D01*
X175540286Y-85766510D01*
X175562925Y-85757133D01*
X175583299Y-85743519D01*
X175600627Y-85726192D01*
X175614240Y-85705817D01*
X175623618Y-85683178D01*
X175629000Y-85646893D01*
X175629000Y-84835741D01*
X175642038Y-84703375D01*
X175642038Y-84703373D01*
X175693558Y-84533534D01*
X175693558Y-84533533D01*
X175777222Y-84377011D01*
X175777223Y-84377009D01*
X175806553Y-84341271D01*
X175889815Y-84239814D01*
X176022407Y-84131000D01*
X176027010Y-84127222D01*
X176095747Y-84090481D01*
X176183534Y-84043557D01*
X176240148Y-84026384D01*
X176353374Y-83992037D01*
X176530000Y-83974641D01*
X176706627Y-83992037D01*
X176706627Y-83992037D01*
G37*
G36*
X129720907Y-85450517D02*
X129810483Y-85468335D01*
X129979241Y-85538237D01*
X130112414Y-85627221D01*
X130131122Y-85639721D01*
X130260279Y-85768878D01*
X130260281Y-85768881D01*
X130361763Y-85920759D01*
X130431665Y-86089517D01*
X130431665Y-86089519D01*
X130454313Y-86203375D01*
X130467300Y-86268669D01*
X130467300Y-86451331D01*
X130431665Y-86630483D01*
X130361763Y-86799241D01*
X130361762Y-86799242D01*
X130260279Y-86951122D01*
X130131122Y-87080279D01*
X130131119Y-87080281D01*
X129979241Y-87181763D01*
X129810483Y-87251665D01*
X129720907Y-87269482D01*
X129631333Y-87287300D01*
X129448667Y-87287300D01*
X129359093Y-87269483D01*
X129269517Y-87251665D01*
X129100759Y-87181763D01*
X128948881Y-87080281D01*
X128948878Y-87080279D01*
X128819721Y-86951122D01*
X128718238Y-86799242D01*
X128718237Y-86799241D01*
X128648335Y-86630483D01*
X128612700Y-86451331D01*
X128612700Y-86268669D01*
X128625688Y-86203375D01*
X128648335Y-86089519D01*
X128648335Y-86089517D01*
X128718237Y-85920759D01*
X128819719Y-85768881D01*
X128819721Y-85768878D01*
X128948878Y-85639721D01*
X128967586Y-85627221D01*
X129100759Y-85538237D01*
X129269517Y-85468335D01*
X129359093Y-85450517D01*
X129448667Y-85432700D01*
X129631333Y-85432700D01*
X129720907Y-85450517D01*
X129720907Y-85450517D01*
G37*
G36*
X164010907Y-85450517D02*
X164100483Y-85468335D01*
X164269241Y-85538237D01*
X164402414Y-85627221D01*
X164421122Y-85639721D01*
X164550279Y-85768878D01*
X164550281Y-85768881D01*
X164651763Y-85920759D01*
X164721665Y-86089517D01*
X164721665Y-86089519D01*
X164744313Y-86203375D01*
X164757300Y-86268669D01*
X164757300Y-86451331D01*
X164721665Y-86630483D01*
X164651763Y-86799241D01*
X164651762Y-86799242D01*
X164550279Y-86951122D01*
X164421122Y-87080279D01*
X164421119Y-87080281D01*
X164269241Y-87181763D01*
X164100483Y-87251665D01*
X164010907Y-87269482D01*
X163921333Y-87287300D01*
X163738667Y-87287300D01*
X163649093Y-87269483D01*
X163559517Y-87251665D01*
X163390759Y-87181763D01*
X163238881Y-87080281D01*
X163238878Y-87080279D01*
X163109721Y-86951122D01*
X163008238Y-86799242D01*
X163008237Y-86799241D01*
X162938335Y-86630483D01*
X162902700Y-86451331D01*
X162902700Y-86268669D01*
X162915688Y-86203375D01*
X162938335Y-86089519D01*
X162938335Y-86089517D01*
X163008237Y-85920759D01*
X163109719Y-85768881D01*
X163109721Y-85768878D01*
X163238878Y-85639721D01*
X163257586Y-85627221D01*
X163390759Y-85538237D01*
X163559517Y-85468335D01*
X163649093Y-85450517D01*
X163738667Y-85432700D01*
X163921333Y-85432700D01*
X164010907Y-85450517D01*
X164010907Y-85450517D01*
G37*
G36*
X148770907Y-85450517D02*
X148860483Y-85468335D01*
X149029241Y-85538237D01*
X149162414Y-85627221D01*
X149181122Y-85639721D01*
X149310279Y-85768878D01*
X149310281Y-85768881D01*
X149411763Y-85920759D01*
X149481665Y-86089517D01*
X149481665Y-86089519D01*
X149504313Y-86203375D01*
X149517300Y-86268669D01*
X149517300Y-86451331D01*
X149481665Y-86630483D01*
X149411763Y-86799241D01*
X149411762Y-86799242D01*
X149310279Y-86951122D01*
X149181122Y-87080279D01*
X149181119Y-87080281D01*
X149029241Y-87181763D01*
X148860483Y-87251665D01*
X148770907Y-87269482D01*
X148681333Y-87287300D01*
X148498667Y-87287300D01*
X148409093Y-87269483D01*
X148319517Y-87251665D01*
X148150759Y-87181763D01*
X147998881Y-87080281D01*
X147998878Y-87080279D01*
X147869721Y-86951122D01*
X147768238Y-86799242D01*
X147768237Y-86799241D01*
X147698335Y-86630483D01*
X147662700Y-86451331D01*
X147662700Y-86268669D01*
X147675688Y-86203375D01*
X147698335Y-86089519D01*
X147698335Y-86089517D01*
X147768237Y-85920759D01*
X147869719Y-85768881D01*
X147869721Y-85768878D01*
X147998878Y-85639721D01*
X148017586Y-85627221D01*
X148150759Y-85538237D01*
X148319517Y-85468335D01*
X148409093Y-85450517D01*
X148498667Y-85432700D01*
X148681333Y-85432700D01*
X148770907Y-85450517D01*
X148770907Y-85450517D01*
G37*
G36*
X144960907Y-85450517D02*
X145050483Y-85468335D01*
X145219241Y-85538237D01*
X145352414Y-85627221D01*
X145371122Y-85639721D01*
X145500279Y-85768878D01*
X145500281Y-85768881D01*
X145601763Y-85920759D01*
X145671665Y-86089517D01*
X145671665Y-86089519D01*
X145694313Y-86203375D01*
X145707300Y-86268669D01*
X145707300Y-86451331D01*
X145671665Y-86630483D01*
X145601763Y-86799241D01*
X145601762Y-86799242D01*
X145500279Y-86951122D01*
X145371122Y-87080279D01*
X145371119Y-87080281D01*
X145219241Y-87181763D01*
X145050483Y-87251665D01*
X144960907Y-87269482D01*
X144871333Y-87287300D01*
X144688667Y-87287300D01*
X144599093Y-87269483D01*
X144509517Y-87251665D01*
X144340759Y-87181763D01*
X144188881Y-87080281D01*
X144188878Y-87080279D01*
X144059721Y-86951122D01*
X143958238Y-86799242D01*
X143958237Y-86799241D01*
X143888335Y-86630483D01*
X143852700Y-86451331D01*
X143852700Y-86268669D01*
X143865688Y-86203375D01*
X143888335Y-86089519D01*
X143888335Y-86089517D01*
X143958237Y-85920759D01*
X144059719Y-85768881D01*
X144059721Y-85768878D01*
X144188878Y-85639721D01*
X144207586Y-85627221D01*
X144340759Y-85538237D01*
X144509517Y-85468335D01*
X144599093Y-85450517D01*
X144688667Y-85432700D01*
X144871333Y-85432700D01*
X144960907Y-85450517D01*
X144960907Y-85450517D01*
G37*
G36*
X129720907Y-82910518D02*
X129810483Y-82928335D01*
X129979241Y-82998237D01*
X130079176Y-83065012D01*
X130131122Y-83099721D01*
X130260279Y-83228878D01*
X130260281Y-83228881D01*
X130361763Y-83380759D01*
X130431665Y-83549517D01*
X130467300Y-83728669D01*
X130467300Y-83911331D01*
X130431665Y-84090483D01*
X130361763Y-84259241D01*
X130361762Y-84259242D01*
X130260279Y-84411122D01*
X130131122Y-84540279D01*
X130131119Y-84540281D01*
X129979241Y-84641763D01*
X129810483Y-84711665D01*
X129720907Y-84729482D01*
X129631333Y-84747300D01*
X129448667Y-84747300D01*
X129359093Y-84729482D01*
X129269517Y-84711665D01*
X129100759Y-84641763D01*
X128948881Y-84540281D01*
X128948878Y-84540279D01*
X128819721Y-84411122D01*
X128718238Y-84259242D01*
X128718237Y-84259241D01*
X128648335Y-84090483D01*
X128612700Y-83911331D01*
X128612700Y-83728669D01*
X128648335Y-83549517D01*
X128718237Y-83380759D01*
X128819719Y-83228881D01*
X128819721Y-83228878D01*
X128948878Y-83099721D01*
X129000824Y-83065012D01*
X129100759Y-82998237D01*
X129269517Y-82928335D01*
X129359093Y-82910517D01*
X129448667Y-82892700D01*
X129631333Y-82892700D01*
X129720907Y-82910518D01*
X129720907Y-82910518D01*
G37*
G36*
X164010907Y-82910518D02*
X164100483Y-82928335D01*
X164269241Y-82998237D01*
X164369176Y-83065012D01*
X164421122Y-83099721D01*
X164550279Y-83228878D01*
X164550281Y-83228881D01*
X164651763Y-83380759D01*
X164721665Y-83549517D01*
X164757300Y-83728669D01*
X164757300Y-83911331D01*
X164721665Y-84090483D01*
X164651763Y-84259241D01*
X164651762Y-84259242D01*
X164550279Y-84411122D01*
X164421122Y-84540279D01*
X164421119Y-84540281D01*
X164269241Y-84641763D01*
X164100483Y-84711665D01*
X164010907Y-84729482D01*
X163921333Y-84747300D01*
X163738667Y-84747300D01*
X163649093Y-84729482D01*
X163559517Y-84711665D01*
X163390759Y-84641763D01*
X163238881Y-84540281D01*
X163238878Y-84540279D01*
X163109721Y-84411122D01*
X163008238Y-84259242D01*
X163008237Y-84259241D01*
X162938335Y-84090483D01*
X162902700Y-83911331D01*
X162902700Y-83728669D01*
X162938335Y-83549517D01*
X163008237Y-83380759D01*
X163109719Y-83228881D01*
X163109721Y-83228878D01*
X163238878Y-83099721D01*
X163290824Y-83065012D01*
X163390759Y-82998237D01*
X163559517Y-82928335D01*
X163649093Y-82910517D01*
X163738667Y-82892700D01*
X163921333Y-82892700D01*
X164010907Y-82910518D01*
X164010907Y-82910518D01*
G37*
G36*
X148770907Y-82910518D02*
X148860483Y-82928335D01*
X149029241Y-82998237D01*
X149129176Y-83065012D01*
X149181122Y-83099721D01*
X149310279Y-83228878D01*
X149310281Y-83228881D01*
X149411763Y-83380759D01*
X149481665Y-83549517D01*
X149517300Y-83728669D01*
X149517300Y-83911331D01*
X149481665Y-84090483D01*
X149411763Y-84259241D01*
X149411762Y-84259242D01*
X149310279Y-84411122D01*
X149181122Y-84540279D01*
X149181119Y-84540281D01*
X149029241Y-84641763D01*
X148860483Y-84711665D01*
X148770907Y-84729482D01*
X148681333Y-84747300D01*
X148498667Y-84747300D01*
X148409093Y-84729482D01*
X148319517Y-84711665D01*
X148150759Y-84641763D01*
X147998881Y-84540281D01*
X147998878Y-84540279D01*
X147869721Y-84411122D01*
X147768238Y-84259242D01*
X147768237Y-84259241D01*
X147698335Y-84090483D01*
X147662700Y-83911331D01*
X147662700Y-83728669D01*
X147698335Y-83549517D01*
X147768237Y-83380759D01*
X147869719Y-83228881D01*
X147869721Y-83228878D01*
X147998878Y-83099721D01*
X148050824Y-83065012D01*
X148150759Y-82998237D01*
X148319517Y-82928335D01*
X148409093Y-82910517D01*
X148498667Y-82892700D01*
X148681333Y-82892700D01*
X148770907Y-82910518D01*
X148770907Y-82910518D01*
G37*
G36*
X144960907Y-82910518D02*
X145050483Y-82928335D01*
X145219241Y-82998237D01*
X145319176Y-83065012D01*
X145371122Y-83099721D01*
X145500279Y-83228878D01*
X145500281Y-83228881D01*
X145601763Y-83380759D01*
X145671665Y-83549517D01*
X145707300Y-83728669D01*
X145707300Y-83911331D01*
X145671665Y-84090483D01*
X145601763Y-84259241D01*
X145601762Y-84259242D01*
X145500279Y-84411122D01*
X145371122Y-84540279D01*
X145371119Y-84540281D01*
X145219241Y-84641763D01*
X145050483Y-84711665D01*
X144960907Y-84729482D01*
X144871333Y-84747300D01*
X144688667Y-84747300D01*
X144599093Y-84729482D01*
X144509517Y-84711665D01*
X144340759Y-84641763D01*
X144188881Y-84540281D01*
X144188878Y-84540279D01*
X144059721Y-84411122D01*
X143958238Y-84259242D01*
X143958237Y-84259241D01*
X143888335Y-84090483D01*
X143852700Y-83911331D01*
X143852700Y-83728669D01*
X143888335Y-83549517D01*
X143958237Y-83380759D01*
X144059719Y-83228881D01*
X144059721Y-83228878D01*
X144188878Y-83099721D01*
X144240824Y-83065012D01*
X144340759Y-82998237D01*
X144509517Y-82928335D01*
X144599093Y-82910517D01*
X144688667Y-82892700D01*
X144871333Y-82892700D01*
X144960907Y-82910518D01*
X144960907Y-82910518D01*
G37*
G36*
X172869890Y-82854017D02*
X172988361Y-82903089D01*
X173094992Y-82974338D01*
X173185662Y-83065008D01*
X173185664Y-83065011D01*
X173185665Y-83065012D01*
X173208857Y-83099721D01*
X173256911Y-83171639D01*
X173305983Y-83290110D01*
X173331000Y-83415881D01*
X173331000Y-83544119D01*
X173305983Y-83669890D01*
X173256911Y-83788361D01*
X173185662Y-83894992D01*
X173094992Y-83985662D01*
X173094989Y-83985664D01*
X173094988Y-83985665D01*
X173008347Y-84043557D01*
X172988361Y-84056911D01*
X172869890Y-84105983D01*
X172744119Y-84131000D01*
X172615881Y-84131000D01*
X172490110Y-84105983D01*
X172371639Y-84056911D01*
X172351653Y-84043557D01*
X172265012Y-83985665D01*
X172265011Y-83985664D01*
X172265008Y-83985662D01*
X172174338Y-83894992D01*
X172103089Y-83788361D01*
X172054017Y-83669890D01*
X172029000Y-83544119D01*
X172029000Y-83415881D01*
X172054017Y-83290110D01*
X172103089Y-83171639D01*
X172151143Y-83099721D01*
X172174335Y-83065012D01*
X172174336Y-83065011D01*
X172174338Y-83065008D01*
X172265008Y-82974338D01*
X172371639Y-82903089D01*
X172490110Y-82854017D01*
X172615881Y-82829000D01*
X172744119Y-82829000D01*
X172869890Y-82854017D01*
X172869890Y-82854017D01*
G37*
G36*
X174619890Y-82854017D02*
X174738361Y-82903089D01*
X174844992Y-82974338D01*
X174935662Y-83065008D01*
X174935664Y-83065011D01*
X174935665Y-83065012D01*
X174958857Y-83099721D01*
X175006911Y-83171639D01*
X175055983Y-83290110D01*
X175081000Y-83415881D01*
X175081000Y-83544119D01*
X175055983Y-83669890D01*
X175006911Y-83788361D01*
X174935662Y-83894992D01*
X174844992Y-83985662D01*
X174844989Y-83985664D01*
X174844988Y-83985665D01*
X174758347Y-84043557D01*
X174738361Y-84056911D01*
X174619890Y-84105983D01*
X174494119Y-84131000D01*
X174365881Y-84131000D01*
X174240110Y-84105983D01*
X174121639Y-84056911D01*
X174101653Y-84043557D01*
X174015012Y-83985665D01*
X174015011Y-83985664D01*
X174015008Y-83985662D01*
X173924338Y-83894992D01*
X173853089Y-83788361D01*
X173804017Y-83669890D01*
X173779000Y-83544119D01*
X173779000Y-83415881D01*
X173804017Y-83290110D01*
X173853089Y-83171639D01*
X173901143Y-83099721D01*
X173924335Y-83065012D01*
X173924336Y-83065011D01*
X173924338Y-83065008D01*
X174015008Y-82974338D01*
X174121639Y-82903089D01*
X174240110Y-82854017D01*
X174365881Y-82829000D01*
X174494119Y-82829000D01*
X174619890Y-82854017D01*
X174619890Y-82854017D01*
G37*
G36*
X118664795Y-81420156D02*
X118771150Y-81441311D01*
X118841990Y-81470654D01*
X118971516Y-81524305D01*
X118971519Y-81524307D01*
X119138935Y-81636171D01*
X119151850Y-81644801D01*
X119305199Y-81798150D01*
X119305201Y-81798153D01*
X119305202Y-81798154D01*
X119353956Y-81871119D01*
X119425695Y-81978484D01*
X119445570Y-82026467D01*
X119508689Y-82178850D01*
X119509513Y-82182991D01*
X119551000Y-82391560D01*
X119551000Y-82608440D01*
X119508689Y-82821149D01*
X119425695Y-83021516D01*
X119425693Y-83021519D01*
X119325386Y-83171639D01*
X119305199Y-83201850D01*
X119151850Y-83355199D01*
X119151847Y-83355201D01*
X119151846Y-83355202D01*
X119061032Y-83415882D01*
X118971516Y-83475695D01*
X118841990Y-83529346D01*
X118771150Y-83558689D01*
X118664794Y-83579845D01*
X118558440Y-83601000D01*
X118341560Y-83601000D01*
X118235206Y-83579845D01*
X118128850Y-83558689D01*
X118058010Y-83529346D01*
X117928484Y-83475695D01*
X117838968Y-83415882D01*
X117748154Y-83355202D01*
X117748153Y-83355201D01*
X117748150Y-83355199D01*
X117594801Y-83201850D01*
X117574615Y-83171639D01*
X117474307Y-83021519D01*
X117474305Y-83021516D01*
X117391311Y-82821149D01*
X117349000Y-82608440D01*
X117349000Y-82391560D01*
X117390487Y-82182991D01*
X117391311Y-82178850D01*
X117454430Y-82026467D01*
X117474305Y-81978484D01*
X117546044Y-81871119D01*
X117594798Y-81798154D01*
X117594799Y-81798153D01*
X117594801Y-81798150D01*
X117748150Y-81644801D01*
X117761066Y-81636171D01*
X117928481Y-81524307D01*
X117928484Y-81524305D01*
X118058010Y-81470654D01*
X118128850Y-81441311D01*
X118235205Y-81420156D01*
X118341560Y-81399000D01*
X118558440Y-81399000D01*
X118664795Y-81420156D01*
X118664795Y-81420156D01*
G37*
G36*
X125674795Y-81420156D02*
X125781150Y-81441311D01*
X125851990Y-81470654D01*
X125981516Y-81524305D01*
X125981519Y-81524307D01*
X126148935Y-81636171D01*
X126161850Y-81644801D01*
X126315199Y-81798150D01*
X126315201Y-81798153D01*
X126315202Y-81798154D01*
X126363956Y-81871119D01*
X126435695Y-81978484D01*
X126455570Y-82026467D01*
X126518689Y-82178850D01*
X126519513Y-82182991D01*
X126561000Y-82391560D01*
X126561000Y-82608440D01*
X126518689Y-82821149D01*
X126435695Y-83021516D01*
X126435693Y-83021519D01*
X126335386Y-83171639D01*
X126315199Y-83201850D01*
X126161850Y-83355199D01*
X126161847Y-83355201D01*
X126161846Y-83355202D01*
X126071032Y-83415882D01*
X125981516Y-83475695D01*
X125851990Y-83529346D01*
X125781150Y-83558689D01*
X125674794Y-83579845D01*
X125568440Y-83601000D01*
X125351560Y-83601000D01*
X125245206Y-83579845D01*
X125138850Y-83558689D01*
X125068010Y-83529346D01*
X124938484Y-83475695D01*
X124848968Y-83415882D01*
X124758154Y-83355202D01*
X124758153Y-83355201D01*
X124758150Y-83355199D01*
X124604801Y-83201850D01*
X124584615Y-83171639D01*
X124484307Y-83021519D01*
X124484305Y-83021516D01*
X124401311Y-82821149D01*
X124359000Y-82608440D01*
X124359000Y-82391560D01*
X124400487Y-82182991D01*
X124401311Y-82178850D01*
X124464430Y-82026467D01*
X124484305Y-81978484D01*
X124556044Y-81871119D01*
X124604798Y-81798154D01*
X124604799Y-81798153D01*
X124604801Y-81798150D01*
X124758150Y-81644801D01*
X124771066Y-81636171D01*
X124938481Y-81524307D01*
X124938484Y-81524305D01*
X125068010Y-81470654D01*
X125138850Y-81441311D01*
X125245205Y-81420156D01*
X125351560Y-81399000D01*
X125568440Y-81399000D01*
X125674795Y-81420156D01*
X125674795Y-81420156D01*
G37*
G36*
X170756627Y-79992037D02*
X170869853Y-80026384D01*
X170926467Y-80043557D01*
X171034313Y-80101203D01*
X171082991Y-80127222D01*
X171118729Y-80156552D01*
X171220186Y-80239814D01*
X171303448Y-80341271D01*
X171332778Y-80377009D01*
X171332779Y-80377011D01*
X171416443Y-80533533D01*
X171416443Y-80533534D01*
X171467963Y-80703373D01*
X171481000Y-80835742D01*
X171481000Y-81724258D01*
X171467963Y-81856627D01*
X171433616Y-81969853D01*
X171416443Y-82026467D01*
X171376196Y-82101762D01*
X171332778Y-82182991D01*
X171312828Y-82207300D01*
X171220186Y-82320186D01*
X171082989Y-82432779D01*
X170926466Y-82516443D01*
X170869852Y-82533616D01*
X170756626Y-82567963D01*
X170580000Y-82585359D01*
X170403373Y-82567963D01*
X170290147Y-82533616D01*
X170233533Y-82516443D01*
X170077011Y-82432779D01*
X170077009Y-82432778D01*
X170026785Y-82391560D01*
X169939814Y-82320186D01*
X169827221Y-82182989D01*
X169743557Y-82026466D01*
X169726384Y-81969852D01*
X169692037Y-81856626D01*
X169679000Y-81724257D01*
X169679000Y-80835742D01*
X169692038Y-80703373D01*
X169743558Y-80533534D01*
X169743558Y-80533533D01*
X169827222Y-80377011D01*
X169827223Y-80377009D01*
X169856553Y-80341271D01*
X169939815Y-80239814D01*
X170041272Y-80156552D01*
X170077010Y-80127222D01*
X170125688Y-80101203D01*
X170233534Y-80043557D01*
X170290148Y-80026384D01*
X170403374Y-79992037D01*
X170580000Y-79974641D01*
X170756627Y-79992037D01*
X170756627Y-79992037D01*
G37*
G36*
X176706627Y-79992037D02*
X176819853Y-80026384D01*
X176876467Y-80043557D01*
X176984313Y-80101203D01*
X177032991Y-80127222D01*
X177068729Y-80156552D01*
X177170186Y-80239814D01*
X177253448Y-80341271D01*
X177282778Y-80377009D01*
X177282779Y-80377011D01*
X177366443Y-80533533D01*
X177366443Y-80533534D01*
X177417963Y-80703373D01*
X177431000Y-80835742D01*
X177431000Y-81724258D01*
X177417963Y-81856627D01*
X177383616Y-81969853D01*
X177366443Y-82026467D01*
X177326196Y-82101762D01*
X177282778Y-82182991D01*
X177262828Y-82207300D01*
X177170186Y-82320186D01*
X177032989Y-82432779D01*
X176876466Y-82516443D01*
X176819852Y-82533616D01*
X176706626Y-82567963D01*
X176530000Y-82585359D01*
X176353373Y-82567963D01*
X176240147Y-82533616D01*
X176183533Y-82516443D01*
X176027011Y-82432779D01*
X176027009Y-82432778D01*
X175976785Y-82391560D01*
X175889814Y-82320186D01*
X175777221Y-82182989D01*
X175693557Y-82026466D01*
X175676384Y-81969852D01*
X175642037Y-81856626D01*
X175629000Y-81724257D01*
X175629000Y-80835742D01*
X175642038Y-80703373D01*
X175693558Y-80533534D01*
X175693558Y-80533533D01*
X175777222Y-80377011D01*
X175777223Y-80377009D01*
X175806553Y-80341271D01*
X175889815Y-80239814D01*
X175991272Y-80156552D01*
X176027010Y-80127222D01*
X176075688Y-80101203D01*
X176183534Y-80043557D01*
X176240148Y-80026384D01*
X176353374Y-79992037D01*
X176530000Y-79974641D01*
X176706627Y-79992037D01*
X176706627Y-79992037D01*
G37*
G36*
X188704096Y-77557033D02*
X188704098Y-77557034D01*
X188704099Y-77557034D01*
X189168352Y-77749333D01*
X189573013Y-78019719D01*
X189586171Y-78028511D01*
X189941489Y-78383829D01*
X189941491Y-78383832D01*
X190220667Y-78801648D01*
X190391877Y-79214988D01*
X190412967Y-79265904D01*
X190511000Y-79758747D01*
X190511000Y-80261253D01*
X190417905Y-80729272D01*
X190412966Y-80754099D01*
X190220667Y-81218352D01*
X190016234Y-81524307D01*
X189941489Y-81636171D01*
X189586171Y-81991489D01*
X189586168Y-81991491D01*
X189168352Y-82270667D01*
X188704099Y-82462966D01*
X188704098Y-82462966D01*
X188704096Y-82462967D01*
X188211253Y-82561000D01*
X187708747Y-82561000D01*
X187215904Y-82462967D01*
X187215902Y-82462966D01*
X187215901Y-82462966D01*
X186751648Y-82270667D01*
X186333832Y-81991491D01*
X186333829Y-81991489D01*
X185978511Y-81636171D01*
X185903766Y-81524307D01*
X185699333Y-81218352D01*
X185507034Y-80754099D01*
X185502096Y-80729272D01*
X185409000Y-80261253D01*
X185409000Y-79758747D01*
X185507033Y-79265904D01*
X185528123Y-79214988D01*
X185699333Y-78801648D01*
X185978509Y-78383832D01*
X185978511Y-78383829D01*
X186333829Y-78028511D01*
X186346987Y-78019719D01*
X186751648Y-77749333D01*
X187215901Y-77557034D01*
X187215902Y-77557034D01*
X187215904Y-77557033D01*
X187708747Y-77459000D01*
X188211253Y-77459000D01*
X188704096Y-77557033D01*
X188704096Y-77557033D01*
G37*
G36*
X112504096Y-77557033D02*
X112504098Y-77557034D01*
X112504099Y-77557034D01*
X112968352Y-77749333D01*
X113373013Y-78019719D01*
X113386171Y-78028511D01*
X113741489Y-78383829D01*
X113741491Y-78383832D01*
X114020667Y-78801648D01*
X114191877Y-79214988D01*
X114212967Y-79265904D01*
X114311000Y-79758747D01*
X114311000Y-80261253D01*
X114217905Y-80729272D01*
X114212966Y-80754099D01*
X114020667Y-81218352D01*
X113816234Y-81524307D01*
X113741489Y-81636171D01*
X113386171Y-81991489D01*
X113386168Y-81991491D01*
X112968352Y-82270667D01*
X112504099Y-82462966D01*
X112504098Y-82462966D01*
X112504096Y-82462967D01*
X112011253Y-82561000D01*
X111508747Y-82561000D01*
X111015904Y-82462967D01*
X111015902Y-82462966D01*
X111015901Y-82462966D01*
X110551648Y-82270667D01*
X110133832Y-81991491D01*
X110133829Y-81991489D01*
X109778511Y-81636171D01*
X109703766Y-81524307D01*
X109499333Y-81218352D01*
X109307034Y-80754099D01*
X109302096Y-80729272D01*
X109209000Y-80261253D01*
X109209000Y-79758747D01*
X109307033Y-79265904D01*
X109328123Y-79214988D01*
X109499333Y-78801648D01*
X109778509Y-78383832D01*
X109778511Y-78383829D01*
X110133829Y-78028511D01*
X110146987Y-78019719D01*
X110551648Y-77749333D01*
X111015901Y-77557034D01*
X111015902Y-77557034D01*
X111015904Y-77557033D01*
X111508747Y-77459000D01*
X112011253Y-77459000D01*
X112504096Y-77557033D01*
X112504096Y-77557033D01*
G37*
G36*
X148770907Y-80370518D02*
X148860483Y-80388335D01*
X149029241Y-80458237D01*
X149179071Y-80558350D01*
X149181122Y-80559721D01*
X149310279Y-80688878D01*
X149310281Y-80688881D01*
X149411763Y-80840759D01*
X149481665Y-81009517D01*
X149481665Y-81009519D01*
X149517300Y-81188667D01*
X149517300Y-81371333D01*
X149503380Y-81441311D01*
X149481665Y-81550483D01*
X149411763Y-81719241D01*
X149359035Y-81798154D01*
X149310279Y-81871122D01*
X149181122Y-82000279D01*
X149181119Y-82000281D01*
X149029241Y-82101763D01*
X148860483Y-82171665D01*
X148803542Y-82182991D01*
X148681333Y-82207300D01*
X148498667Y-82207300D01*
X148376458Y-82182991D01*
X148319517Y-82171665D01*
X148150759Y-82101763D01*
X147998881Y-82000281D01*
X147998878Y-82000279D01*
X147869721Y-81871122D01*
X147820965Y-81798154D01*
X147768237Y-81719241D01*
X147698335Y-81550483D01*
X147676620Y-81441311D01*
X147662700Y-81371333D01*
X147662700Y-81188667D01*
X147698335Y-81009519D01*
X147698335Y-81009517D01*
X147768237Y-80840759D01*
X147869719Y-80688881D01*
X147869721Y-80688878D01*
X147998878Y-80559721D01*
X148000929Y-80558350D01*
X148150759Y-80458237D01*
X148319517Y-80388335D01*
X148409093Y-80370517D01*
X148498667Y-80352700D01*
X148681333Y-80352700D01*
X148770907Y-80370518D01*
X148770907Y-80370518D01*
G37*
G36*
X144960907Y-80370518D02*
X145050483Y-80388335D01*
X145219241Y-80458237D01*
X145369071Y-80558350D01*
X145371122Y-80559721D01*
X145500279Y-80688878D01*
X145500281Y-80688881D01*
X145601763Y-80840759D01*
X145671665Y-81009517D01*
X145671665Y-81009519D01*
X145707300Y-81188667D01*
X145707300Y-81371333D01*
X145693380Y-81441311D01*
X145671665Y-81550483D01*
X145601763Y-81719241D01*
X145549035Y-81798154D01*
X145500279Y-81871122D01*
X145371122Y-82000279D01*
X145371119Y-82000281D01*
X145219241Y-82101763D01*
X145050483Y-82171665D01*
X144993542Y-82182991D01*
X144871333Y-82207300D01*
X144688667Y-82207300D01*
X144566458Y-82182991D01*
X144509517Y-82171665D01*
X144340759Y-82101763D01*
X144188881Y-82000281D01*
X144188878Y-82000279D01*
X144059721Y-81871122D01*
X144010965Y-81798154D01*
X143958237Y-81719241D01*
X143888335Y-81550483D01*
X143866620Y-81441311D01*
X143852700Y-81371333D01*
X143852700Y-81188667D01*
X143888335Y-81009519D01*
X143888335Y-81009517D01*
X143958237Y-80840759D01*
X144059719Y-80688881D01*
X144059721Y-80688878D01*
X144188878Y-80559721D01*
X144190929Y-80558350D01*
X144340759Y-80458237D01*
X144509517Y-80388335D01*
X144599093Y-80370517D01*
X144688667Y-80352700D01*
X144871333Y-80352700D01*
X144960907Y-80370518D01*
X144960907Y-80370518D01*
G37*
G36*
X129720907Y-80370518D02*
X129810483Y-80388335D01*
X129979241Y-80458237D01*
X130129071Y-80558350D01*
X130131122Y-80559721D01*
X130260279Y-80688878D01*
X130260281Y-80688881D01*
X130361763Y-80840759D01*
X130431665Y-81009517D01*
X130431665Y-81009519D01*
X130467300Y-81188667D01*
X130467300Y-81371333D01*
X130453380Y-81441311D01*
X130431665Y-81550483D01*
X130361763Y-81719241D01*
X130309035Y-81798154D01*
X130260279Y-81871122D01*
X130131122Y-82000279D01*
X130131119Y-82000281D01*
X129979241Y-82101763D01*
X129810483Y-82171665D01*
X129753542Y-82182991D01*
X129631333Y-82207300D01*
X129448667Y-82207300D01*
X129326458Y-82182991D01*
X129269517Y-82171665D01*
X129100759Y-82101763D01*
X128948881Y-82000281D01*
X128948878Y-82000279D01*
X128819721Y-81871122D01*
X128770965Y-81798154D01*
X128718237Y-81719241D01*
X128648335Y-81550483D01*
X128626620Y-81441311D01*
X128612700Y-81371333D01*
X128612700Y-81188667D01*
X128648335Y-81009519D01*
X128648335Y-81009517D01*
X128718237Y-80840759D01*
X128819719Y-80688881D01*
X128819721Y-80688878D01*
X128948878Y-80559721D01*
X128950929Y-80558350D01*
X129100759Y-80458237D01*
X129269517Y-80388335D01*
X129359093Y-80370518D01*
X129448667Y-80352700D01*
X129631333Y-80352700D01*
X129720907Y-80370518D01*
X129720907Y-80370518D01*
G37*
G36*
X164010907Y-80370518D02*
X164100483Y-80388335D01*
X164269241Y-80458237D01*
X164419071Y-80558350D01*
X164421122Y-80559721D01*
X164550279Y-80688878D01*
X164550281Y-80688881D01*
X164651763Y-80840759D01*
X164721665Y-81009517D01*
X164721665Y-81009519D01*
X164757300Y-81188667D01*
X164757300Y-81371333D01*
X164743380Y-81441311D01*
X164721665Y-81550483D01*
X164651763Y-81719241D01*
X164599035Y-81798154D01*
X164550279Y-81871122D01*
X164421122Y-82000279D01*
X164421119Y-82000281D01*
X164269241Y-82101763D01*
X164100483Y-82171665D01*
X164043542Y-82182991D01*
X163921333Y-82207300D01*
X163738667Y-82207300D01*
X163616458Y-82182991D01*
X163559517Y-82171665D01*
X163390759Y-82101763D01*
X163238881Y-82000281D01*
X163238878Y-82000279D01*
X163109721Y-81871122D01*
X163060965Y-81798154D01*
X163008237Y-81719241D01*
X162938335Y-81550483D01*
X162916620Y-81441311D01*
X162902700Y-81371333D01*
X162902700Y-81188667D01*
X162938335Y-81009519D01*
X162938335Y-81009517D01*
X163008237Y-80840759D01*
X163109719Y-80688881D01*
X163109721Y-80688878D01*
X163238878Y-80559721D01*
X163240929Y-80558350D01*
X163390759Y-80458237D01*
X163559517Y-80388335D01*
X163649093Y-80370517D01*
X163738667Y-80352700D01*
X163921333Y-80352700D01*
X164010907Y-80370518D01*
X164010907Y-80370518D01*
G37*
G36*
X124730104Y-79119585D02*
X124898626Y-79189389D01*
X125050291Y-79290728D01*
X125179272Y-79419709D01*
X125280611Y-79571374D01*
X125350415Y-79739896D01*
X125386000Y-79918797D01*
X125386000Y-80101203D01*
X125350415Y-80280104D01*
X125280611Y-80448626D01*
X125179272Y-80600291D01*
X125050291Y-80729272D01*
X124898626Y-80830611D01*
X124730104Y-80900415D01*
X124551203Y-80936000D01*
X124368797Y-80936000D01*
X124189896Y-80900415D01*
X124021374Y-80830611D01*
X123869709Y-80729272D01*
X123740728Y-80600291D01*
X123639389Y-80448626D01*
X123569585Y-80280104D01*
X123534000Y-80101203D01*
X123534000Y-79918797D01*
X123569585Y-79739896D01*
X123639389Y-79571374D01*
X123740728Y-79419709D01*
X123869709Y-79290728D01*
X124021374Y-79189389D01*
X124189896Y-79119585D01*
X124368797Y-79084000D01*
X124551203Y-79084000D01*
X124730104Y-79119585D01*
X124730104Y-79119585D01*
G37*
G36*
X119730104Y-79119585D02*
X119898626Y-79189389D01*
X120050291Y-79290728D01*
X120179272Y-79419709D01*
X120280611Y-79571374D01*
X120350415Y-79739896D01*
X120386000Y-79918797D01*
X120386000Y-80101203D01*
X120350415Y-80280104D01*
X120280611Y-80448626D01*
X120179272Y-80600291D01*
X120050291Y-80729272D01*
X119898626Y-80830611D01*
X119730104Y-80900415D01*
X119551203Y-80936000D01*
X119368797Y-80936000D01*
X119189896Y-80900415D01*
X119021374Y-80830611D01*
X118869709Y-80729272D01*
X118740728Y-80600291D01*
X118639389Y-80448626D01*
X118569585Y-80280104D01*
X118534000Y-80101203D01*
X118534000Y-79918797D01*
X118569585Y-79739896D01*
X118639389Y-79571374D01*
X118740728Y-79419709D01*
X118869709Y-79290728D01*
X119021374Y-79189389D01*
X119189896Y-79119585D01*
X119368797Y-79084000D01*
X119551203Y-79084000D01*
X119730104Y-79119585D01*
X119730104Y-79119585D01*
G37*
G36*
X164010907Y-77830518D02*
X164100483Y-77848335D01*
X164269241Y-77918237D01*
X164269242Y-77918238D01*
X164421122Y-78019721D01*
X164550279Y-78148878D01*
X164550281Y-78148881D01*
X164651763Y-78300759D01*
X164721665Y-78469517D01*
X164726065Y-78491639D01*
X164757300Y-78648667D01*
X164757300Y-78831333D01*
X164750778Y-78864119D01*
X164721665Y-79010483D01*
X164651763Y-79179241D01*
X164577267Y-79290731D01*
X164550279Y-79331122D01*
X164421122Y-79460279D01*
X164421119Y-79460281D01*
X164269241Y-79561763D01*
X164100483Y-79631665D01*
X164010907Y-79649482D01*
X163921333Y-79667300D01*
X163738667Y-79667300D01*
X163649093Y-79649483D01*
X163559517Y-79631665D01*
X163390759Y-79561763D01*
X163238881Y-79460281D01*
X163238878Y-79460279D01*
X163109721Y-79331122D01*
X163082733Y-79290731D01*
X163008237Y-79179241D01*
X162938335Y-79010483D01*
X162909222Y-78864119D01*
X162902700Y-78831333D01*
X162902700Y-78648667D01*
X162933935Y-78491639D01*
X162938335Y-78469517D01*
X163008237Y-78300759D01*
X163109719Y-78148881D01*
X163109721Y-78148878D01*
X163238878Y-78019721D01*
X163390758Y-77918238D01*
X163390759Y-77918237D01*
X163559517Y-77848335D01*
X163649093Y-77830518D01*
X163738667Y-77812700D01*
X163921333Y-77812700D01*
X164010907Y-77830518D01*
X164010907Y-77830518D01*
G37*
G36*
X148770907Y-77830518D02*
X148860483Y-77848335D01*
X149029241Y-77918237D01*
X149029242Y-77918238D01*
X149181122Y-78019721D01*
X149310279Y-78148878D01*
X149310281Y-78148881D01*
X149411763Y-78300759D01*
X149481665Y-78469517D01*
X149486065Y-78491639D01*
X149517300Y-78648667D01*
X149517300Y-78831333D01*
X149510778Y-78864119D01*
X149481665Y-79010483D01*
X149411763Y-79179241D01*
X149337267Y-79290731D01*
X149310279Y-79331122D01*
X149181122Y-79460279D01*
X149181119Y-79460281D01*
X149029241Y-79561763D01*
X148860483Y-79631665D01*
X148770907Y-79649482D01*
X148681333Y-79667300D01*
X148498667Y-79667300D01*
X148409093Y-79649483D01*
X148319517Y-79631665D01*
X148150759Y-79561763D01*
X147998881Y-79460281D01*
X147998878Y-79460279D01*
X147869721Y-79331122D01*
X147842733Y-79290731D01*
X147768237Y-79179241D01*
X147698335Y-79010483D01*
X147669222Y-78864119D01*
X147662700Y-78831333D01*
X147662700Y-78648667D01*
X147693935Y-78491639D01*
X147698335Y-78469517D01*
X147768237Y-78300759D01*
X147869719Y-78148881D01*
X147869721Y-78148878D01*
X147998878Y-78019721D01*
X148150758Y-77918238D01*
X148150759Y-77918237D01*
X148319517Y-77848335D01*
X148409093Y-77830518D01*
X148498667Y-77812700D01*
X148681333Y-77812700D01*
X148770907Y-77830518D01*
X148770907Y-77830518D01*
G37*
G36*
X144960907Y-77830518D02*
X145050483Y-77848335D01*
X145219241Y-77918237D01*
X145219242Y-77918238D01*
X145371122Y-78019721D01*
X145500279Y-78148878D01*
X145500281Y-78148881D01*
X145601763Y-78300759D01*
X145671665Y-78469517D01*
X145676065Y-78491639D01*
X145707300Y-78648667D01*
X145707300Y-78831333D01*
X145700778Y-78864119D01*
X145671665Y-79010483D01*
X145601763Y-79179241D01*
X145527267Y-79290731D01*
X145500279Y-79331122D01*
X145371122Y-79460279D01*
X145371119Y-79460281D01*
X145219241Y-79561763D01*
X145050483Y-79631665D01*
X144960907Y-79649482D01*
X144871333Y-79667300D01*
X144688667Y-79667300D01*
X144599093Y-79649483D01*
X144509517Y-79631665D01*
X144340759Y-79561763D01*
X144188881Y-79460281D01*
X144188878Y-79460279D01*
X144059721Y-79331122D01*
X144032733Y-79290731D01*
X143958237Y-79179241D01*
X143888335Y-79010483D01*
X143859222Y-78864119D01*
X143852700Y-78831333D01*
X143852700Y-78648667D01*
X143883935Y-78491639D01*
X143888335Y-78469517D01*
X143958237Y-78300759D01*
X144059719Y-78148881D01*
X144059721Y-78148878D01*
X144188878Y-78019721D01*
X144340758Y-77918238D01*
X144340759Y-77918237D01*
X144509517Y-77848335D01*
X144599093Y-77830518D01*
X144688667Y-77812700D01*
X144871333Y-77812700D01*
X144960907Y-77830518D01*
X144960907Y-77830518D01*
G37*
G36*
X129720907Y-77830518D02*
X129810483Y-77848335D01*
X129979241Y-77918237D01*
X129979242Y-77918238D01*
X130131122Y-78019721D01*
X130260279Y-78148878D01*
X130260281Y-78148881D01*
X130361763Y-78300759D01*
X130431665Y-78469517D01*
X130436065Y-78491639D01*
X130467300Y-78648667D01*
X130467300Y-78831333D01*
X130460778Y-78864119D01*
X130431665Y-79010483D01*
X130361763Y-79179241D01*
X130287267Y-79290731D01*
X130260279Y-79331122D01*
X130131122Y-79460279D01*
X130131119Y-79460281D01*
X129979241Y-79561763D01*
X129810483Y-79631665D01*
X129720907Y-79649483D01*
X129631333Y-79667300D01*
X129448667Y-79667300D01*
X129359093Y-79649483D01*
X129269517Y-79631665D01*
X129100759Y-79561763D01*
X128948881Y-79460281D01*
X128948878Y-79460279D01*
X128819721Y-79331122D01*
X128792733Y-79290731D01*
X128718237Y-79179241D01*
X128648335Y-79010483D01*
X128619222Y-78864119D01*
X128612700Y-78831333D01*
X128612700Y-78648667D01*
X128643935Y-78491639D01*
X128648335Y-78469517D01*
X128718237Y-78300759D01*
X128819719Y-78148881D01*
X128819721Y-78148878D01*
X128948878Y-78019721D01*
X129100758Y-77918238D01*
X129100759Y-77918237D01*
X129269517Y-77848335D01*
X129359093Y-77830518D01*
X129448667Y-77812700D01*
X129631333Y-77812700D01*
X129720907Y-77830518D01*
X129720907Y-77830518D01*
G37*
G36*
X170756627Y-76992037D02*
X170869853Y-77026384D01*
X170926467Y-77043557D01*
X171016469Y-77091665D01*
X171082991Y-77127222D01*
X171087594Y-77131000D01*
X171220186Y-77239814D01*
X171303448Y-77341271D01*
X171332778Y-77377009D01*
X171332779Y-77377011D01*
X171416443Y-77533533D01*
X171416443Y-77533534D01*
X171467963Y-77703373D01*
X171481000Y-77835742D01*
X171481000Y-78724258D01*
X171467963Y-78856627D01*
X171465690Y-78864119D01*
X171416443Y-79026467D01*
X171366669Y-79119586D01*
X171332778Y-79182991D01*
X171306515Y-79214992D01*
X171220186Y-79320186D01*
X171082989Y-79432779D01*
X170926466Y-79516443D01*
X170869852Y-79533616D01*
X170756626Y-79567963D01*
X170580000Y-79585359D01*
X170403373Y-79567963D01*
X170290147Y-79533616D01*
X170233533Y-79516443D01*
X170077011Y-79432779D01*
X170077009Y-79432778D01*
X170008935Y-79376911D01*
X169939814Y-79320186D01*
X169827221Y-79182989D01*
X169743557Y-79026466D01*
X169726384Y-78969852D01*
X169692037Y-78856626D01*
X169679000Y-78724257D01*
X169679000Y-77835742D01*
X169692038Y-77703373D01*
X169736429Y-77557034D01*
X169743558Y-77533533D01*
X169827222Y-77377011D01*
X169827223Y-77377009D01*
X169856553Y-77341271D01*
X169939815Y-77239814D01*
X170072407Y-77131000D01*
X170077010Y-77127222D01*
X170143532Y-77091665D01*
X170233534Y-77043557D01*
X170290148Y-77026384D01*
X170403374Y-76992037D01*
X170580000Y-76974641D01*
X170756627Y-76992037D01*
X170756627Y-76992037D01*
G37*
G36*
X176706627Y-76992037D02*
X176819853Y-77026384D01*
X176876467Y-77043557D01*
X176966469Y-77091665D01*
X177032991Y-77127222D01*
X177037594Y-77131000D01*
X177170186Y-77239814D01*
X177253448Y-77341271D01*
X177282778Y-77377009D01*
X177282779Y-77377011D01*
X177366443Y-77533533D01*
X177366443Y-77533534D01*
X177417963Y-77703373D01*
X177431000Y-77835742D01*
X177431000Y-78724258D01*
X177417963Y-78856627D01*
X177415690Y-78864119D01*
X177366443Y-79026467D01*
X177316669Y-79119586D01*
X177282778Y-79182991D01*
X177256515Y-79214992D01*
X177170186Y-79320186D01*
X177032989Y-79432779D01*
X176876466Y-79516443D01*
X176819852Y-79533616D01*
X176706626Y-79567963D01*
X176530000Y-79585359D01*
X176353373Y-79567963D01*
X176240147Y-79533616D01*
X176183533Y-79516443D01*
X176027011Y-79432779D01*
X176027009Y-79432778D01*
X175958935Y-79376911D01*
X175889814Y-79320186D01*
X175777221Y-79182989D01*
X175693557Y-79026466D01*
X175676384Y-78969852D01*
X175642037Y-78856626D01*
X175629000Y-78724257D01*
X175629000Y-77835742D01*
X175642038Y-77703373D01*
X175686429Y-77557034D01*
X175693558Y-77533533D01*
X175777222Y-77377011D01*
X175777223Y-77377009D01*
X175806553Y-77341271D01*
X175889815Y-77239814D01*
X176022407Y-77131000D01*
X176027010Y-77127222D01*
X176093532Y-77091665D01*
X176183534Y-77043557D01*
X176240148Y-77026384D01*
X176353374Y-76992037D01*
X176530000Y-76974641D01*
X176706627Y-76992037D01*
X176706627Y-76992037D01*
G37*
G36*
X122149890Y-78174017D02*
X122268361Y-78223089D01*
X122374992Y-78294338D01*
X122465662Y-78385008D01*
X122465664Y-78385011D01*
X122465665Y-78385012D01*
X122522131Y-78469519D01*
X122536911Y-78491639D01*
X122585983Y-78610110D01*
X122611000Y-78735881D01*
X122611000Y-78864119D01*
X122585983Y-78989890D01*
X122536911Y-79108361D01*
X122536909Y-79108364D01*
X122482770Y-79189389D01*
X122465662Y-79214992D01*
X122374992Y-79305662D01*
X122374989Y-79305664D01*
X122374988Y-79305665D01*
X122336893Y-79331119D01*
X122268361Y-79376911D01*
X122149890Y-79425983D01*
X122024119Y-79451000D01*
X121895881Y-79451000D01*
X121770110Y-79425983D01*
X121651639Y-79376911D01*
X121583107Y-79331119D01*
X121545012Y-79305665D01*
X121545011Y-79305664D01*
X121545008Y-79305662D01*
X121454338Y-79214992D01*
X121437231Y-79189389D01*
X121383091Y-79108364D01*
X121383089Y-79108361D01*
X121334017Y-78989890D01*
X121309000Y-78864119D01*
X121309000Y-78735881D01*
X121334017Y-78610110D01*
X121383089Y-78491639D01*
X121397869Y-78469519D01*
X121454335Y-78385012D01*
X121454336Y-78385011D01*
X121454338Y-78385008D01*
X121545008Y-78294338D01*
X121651639Y-78223089D01*
X121770110Y-78174017D01*
X121895881Y-78149000D01*
X122024119Y-78149000D01*
X122149890Y-78174017D01*
X122149890Y-78174017D01*
G37*
G36*
X172869890Y-75854017D02*
X172988361Y-75903089D01*
X173094992Y-75974338D01*
X173185662Y-76065008D01*
X173256911Y-76171639D01*
X173305983Y-76290110D01*
X173331000Y-76415881D01*
X173331000Y-76544119D01*
X173305983Y-76669890D01*
X173256911Y-76788361D01*
X173185662Y-76894992D01*
X173094992Y-76985662D01*
X173094989Y-76985664D01*
X173094988Y-76985665D01*
X173008347Y-77043557D01*
X172988361Y-77056911D01*
X172869890Y-77105983D01*
X172744119Y-77131000D01*
X172615881Y-77131000D01*
X172490110Y-77105983D01*
X172371639Y-77056911D01*
X172351653Y-77043557D01*
X172265012Y-76985665D01*
X172265011Y-76985664D01*
X172265008Y-76985662D01*
X172174338Y-76894992D01*
X172103089Y-76788361D01*
X172054017Y-76669890D01*
X172029000Y-76544119D01*
X172029000Y-76415881D01*
X172054017Y-76290110D01*
X172103089Y-76171639D01*
X172174338Y-76065008D01*
X172265008Y-75974338D01*
X172371639Y-75903089D01*
X172490110Y-75854017D01*
X172615881Y-75829000D01*
X172744119Y-75829000D01*
X172869890Y-75854017D01*
X172869890Y-75854017D01*
G37*
G36*
X174619890Y-75854017D02*
X174738361Y-75903089D01*
X174844992Y-75974338D01*
X174935662Y-76065008D01*
X175006911Y-76171639D01*
X175055983Y-76290110D01*
X175081000Y-76415881D01*
X175081000Y-76544119D01*
X175055983Y-76669890D01*
X175006911Y-76788361D01*
X174935662Y-76894992D01*
X174844992Y-76985662D01*
X174844989Y-76985664D01*
X174844988Y-76985665D01*
X174758347Y-77043557D01*
X174738361Y-77056911D01*
X174619890Y-77105983D01*
X174494119Y-77131000D01*
X174365881Y-77131000D01*
X174240110Y-77105983D01*
X174121639Y-77056911D01*
X174101653Y-77043557D01*
X174015012Y-76985665D01*
X174015011Y-76985664D01*
X174015008Y-76985662D01*
X173924338Y-76894992D01*
X173853089Y-76788361D01*
X173804017Y-76669890D01*
X173779000Y-76544119D01*
X173779000Y-76415881D01*
X173804017Y-76290110D01*
X173853089Y-76171639D01*
X173924338Y-76065008D01*
X174015008Y-75974338D01*
X174121639Y-75903089D01*
X174240110Y-75854017D01*
X174365881Y-75829000D01*
X174494119Y-75829000D01*
X174619890Y-75854017D01*
X174619890Y-75854017D01*
G37*
G36*
X145707300Y-77127300D02*
X143852700Y-77127300D01*
X143852700Y-75272700D01*
X145707300Y-75272700D01*
X145707300Y-77127300D01*
X145707300Y-77127300D01*
G37*
G36*
X129720907Y-75290517D02*
X129810483Y-75308335D01*
X129979241Y-75378237D01*
X129979242Y-75378238D01*
X130131122Y-75479721D01*
X130260279Y-75608878D01*
X130260281Y-75608881D01*
X130361763Y-75760759D01*
X130431665Y-75929517D01*
X130431665Y-75929519D01*
X130458616Y-76065008D01*
X130467300Y-76108669D01*
X130467300Y-76291331D01*
X130431665Y-76470483D01*
X130361763Y-76639241D01*
X130361762Y-76639242D01*
X130260279Y-76791122D01*
X130131122Y-76920279D01*
X130131119Y-76920281D01*
X129979241Y-77021763D01*
X129810483Y-77091665D01*
X129738500Y-77105983D01*
X129631333Y-77127300D01*
X129448667Y-77127300D01*
X129341500Y-77105983D01*
X129269517Y-77091665D01*
X129100759Y-77021763D01*
X128948881Y-76920281D01*
X128948878Y-76920279D01*
X128819721Y-76791122D01*
X128718238Y-76639242D01*
X128718237Y-76639241D01*
X128648335Y-76470483D01*
X128612700Y-76291331D01*
X128612700Y-76108669D01*
X128621385Y-76065008D01*
X128648335Y-75929519D01*
X128648335Y-75929517D01*
X128718237Y-75760759D01*
X128819719Y-75608881D01*
X128819721Y-75608878D01*
X128948878Y-75479721D01*
X129100758Y-75378238D01*
X129100759Y-75378237D01*
X129269517Y-75308335D01*
X129359093Y-75290517D01*
X129448667Y-75272700D01*
X129631333Y-75272700D01*
X129720907Y-75290517D01*
X129720907Y-75290517D01*
G37*
G36*
X164010907Y-75290517D02*
X164100483Y-75308335D01*
X164269241Y-75378237D01*
X164269242Y-75378238D01*
X164421122Y-75479721D01*
X164550279Y-75608878D01*
X164550281Y-75608881D01*
X164651763Y-75760759D01*
X164721665Y-75929517D01*
X164721665Y-75929519D01*
X164748616Y-76065008D01*
X164757300Y-76108669D01*
X164757300Y-76291331D01*
X164721665Y-76470483D01*
X164651763Y-76639241D01*
X164651762Y-76639242D01*
X164550279Y-76791122D01*
X164421122Y-76920279D01*
X164421119Y-76920281D01*
X164269241Y-77021763D01*
X164100483Y-77091665D01*
X164028500Y-77105983D01*
X163921333Y-77127300D01*
X163738667Y-77127300D01*
X163631500Y-77105983D01*
X163559517Y-77091665D01*
X163390759Y-77021763D01*
X163238881Y-76920281D01*
X163238878Y-76920279D01*
X163109721Y-76791122D01*
X163008238Y-76639242D01*
X163008237Y-76639241D01*
X162938335Y-76470483D01*
X162902700Y-76291331D01*
X162902700Y-76108669D01*
X162911385Y-76065008D01*
X162938335Y-75929519D01*
X162938335Y-75929517D01*
X163008237Y-75760759D01*
X163109719Y-75608881D01*
X163109721Y-75608878D01*
X163238878Y-75479721D01*
X163390758Y-75378238D01*
X163390759Y-75378237D01*
X163559517Y-75308335D01*
X163649093Y-75290517D01*
X163738667Y-75272700D01*
X163921333Y-75272700D01*
X164010907Y-75290517D01*
X164010907Y-75290517D01*
G37*
G36*
X149517300Y-77127300D02*
X147662700Y-77127300D01*
X147662700Y-75272700D01*
X149517300Y-75272700D01*
X149517300Y-77127300D01*
X149517300Y-77127300D01*
G37*
M02*
